<svg width="50" height="50" viewBox="0 0 50 50" fill="none" xmlns="http://www.w3.org/2000/svg">
<path d="M18.75 3.125V9.375H21.875V3.125H18.75ZM25 4.6875V9.375H28.125V4.6875H25ZM9.375 10.9375V39.0625C9.375 41.6335 11.4915 43.75 14.0625 43.75H32.8125C35.3835 43.75 37.5 41.6335 37.5 39.0625V31.25H40.625C43.196 31.25 45.3125 29.1335 45.3125 26.5625V21.875C45.3125 19.304 43.196 17.1875 40.625 17.1875H37.5V10.9375H35.9375H9.375ZM12.5 14.0625H34.375V39.0625C34.375 39.929 33.679 40.625 32.8125 40.625H14.0625C13.196 40.625 12.5 39.929 12.5 39.0625V14.0625ZM27.7374 17.1783C27.0341 17.1833 25.506 17.3114 24.5392 18.277C24.1261 18.6901 23.8557 19.1165 23.6389 19.5404C22.4787 18.0551 21.0052 17.3401 21.0052 17.3401L19.6198 20.1385C19.6198 20.1385 21.0214 20.8926 21.6156 22.2382C19.9391 22.9556 18.75 24.625 18.75 26.5503C18.75 26.6312 18.7514 26.6943 18.7531 26.7365V26.7395V26.7426C18.7755 27.2896 18.7957 27.0398 18.7866 27.0538C18.7774 27.0679 18.3843 27.4955 17.9688 28.241V28.244C17.3096 29.4287 17.0273 30.8733 17.2852 32.3547C17.73 34.9135 19.7478 36.9473 22.3114 37.3993C26.1891 38.0835 29.6875 35.0539 29.6875 31.25C29.6875 30.073 29.3534 28.9631 28.7811 28.0273C28.4137 27.4255 28.1626 27.183 28.1036 27.1332C28.1024 27.0925 28.0995 27.0791 28.1128 26.9012H28.1097C28.1475 26.401 28.1044 25.8865 27.9785 25.3784C27.6167 23.925 26.5831 22.7736 25.235 22.2229C25.8564 21.7761 26.5128 21.271 27.0233 20.7611C28.3108 19.472 28.1128 17.1875 28.1128 17.1875C28.1128 17.1875 27.9719 17.1767 27.7374 17.1783ZM37.5 20.3125H40.625C41.4915 20.3125 42.1875 21.0085 42.1875 21.875V26.5625C42.1875 27.429 41.4915 28.125 40.625 28.125H37.5V20.3125ZM23.4375 24.9878C23.5465 24.9878 23.6602 24.9998 23.7823 25.0244C24.3044 25.1316 24.8186 25.6241 24.9451 26.1322C24.9935 26.329 25.0061 26.5049 24.9939 26.6663V26.6693C24.9656 27.0494 24.9554 27.3753 25.0153 27.7435C25.0752 28.1118 25.2544 28.5222 25.4333 28.7781C25.7912 29.2898 25.8726 29.2617 26.1139 29.657H26.1169C26.4008 30.1211 26.5625 30.6582 26.5625 31.25C26.5625 33.1826 24.9069 34.6864 22.8546 34.3231H22.8516C21.6402 34.1095 20.5728 33.0338 20.3613 31.8176C20.2254 31.0365 20.3687 30.3541 20.697 29.7638C20.9487 29.3123 21.0755 29.263 21.405 28.7567C21.7337 28.2518 21.9106 27.44 21.8781 26.6205V26.6144C21.8769 26.5791 21.875 26.5563 21.875 26.5503C21.875 25.6674 22.5546 24.9878 23.4375 24.9878Z" fill="#5D25B7"/>
</svg>
