<svg width="50" height="50" viewBox="0 0 50 50" fill="none" xmlns="http://www.w3.org/2000/svg">
<path d="M31.25 4.6875C24.0173 4.6875 17.9993 10.2051 17.2363 17.2363C10.199 17.9993 4.6875 24.0112 4.6875 31.25C4.6875 39.0015 10.9924 45.3125 18.75 45.3125C25.9888 45.3125 32.0007 39.801 32.7637 32.7637C39.7949 32.0007 45.3125 25.9827 45.3125 18.75C45.3125 11.0046 38.9954 4.6875 31.25 4.6875ZM31.25 7.8125C37.3108 7.8125 42.1875 12.6892 42.1875 18.75C42.1875 24.3103 38.0737 28.8757 32.7148 29.5898C32.5256 28.0334 32.0984 26.5564 31.4453 25.1953L29.0527 27.5879C29.4617 28.7354 29.6875 29.9622 29.6875 31.25C29.6875 37.2803 24.7803 42.1875 18.75 42.1875C12.7197 42.1875 7.8125 37.2803 7.8125 31.25C7.8125 25.2197 12.7197 20.3125 18.75 20.3125C20.0378 20.3125 21.2646 20.5383 22.4121 20.9473L24.8047 18.5547C23.4436 17.9016 21.9666 17.4744 20.4102 17.2852C21.1243 11.9263 25.6897 7.8125 31.25 7.8125ZM26.5625 14.0625V17.1875H30.5664L17.627 30.127L19.873 32.373L32.8125 19.4336V23.4375H35.9375V14.0625H26.5625Z" fill="#5D25B7"/>
</svg>
