<svg width="0" height="0" class="hidden">
  <symbol fill="none" xmlns="http://www.w3.org/2000/svg" viewBox="0 0 24 24" id="menu-svgrepo-com">
    <path d="M4 6H20M4 12H20M4 18H20" stroke="#000000" stroke-width="2" stroke-linecap="round" stroke-linejoin="round"></path>
  </symbol>
  <symbol fill="none" xmlns="http://www.w3.org/2000/svg" viewBox="0 0 50 50" id="branding">
    <path d="M18.75 3.125V9.375H21.875V3.125H18.75ZM25 4.6875V9.375H28.125V4.6875H25ZM9.375 10.9375V39.0625C9.375 41.6335 11.4915 43.75 14.0625 43.75H32.8125C35.3835 43.75 37.5 41.6335 37.5 39.0625V31.25H40.625C43.196 31.25 45.3125 29.1335 45.3125 26.5625V21.875C45.3125 19.304 43.196 17.1875 40.625 17.1875H37.5V10.9375H35.9375H9.375ZM12.5 14.0625H34.375V39.0625C34.375 39.929 33.679 40.625 32.8125 40.625H14.0625C13.196 40.625 12.5 39.929 12.5 39.0625V14.0625ZM27.7374 17.1783C27.0341 17.1833 25.506 17.3114 24.5392 18.277C24.1261 18.6901 23.8557 19.1165 23.6389 19.5404C22.4787 18.0551 21.0052 17.3401 21.0052 17.3401L19.6198 20.1385C19.6198 20.1385 21.0214 20.8926 21.6156 22.2382C19.9391 22.9556 18.75 24.625 18.75 26.5503C18.75 26.6312 18.7514 26.6943 18.7531 26.7365V26.7395V26.7426C18.7755 27.2896 18.7957 27.0398 18.7866 27.0538C18.7774 27.0679 18.3843 27.4955 17.9688 28.241V28.244C17.3096 29.4287 17.0273 30.8733 17.2852 32.3547C17.73 34.9135 19.7478 36.9473 22.3114 37.3993C26.1891 38.0835 29.6875 35.0539 29.6875 31.25C29.6875 30.073 29.3534 28.9631 28.7811 28.0273C28.4137 27.4255 28.1626 27.183 28.1036 27.1332C28.1024 27.0925 28.0995 27.0791 28.1128 26.9012H28.1097C28.1475 26.401 28.1044 25.8865 27.9785 25.3784C27.6167 23.925 26.5831 22.7736 25.235 22.2229C25.8564 21.7761 26.5128 21.271 27.0233 20.7611C28.3108 19.472 28.1128 17.1875 28.1128 17.1875C28.1128 17.1875 27.9719 17.1767 27.7374 17.1783ZM37.5 20.3125H40.625C41.4915 20.3125 42.1875 21.0085 42.1875 21.875V26.5625C42.1875 27.429 41.4915 28.125 40.625 28.125H37.5V20.3125ZM23.4375 24.9878C23.5465 24.9878 23.6602 24.9998 23.7823 25.0244C24.3044 25.1316 24.8186 25.6241 24.9451 26.1322C24.9935 26.329 25.0061 26.5049 24.9939 26.6663V26.6693C24.9656 27.0494 24.9554 27.3753 25.0153 27.7435C25.0752 28.1118 25.2544 28.5222 25.4333 28.7781C25.7912 29.2898 25.8726 29.2617 26.1139 29.657H26.1169C26.4008 30.1211 26.5625 30.6582 26.5625 31.25C26.5625 33.1826 24.9069 34.6864 22.8546 34.3231H22.8516C21.6402 34.1095 20.5728 33.0338 20.3613 31.8176C20.2254 31.0365 20.3687 30.3541 20.697 29.7638C20.9487 29.3123 21.0755 29.263 21.405 28.7567C21.7337 28.2518 21.9106 27.44 21.8781 26.6205V26.6144C21.8769 26.5791 21.875 26.5563 21.875 26.5503C21.875 25.6674 22.5546 24.9878 23.4375 24.9878Z" fill="#5D25B7"></path>
  </symbol>
  <symbol fill="none" xmlns="http://www.w3.org/2000/svg" viewBox="0 0 50 50" id="one_way_transition">
    <path d="M31.25 4.6875C24.0173 4.6875 17.9993 10.2051 17.2363 17.2363C10.199 17.9993 4.6875 24.0112 4.6875 31.25C4.6875 39.0015 10.9924 45.3125 18.75 45.3125C25.9888 45.3125 32.0007 39.801 32.7637 32.7637C39.7949 32.0007 45.3125 25.9827 45.3125 18.75C45.3125 11.0046 38.9954 4.6875 31.25 4.6875ZM31.25 7.8125C37.3108 7.8125 42.1875 12.6892 42.1875 18.75C42.1875 24.3103 38.0737 28.8757 32.7148 29.5898C32.5256 28.0334 32.0984 26.5564 31.4453 25.1953L29.0527 27.5879C29.4617 28.7354 29.6875 29.9622 29.6875 31.25C29.6875 37.2803 24.7803 42.1875 18.75 42.1875C12.7197 42.1875 7.8125 37.2803 7.8125 31.25C7.8125 25.2197 12.7197 20.3125 18.75 20.3125C20.0378 20.3125 21.2646 20.5383 22.4121 20.9473L24.8047 18.5547C23.4436 17.9016 21.9666 17.4744 20.4102 17.2852C21.1243 11.9263 25.6897 7.8125 31.25 7.8125ZM26.5625 14.0625V17.1875H30.5664L17.627 30.127L19.873 32.373L32.8125 19.4336V23.4375H35.9375V14.0625H26.5625Z" fill="#5D25B7"></path>
  </symbol>
  <symbol fill="none" xmlns="http://www.w3.org/2000/svg" viewBox="0 0 50 50" id="safe_browsing">
    <path d="M4.84569 6C3.27144 6 1.99999 7.32062 1.99999 8.89258V26.8633C1.98818 26.9514 1.98818 27.0408 1.99999 27.1289V34.8477C1.98149 34.9576 1.98149 35.0698 1.99999 35.1797V43C2.00002 43.2652 2.10538 43.5195 2.29291 43.7071C2.48044 43.8946 2.73478 44 2.99999 44H47C47.2652 44 47.5195 43.8946 47.7071 43.7071C47.8946 43.5195 48 43.2652 48 43V8.89258C48 7.32062 46.7285 6 45.1543 6H4.84569ZM4.84569 8H45.1543C45.62 8 46 8.37453 46 8.89258V18H3.99999V8.89258C3.99999 8.37453 4.37994 8 4.84569 8ZM19 10V11V16H43V10H19ZM7.99999 11C6.89499 11 5.99999 11.895 5.99999 13C5.99999 14.105 6.89499 15 7.99999 15C9.10499 15 9.99999 14.105 9.99999 13C9.99999 11.895 9.10499 11 7.99999 11ZM14 11C12.895 11 12 11.895 12 13C12 14.105 12.895 15 14 15C15.105 15 16 14.105 16 13C16 11.895 15.105 11 14 11ZM21 12H41V14H21V12ZM3.99999 20H46V42H3.99999V35.4141L7.70702 31.707C7.89449 31.5195 7.9998 31.2652 7.9998 31C7.9998 30.7348 7.89449 30.4805 7.70702 30.293L3.99999 26.5859V20ZM24.9844 21.9863C24.9153 21.9877 24.8466 21.9962 24.7793 22.0117C22.478 22.0681 20.3897 22.9914 18.8262 24.4707C18.6784 24.5573 18.5553 24.6803 18.4687 24.8281C16.991 26.391 16.0685 28.4778 16.0117 30.7773C15.9788 30.9226 15.9788 31.0735 16.0117 31.2188C16.0674 33.5134 16.9857 35.5959 18.457 37.1582C18.547 37.3186 18.6795 37.451 18.8398 37.541C20.4015 39.0126 22.4832 39.9316 24.7773 39.9883C24.9226 40.0212 25.0734 40.0212 25.2187 39.9883C27.5134 39.9326 29.5959 39.0143 31.1582 37.543C31.3186 37.453 31.451 37.3205 31.541 37.1602C33.0126 35.5985 33.9316 33.5168 33.9883 31.2227C34.0211 31.0774 34.0211 30.9265 33.9883 30.7812C33.9323 28.4757 33.005 26.385 31.5215 24.8203C31.4372 24.6785 31.3191 24.5597 31.1777 24.4746C29.612 22.9915 27.5193 22.0662 25.2129 22.0117C25.1379 21.9945 25.0613 21.986 24.9844 21.9863ZM24 24.0781V25C23.9981 25.1325 24.0226 25.2641 24.072 25.387C24.1214 25.51 24.1948 25.6219 24.2878 25.7163C24.3809 25.8107 24.4917 25.8856 24.614 25.9368C24.7363 25.9879 24.8675 26.0142 25 26.0142C25.1325 26.0142 25.2637 25.9879 25.386 25.9368C25.5082 25.8856 25.6191 25.8107 25.7122 25.7163C25.8052 25.6219 25.8786 25.51 25.928 25.387C25.9774 25.2641 26.0019 25.1325 26 25V24.0781C27.1874 24.2472 28.2742 24.7123 29.1894 25.3965L28.5351 26.0508C28.4392 26.1429 28.3626 26.2533 28.3098 26.3754C28.257 26.4976 28.2291 26.629 28.2278 26.762C28.2264 26.8951 28.2516 27.027 28.3019 27.1502C28.3522 27.2734 28.4266 27.3853 28.5206 27.4794C28.6147 27.5734 28.7266 27.6478 28.8498 27.6981C28.973 27.7484 29.1049 27.7736 29.238 27.7722C29.371 27.7709 29.5024 27.743 29.6246 27.6902C29.7467 27.6374 29.8571 27.5608 29.9492 27.4648L30.6035 26.8105C31.2877 27.7258 31.7528 28.8126 31.9219 30H31C30.8675 29.9981 30.7359 30.0226 30.6129 30.072C30.49 30.1214 30.3781 30.1948 30.2837 30.2878C30.1893 30.3809 30.1144 30.4918 30.0632 30.614C30.0121 30.7363 29.9857 30.8675 29.9857 31C29.9857 31.1325 30.0121 31.2637 30.0632 31.386C30.1144 31.5082 30.1893 31.6191 30.2837 31.7122C30.3781 31.8052 30.49 31.8786 30.6129 31.928C30.7359 31.9774 30.8675 32.0019 31 32H31.9219C31.7528 33.1874 31.2877 34.2742 30.6035 35.1895L29.9492 34.5352C29.856 34.4394 29.7446 34.3632 29.6215 34.3112C29.4983 34.2592 29.3661 34.2324 29.2324 34.2324C29.0335 34.2325 28.8391 34.2919 28.6741 34.403C28.5091 34.5141 28.3809 34.6719 28.3061 34.8562C28.2312 35.0405 28.213 35.243 28.2538 35.4377C28.2946 35.6324 28.3926 35.8105 28.5351 35.9492L29.1894 36.6035C28.2742 37.2877 27.1874 37.7528 26 37.9219V37C26.0018 36.8662 25.9768 36.7334 25.9264 36.6095C25.876 36.4855 25.8012 36.373 25.7065 36.2785C25.6118 36.1839 25.4991 36.1094 25.375 36.0592C25.251 36.009 25.1182 35.9842 24.9844 35.9863C24.7195 35.9905 24.4671 36.0995 24.2825 36.2896C24.098 36.4796 23.9964 36.7351 24 37V37.9219C22.8126 37.7528 21.7258 37.2877 20.8105 36.6035L21.4648 35.9492C21.6093 35.8088 21.708 35.6279 21.748 35.4304C21.788 35.2329 21.7673 35.0279 21.6888 34.8423C21.6102 34.6567 21.4775 34.4992 21.3078 34.3904C21.1382 34.2815 20.9397 34.2265 20.7383 34.2324C20.4785 34.2402 20.2319 34.3487 20.0508 34.5352L19.3965 35.1895C18.7123 34.2742 18.2472 33.1874 18.0781 32H19C19.1325 32.0019 19.2641 31.9774 19.387 31.928C19.51 31.8786 19.6219 31.8052 19.7163 31.7122C19.8107 31.6191 19.8856 31.5082 19.9367 31.386C19.9879 31.2637 20.0142 31.1325 20.0142 31C20.0142 30.8675 19.9879 30.7363 19.9367 30.614C19.8856 30.4918 19.8107 30.3809 19.7163 30.2878C19.6219 30.1948 19.51 30.1214 19.387 30.072C19.2641 30.0226 19.1325 29.9981 19 30H18.0781C18.2472 28.8126 18.7123 27.7258 19.3965 26.8105L20.0508 27.4648C20.1429 27.5608 20.2533 27.6374 20.3754 27.6902C20.4975 27.743 20.629 27.7709 20.762 27.7722C20.895 27.7736 21.027 27.7484 21.1502 27.6981C21.2734 27.6478 21.3853 27.5734 21.4793 27.4794C21.5734 27.3853 21.6478 27.2734 21.6981 27.1502C21.7484 27.027 21.7736 26.8951 21.7722 26.762C21.7709 26.629 21.743 26.4976 21.6902 26.3754C21.6374 26.2533 21.5608 26.1429 21.4648 26.0508L20.8105 25.3965C21.7258 24.7123 22.8126 24.2472 24 24.0781ZM25 28C24.0833 28 23.2685 28.3798 22.7519 28.9609C22.2353 29.5421 22 30.2778 22 31C22 31.7222 22.2353 32.4579 22.7519 33.0391C23.2685 33.6202 24.0833 34 25 34C25.9167 34 26.7314 33.6202 27.248 33.0391C27.7646 32.4579 28 31.7222 28 31C28 30.2778 27.7646 29.5421 27.248 28.9609C26.7314 28.3798 25.9167 28 25 28ZM3.99999 29.4141L5.58593 31L3.99999 32.5859V29.4141ZM25 30C25.4167 30 25.6019 30.1202 25.7519 30.2891C25.902 30.4579 26 30.7222 26 31C26 31.2778 25.902 31.5421 25.7519 31.7109C25.6019 31.8798 25.4167 32 25 32C24.5833 32 24.3981 31.8798 24.248 31.7109C24.098 31.5421 24 31.2778 24 31C24 30.7222 24.098 30.4579 24.248 30.2891C24.3981 30.1202 24.5833 30 25 30Z" fill="#5D25B7"></path>
  </symbol>
  <symbol fill="none" xmlns="http://www.w3.org/2000/svg" viewBox="0 0 50 50" id="transformation_skill">
    <path d="M38.2813 3.125L36.3739 9.8114L29.6875 11.7188L34.6527 13.1378L25.4578 22.3328L27.6673 24.5422L36.8622 15.3473L38.2813 20.3125L40.1886 13.6261L46.875 11.7188L40.1886 9.8114L38.2813 3.125ZM26.5625 4.6875C13.7063 4.6875 10.5175 15.2258 10.08 16.9586L5.90518 25.3235C5.4255 26.4391 5.41536 27.606 5.87161 28.5248C6.26693 29.3201 6.98656 29.8813 7.78812 30.0751C8.22874 30.2235 8.84222 30.4056 9.37503 30.5603V32.8125C9.37503 36.8281 13.1719 40.625 17.1875 40.625V45.3125H20.3125V37.5H17.1875C14.9094 37.5 12.5 35.0906 12.5 32.8125V28.183L11.3495 27.8687C11.3433 27.8671 9.67938 27.4127 8.67313 27.1393C8.65907 27.1002 8.63714 26.8872 8.74027 26.6388L12.9578 18.1976L13.0921 17.804C13.1764 17.3961 15.2438 7.8125 26.5625 7.8125C27.836 7.8125 29.0695 7.99119 30.243 8.30994L33.844 7.27844L34.076 6.46667C31.8025 5.34792 29.2657 4.6875 26.5625 4.6875ZM42.9688 18.75L41.7542 23.0042L37.5 24.2188L41.7542 25.4333L42.9688 29.6875L44.1834 25.4333L48.4375 24.2188L44.1834 23.0042L42.9688 18.75ZM39.1541 27.6825C38.8994 28.2653 38.6295 28.8481 38.3545 29.4403C37.167 31.995 35.9375 34.6337 35.9375 37.6587V45.3125H39.0625V37.6587C39.0625 35.8478 39.6849 34.1056 40.4755 32.3181L39.1541 27.6825Z" fill="#5D25B7"></path>
  </symbol>
</svg>