<svg width="50" height="50" viewBox="0 0 50 50" fill="none" xmlns="http://www.w3.org/2000/svg">
<path d="M38.2813 3.125L36.3739 9.8114L29.6875 11.7188L34.6527 13.1378L25.4578 22.3328L27.6673 24.5422L36.8622 15.3473L38.2813 20.3125L40.1886 13.6261L46.875 11.7188L40.1886 9.8114L38.2813 3.125ZM26.5625 4.6875C13.7063 4.6875 10.5175 15.2258 10.08 16.9586L5.90518 25.3235C5.4255 26.4391 5.41536 27.606 5.87161 28.5248C6.26693 29.3201 6.98656 29.8813 7.78812 30.0751C8.22874 30.2235 8.84222 30.4056 9.37503 30.5603V32.8125C9.37503 36.8281 13.1719 40.625 17.1875 40.625V45.3125H20.3125V37.5H17.1875C14.9094 37.5 12.5 35.0906 12.5 32.8125V28.183L11.3495 27.8687C11.3433 27.8671 9.67938 27.4127 8.67313 27.1393C8.65907 27.1002 8.63714 26.8872 8.74027 26.6388L12.9578 18.1976L13.0921 17.804C13.1764 17.3961 15.2438 7.8125 26.5625 7.8125C27.836 7.8125 29.0695 7.99119 30.243 8.30994L33.844 7.27844L34.076 6.46667C31.8025 5.34792 29.2657 4.6875 26.5625 4.6875ZM42.9688 18.75L41.7542 23.0042L37.5 24.2188L41.7542 25.4333L42.9688 29.6875L44.1834 25.4333L48.4375 24.2188L44.1834 23.0042L42.9688 18.75ZM39.1541 27.6825C38.8994 28.2653 38.6295 28.8481 38.3545 29.4403C37.167 31.995 35.9375 34.6337 35.9375 37.6587V45.3125H39.0625V37.6587C39.0625 35.8478 39.6849 34.1056 40.4755 32.3181L39.1541 27.6825Z" fill="#5D25B7"/>
</svg>
