<svg width="644" height="475" viewBox="0 0 644 475" fill="none" xmlns="http://www.w3.org/2000/svg">
<g clip-path="url(#clip0)">
<path d="M70.85 123.37H570.22" stroke="#DED8D5" stroke-width="1.9678" stroke-miterlimit="10"/>
<path d="M563.7 399.6H77.37C73.77 399.6 70.85 396.68 70.85 393.08V97.16C70.85 93.56 73.77 90.64 77.37 90.64H563.7C567.3 90.64 570.22 93.56 570.22 97.16V393.08C570.22 396.68 567.3 399.6 563.7 399.6Z" stroke="#DED8D5" stroke-width="1.9678" stroke-miterlimit="10"/>
<path d="M103.76 107.34C103.76 109.86 101.72 111.91 99.19 111.91C96.67 111.91 94.62 109.86 94.62 107.34C94.62 104.82 96.66 102.77 99.19 102.77C101.72 102.77 103.76 104.82 103.76 107.34Z" fill="#FFB1A5"/>
<path d="M121.51 107.34C121.51 109.86 119.46 111.91 116.94 111.91C114.42 111.91 112.37 109.86 112.37 107.34C112.37 104.82 114.42 102.77 116.94 102.77C119.47 102.77 121.51 104.82 121.51 107.34Z" fill="#EAD254"/>
<path d="M139.27 107.34C139.27 109.86 137.22 111.91 134.7 111.91C132.18 111.91 130.13 109.86 130.13 107.34C130.13 104.82 132.17 102.77 134.7 102.77C137.23 102.77 139.27 104.82 139.27 107.34Z" fill="#00857B"/>
<path d="M635.09 233.63H517.73C514.42 233.63 511.74 230.95 511.74 227.64V119.1C511.74 115.79 514.42 113.11 517.73 113.11H635.09C638.4 113.11 641.08 115.79 641.08 119.1V227.64C641.08 230.95 638.4 233.63 635.09 233.63Z" fill="#EDEDED"/>
<path d="M635.09 233.63H517.73C514.42 233.63 511.74 230.95 511.74 227.64V119.1C511.74 115.79 514.42 113.11 517.73 113.11H635.09C638.4 113.11 641.08 115.79 641.08 119.1V227.64C641.08 230.95 638.4 233.63 635.09 233.63Z" stroke="#DED8D5" stroke-width="1.9678" stroke-miterlimit="10"/>
<path d="M546.1 202.28H607.1C610.43 202.28 613.12 199.58 613.12 196.26V146.27C613.12 142.94 610.42 140.25 607.1 140.25H546.1C542.77 140.25 540.08 142.95 540.08 146.27V196.26C540.08 199.58 542.78 202.28 546.1 202.28Z" fill="#C98BD2"/>
<path d="M593.26 181.58H564.71H559.56V158.97H593.26V164.62V181.58Z" stroke="white" stroke-width="1.6466" stroke-miterlimit="10" stroke-linecap="round" stroke-linejoin="round"/>
<path d="M559.56 158.97L576.41 172.25L593.26 158.97" stroke="white" stroke-width="1.6466" stroke-miterlimit="10" stroke-linecap="round" stroke-linejoin="round"/>
<path d="M118.62 324.52H6.69999C3.53999 324.52 0.98999 321.96 0.98999 318.81V221.23C0.98999 218.07 3.54999 215.52 6.69999 215.52H118.63C121.79 215.52 124.34 218.08 124.34 221.23V318.81C124.34 321.96 121.78 324.52 118.62 324.52Z" fill="#EDEDED"/>
<path d="M118.62 324.52H6.69999C3.53999 324.52 0.98999 321.96 0.98999 318.81V221.23C0.98999 218.07 3.54999 215.52 6.69999 215.52H118.63C121.79 215.52 124.34 218.08 124.34 221.23V318.81C124.34 321.96 121.78 324.52 118.62 324.52Z" stroke="#DED8D5" stroke-width="1.9678" stroke-miterlimit="10"/>
<path d="M91.39 303.52H33.35C29.68 303.52 26.71 300.55 26.71 296.88V240.82C26.71 237.15 29.68 234.18 33.35 234.18H91.4C95.07 234.18 98.04 237.15 98.04 240.82V296.88C98.03 300.55 95.06 303.52 91.39 303.52Z" fill="#FFB1A5"/>
<path d="M48.55 255.24C40.72 263.07 40.72 275.93 48.55 283.76C56.38 291.59 69.24 291.59 77.07 283.76C84.9 275.93 84.9 263.07 77.07 255.24C69.23 247.41 56.38 247.41 48.55 255.24ZM77.02 258.14H70.59C69.95 256.12 69.12 254.1 68.09 252.08C71.65 253.16 74.75 255.31 77.02 258.14ZM55.4 268.32C55.4 265.71 55.71 263.11 56.36 260.5H69.26C69.9 263.11 70.21 265.71 70.22 268.32H55.4ZM70.13 270.68C69.95 273.29 69.48 275.89 68.74 278.5H56.86C56.12 275.89 55.65 273.29 55.47 270.68H70.13ZM62.81 251.3C63.78 251.3 64.73 251.38 65.66 251.52C66.9 253.73 67.86 255.93 68.58 258.14H57.03C57.75 255.93 58.72 253.73 59.95 251.52C60.88 251.38 61.84 251.3 62.81 251.3ZM57.52 252.08C56.5 254.1 55.67 256.12 55.02 258.14H48.59C50.86 255.31 53.96 253.16 57.52 252.08ZM46.99 260.5H54.35C53.7 263.11 53.37 265.71 53.32 268.32H44.65C44.83 265.49 45.66 262.83 46.99 260.5ZM46.99 278.49C45.66 276.16 44.83 273.5 44.65 270.67H53.35C53.48 273.28 53.89 275.88 54.58 278.49H46.99ZM48.59 280.85H55.28C55.95 282.89 56.78 284.94 57.77 286.98C54.1 285.93 50.91 283.75 48.59 280.85ZM62.81 287.69C62 287.69 61.21 287.64 60.43 287.54C59.32 285.31 58.37 283.08 57.61 280.86H68.02C67.26 283.09 66.31 285.32 65.2 287.54C64.41 287.64 63.61 287.69 62.81 287.69ZM67.85 286.98C68.84 284.94 69.67 282.89 70.34 280.85H77.03C74.7 283.75 71.51 285.93 67.85 286.98ZM78.62 278.49H71.03C71.72 275.88 72.13 273.28 72.26 270.67H80.96C80.78 273.51 79.95 276.16 78.62 278.49ZM80.96 268.32H72.29C72.24 265.71 71.9 263.11 71.26 260.5H78.62C79.95 262.83 80.78 265.49 80.96 268.32Z" fill="white"/>
<path d="M111.95 62.1301H10.55C8.46001 62.1301 6.76001 60.43 6.76001 58.34C6.76001 56.25 8.46001 54.55 10.55 54.55H111.95C114.04 54.55 115.74 56.25 115.74 58.34C115.75 60.43 114.05 62.1301 111.95 62.1301Z" fill="#C98BD2"/>
<path d="M639.22 309.81H590C587.91 309.81 586.21 308.11 586.21 306.02C586.21 303.93 587.91 302.23 590 302.23H639.22C641.31 302.23 643.01 303.93 643.01 306.02C643.02 308.11 641.32 309.81 639.22 309.81Z" fill="#56DFED"/>
<path d="M604.75 353.69H598.74C597.16 353.69 595.88 352.41 595.88 350.83V345.18C595.88 343.6 597.16 342.32 598.74 342.32H604.75C606.33 342.32 607.61 343.6 607.61 345.18V350.83C607.62 352.41 606.33 353.69 604.75 353.69Z" fill="#C98BD2"/>
<path d="M34.71 379.97H28.7C27.12 379.97 25.84 378.69 25.84 377.11V371.46C25.84 369.88 27.12 368.6 28.7 368.6H34.71C36.29 368.6 37.57 369.88 37.57 371.46V377.11C37.57 378.69 36.29 379.97 34.71 379.97Z" fill="#FFB1A5"/>
<path d="M494.98 58.21H394.9C393.24 58.21 391.89 56.86 391.89 55.2V30.76C391.89 29.1 393.24 27.75 394.9 27.75H494.98C496.64 27.75 497.99 29.1 497.99 30.76V55.2C497.99 56.86 496.65 58.21 494.98 58.21Z" fill="#FFB1A5"/>
<path d="M406.34 38.6H477.52" stroke="white" stroke-width="1.1803" stroke-miterlimit="10"/>
<path d="M406.34 45.91H435.33" stroke="white" stroke-width="1.1803" stroke-miterlimit="10"/>
<path d="M403.44 54.76V66.63L418.37 54.76H403.44Z" fill="#FFB1A5"/>
<path d="M249.09 60.02H200.64C195.93 60.02 192.12 56.21 192.12 51.5V6.46C192.12 2.89 195.01 0 198.58 0H249.09C252.66 0 255.55 2.89 255.55 6.46V53.56C255.55 57.13 252.66 60.02 249.09 60.02Z" fill="#56DFED"/>
<path d="M238.64 34.45L235.03 30.84C234.39 30.13 233.55 29.74 232.71 29.74C231.87 29.74 231.03 30.13 230.39 30.77L228.33 32.83C228.2 32.77 228.07 32.7 227.94 32.64C227.68 32.51 227.49 32.45 227.29 32.32C225.36 31.09 223.61 29.48 221.94 27.42C221.17 26.45 220.59 25.55 220.26 24.78C220.78 24.33 221.23 23.81 221.68 23.36C221.87 23.17 222.07 22.97 222.26 22.78C222.97 22.07 223.36 21.23 223.36 20.39C223.36 19.55 222.97 18.71 222.26 18L220.45 16.19C220.26 16 220.06 15.8 219.87 15.55C219.48 15.16 219.03 14.71 218.64 14.32C218 13.68 217.16 13.29 216.32 13.29C215.48 13.29 214.71 13.61 214 14.32L211.74 16.58C210.9 17.42 210.39 18.51 210.26 19.74C210.13 21.67 210.65 23.48 211.1 24.64C212.13 27.61 213.74 30.25 216.13 33.09C219.03 36.51 222.45 39.22 226.45 41.15C227.93 41.86 230 42.7 232.25 42.89C232.38 42.89 232.51 42.89 232.7 42.89C234.25 42.89 235.54 42.31 236.57 41.21C236.57 41.21 236.57 41.21 236.63 41.15C236.95 40.76 237.34 40.38 237.79 39.99C238.05 39.73 238.37 39.41 238.63 39.15C239.99 37.74 239.99 35.8 238.64 34.45ZM237.15 37.8C236.89 38.06 236.63 38.32 236.38 38.57C235.93 38.96 235.54 39.41 235.09 39.86C234.44 40.51 233.74 40.83 232.77 40.83C232.64 40.83 232.58 40.83 232.45 40.83C230.52 40.7 228.71 39.93 227.42 39.28C223.74 37.47 220.52 34.96 217.81 31.73C215.62 29.09 214.13 26.57 213.1 23.93C212.45 22.38 212.2 21.16 212.33 19.93C212.39 19.22 212.65 18.58 213.23 18.06L215.42 15.87C215.61 15.68 215.94 15.42 216.32 15.42C216.71 15.42 216.96 15.61 217.22 15.87C217.61 16.26 217.99 16.64 218.38 17.03C218.57 17.22 218.77 17.48 219.02 17.68L220.83 19.49C221.02 19.68 221.28 20.07 221.28 20.39C221.28 20.78 221.02 21.1 220.83 21.29C220.64 21.48 220.44 21.68 220.25 21.87C219.67 22.45 219.15 22.97 218.64 23.48C218.64 23.48 218.64 23.48 218.58 23.54C217.94 24.18 218.06 24.77 218.19 25.15V25.21C218.64 26.37 219.35 27.4 220.32 28.69C222.13 30.95 224.06 32.69 226.19 34.04C226.45 34.23 226.77 34.36 227.03 34.49C227.29 34.62 227.48 34.68 227.67 34.81L227.73 34.87C228.37 35.19 229.02 35.06 229.54 34.55L231.8 32.29C231.99 32.1 232.32 31.84 232.7 31.84C233.02 31.84 233.34 32.1 233.54 32.29L237.15 35.9C237.73 36.51 237.73 37.16 237.15 37.8Z" fill="white"/>
<path d="M459.84 287.28L423.34 282.42L423.63 286.04L392.42 290.2C392.42 290.2 372.3 340.67 390.03 451.66H415.42L424.56 339.11H427.8L436.65 451.66H462.04C479.76 340.67 459.84 287.28 459.84 287.28Z" fill="#8E716C"/>
<path d="M412.94 339.11H439.43" stroke="#282828" stroke-width="1.2333" stroke-miterlimit="10" stroke-linecap="round" stroke-linejoin="round"/>
<path d="M481.15 234.04C478.03 229.06 460.49 229.23 459.56 229.12C454.82 228.56 462.6 266.3 472.47 299.29C474.36 305.61 481.32 308.91 487.4 306.33C487.47 306.3 487.53 306.27 487.6 306.25C492.41 304.21 495.14 299.11 494.18 293.98C489.48 269.08 484.76 239.8 481.15 234.04Z" fill="#FFB1A5"/>
<path d="M485.33 247.68L462.94 256.37L460.84 245.75L484.03 239.96L485.33 247.68Z" fill="#F3978E"/>
<path d="M489.56 268.94C489.56 268.94 478.95 283.19 479.46 282.53C479.97 281.87 487.78 259.5 487.78 259.5L489.56 268.94Z" fill="#F3978E"/>
<path d="M504.73 249.79L474.32 289.19C470.33 294.36 471.6 301.84 477.08 305.4C482.55 308.95 489.89 307.08 493 301.35L518.31 254.65L504.73 249.79Z" fill="#FFB1A5"/>
<path d="M512.61 259.91C506.02 257.78 502.4 250.71 504.53 244.12C506.66 237.53 513.73 233.91 520.32 236.04C526.91 238.17 530.53 245.24 528.4 251.83C526.27 258.42 519.2 262.04 512.61 259.91Z" fill="#FFB1A5"/>
<path d="M525.61 240.43C525.61 240.43 529.04 236.87 522.95 234.37C516.86 231.87 509.33 232.44 504.52 244.12L525.61 240.43Z" fill="#FFB1A5"/>
<path d="M531.92 215.53L544.65 221.05C545.36 221.36 545.62 222.2 545.23 222.93L528.48 254.22C528.09 254.95 527.2 255.29 526.49 254.98L513.76 249.46C513.05 249.15 512.79 248.31 513.18 247.58L529.93 216.29C530.32 215.56 531.21 215.22 531.92 215.53Z" fill="#372F5F"/>
<path d="M530.7 214.97L543.43 220.49C544.14 220.8 544.4 221.64 544.01 222.37L527.26 253.66C526.87 254.39 525.98 254.73 525.27 254.42L512.54 248.9C511.83 248.59 511.57 247.75 511.96 247.02L528.71 215.73C529.1 215.01 529.99 214.67 530.7 214.97Z" fill="#261B43"/>
<path d="M529.27 218.16L540.45 223.01L526.8 248.51L515.61 243.66L529.27 218.16Z" fill="#E6E6E6"/>
<path d="M540.45 223.01L515.61 243.66L529.27 218.16L540.45 223.01Z" fill="white"/>
<path d="M519.3 233.33C519.3 233.33 522.14 233.88 524.69 235.33C525.82 235.97 526.39 237.27 526.08 238.53C525.8 239.68 524.83 240.53 523.66 240.68L517.04 241.51C517.04 241.51 513.59 247.46 509.07 248.13L513.21 237.68L519.3 233.33Z" fill="#FFB1A5"/>
<path d="M434.75 184.42C434.02 184.42 481.7 191.02 489.56 245.37L464.82 249.16L459.83 290.2H390.81L377.11 214.38C377.11 214.38 392.4 192.47 420.79 184.42H434.75Z" fill="#56DFED"/>
<path d="M464.82 249.16L466.97 225.43" stroke="#282828" stroke-width="1.2333" stroke-miterlimit="10" stroke-linecap="round" stroke-linejoin="round"/>
<path d="M439.28 185.19V166.31H417.15V185.41C416.02 185.75 414.13 186.43 411.21 187.82L428.47 198.1L446.11 187.82C446.11 187.83 443.31 186.2 439.28 185.19Z" fill="#FFB1A5"/>
<path d="M416.95 168.62C416.95 168.62 420.92 179.17 431.53 178.26C441.28 177.42 439.73 162.8 439.73 162.8L416.95 168.62Z" fill="#282828"/>
<path d="M407.3 154.59C403.83 157.74 396.08 145.8 399.43 142.45C402.78 139.1 405.34 144.36 405.34 144.36L406.84 147.92L407.97 152.74L408.24 154L407.3 154.59Z" fill="#F3978E"/>
<path d="M401.05 146.68C401.05 146.68 403.68 145.5 406.01 149.3" stroke="#282828" stroke-width="0.9928" stroke-miterlimit="10" stroke-linecap="round" stroke-linejoin="round"/>
<path d="M448.31 154.23C451.5 157.66 460.24 146.42 457.18 142.8C454.12 139.18 451.13 144.2 451.13 144.2L449.34 147.62L447.81 152.33L447.44 153.57L448.31 154.23Z" fill="#F3978E"/>
<path d="M455.21 146.87C455.21 146.87 452.69 145.47 450.05 149.07" stroke="#282828" stroke-width="0.9928" stroke-miterlimit="10" stroke-linecap="round" stroke-linejoin="round"/>
<path d="M401.22 131.07C401.22 146.86 413.26 154.35 428.12 154.35C442.98 154.35 455.02 146.86 455.02 131.07C455.02 115.28 442.98 104.53 428.12 104.53C413.26 104.53 401.22 115.28 401.22 131.07Z" fill="#282828"/>
<path d="M404.87 132.17C404.87 141.87 406.24 150.23 407.61 156.17C408.95 161.98 412.72 166.05 418.04 169.32L419.01 169.92C424.64 173.38 431.92 173.46 437.64 170.13C443.41 166.77 447.45 162.33 448.69 156.09C450.95 144.74 451.2 132.18 451.2 132.18C451.2 132.18 453.35 107.7 428.37 108.18C403.38 108.64 404.87 132.17 404.87 132.17Z" fill="#FFB1A5"/>
<path d="M426.52 146.14V149.53C426.52 149.73 426.56 149.92 426.63 150.1C426.91 150.79 427.71 151.12 428.43 150.93L429.98 150.52" stroke="#282828" stroke-width="1.2316" stroke-miterlimit="10" stroke-linecap="round" stroke-linejoin="round"/>
<path d="M422.55 133L410.13 135.91C410.13 135.91 410.69 132.75 415.77 131.6C420.86 130.46 422.55 133 422.55 133Z" fill="#282828"/>
<path d="M433.57 133L445.56 135.91C445.56 135.91 445.02 132.75 440.11 131.6C435.2 130.46 433.57 133 433.57 133Z" fill="#282828"/>
<path d="M417.83 144.21C418.984 144.21 419.92 143.274 419.92 142.12C419.92 140.966 418.984 140.03 417.83 140.03C416.676 140.03 415.74 140.966 415.74 142.12C415.74 143.274 416.676 144.21 417.83 144.21Z" fill="#282828"/>
<path d="M439.78 142.12C439.78 143.27 438.84 144.21 437.69 144.21C436.53 144.21 435.6 143.27 435.6 142.12C435.6 140.97 436.54 140.03 437.69 140.03C438.84 140.04 439.78 140.97 439.78 142.12Z" fill="#282828"/>
<path d="M419.93 154.87H436.08C436.07 154.87 428.92 163.57 419.93 154.87Z" fill="white"/>
<path d="M423.243 149.234C426.719 145.758 426.719 140.123 423.243 136.648C419.767 133.172 414.132 133.172 410.657 136.648C407.181 140.123 407.181 145.758 410.657 149.234C414.132 152.71 419.767 152.71 423.243 149.234Z" stroke="#C98BD2" stroke-width="1.3423" stroke-miterlimit="10"/>
<path d="M445.122 149.231C448.597 145.756 448.597 140.121 445.122 136.645C441.646 133.169 436.011 133.169 432.535 136.645C429.06 140.121 429.06 145.756 432.535 149.231C436.011 152.707 441.646 152.707 445.122 149.231Z" stroke="#C98BD2" stroke-width="1.3423" stroke-miterlimit="10"/>
<path d="M425.86 142.94C425.86 142.94 427.97 140.97 429.93 142.94" stroke="#C98BD2" stroke-width="1.3423" stroke-miterlimit="10"/>
<path d="M408.05 142.94L405.24 142.86" stroke="#C98BD2" stroke-width="1.3423" stroke-miterlimit="10"/>
<path d="M447.73 142.94L450.55 142.86" stroke="#C98BD2" stroke-width="1.3423" stroke-miterlimit="10"/>
<path d="M450.88 140.28C450.88 140.28 440.89 126.78 443.19 113.09C443.19 113.09 450.6 116.82 452.54 126.45C454.47 136.09 450.88 140.28 450.88 140.28Z" fill="#282828"/>
<path d="M404.86 141.2C404.86 141.2 416.46 125.86 414.16 112.18C414.16 112.18 406.11 116.83 404.18 126.46C402.25 136.09 404.86 141.2 404.86 141.2Z" fill="#282828"/>
<path d="M450.04 118.49C450.04 118.49 437.21 132.53 402.12 130.13C402.12 130.13 407.49 109.52 424.5 107.33C424.5 107.32 444.14 104.98 450.04 118.49Z" fill="#282828"/>
<path d="M465.707 104.759C467.182 95.6215 460.971 87.0177 451.833 85.5423C442.695 84.0668 434.091 90.2784 432.616 99.4162C431.14 108.554 437.352 117.158 446.49 118.633C455.628 120.109 464.231 113.897 465.707 104.759Z" fill="#282828"/>
<path d="M244.6 287.24L213.39 283.08L213.68 279.46L177.18 284.32C177.18 284.32 157.26 337.71 174.99 448.7H200.38L209.23 336.15H212.47L221.61 448.7H247C264.72 337.71 244.6 287.24 244.6 287.24Z" fill="#282828"/>
<path d="M242.11 135.4C237.89 130.43 234.5 124.63 231.63 116.5C228.54 107.77 218.44 111.32 218.44 111.32C218.44 111.32 210.02 100.49 197.35 104.26C184.68 108.03 180.28 117.05 180.02 127.77C179.76 138.49 171.33 140.16 164.84 152.56C153.38 174.45 172.67 192.89 207.8 187.77L207.85 187.43C211.31 188.48 215.55 188.94 220.72 188.63C262.92 186.12 258.85 155.09 242.11 135.4Z" fill="#282828"/>
<path d="M228.29 151.63C231.76 154.78 239.51 142.84 236.16 139.49C232.81 136.14 230.25 141.4 230.25 141.4L228.75 144.96L227.62 149.78L227.35 151.04L228.29 151.63Z" fill="#F3978E"/>
<path d="M234.55 143.72C234.55 143.72 231.92 142.54 229.59 146.34" stroke="#282828" stroke-width="0.9928" stroke-miterlimit="10" stroke-linecap="round" stroke-linejoin="round"/>
<path d="M187.28 151.27C184.09 154.7 175.35 143.46 178.41 139.84C181.47 136.22 184.46 141.24 184.46 141.24L186.25 144.66L187.78 149.37L188.15 150.61L187.28 151.27Z" fill="#F3978E"/>
<path d="M180.38 143.91C180.38 143.91 182.9 142.51 185.54 146.11" stroke="#282828" stroke-width="0.9928" stroke-miterlimit="10" stroke-linecap="round" stroke-linejoin="round"/>
<path d="M234.38 128.11C234.38 143.9 222.34 151.39 207.48 151.39C192.62 151.39 180.58 143.9 180.58 128.11C180.58 112.32 192.62 101.57 207.48 101.57C222.34 101.57 234.38 112.32 234.38 128.11Z" fill="#282828"/>
<path d="M218.44 163.35H196.31V192H218.44V163.35Z" fill="#FFB1A5"/>
<path d="M193.09 161.57C193.09 161.57 199.25 173.86 206.83 175.78C208.85 176.29 211.02 176.12 212.97 175.43C215.82 174.42 219.44 170.17 220.05 165.46L220.34 162.77C220.33 162.77 206.84 170.11 193.09 161.57Z" fill="#282828"/>
<path d="M230.72 129.21C230.72 138.91 229.35 147.27 227.98 153.21C226.64 159.02 222.87 163.09 217.55 166.36L216.58 166.96C210.95 170.42 203.67 170.5 197.95 167.17C192.18 163.81 188.14 159.37 186.9 153.13C184.64 141.78 184.39 129.22 184.39 129.22C184.39 129.22 182.24 104.74 207.22 105.22C232.2 105.7 230.72 129.21 230.72 129.21Z" fill="#FFB1A5"/>
<path d="M205.81 144.5V146.51C205.81 146.71 205.85 146.9 205.92 147.08C206.2 147.77 207 148.1 207.72 147.91L209.27 147.5" stroke="#282828" stroke-width="1.2298" stroke-miterlimit="10" stroke-linecap="round" stroke-linejoin="round"/>
<path d="M211.02 131.24L224.31 134.39C224.31 134.39 223.71 130.97 218.27 129.73C212.83 128.49 211.02 131.24 211.02 131.24Z" fill="#282828"/>
<path d="M204.04 131.24L190.58 134.39C190.58 134.39 191.19 130.97 196.7 129.73C202.2 128.48 204.04 131.24 204.04 131.24Z" fill="#282828"/>
<path d="M199.22 139.49C199.22 140.64 198.28 141.57 197.13 141.57C195.97 141.57 195.04 140.64 195.04 139.49C195.04 138.34 195.98 137.41 197.13 137.41C198.28 137.4 199.22 138.34 199.22 139.49Z" fill="#282828"/>
<path d="M219.07 139.49C219.07 140.64 218.13 141.57 216.98 141.57C215.82 141.57 214.89 140.64 214.89 139.49C214.89 138.34 215.83 137.41 216.98 137.41C218.13 137.4 219.07 138.34 219.07 139.49Z" fill="#282828"/>
<path d="M197.83 151.39H216.21C216.21 151.39 214.91 156.44 206.58 156.44C200.23 156.44 197.83 151.39 197.83 151.39Z" fill="white"/>
<path d="M184.71 137.32C184.71 137.32 194.7 123.82 192.4 110.13C192.4 110.13 184.99 113.86 183.05 123.49C181.12 133.13 184.71 137.32 184.71 137.32Z" fill="#282828"/>
<path d="M230.74 136.88C230.74 136.88 219.14 122.91 221.44 109.23C221.44 109.23 229.49 113.88 231.42 123.51C233.35 133.13 230.74 136.88 230.74 136.88Z" fill="#282828"/>
<path d="M185.55 115.53C185.55 115.53 197.01 130.94 232.11 128.53C232.11 128.53 228.1 106.56 211.09 104.37C211.09 104.37 191.45 102.02 185.55 115.53Z" fill="#282828"/>
<path d="M153.56 355.01C153.05 355.81 182.77 225.71 173.95 227.67C173.14 227.85 157.69 229.28 155.4 233.95C148.74 247.49 143.97 354.02 143.97 354.02L153.56 355.01Z" fill="#FFB1A5"/>
<path d="M143.96 354.02C143.96 354.02 139.17 376.24 157.28 378.67C158.47 378.83 159.63 378.13 160.02 376.99L160.07 376.84C160.5 375.58 159.87 374.24 158.66 373.7C155.71 372.38 151.13 369.04 153.4 361.47C153.4 361.47 156.02 361.15 157.46 366.03C157.83 367.29 159.24 367.92 160.41 367.33C161.21 366.93 161.66 366.07 161.55 365.18C161.12 361.76 159.4 353.53 152.8 351.32L143.96 354.02Z" fill="#FFB1A5"/>
<path d="M150.05 265.22C150.05 265.22 167.17 289.33 167.26 288.87C167.35 288.4 173.25 255.01 173.25 255.01L152.47 246.01L150.05 265.22Z" fill="#F3978E"/>
<path d="M197.63 187.29C198.36 187.29 155.31 188.06 147.44 242.41L172.18 246.2L177.17 287.24H246.19L259.89 211.42C259.89 211.42 250.15 194.99 221.76 186.95L197.63 187.29Z" fill="#00857B"/>
<path d="M176.59 193.86C176.59 193.86 182.67 201.94 207.6 201.94C232.3 201.94 238.61 193.44 238.61 193.44C238.61 193.44 224.05 185.31 207.16 182.67C207.16 182.67 192.08 185.36 176.59 193.86Z" fill="#FFB1A5"/>
<path d="M261.29 366.06L261.35 474.47H314.98L319.1 366.06H261.29Z" fill="#005683"/>
<path d="M377.73 366.06L377.67 474.47H324.04L319.92 366.06H377.73Z" fill="#005683"/>
<path d="M348.44 366.06H292.99V403.72H348.44V366.06Z" fill="#005683"/>
<path d="M300.74 403.72H338.98" stroke="#282828" stroke-width="1.3968" stroke-miterlimit="10" stroke-linecap="round" stroke-linejoin="round"/>
<path d="M411.61 271.46C414.94 308.19 411.43 334.96 412.4 402.55L380.39 403.89L375.62 277.37L411.61 271.46Z" fill="#FFB1A5"/>
<path d="M379.57 300.12C379.57 300.12 399.39 298.31 412.94 289.37L412.58 281.5L379.55 286L379.57 300.12Z" fill="#F3978E"/>
<path d="M347.77 186.88C347.77 186.88 410.73 202.71 422.14 282.63C422.14 282.63 391.33 295.99 360.45 290.24L367.4 263.51L347.77 186.88Z" fill="#C98BD2"/>
<path d="M159.71 220.11L206.59 275.47L192.24 315.87C192.24 315.87 156.61 266.33 140.6 228.04L159.71 220.11Z" fill="#FFB1A5"/>
<path d="M161.25 222.11C161.25 222.11 144.79 231.41 140.6 228.05C133.28 222.17 127.24 200.65 127.24 200.65C127.24 200.65 158.02 189.05 157.73 189.5C157.44 189.95 161.25 222.11 161.25 222.11Z" fill="#FFB1A5"/>
<path d="M161.25 222.11C160.96 220.45 167.35 202.58 169.55 195.87C170.08 194.25 168.96 192.48 167.21 192.14C166.07 191.92 164.26 192.06 163.4 193.7L155.68 206.9L161.25 222.11Z" fill="#FFB1A5"/>
<path d="M160.68 202.78L155.38 176.41C155.07 174.66 153.3 173.45 151.54 173.78C150.02 174.07 149.01 175.42 149.19 176.95L151.5 196.59L160.68 202.78Z" fill="#FFB1A5"/>
<path d="M150.14 193.06L142.94 174.23C142.34 172.58 140.49 171.67 138.85 172.22C137.43 172.7 136.63 174.13 136.97 175.6L142.31 197.36L150.14 193.06Z" fill="#FFB1A5"/>
<path d="M142.41 198.61L133.3 180.11C132.46 178.39 130.38 177.6 128.68 178.34C127.08 179.04 126.37 180.85 127.05 182.51L134.31 199.98L142.41 198.61Z" fill="#FFB1A5"/>
<path d="M127.24 200.65L120.09 189.31C119.5 187.98 120.04 186.48 121.34 185.89C122.58 185.32 124.11 185.77 124.91 186.93L134.31 199.97L127.24 200.65Z" fill="#FFB1A5"/>
<path d="M159.24 200.8C159.24 200.8 148.51 199.67 147.4 213.98" stroke="#282828" stroke-width="1.5317" stroke-miterlimit="10" stroke-linecap="round" stroke-linejoin="round"/>
<path d="M182.73 296.98C182.73 296.98 191.55 327.49 209.12 323.44C226.69 319.38 254.07 281.86 254.07 281.86L247.94 217.79L198.63 278.48L182.73 296.98Z" fill="#FFB1A5"/>
<path d="M213.93 259.62C213.93 259.62 230.58 284.73 244.78 293.59L254.08 281.86L218.22 254.12L213.93 259.62Z" fill="#F3978E"/>
<path d="M286.77 185.5C286.77 185.5 237.89 196.52 211.84 253.33C211.84 253.33 227.58 277.04 252.81 287.58L269.7 266.89L286.77 185.5Z" fill="#C98BD2"/>
<path d="M286.77 185.32C267.68 195.11 255.67 208.1 255.67 208.1L259.44 374.16H379.77L379.38 208.96C379.38 208.96 364.21 194.12 347.77 186.88C333.81 180.74 300.34 178.36 286.77 185.32Z" fill="#C98BD2"/>
<path d="M343.7 266.24C334.46 266.24 326.96 258.75 326.96 249.5V232.76H360.43V249.5C360.44 258.75 352.95 266.24 343.7 266.24Z" stroke="#282828" stroke-width="1.3968" stroke-miterlimit="10" stroke-linecap="round" stroke-linejoin="round"/>
<path d="M379.57 290.86L381.13 236.54" stroke="#282828" stroke-width="1.3968" stroke-miterlimit="10" stroke-linecap="round" stroke-linejoin="round"/>
<path d="M257.52 281.81L254.92 234.72" stroke="#282828" stroke-width="1.3968" stroke-miterlimit="10" stroke-linecap="round" stroke-linejoin="round"/>
<path d="M288.18 124.67L283.16 99.8599C282.88 97.8399 282.09 94.7199 283.05 91.7899C284.64 86.9399 290.48 77.6299 300.46 81.8899L302.62 91.7099C302.62 91.7099 292.26 93.7999 288.1 107.36L288.18 124.67Z" fill="#282828"/>
<path d="M299.73 87.01C299.55 90.27 296.67 104.54 286.55 109.73C286.55 109.73 277.69 90.73 299.73 87.01Z" fill="#282828"/>
<path d="M335.22 180.75V138.61H296.38V180.75L284.82 186.02C284.82 186.02 287.53 203.48 316.21 203.87C344.89 204.26 347.77 186.88 347.77 186.88L335.22 180.75Z" fill="#FFB1A5"/>
<path d="M300.46 81.89C300.46 81.89 307.59 63.08 329.57 73.08C342.88 79.13 346.6 87.24 348.19 92.99C348.72 94.9 348.93 97.91 348.78 99.7L343.46 124.67L322.7 90.12L302.61 91.71L300.46 81.89Z" fill="#282828"/>
<path d="M343.47 124.67C343.47 124.67 346.09 120.5 351.49 122.55C356.89 124.6 354.45 137.72 346.35 139.39C346.35 139.39 343.45 140.02 341.17 138.03C341.16 138.04 343.15 128.35 343.47 124.67Z" fill="#F3978E"/>
<path d="M350.42 127.18C350.42 127.18 345.9 125.67 342.68 132.33" stroke="#282828" stroke-width="1.3968" stroke-miterlimit="10" stroke-linecap="round" stroke-linejoin="round"/>
<path d="M288.18 124.67C288.18 124.67 285.56 120.5 280.16 122.55C274.76 124.6 277.2 137.72 285.3 139.39C285.3 139.39 288.2 140.02 290.48 138.03C290.48 138.04 288.49 128.35 288.18 124.67Z" fill="#F3978E"/>
<path d="M281.23 127.18C281.23 127.18 285.75 125.67 288.97 132.33" stroke="#282828" stroke-width="1.3968" stroke-miterlimit="10" stroke-linecap="round" stroke-linejoin="round"/>
<path d="M344.01 112.22C344.01 120.13 343.24 136.67 338.37 146.49C333.81 155.71 326.26 160.67 316.36 160.97C306.46 161.27 299.09 157.45 293.18 145.48C287.27 133.51 287.55 112.36 287.55 112.36C287.55 112.36 287.55 84.11 315.47 84.11C344.88 84.12 344.01 112.22 344.01 112.22Z" fill="#FFB1A5"/>
<path d="M296.67 151.38C296.67 151.38 299.92 167.89 314.29 169.78C330.82 171.96 335.22 151.8 335.22 151.8C335.22 151.8 327.92 160.95 316.36 160.97C303.48 160.99 296.67 151.38 296.67 151.38Z" fill="#282828"/>
<path d="M313.79 123.95V130.49C313.79 130.77 313.84 131.04 313.94 131.29C314.33 132.26 315.44 132.72 316.45 132.45L318.62 131.87" stroke="#282828" stroke-width="1.3968" stroke-miterlimit="10" stroke-linecap="round" stroke-linejoin="round"/>
<path d="M305.55 120.83C305.55 122.23 304.41 123.37 303.01 123.37C301.61 123.37 300.47 122.23 300.47 120.83C300.47 119.43 301.61 118.29 303.01 118.29C304.41 118.29 305.55 119.42 305.55 120.83Z" fill="#282828"/>
<path d="M329.38 120.83C329.38 122.23 328.24 123.37 326.84 123.37C325.44 123.37 324.3 122.23 324.3 120.83C324.3 119.43 325.44 118.29 326.84 118.29C328.24 118.29 329.38 119.42 329.38 120.83Z" fill="#282828"/>
<path d="M320.33 108.18L337.42 112.59C337.42 112.59 336.64 107.8 329.65 106.05C322.66 104.32 320.33 108.18 320.33 108.18Z" fill="#282828"/>
<path d="M309.71 108.18L292.62 112.59C292.62 112.59 293.4 107.8 300.39 106.05C307.38 104.32 309.71 108.18 309.71 108.18Z" fill="#282828"/>
<path d="M306.31 137.08C306.31 137.08 308.83 139.01 315.46 139.01C321.49 139.01 325.25 137.08 325.25 137.08" stroke="#282828" stroke-width="1.3968" stroke-miterlimit="10" stroke-linecap="round" stroke-linejoin="round"/>
<path d="M302.32 132.37C308.285 132.37 313.12 127.535 313.12 121.57C313.12 115.605 308.285 110.77 302.32 110.77C296.355 110.77 291.52 115.605 291.52 121.57C291.52 127.535 296.355 132.37 302.32 132.37Z" stroke="white" stroke-width="1.9514" stroke-miterlimit="10"/>
<path d="M328.85 132.37C334.815 132.37 339.65 127.535 339.65 121.57C339.65 115.605 334.815 110.77 328.85 110.77C322.885 110.77 318.05 115.605 318.05 121.57C318.05 127.535 322.885 132.37 328.85 132.37Z" stroke="white" stroke-width="1.9514" stroke-miterlimit="10"/>
<path d="M313.12 121.57C313.12 121.57 315.68 119.18 318.05 121.57" stroke="white" stroke-width="1.9514" stroke-miterlimit="10"/>
<path d="M291.52 121.57L287.9 121.48" stroke="white" stroke-width="1.9514" stroke-miterlimit="10"/>
<path d="M339.65 121.57L343.7 121.5" stroke="white" stroke-width="1.9514" stroke-miterlimit="10"/>
<path d="M296.67 87.6499C296.67 87.6499 301.86 102.39 325.26 101.93C341.16 101.62 344.96 113.13 344.96 113.13C344.96 113.13 342.19 87.3999 341.46 87.6499C340.73 87.8899 317.26 81.3899 317.26 81.3899L296.67 87.6499Z" fill="#282828"/>
</g>
<defs>
<clipPath id="clip0">
<rect width="643.02" height="474.47" fill="white"/>
</clipPath>
</defs>
</svg>
