<svg width="242" height="76" viewBox="0 0 242 76" fill="none" xmlns="http://www.w3.org/2000/svg">
<path fill-rule="evenodd" clip-rule="evenodd" d="M119.643 12.2386C121.928 9.94586 125.632 9.94586 127.916 12.2386C130.201 14.5315 130.201 18.2489 127.916 20.5418L113.987 34.5207C109.988 29.1419 110.423 21.492 115.291 16.6065L119.643 12.2386Z" fill="#4F9E91"/>
<path fill-rule="evenodd" clip-rule="evenodd" d="M139.555 43.7771C141.84 46.0699 141.84 49.7874 139.555 52.0801C137.272 54.373 133.567 54.373 131.282 52.0801L117.353 38.1014C122.713 34.088 130.335 34.5238 135.203 39.4093L139.555 43.7771Z" fill="#EBE1C5"/>
<path fill-rule="evenodd" clip-rule="evenodd" d="M108.13 63.7614C105.845 66.0543 102.141 66.0543 99.8565 63.7614C97.5718 61.4685 97.5718 57.7511 99.8565 55.4582L113.785 41.4795C117.784 46.8583 117.35 54.5082 112.482 59.3935L108.13 63.7614Z" fill="#EBCC6E"/>
<path fill-rule="evenodd" clip-rule="evenodd" d="M88.2172 32.2225C85.9326 29.9296 85.9326 26.2123 88.2172 23.9194C90.5019 21.6265 94.206 21.6265 96.4907 23.9194L110.419 37.8982C105.06 41.9117 97.4373 41.4757 92.5694 36.5904L88.2172 32.2225Z" fill="#ED834E"/>
<path fill-rule="evenodd" clip-rule="evenodd" d="M116.53 62.0494C119.899 58.2904 121.465 53.4804 121.227 48.7446L127.917 55.4581C127.933 55.4748 127.95 55.4914 127.967 55.5081V60.3011C127.967 63.5437 125.348 66.1723 122.117 66.1723C119.492 66.1723 117.272 64.4381 116.53 62.0494Z" fill="#ED834E"/>
<path fill-rule="evenodd" clip-rule="evenodd" d="M89.923 40.6533C93.6684 44.0343 98.4611 45.6057 103.18 45.3673L96.4907 52.0807C96.4739 52.0974 96.4573 52.1143 96.4408 52.131H91.665C88.4341 52.1311 85.8149 49.5024 85.8149 46.2598C85.8149 43.6262 87.5428 41.3975 89.923 40.6533Z" fill="#4F9E91"/>
<path fill-rule="evenodd" clip-rule="evenodd" d="M137.849 35.347C134.104 31.9659 129.312 30.3946 124.593 30.6328L131.282 23.9195C131.299 23.9028 131.315 23.886 131.332 23.8691H136.108C139.339 23.8691 141.958 26.4979 141.958 29.7405C141.958 32.3742 140.23 34.6028 137.849 35.347Z" fill="#EBCC6E"/>
<path fill-rule="evenodd" clip-rule="evenodd" d="M111.243 13.9506C107.874 17.7095 106.308 22.5195 106.546 27.2555L99.8563 20.542C99.8395 20.5253 99.8229 20.5086 99.8061 20.492V15.699C99.8061 12.4564 102.425 9.82764 105.656 9.82764C108.281 9.82764 110.501 11.5619 111.243 13.9506Z" fill="#EBE1C5"/>
<path fill-rule="evenodd" clip-rule="evenodd" d="M105.657 5.05078C99.7969 5.05078 95.0466 9.81813 95.0466 15.6989V17.7699C91.5213 16.8455 87.6144 17.7694 84.8518 20.5419C80.7083 24.7002 80.7083 31.4423 84.8518 35.6006L86.3109 37.0649C83.1669 38.9131 81.0554 42.3388 81.0554 46.2596C81.0554 52.1404 85.8056 56.9077 91.6653 56.9077H93.7287C92.8077 60.4457 93.7283 64.3666 96.4908 67.139C100.634 71.2973 107.352 71.2973 111.496 67.139L115.848 62.7713C119.687 58.9182 121.48 53.7892 121.227 48.7445L127.917 55.4579C132.06 59.6163 138.778 59.6163 142.922 55.4579C147.065 51.2996 147.065 44.5575 142.922 40.3993L141.463 38.9352C144.606 37.0871 146.718 33.6613 146.718 29.7405C146.718 23.8598 141.967 19.0924 136.108 19.0924H134.044C134.966 15.5543 134.045 11.6334 131.282 8.86086C127.139 4.7025 120.421 4.7025 116.278 8.86086L111.925 13.2287C108.086 17.0817 106.293 22.2106 106.546 27.2553L99.8566 20.5419C99.8398 20.5252 99.8232 20.5085 99.8064 20.4918V15.6989C99.8064 12.4563 102.426 9.82771 105.657 9.82771C108.281 9.82771 110.501 11.5618 111.243 13.9505C111.463 13.7054 111.69 13.4646 111.925 13.2287L114.818 10.3252C112.977 7.16986 109.563 5.05078 105.657 5.05078ZM131.332 23.8694C131.315 23.886 131.299 23.9029 131.282 23.9196L124.593 30.6329C129.312 30.3946 134.105 31.9658 137.85 35.347C140.23 34.6029 141.959 32.3741 141.959 29.7405C141.959 26.498 139.339 23.8694 136.108 23.8694H131.332ZM96.4408 52.1308C96.4574 52.1139 96.4741 52.0971 96.4908 52.0804L103.18 45.3669C98.4612 45.6054 93.6687 44.034 89.9233 40.6531C87.5431 41.3973 85.815 43.6259 85.815 46.2596C85.815 49.5022 88.4344 52.1308 91.6653 52.1308H96.4408ZM89.7409 40.4863C89.5593 40.3179 89.3803 40.1452 89.204 39.9683V39.9685C89.3803 40.1454 89.5593 40.3179 89.7409 40.4863ZM122.117 70.9494C118.21 70.9494 114.796 68.8301 112.955 65.6748L115.848 62.7713C116.083 62.5353 116.31 62.2946 116.53 62.0494C117.272 64.4381 119.492 66.1724 122.117 66.1724C125.348 66.1724 127.967 63.5438 127.967 60.3013V55.5083C129.338 56.8662 130.986 57.7736 132.727 58.2301V60.3013C132.727 66.182 127.976 70.9494 122.117 70.9494ZM127.917 12.2386C125.632 9.94584 121.928 9.94584 119.643 12.2386L115.291 16.6064C110.423 21.4919 109.989 29.1418 113.988 34.5206L127.917 20.5417C130.201 18.2488 130.201 14.5314 127.917 12.2386ZM139.555 52.0802C141.84 49.7873 141.84 46.0699 139.555 43.7771L135.203 39.4092C130.336 34.5239 122.713 34.0879 117.353 38.1013L131.282 52.0802C133.567 54.3731 137.272 54.3731 139.555 52.0802ZM108.13 63.7612C105.845 66.0541 102.141 66.0541 99.8565 63.7612C97.5719 61.4684 97.5719 57.751 99.8565 55.4581L113.785 41.4792C117.784 46.858 117.35 54.5081 112.482 59.3934L108.13 63.7612ZM88.2174 23.9196C85.9329 26.2125 85.9329 29.9299 88.2174 32.2227L92.5696 36.5906C97.4376 41.4759 105.06 41.9119 110.42 37.8985L96.4908 23.9196C94.2062 21.6269 90.5021 21.6269 88.2174 23.9196Z" fill="#3D3A2C"/>
<path d="M2.52325 26.583H7.72642V42.8093H16.663V47.2051H2.52325V26.583Z" fill="#3D3A2C"/>
<path d="M26.1102 47.6477C24.3659 47.6477 22.8372 47.333 21.5242 46.7037C20.2111 46.0546 19.1921 45.1695 18.4669 44.0485C17.7615 42.9077 17.4087 41.5998 17.4087 40.1246C17.4087 38.6495 17.7615 37.3514 18.4669 36.2304C19.1921 35.0896 20.2111 34.2045 21.5242 33.5752C22.8372 32.926 24.3659 32.6016 26.1102 32.6016C27.8544 32.6016 29.3829 32.926 30.696 33.5752C32.009 34.2045 33.0183 35.0896 33.7238 36.2304C34.4489 37.3514 34.8114 38.6495 34.8114 40.1246C34.8114 41.5998 34.4489 42.9077 33.7238 44.0485C33.0183 45.1695 32.009 46.0546 30.696 46.7037C29.3829 47.333 27.8544 47.6477 26.1102 47.6477ZM26.1102 43.6059C27.1488 43.6059 27.9719 43.301 28.5794 42.6914C29.2066 42.0619 29.52 41.2064 29.52 40.1246C29.52 39.0429 29.2066 38.1971 28.5794 37.5875C27.9719 36.958 27.1488 36.6434 26.1102 36.6434C25.0714 36.6434 24.2385 36.958 23.6115 37.5875C23.0038 38.1971 22.7001 39.0429 22.7001 40.1246C22.7001 41.2064 23.0038 42.0619 23.6115 42.6914C24.2385 43.301 25.0714 43.6059 26.1102 43.6059Z" fill="#3D3A2C"/>
<path d="M44.53 53.9908C43.5893 53.9908 42.6387 53.9022 41.6785 53.7253C40.7378 53.5482 39.9244 53.3122 39.2386 53.0171V49.4179C40.7867 50.0865 42.5505 50.4209 44.53 50.4209C45.9606 50.4209 46.9895 50.1258 47.6165 49.5359C48.2633 48.9459 48.5867 48.0805 48.5867 46.9396V46.0841C48.0184 46.5758 47.3128 46.9593 46.4701 47.2347C45.6469 47.5101 44.765 47.6477 43.8244 47.6477C42.335 47.6477 41.022 47.333 39.8852 46.7037C38.7486 46.0742 37.8569 45.1891 37.2102 44.0485C36.583 42.9077 36.2695 41.5998 36.2695 40.1246C36.2695 38.6298 36.583 37.3121 37.2102 36.1714C37.8373 35.0306 38.7192 34.1553 39.8559 33.5456C40.9925 32.9163 42.2958 32.6016 43.7656 32.6016C45.7842 32.6016 47.4499 33.2211 48.763 34.4603V33.044H53.7605V46.2317C53.7605 48.6901 53.0059 50.598 51.4969 51.9551C50.0076 53.3122 47.6852 53.9908 44.53 53.9908ZM45.1178 43.6354C45.9214 43.6354 46.6367 43.4289 47.2637 43.0159C47.891 42.6028 48.3318 42.0522 48.5867 41.3637V38.8856C48.3122 38.1971 47.8615 37.6562 47.2344 37.2628C46.6072 36.85 45.9018 36.6434 45.1178 36.6434C44.0596 36.6434 43.207 36.958 42.5604 37.5875C41.9136 38.1971 41.5902 39.033 41.5902 40.0952C41.5902 41.1768 41.9136 42.0423 42.5604 42.6914C43.207 43.3207 44.0596 43.6354 45.1178 43.6354Z" fill="#3D3A2C"/>
<path d="M63.7744 47.6477C62.0302 47.6477 60.5016 47.333 59.1886 46.7037C57.8755 46.0546 56.8563 45.1695 56.1313 44.0485C55.4257 42.9077 55.0729 41.5998 55.0729 40.1246C55.0729 38.6495 55.4257 37.3514 56.1313 36.2304C56.8563 35.0896 57.8755 34.2045 59.1886 33.5752C60.5016 32.926 62.0302 32.6016 63.7744 32.6016C65.5186 32.6016 67.0472 32.926 68.3602 33.5752C69.6733 34.2045 70.6826 35.0896 71.3882 36.2304C72.1132 37.3514 72.4759 38.6495 72.4759 40.1246C72.4759 41.5998 72.1132 42.9077 71.3882 44.0485C70.6826 45.1695 69.6733 46.0546 68.3602 46.7037C67.0472 47.333 65.5186 47.6477 63.7744 47.6477ZM63.7744 43.6059C64.813 43.6059 65.6362 43.301 66.2438 42.6914C66.8708 42.0619 67.1845 41.2064 67.1845 40.1246C67.1845 39.0429 66.8708 38.1971 66.2438 37.5875C65.6362 36.958 64.813 36.6434 63.7744 36.6434C62.7358 36.6434 61.9028 36.958 61.2757 37.5875C60.6681 38.1971 60.3643 39.0429 60.3643 40.1246C60.3643 41.2064 60.6681 42.0619 61.2757 42.6914C61.9028 43.301 62.7358 43.6059 63.7744 43.6059Z" fill="#3D3A2C"/>
<path d="M155.459 26.583H160.663V47.2051H155.459V26.583Z" fill="#3D3A2C"/>
<path d="M163.297 33.044H168.295V34.4603C169.607 33.2211 171.273 32.6016 173.292 32.6016C174.762 32.6016 176.066 32.9163 177.202 33.5456C178.339 34.1553 179.22 35.0306 179.847 36.1714C180.474 37.2924 180.789 38.6004 180.789 40.0952C180.789 41.5702 180.474 42.888 179.847 44.0485C179.22 45.1891 178.339 46.0742 177.202 46.7037C176.085 47.333 174.782 47.6477 173.292 47.6477C172.352 47.6477 171.45 47.5002 170.589 47.2051C169.746 46.9299 169.039 46.5462 168.472 46.0546V53.6661H163.297V33.044ZM171.94 43.6059C172.999 43.6059 173.851 43.2913 174.497 42.6618C175.144 42.0325 175.468 41.1768 175.468 40.0952C175.468 39.0133 175.144 38.1677 174.497 37.5579C173.851 36.9286 172.999 36.6139 171.94 36.6139C171.157 36.6139 170.45 36.8204 169.823 37.2334C169.196 37.6268 168.746 38.1677 168.472 38.856V41.3637C168.746 42.0522 169.196 42.6028 169.823 43.0159C170.45 43.4093 171.157 43.6059 171.94 43.6059Z" fill="#3D3A2C"/>
<path d="M188.502 47.6477C187.366 47.6477 186.18 47.5298 184.946 47.2937C183.711 47.0774 182.73 46.7627 182.005 46.3496V42.5438C182.809 43.0159 183.769 43.4093 184.886 43.724C186.022 44.0189 187.061 44.1664 188.003 44.1664C188.688 44.1664 189.188 44.1172 189.501 44.0189C189.815 43.9206 189.972 43.724 189.972 43.4289C189.972 43.1928 189.865 43.006 189.649 42.8683C189.453 42.711 189.079 42.5536 188.531 42.3963C188.003 42.2194 187.385 42.0325 186.679 41.8357C185.484 41.4817 184.544 41.1179 183.857 40.7441C183.171 40.3704 182.662 39.8984 182.328 39.3281C181.996 38.7577 181.829 38.0399 181.829 37.1745C181.829 35.6402 182.427 34.4996 183.622 33.7521C184.837 32.985 186.493 32.6016 188.59 32.6016C189.61 32.6016 190.678 32.7098 191.794 32.9261C192.932 33.1425 193.783 33.4276 194.352 33.7817V37.5285C193.765 37.1351 192.979 36.8105 192 36.5549C191.04 36.2991 190.138 36.1714 189.295 36.1714C188.63 36.1714 188.11 36.2401 187.738 36.3778C187.366 36.4959 187.18 36.7122 187.18 37.0269C187.18 37.322 187.366 37.5482 187.738 37.7055C188.11 37.8627 188.776 38.0595 189.736 38.2954C190.363 38.4529 190.629 38.5216 190.53 38.502C191.784 38.8364 192.754 39.2101 193.44 39.6231C194.127 40.0362 194.606 40.5279 194.881 41.0982C195.175 41.6489 195.322 42.357 195.322 43.2224C195.322 44.5795 194.734 45.6612 193.559 46.4676C192.402 47.2544 190.716 47.6477 188.502 47.6477Z" fill="#3D3A2C"/>
<path d="M203.046 47.6482C201.107 47.6482 199.647 47.1072 198.667 46.0256C197.707 44.9437 197.227 43.5179 197.227 41.7478V33.0444H202.401V41.1576C202.401 42.7901 203.135 43.6063 204.605 43.6063C205.272 43.6063 205.879 43.449 206.428 43.1343C206.976 42.8195 207.427 42.3574 207.779 41.7478V33.0444H212.953V47.2055H207.957V45.6715C207.35 46.3205 206.614 46.8122 205.751 47.1466C204.89 47.481 203.988 47.6482 203.046 47.6482Z" fill="#3D3A2C"/>
<path d="M215.602 33.044H220.395V34.5782C220.982 33.9489 221.659 33.467 222.423 33.1326C223.187 32.7785 224 32.6016 224.862 32.6016C225.921 32.6016 226.764 32.7588 227.391 33.0736C228.038 33.3883 228.557 33.8604 228.948 34.4897C229.536 33.8997 230.252 33.4374 231.095 33.1032C231.938 32.7688 232.791 32.6016 233.652 32.6016C235.514 32.6016 236.837 33.0835 237.621 34.0472C238.405 34.9913 238.796 36.3581 238.796 38.1479V47.2051H233.858V38.8856C233.858 38.0988 233.711 37.5285 233.416 37.1745C233.123 36.8204 232.633 36.6434 231.948 36.6434C231.066 36.6434 230.349 36.958 229.801 37.5875C229.821 37.9217 229.831 38.4332 229.831 39.1215V47.2051H224.892V38.6791C224.892 37.9513 224.765 37.43 224.51 37.1155C224.255 36.8007 223.804 36.6434 223.159 36.6434C222.158 36.6434 221.297 37.2039 220.571 38.325V47.2051H215.602V33.044Z" fill="#3D3A2C"/>
</svg>
