<svg width="244" height="54" viewBox="0 0 244 54" fill="none" xmlns="http://www.w3.org/2000/svg">
<path d="M37.1128 42.7664L5.39276 20.4914C2.17833 18.2342 3.27103 13.5344 7.27934 12.4292L40.992 3.11419C41.7062 2.85186 42.4714 2.7667 43.2244 2.86579C43.9773 2.96488 44.6962 3.24536 45.3214 3.68394C45.9464 4.12253 46.4599 4.70658 46.8188 5.38761C47.1778 6.06864 47.3721 6.82702 47.3855 7.59979L45.3875 39.188C45.1506 42.9374 40.3272 45.0236 37.1128 42.7664Z" fill="#E9327C"/>
<path d="M27.0521 48.2649L8.36489 11.0608C7.93772 10.2096 7.74975 9.25494 7.82169 8.30197C7.89364 7.34899 8.22272 6.43475 8.77262 5.66009C9.32254 4.88542 10.0719 4.28041 10.9381 3.91177C11.8044 3.54313 12.7537 3.42519 13.6816 3.57097L48.3137 9.01235C49.111 9.13765 49.8677 9.45382 50.5218 9.93487C51.1756 10.4159 51.708 11.0481 52.0752 11.7795C52.4423 12.5109 52.6338 13.3205 52.6336 14.1418C52.6334 14.9631 52.4418 15.7727 52.0745 16.504L36.1208 48.2667C35.6924 49.1154 35.0424 49.8275 34.2424 50.3244C33.4423 50.8216 32.5232 51.0844 31.586 51.0842C30.6487 51.084 29.7296 50.8209 28.9297 50.3235C28.1298 49.826 27.4802 49.1138 27.0521 48.2649Z" fill="#1DACE3"/>
<path d="M47.3006 8.85274L30.0368 6.14014L8.84058 11.9991L17.301 28.8489L37.1128 42.7665C37.5498 43.0702 38.0306 43.3027 38.5379 43.4559L46.063 28.4745L47.3006 8.85274Z" fill="#001A49"/>
<path d="M134.746 13.2014C134.746 12.5482 134.937 11.9096 135.293 11.3664C135.65 10.8232 136.156 10.3999 136.749 10.1499C137.342 9.89987 137.994 9.83446 138.624 9.9619C139.253 10.0894 139.831 10.4039 140.285 10.8659C140.739 11.3278 141.048 11.9163 141.173 12.5571C141.298 13.1978 141.234 13.8619 140.988 14.4654C140.743 15.069 140.327 15.5848 139.793 15.9478C139.26 16.3107 138.632 16.5044 137.991 16.5044C137.133 16.4955 136.313 16.1447 135.706 15.5272C135.1 14.9096 134.755 14.0747 134.746 13.2014ZM135.287 18.119H140.696V36.4682H135.287V18.119Z" fill="#001A49"/>
<path d="M164.053 27.2936C164.116 28.5065 163.942 29.72 163.543 30.8645C163.143 32.0087 162.525 33.0615 161.725 33.9621C160.924 34.8624 159.957 35.5929 158.878 36.1115C157.799 36.6299 156.63 36.9261 155.438 36.983C154.436 37.0385 153.434 36.8664 152.505 36.4792C151.576 36.0918 150.743 35.4991 150.067 34.7438V43.8086H144.66V18.119H150.067V19.8434C150.743 19.0883 151.576 18.4959 152.505 18.1089C153.434 17.722 154.436 17.5502 155.438 17.606C156.63 17.6627 157.799 17.9587 158.878 18.4769C159.957 18.9953 160.924 19.7255 161.725 20.6259C162.525 21.5262 163.143 22.5787 163.543 23.7231C163.942 24.8674 164.116 26.0808 164.053 27.2936ZM158.646 27.2936C158.625 26.4345 158.355 25.6009 157.871 24.8969C157.386 24.1931 156.709 23.6502 155.923 23.3365C155.137 23.0226 154.278 22.9518 153.453 23.1327C152.628 23.3136 151.873 23.7383 151.284 24.3535C150.694 24.9687 150.296 25.7474 150.139 26.5918C149.983 27.4362 150.074 28.309 150.402 29.1008C150.73 29.8926 151.28 30.5684 151.983 31.0436C152.687 31.5188 153.512 31.772 154.356 31.772C154.936 31.7987 155.515 31.7 156.054 31.4829C156.594 31.2657 157.082 30.9347 157.487 30.5118C157.892 30.0888 158.205 29.5836 158.405 29.0288C158.604 28.4742 158.687 27.8828 158.646 27.2936Z" fill="#001A49"/>
<path d="M180.742 30.9599C180.742 35.1809 177.137 36.9791 173.244 36.9791C171.671 37.124 170.091 36.7851 168.71 36.0062C167.328 35.2275 166.208 34.0446 165.494 32.6105L170.18 29.8961C170.37 30.5591 170.778 31.1352 171.336 31.5284C171.894 31.9215 172.567 32.1078 173.244 32.0561C174.541 32.0561 175.189 31.6511 175.189 30.9185C175.189 28.8989 166.322 29.9645 166.322 23.6141C166.322 19.6145 169.637 17.5967 173.394 17.5967C174.803 17.5517 176.199 17.8921 177.434 18.5826C178.672 19.2731 179.702 20.2883 180.422 21.5225L175.809 24.0551C175.607 23.5734 175.271 23.1629 174.841 22.8749C174.412 22.5867 173.908 22.4339 173.394 22.4351C172.457 22.4351 171.88 22.7951 171.88 23.4629C171.875 25.5689 180.742 24.1739 180.742 30.9599Z" fill="#001A49"/>
<path d="M200.504 18.1187V36.4679H195.097V34.7398C194.473 35.5011 193.679 36.1008 192.783 36.4902C191.888 36.8793 190.914 37.0469 189.942 36.9791C186.301 36.9791 183.202 34.3367 183.202 29.3813V18.1187H188.608V28.5785C188.562 29.0159 188.612 29.4581 188.752 29.8743C188.891 30.2904 189.118 30.6708 189.416 30.9887C189.715 31.3065 190.078 31.5542 190.479 31.7146C190.882 31.8752 191.314 31.9443 191.745 31.9175C193.727 31.9175 195.105 30.7439 195.105 28.1375V18.1187H200.504Z" fill="#001A49"/>
<path d="M231.496 25.1998V36.4678H226.089V25.6786C226.089 23.8444 225.223 22.669 223.493 22.669C221.69 22.669 220.682 23.9542 220.682 26.1196V36.4678H215.273V25.6786C215.273 23.8444 214.409 22.669 212.678 22.669C210.876 22.669 209.866 23.9542 209.866 26.1196V36.4678H204.46V18.1186H209.875V19.7998C210.436 19.0511 211.171 18.4575 212.015 18.0728C212.858 17.6884 213.785 17.5252 214.706 17.5984C215.631 17.5523 216.554 17.7511 217.381 18.1754C218.208 18.5997 218.914 19.2349 219.428 20.0194C220.028 19.1987 220.822 18.5461 221.736 18.1227C222.65 17.6993 223.656 17.5189 224.657 17.5984C228.794 17.6056 231.496 20.6134 231.496 25.1998Z" fill="#001A49"/>
<path d="M236.077 18.0055C238.294 18.0055 240.091 16.1761 240.091 13.9195C240.091 11.6629 238.294 9.8335 236.077 9.8335C233.86 9.8335 232.063 11.6629 232.063 13.9195C232.063 16.1761 233.86 18.0055 236.077 18.0055Z" fill="#001A49"/>
<path d="M60.924 9.67871H66.3326V36.4682H60.924V9.67871ZM69.395 27.2936C69.3892 25.3698 69.944 23.4875 70.9895 21.8851C72.035 20.2826 73.5241 19.032 75.2681 18.2916C77.0124 17.5512 78.9329 17.3544 80.7871 17.726C82.6412 18.0976 84.3453 19.0208 85.6836 20.3791C87.0219 21.7372 87.9342 23.469 88.305 25.3554C88.6758 27.2418 88.4885 29.1976 87.7668 30.9755C87.045 32.7534 85.8213 34.2733 84.2505 35.3427C82.6797 36.412 80.8326 36.983 78.9428 36.983C77.6878 36.9965 76.4427 36.7555 75.2802 36.2738C74.1178 35.7921 73.0612 35.0793 72.1723 34.1773C71.2833 33.2752 70.58 32.2018 70.1031 31.02C69.6263 29.8381 69.3856 28.5712 69.395 27.2936ZM83.0943 27.2936C83.0731 26.4636 82.8122 25.6587 82.3438 24.9792C81.8756 24.2997 81.2209 23.7757 80.4616 23.4729C79.7022 23.1703 78.8723 23.1021 78.0752 23.2773C77.2781 23.4522 76.5495 23.8628 75.9803 24.4572C75.4112 25.0517 75.027 25.8037 74.8754 26.6193C74.7241 27.4351 74.8121 28.278 75.129 29.043C75.4457 29.8078 75.977 30.4607 76.6563 30.9199C77.3356 31.3791 78.1328 31.624 78.9481 31.6244C79.5065 31.6406 80.0622 31.5387 80.5799 31.3254C81.0978 31.1123 81.5665 30.7921 81.9567 30.3851C82.347 29.9783 82.6502 29.4936 82.8472 28.9615C83.0441 28.4292 83.1308 27.8613 83.1014 27.2936H83.0943ZM110.056 18.1136V35.5466C110.056 41.7116 105.334 44.3162 100.54 44.3162C98.8532 44.4458 97.1634 44.1 95.6563 43.3167C94.1493 42.5335 92.8832 41.3428 91.9968 39.8756L96.6098 37.1594C96.9822 37.9251 97.5754 38.5569 98.31 38.9704C99.0447 39.3837 99.8856 39.5588 100.721 39.4724C101.254 39.5464 101.796 39.4978 102.308 39.3298C102.82 39.1619 103.289 38.8793 103.679 38.5024C104.069 38.1256 104.372 37.6645 104.563 37.1527C104.755 36.6412 104.832 36.0922 104.787 35.5466V33.8582C104.154 34.6466 103.348 35.273 102.434 35.6872C101.52 36.1014 100.523 36.2918 99.5237 36.2432C97.1447 36.1678 94.8877 35.1528 93.231 33.4129C91.5742 31.673 90.6477 29.3451 90.6477 26.9219C90.6477 24.4986 91.5742 22.1706 93.231 20.4307C94.8877 18.6909 97.1447 17.6758 99.5237 17.6005C100.523 17.5518 101.52 17.7422 102.434 18.1564C103.348 18.5706 104.154 19.197 104.787 19.9856V18.1136H110.056ZM104.794 26.921C104.83 26.0347 104.605 25.1579 104.147 24.4032C103.689 23.6484 103.02 23.0503 102.226 22.6858C101.431 22.3213 100.548 22.207 99.6894 22.3576C98.8308 22.5083 98.036 22.9169 97.4072 23.5311C96.7785 24.1452 96.3446 24.9367 96.1614 25.8037C95.9781 26.671 96.0538 27.574 96.3787 28.3972C96.7035 29.2201 97.263 29.9254 97.9847 30.4222C98.7065 30.919 99.5578 31.1847 100.429 31.1852C100.997 31.2257 101.567 31.1449 102.103 30.9478C102.638 30.7507 103.127 30.4416 103.539 30.0404C103.95 29.6394 104.274 29.155 104.49 28.6188C104.707 28.0824 104.81 27.5058 104.794 26.9264V26.921ZM113.119 27.281C113.113 25.3572 113.668 23.4749 114.713 21.8725C115.759 20.27 117.248 19.0194 118.992 18.279C120.736 17.5386 122.657 17.3418 124.511 17.7134C126.365 18.085 128.069 19.0082 129.407 20.3665C130.746 21.7246 131.658 23.4564 132.029 25.3428C132.399 27.2292 132.212 29.185 131.491 30.9629C130.769 32.7408 129.545 34.2607 127.974 35.3301C126.403 36.3994 124.556 36.9704 122.667 36.9704C121.413 36.9839 120.169 36.7432 119.007 36.2623C117.845 35.7815 116.789 35.0698 115.9 34.1691C115.012 33.2683 114.308 32.1966 113.831 31.016C113.353 29.8356 113.111 28.5702 113.119 27.2936V27.281ZM126.818 27.281C126.797 26.4507 126.536 25.645 126.068 24.9648C125.6 24.2847 124.945 23.7604 124.185 23.4573C123.425 23.1541 122.595 23.0859 121.797 23.2611C121 23.436 120.27 23.8468 119.701 24.4415C119.132 25.0364 118.747 25.789 118.596 26.6051C118.444 27.4212 118.533 28.2649 118.85 29.0301C119.167 29.7954 119.698 30.4485 120.378 30.9078C121.058 31.367 121.856 31.6118 122.672 31.6118C123.229 31.6267 123.782 31.5247 124.298 31.3117C124.814 31.0988 125.282 30.7795 125.671 30.3741C126.06 29.9688 126.363 29.4858 126.56 28.9557C126.758 28.4256 126.846 27.8597 126.818 27.2936V27.281Z" fill="#001A49"/>
</svg>
