<svg width="401" height="333" viewBox="0 0 401 333" fill="none" xmlns="http://www.w3.org/2000/svg">
<rect width="401" height="333" fill="#D1B4FF"/>
<g clip-path="url(#clip0_4_1331)">
<path d="M307.035 199.091C281.155 259.692 212.839 285.722 159.314 281.283C144.699 280.071 115.294 277.633 92.3333 255.882C48.2408 214.11 55.0314 126.793 97.2411 75.3862C102.677 68.7661 140.302 24.4125 198.934 25.0059C241.861 25.4408 271.99 49.7334 275.655 52.7598C280.283 56.5825 290.491 65.668 299.691 80.0809C321.307 113.945 323.208 161.221 307.035 199.091Z" fill="url(#paint0_linear_4_1331)"/>
<path d="M342.929 112.059C343.347 110.767 341.843 109.705 340.756 110.517C329.719 118.763 302.572 144.127 302.973 193.901C303.476 256.35 288.117 277.368 270.619 289.262C270.619 289.262 293.245 285.308 309.609 264.07C349.782 211.927 335.498 135.034 342.929 112.059Z" fill="#BDD0FB"/>
<path d="M333.156 130.434C331.13 137.149 329.239 143.9 327.596 150.712C325.917 157.514 324.445 164.363 323.189 171.247C321.959 178.137 320.858 185.049 320.051 191.997C319.214 198.941 318.675 205.913 318.158 212.916C317.603 219.911 317.083 226.961 315.841 233.98C314.608 240.984 312.521 247.955 309.224 254.337C308.4 255.927 307.545 257.508 306.605 259.023C305.692 260.556 304.712 262.05 303.705 263.524C301.676 266.465 299.449 269.275 297.024 271.907C292.159 277.16 286.501 281.667 280.414 285.333C279.773 285.719 278.942 285.512 278.556 284.87C278.178 284.24 278.371 283.425 278.984 283.03L278.988 283.027C280.444 282.094 281.886 281.144 283.282 280.134C283.988 279.639 284.671 279.116 285.363 278.604C286.035 278.067 286.728 277.555 287.383 276.998C290.038 274.815 292.538 272.446 294.85 269.905C299.495 264.85 303.408 259.074 306.569 252.982C308.116 249.919 309.433 246.746 310.503 243.481C311.571 240.216 312.389 236.864 313.017 233.463C314.276 226.656 314.848 219.683 315.453 212.692C316.068 205.7 316.734 198.678 317.686 191.694C318.154 188.201 318.683 184.718 319.275 181.245C319.561 179.507 319.88 177.776 320.197 176.043C320.529 174.313 320.872 172.587 321.228 170.862C322.666 163.968 324.314 157.121 326.174 150.337C328.067 143.561 330.139 136.837 332.467 130.205C332.534 130.015 332.741 129.915 332.931 129.982C333.113 130.05 333.212 130.249 333.156 130.434Z" fill="white"/>
<path d="M283.243 192.495C283.948 194.896 286.872 195.796 288.821 194.231C299.576 185.595 327.783 158.423 328.105 110.753C328.377 70.4988 332.344 48.6969 334.829 38.9252C335.355 36.8584 332.942 35.3215 331.294 36.6717C313.113 51.5639 257.708 105.494 283.243 192.495Z" fill="#91B3FA"/>
<path d="M286.618 192.723C286.667 192.761 286.721 192.794 286.779 192.822C287.263 193.059 287.847 192.859 288.084 192.373C288.352 191.823 314.923 136.769 317.825 80.8155C317.854 80.2766 317.44 79.8175 316.902 79.7892C316.364 79.7609 315.905 80.1757 315.877 80.7146C312.996 136.262 286.597 190.97 286.331 191.516C286.122 191.942 286.253 192.447 286.618 192.723Z" fill="white"/>
<path d="M276.746 208.412C279.046 212.105 281.453 217.377 280.868 222.648C279.799 232.283 265.048 236.565 252.119 231.213C242.903 227.397 246.827 214.876 249.84 208.001C250.795 205.822 249.215 203.378 246.841 203.378H213.543V165.805C213.543 162.524 217.009 160.414 219.913 161.933C223.391 163.752 227.965 165.683 232.779 166.444C242.931 168.049 253.083 156.808 252.015 146.102C250.946 135.397 240.794 127.367 230.107 127.903C226.429 128.088 223.365 129.622 220.928 131.554C218.096 133.8 213.919 131.709 213.919 128.091V95.2495H306.602C309.212 95.2495 311.329 97.3657 311.335 99.9794L311.589 203.377H279.508C276.929 203.378 275.38 206.219 276.746 208.412Z" fill="url(#paint1_linear_4_1331)"/>
<path d="M263.78 234.244C259.849 234.244 255.726 233.449 251.858 231.847C249.313 230.794 247.529 229.032 246.557 226.613C244.336 221.082 246.774 213.289 249.213 207.726C249.57 206.911 249.494 205.982 249.011 205.24C248.524 204.493 247.733 204.064 246.842 204.064H212.859V165.804C212.859 164.019 213.768 162.402 215.289 161.479C216.808 160.556 218.656 160.499 220.232 161.323C224.67 163.644 228.928 165.139 232.888 165.765C237.043 166.423 241.532 164.805 245.207 161.327C249.513 157.252 251.861 151.445 251.335 146.17C250.841 141.224 248.32 136.659 244.236 133.318C240.257 130.062 235.118 128.336 230.143 128.587C227.049 128.743 224.092 129.921 221.356 132.091C219.855 133.282 217.842 133.5 216.105 132.658C214.335 131.8 213.236 130.05 213.236 128.09V94.5632H306.604C309.584 94.5632 312.015 96.9923 312.022 99.9784L312.277 204.064H279.509C278.558 204.064 277.715 204.561 277.256 205.391C276.789 206.233 276.816 207.226 277.328 208.048C279.593 211.686 282.164 217.185 281.55 222.725C281.159 226.252 279.076 229.227 275.528 231.329C272.254 233.267 268.134 234.244 263.78 234.244ZM214.228 202.691H246.84C248.183 202.691 249.423 203.363 250.157 204.488C250.895 205.619 251.011 207.036 250.467 208.277C248.558 212.634 245.676 220.744 247.828 226.099C248.657 228.163 250.189 229.67 252.381 230.578C260.028 233.744 269.05 233.57 274.83 230.146C277.993 228.272 279.846 225.653 280.187 222.572C280.757 217.425 278.314 212.227 276.164 208.775C275.385 207.524 275.345 206.01 276.056 204.725C276.761 203.452 278.052 202.691 279.508 202.691H310.902L310.65 99.9814C310.645 97.7512 308.829 95.9357 306.602 95.9357H214.605V128.09C214.605 129.52 215.408 130.796 216.7 131.422C217.979 132.041 219.401 131.889 220.503 131.015C223.466 128.664 226.687 127.385 230.073 127.216C235.46 126.945 240.8 128.735 245.101 132.254C249.469 135.828 252.167 140.721 252.697 146.032C253.264 151.721 250.754 157.964 246.146 162.325C242.161 166.097 237.251 167.845 232.673 167.121C228.567 166.471 224.167 164.93 219.595 162.54C218.449 161.94 217.103 161.982 215.998 162.653C214.89 163.325 214.229 164.504 214.229 165.804V202.691H214.228Z" fill="#FCFAFA"/>
<path d="M213.543 306.153V274.686C213.543 271.555 210.358 269.409 207.479 270.63C204.309 271.975 199.991 273.259 194.757 273.5C183.086 274.035 174.201 264.399 175.972 251.018C177.743 237.635 189.105 234.423 194.644 236.03C197.536 236.868 202.56 240.083 206.7 242.965C209.591 244.976 213.542 242.901 213.542 239.375V203.377H246.84C249.215 203.377 250.794 205.821 249.839 208C246.826 214.876 242.902 227.396 252.118 231.212C265.047 236.565 279.798 232.283 280.867 222.647C281.451 217.375 279.045 212.104 276.745 208.411C275.38 206.218 276.928 203.377 279.508 203.377H311.589L312.112 302.7C312.122 304.603 310.584 306.152 308.684 306.152H213.543V306.153Z" fill="url(#paint2_linear_4_1331)"/>
<path d="M308.685 306.84H212.858V274.688C212.858 273.438 212.237 272.279 211.195 271.587C210.151 270.894 208.895 270.776 207.748 271.263C203.662 272.996 199.302 273.98 194.79 274.188C189.058 274.448 183.866 272.374 180.172 268.339C176.125 263.921 174.394 257.738 175.294 250.929C176.279 243.485 180.063 239.582 183.063 237.618C187.487 234.723 192.17 234.598 194.837 235.371C197.287 236.081 201.41 238.447 207.093 242.401C208.235 243.197 209.654 243.285 210.887 242.641C212.122 241.994 212.859 240.774 212.859 239.376V202.692H246.842C248.185 202.692 249.425 203.364 250.159 204.489C250.896 205.621 251.013 207.037 250.469 208.278C248.56 212.635 245.678 220.745 247.83 226.1C248.659 228.164 250.191 229.671 252.383 230.578C260.03 233.744 269.052 233.571 274.832 230.146C277.995 228.272 279.847 225.653 280.189 222.572C280.759 217.425 278.316 212.227 276.166 208.775C275.387 207.524 275.347 206.01 276.058 204.725C276.763 203.452 278.054 202.691 279.51 202.691H312.273L312.8 302.697C312.806 303.802 312.381 304.841 311.603 305.625C310.823 306.408 309.788 306.84 308.685 306.84ZM214.228 305.467H308.684C309.419 305.467 310.109 305.179 310.628 304.657C311.147 304.135 311.43 303.442 311.426 302.705L310.907 204.064H279.508C278.557 204.064 277.714 204.561 277.255 205.391C276.788 206.233 276.815 207.226 277.327 208.049C279.592 211.687 282.163 217.186 281.549 222.725C281.158 226.252 279.076 229.227 275.527 231.329C269.3 235.019 260.008 235.223 251.857 231.848C249.312 230.794 247.528 229.032 246.556 226.613C244.334 221.082 246.773 213.289 249.211 207.726C249.568 206.911 249.492 205.982 249.009 205.24C248.522 204.493 247.731 204.064 246.84 204.064H214.228V239.375C214.228 241.292 213.216 242.969 211.52 243.857C209.827 244.744 207.879 244.621 206.31 243.529C200.827 239.714 196.728 237.349 194.455 236.69C191.879 235.943 187.589 236.296 183.811 238.767C181.051 240.574 177.569 244.182 176.652 251.108C175.805 257.507 177.414 263.296 181.181 267.409C184.597 271.138 189.405 273.059 194.727 272.814C199.077 272.615 203.277 271.667 207.213 269.998C208.768 269.338 210.539 269.504 211.952 270.442C213.379 271.389 214.23 272.975 214.23 274.687V305.467H214.228Z" fill="#FCFAFA"/>
<path d="M122 306.312C119.977 306.315 118.336 304.674 118.336 302.648V276.168C118.336 272.753 118.403 241.042 118.403 237.568V202.575H150.654C153.312 202.575 154.87 199.547 153.299 197.4C145.751 187.086 152.337 172.407 157.973 169.922C164.653 166.977 178.278 166.175 182.285 181.163C184.372 188.971 182.456 194.672 180.142 198.343C178.763 200.529 180.306 203.378 182.887 203.378H213.542V239.376C213.542 242.902 209.59 244.977 206.7 242.965C202.56 240.084 197.536 236.869 194.644 236.03C189.105 234.425 177.743 237.636 175.972 251.018C174.201 264.401 183.086 274.035 194.757 273.5C199.991 273.26 204.309 271.975 207.479 270.63C210.357 269.409 213.543 271.556 213.543 274.687V306.154L122 306.312Z" fill="url(#paint3_linear_4_1331)"/>
<path d="M121.994 307C120.835 307 119.746 306.549 118.925 305.728C118.103 304.906 117.65 303.813 117.65 302.649V276.169C117.65 274.468 117.667 265.753 117.683 257.002C117.7 248.177 117.717 239.313 117.717 237.569V201.889H150.654C151.647 201.889 152.509 201.358 152.959 200.468C153.404 199.59 153.324 198.596 152.747 197.806C148.075 191.422 149.041 184.248 150.033 180.54C151.437 175.289 154.589 170.665 157.698 169.295C161.688 167.536 168.351 166.444 173.996 169.156C178.403 171.275 181.415 175.255 182.948 180.986C185.151 189.225 182.953 195.171 180.722 198.711C180.206 199.529 180.175 200.521 180.638 201.364C181.096 202.195 181.937 202.692 182.888 202.692H214.229V239.376C214.229 241.293 213.217 242.969 211.521 243.857C209.828 244.745 207.88 244.621 206.311 243.53C200.828 239.715 196.73 237.349 194.456 236.69C191.88 235.944 187.59 236.297 183.812 238.768C181.052 240.575 177.57 244.182 176.653 251.109C175.806 257.507 177.415 263.297 181.182 267.41C184.598 271.139 189.406 273.06 194.728 272.815C199.078 272.616 203.278 271.668 207.214 269.999C208.769 269.339 210.54 269.505 211.954 270.443C213.38 271.389 214.231 272.976 214.231 274.687V306.839L122.004 307C121.999 307 121.996 307 121.994 307ZM121.999 305.626L122 306.312L121.999 305.626L212.857 305.468V274.687C212.857 273.438 212.236 272.279 211.194 271.587C210.15 270.894 208.894 270.776 207.747 271.263C203.661 272.996 199.301 273.98 194.789 274.188C189.057 274.448 183.865 272.373 180.171 268.339C176.124 263.921 174.393 257.738 175.293 250.929C176.278 243.485 180.062 239.582 183.062 237.618C187.486 234.723 192.169 234.597 194.836 235.37C197.286 236.081 201.409 238.446 207.092 242.401C208.234 243.196 209.653 243.285 210.886 242.64C212.121 241.994 212.858 240.774 212.858 239.376V204.065H182.888C181.429 204.065 180.14 203.303 179.437 202.027C178.729 200.739 178.776 199.225 179.563 197.978C181.649 194.671 183.699 189.101 181.624 181.342C180.2 176.015 177.434 172.332 173.403 170.395C168.178 167.884 161.974 168.909 158.251 170.551C155.497 171.765 152.662 176.019 151.359 180.894C150.43 184.364 149.52 191.071 153.854 196.993C154.729 198.19 154.856 199.758 154.184 201.087C153.506 202.428 152.154 203.262 150.656 203.262H119.088V237.568C119.088 239.312 119.071 248.177 119.054 257.004C119.037 265.754 119.021 274.468 119.021 276.169V302.649C119.021 303.445 119.331 304.194 119.893 304.756C120.454 305.317 121.2 305.627 121.993 305.627C121.996 305.626 121.997 305.626 121.999 305.626Z" fill="#FCFAFA"/>
<path d="M62.1342 294.91C62.1342 294.91 60.5486 297.414 60.1497 304.423C60.1124 305.075 60.6292 305.632 61.2819 305.632H73.6803C74.179 305.632 74.5356 305.141 74.3754 304.668C73.6491 302.513 71.4521 297.261 66.5504 294.26L62.1342 294.91Z" fill="url(#paint4_linear_4_1331)"/>
<path d="M61.5952 290.16L62.2963 296.051C62.3568 296.559 62.7547 296.966 63.2624 297.025C63.9403 297.103 64.9265 297.158 65.8845 296.999C66.7548 296.855 67.3814 296.079 67.3814 295.194V289.506L61.5952 290.16Z" fill="url(#paint5_linear_4_1331)"/>
<path d="M92.8108 294.26C92.8108 294.26 90.4375 297.956 90.4889 303.028C90.501 304.223 91.4993 305.174 92.692 305.174H111.948C112.85 305.174 113.217 304.014 112.478 303.494C108.835 300.931 101.672 296.141 96.4927 294.259H92.8108V294.26Z" fill="url(#paint6_linear_4_1331)"/>
<path d="M90.8274 287.898L92.3233 295.173C92.4905 295.987 93.2853 296.535 94.0942 296.353C94.5868 296.243 95.167 296.032 95.7875 295.644C96.3768 295.274 96.676 294.572 96.5551 293.886L95.0078 285.072L90.8274 287.898Z" fill="url(#paint7_linear_4_1331)"/>
<path d="M64.3423 186.746C64.3423 186.746 59.1413 191.34 58.1622 196.866C57.1831 202.392 60.9354 292.219 60.9354 292.219C60.9354 292.219 66.1363 293.086 68.8169 291.458C68.8169 291.458 71.9971 233.162 74.4137 219.69C74.4137 219.69 87.0891 280.078 90.6007 290.99C90.6007 290.99 95.6112 291.6 97.227 290.646C97.227 290.646 93.9068 212.366 89.7344 198.45L64.3423 186.746Z" fill="url(#paint8_linear_4_1331)"/>
<path d="M74.2636 217.487C74.1498 217.487 74.045 217.411 74.0148 217.295L71.8309 208.902L67.1427 205.889C67.0228 205.812 66.9886 205.653 67.0651 205.533C67.1417 205.413 67.2998 205.378 67.4207 205.455L72.1935 208.522C72.2479 208.557 72.2872 208.611 72.3033 208.674L74.5124 217.164C74.5487 217.302 74.4661 217.443 74.3291 217.478C74.3069 217.485 74.2848 217.487 74.2636 217.487Z" fill="url(#paint9_linear_4_1331)"/>
<path d="M113.213 137.481C91.3179 135.66 85.5962 140.199 85.5962 140.199L96.1179 156.84C96.1179 156.84 117.631 156.414 133.046 144.512C130.161 141.4 128.158 137.959 126.872 135.281C122.897 136.935 118.32 137.905 113.213 137.481Z" fill="url(#paint10_linear_4_1331)"/>
<path d="M147.499 105.285C147.469 104.582 146.518 104.391 146.22 105.027L143.427 111C142.887 112.153 142.714 113.446 142.931 114.701L143.911 118.178C144.205 119.873 143.762 121.61 142.689 122.953C140.123 126.168 134.656 132.04 126.872 135.28C128.158 137.958 130.161 141.399 133.046 144.511C138.702 140.143 143.539 134.233 146.188 126.229C147.457 125.838 148.305 124.64 148.255 123.311L147.499 105.285Z" fill="url(#paint11_linear_4_1331)"/>
<path d="M122.874 144.491C115.167 136.17 100.485 132.411 91.9848 130.867C88.2606 130.191 84.5899 132.267 83.2703 135.82C79.4454 146.122 69.0415 172.921 67.0248 177.528C65.3708 181.307 63.6432 184.997 62.5452 187.304C61.8894 188.683 62.4625 190.333 63.8356 190.995C70.9867 194.448 83.8555 198.355 89.0716 199.88C90.2189 200.215 91.3612 199.352 91.3612 198.154C91.3612 197.139 91.6373 196.142 92.1581 195.271L111.916 162.286C124.231 175.965 135.016 177.216 143.3 174.223C141.907 169.91 140.995 165.589 140.558 161.26C128.322 159.159 122.874 144.491 122.874 144.491Z" fill="url(#paint12_linear_4_1331)"/>
<path d="M160.791 158.964L158.581 156.013C151.43 160.933 145.454 162.099 140.56 161.259C140.997 165.588 141.909 169.909 143.302 174.221C154.218 170.278 160.791 158.964 160.791 158.964Z" fill="url(#paint13_linear_4_1331)"/>
<path d="M103.677 115.586L97.1112 131.637C97.1112 131.637 104.655 136.867 110.724 136.37L114.001 121.938L103.677 115.586Z" fill="url(#paint14_linear_4_1331)"/>
<path d="M114.768 104.644C114.918 104.858 119.518 121.503 119.518 121.503L109.974 123.932L103.275 108.804C103.275 108.805 112.25 101.072 114.768 104.644Z" fill="url(#paint15_linear_4_1331)"/>
<path d="M106.868 111.103L109.772 119.342C109.81 119.448 109.859 119.546 109.924 119.637C110.317 120.198 111.814 122.028 113.59 120.38C115.202 118.884 116.694 117.543 118.073 117.299C118.692 117.19 119.292 117.568 119.459 118.175C119.876 119.688 120.755 123.113 121.064 126.206C121.126 126.833 120.694 127.401 120.076 127.519C118.212 127.873 114.26 128.511 110.96 128.278C110.513 128.246 110.12 127.977 109.934 127.569C109.025 125.579 106.239 119.539 105.202 117.977C104.23 116.511 101.846 116.552 100.845 116.64C100.518 116.669 100.196 116.563 99.9479 116.346C99.0735 115.578 97.4084 113.617 99.7504 111.269C100.24 110.778 100.227 109.985 99.7222 109.509C98.7169 108.562 97.641 106.882 99.3163 104.798C101.02 102.68 103.267 103.017 104.644 103.521C105.201 103.725 105.809 103.488 106.111 102.978C106.283 102.687 106.584 102.467 107.105 102.512C107.807 102.572 108.398 101.985 108.385 101.278C108.361 99.9221 108.846 98.2075 111.195 97.4749C115.363 96.1751 117.963 100.21 118.221 103.22C118.479 106.23 113.878 107.383 111.174 107.18C109.117 107.026 107.591 109.067 106.976 110.055C106.785 110.372 106.746 110.755 106.868 111.103Z" fill="url(#paint16_linear_4_1331)"/>
<path d="M106.29 120.968C106.29 120.968 105.617 115.742 103.446 115.485C101.276 115.229 99.1632 117.016 101.321 119.95C104.005 123.599 106.29 120.968 106.29 120.968Z" fill="url(#paint17_linear_4_1331)"/>
<path d="M195.241 151.604C197.596 147.869 199.545 142.069 197.422 134.126C193.345 118.876 179.482 119.694 172.686 122.689C166.952 125.216 160.252 140.151 167.932 150.645C169.53 152.829 167.945 155.91 165.24 155.91H132.428L131.414 50.3793C131.39 47.8746 133.423 45.8371 135.923 45.8603L229.606 46.7161V80.1284C229.606 83.8098 233.856 85.9381 236.737 83.6524C239.216 81.6855 242.333 80.1244 246.075 79.9377C256.948 79.3927 267.277 87.5629 268.364 98.4537C269.451 109.346 259.123 120.782 248.793 119.149C243.895 118.374 239.242 116.41 235.703 114.559C232.749 113.014 229.222 115.16 229.222 118.499V156.727H198.033C195.408 156.726 193.838 153.828 195.241 151.604Z" fill="url(#paint18_linear_4_1331)"/>
<path d="M159.233 159.017L171.677 159.504L178.649 147.276C178.984 146.689 178.484 145.951 177.822 146.084C174.787 146.693 172.418 150.55 171.332 152.655C170.908 153.478 170.022 153.954 169.101 153.866C166.954 153.661 163.18 153.328 161.357 153.325C159.172 153.322 157.963 155.84 158.132 156.907C158.166 157.125 158.195 157.257 158.195 157.257L159.233 159.017Z" fill="url(#paint19_linear_4_1331)"/>
</g>
<defs>
<linearGradient id="paint0_linear_4_1331" x1="333.282" y1="315.15" x2="144.571" y2="111.828" gradientUnits="userSpaceOnUse">
<stop stop-color="#DAE3FE"/>
<stop offset="1" stop-color="#E9EFFD"/>
</linearGradient>
<linearGradient id="paint1_linear_4_1331" x1="230.705" y1="91.7244" x2="447.809" y2="496.392" gradientUnits="userSpaceOnUse">
<stop stop-color="#FF928E"/>
<stop offset="1" stop-color="#FE7062"/>
</linearGradient>
<linearGradient id="paint2_linear_4_1331" x1="361.732" y1="630.205" x2="174.872" y2="-0.115197" gradientUnits="userSpaceOnUse">
<stop stop-color="#FF928E"/>
<stop offset="1" stop-color="#FE7062"/>
</linearGradient>
<linearGradient id="paint3_linear_4_1331" x1="109.784" y1="148.424" x2="337.782" y2="573.399" gradientUnits="userSpaceOnUse">
<stop stop-color="#FF928E"/>
<stop offset="1" stop-color="#FE7062"/>
</linearGradient>
<linearGradient id="paint4_linear_4_1331" x1="60.1479" y1="299.946" x2="74.4145" y2="299.946" gradientUnits="userSpaceOnUse">
<stop stop-color="#09005D"/>
<stop offset="1" stop-color="#1A0F91"/>
</linearGradient>
<linearGradient id="paint5_linear_4_1331" x1="61.5952" y1="293.305" x2="67.3812" y2="293.305" gradientUnits="userSpaceOnUse">
<stop stop-color="#FEBBBA"/>
<stop offset="1" stop-color="#FF928E"/>
</linearGradient>
<linearGradient id="paint6_linear_4_1331" x1="90.4877" y1="299.718" x2="112.873" y2="299.718" gradientUnits="userSpaceOnUse">
<stop stop-color="#09005D"/>
<stop offset="1" stop-color="#1A0F91"/>
</linearGradient>
<linearGradient id="paint7_linear_4_1331" x1="90.8276" y1="290.731" x2="96.5819" y2="290.731" gradientUnits="userSpaceOnUse">
<stop stop-color="#FEBBBA"/>
<stop offset="1" stop-color="#FF928E"/>
</linearGradient>
<linearGradient id="paint8_linear_4_1331" x1="58" y1="239.598" x2="97.2283" y2="239.598" gradientUnits="userSpaceOnUse">
<stop stop-color="#09005D"/>
<stop offset="1" stop-color="#1A0F91"/>
</linearGradient>
<linearGradient id="paint9_linear_4_1331" x1="67.0243" y1="211.452" x2="74.5206" y2="211.452" gradientUnits="userSpaceOnUse">
<stop stop-color="#4F52FF"/>
<stop offset="1" stop-color="#4042E2"/>
</linearGradient>
<linearGradient id="paint10_linear_4_1331" x1="80.1984" y1="265.838" x2="119.922" y2="98.008" gradientUnits="userSpaceOnUse">
<stop stop-color="#4F52FF"/>
<stop offset="1" stop-color="#4042E2"/>
</linearGradient>
<linearGradient id="paint11_linear_4_1331" x1="126.872" y1="124.575" x2="148.257" y2="124.575" gradientUnits="userSpaceOnUse">
<stop stop-color="#FEBBBA"/>
<stop offset="1" stop-color="#FF928E"/>
</linearGradient>
<linearGradient id="paint12_linear_4_1331" x1="132.506" y1="123.452" x2="62.4006" y2="237.683" gradientUnits="userSpaceOnUse">
<stop stop-color="#4F52FF"/>
<stop offset="1" stop-color="#4042E2"/>
</linearGradient>
<linearGradient id="paint13_linear_4_1331" x1="177.751" y1="126.608" x2="131.442" y2="184.117" gradientUnits="userSpaceOnUse">
<stop stop-color="#FEBBBA"/>
<stop offset="1" stop-color="#FF928E"/>
</linearGradient>
<linearGradient id="paint14_linear_4_1331" x1="125.766" y1="91.8032" x2="80.8894" y2="174.112" gradientUnits="userSpaceOnUse">
<stop stop-color="#FEBBBA"/>
<stop offset="1" stop-color="#FF928E"/>
</linearGradient>
<linearGradient id="paint15_linear_4_1331" x1="111.662" y1="106.98" x2="110.589" y2="139.822" gradientUnits="userSpaceOnUse">
<stop stop-color="#FEBBBA"/>
<stop offset="1" stop-color="#FF928E"/>
</linearGradient>
<linearGradient id="paint16_linear_4_1331" x1="132.621" y1="75.6829" x2="103.386" y2="127.595" gradientUnits="userSpaceOnUse">
<stop stop-color="#09005D"/>
<stop offset="1" stop-color="#1A0F91"/>
</linearGradient>
<linearGradient id="paint17_linear_4_1331" x1="99.9456" y1="140.675" x2="103.533" y2="118.19" gradientUnits="userSpaceOnUse">
<stop stop-color="#FEBBBA"/>
<stop offset="1" stop-color="#FF928E"/>
</linearGradient>
<linearGradient id="paint18_linear_4_1331" x1="131.414" y1="101.293" x2="268.444" y2="101.293" gradientUnits="userSpaceOnUse">
<stop stop-color="#4F52FF"/>
<stop offset="1" stop-color="#4042E2"/>
</linearGradient>
<linearGradient id="paint19_linear_4_1331" x1="187.859" y1="128.951" x2="135.877" y2="193.505" gradientUnits="userSpaceOnUse">
<stop stop-color="#FEBBBA"/>
<stop offset="1" stop-color="#FF928E"/>
</linearGradient>
<clipPath id="clip0_4_1331">
<rect width="285" height="282" fill="white" transform="translate(58 25)"/>
</clipPath>
</defs>
</svg>
