<svg width="600" height="396" viewBox="0 0 600 396" fill="none" xmlns="http://www.w3.org/2000/svg">
<rect width="600" height="396" fill="#00D09A"/>
<g clip-path="url(#clip0_4_1337)">
<path d="M427.644 286.81C433.027 284.605 436.898 279.105 436.984 272.583C437.087 264.045 430.683 257.035 422.674 256.932C414.665 256.829 408.081 263.668 407.978 272.206C407.892 278.787 411.695 284.416 417.094 286.724C394.741 289.899 395.548 314.157 395.548 314.157L448.324 314.852C448.333 314.835 449.74 290.337 427.644 286.81Z" fill="#E0E0E0"/>
<path d="M131.778 239.436L134.919 238.775L139.744 227.783L138.413 221.519C138.413 221.519 143.203 220.189 144.371 228.513C145.538 236.836 145.71 234.614 145.71 234.614C145.71 234.614 156.02 232.468 157.067 233.181C157.831 233.695 160.277 243.872 161.565 249.398C162.209 252.178 161.05 255.139 158.586 256.349C158.234 256.52 157.874 256.658 157.505 256.735C154.938 257.275 141.358 257.97 141.358 257.97L135.932 259.12L131.778 239.436Z" fill="#E0E0E0"/>
<path d="M122.429 239.616L128.91 260.673L134.284 259.541L129.829 238.501L122.429 239.616Z" fill="#E0E0E0"/>
<path d="M248.893 121.159H211.655C210.032 121.159 208.719 122.472 208.719 124.094V148.755C208.719 150.377 210.032 151.689 211.655 151.689H231.261L240.584 161.008V151.689H248.893C250.095 151.689 251.074 150.711 251.074 149.51V123.33C251.074 122.137 250.095 121.159 248.893 121.159Z" fill="#EBEBEB"/>
<path d="M238.73 139.127C239.938 139.127 240.919 138.148 240.919 136.939C240.919 135.731 239.938 134.751 238.73 134.751C237.521 134.751 236.541 135.731 236.541 136.939C236.541 138.148 237.521 139.127 238.73 139.127Z" fill="#FAFAFA"/>
<path d="M227.87 136.939C227.87 138.149 228.849 139.127 230.059 139.127C231.27 139.127 232.248 138.149 232.248 136.939C232.248 135.729 231.27 134.751 230.059 134.751C228.858 134.751 227.87 135.729 227.87 136.939Z" fill="#FAFAFA"/>
<path d="M221.398 139.127C222.607 139.127 223.587 138.148 223.587 136.939C223.587 135.731 222.607 134.751 221.398 134.751C220.189 134.751 219.209 135.731 219.209 136.939C219.209 138.148 220.189 139.127 221.398 139.127Z" fill="#FAFAFA"/>
<path d="M470.343 68.6881C469.999 66.929 468.257 65.5561 466.471 65.6162C464.694 65.6762 463.08 67.1521 462.84 68.9112C462.583 67.1521 460.952 65.702 459.175 65.6505C457.381 65.599 455.655 66.9891 455.329 68.7567C455.088 70.0438 455.526 71.3738 456.247 72.4636C456.968 73.5533 457.956 74.4286 458.934 75.3038C460.299 76.5223 461.561 77.6635 462.935 78.882C464.291 77.6549 465.441 76.4965 466.798 75.2695C467.768 74.3942 468.746 73.5018 469.459 72.4121C470.163 71.3052 470.592 69.9666 470.343 68.6881Z" fill="#E0E0E0"/>
<path d="M354.231 395.777L328.024 299.278L250.044 298.531C242.335 326.599 237.725 362.406 235.639 395.777" fill="#E8505B"/>
<path d="M267.676 369.914C267.727 369.829 268.526 370.567 270.14 370.867C270.938 371.021 271.925 371.004 272.938 370.687C273.951 370.369 274.964 369.708 275.728 368.739C276.475 367.761 276.87 366.619 276.921 365.555C276.981 364.491 276.749 363.53 276.406 362.801C275.711 361.317 274.792 360.724 274.869 360.656C274.887 360.639 275.11 360.767 275.47 361.076C275.822 361.385 276.294 361.909 276.689 362.672C277.093 363.427 277.376 364.448 277.333 365.59C277.299 366.731 276.887 367.975 276.08 369.031C275.264 370.069 274.157 370.781 273.058 371.09C271.959 371.416 270.904 371.39 270.071 371.193C269.238 370.996 268.611 370.678 268.225 370.404C267.839 370.12 267.659 369.932 267.676 369.914Z" fill="#FAFAFA"/>
<path d="M293.832 346.146C293.798 346.223 293.317 345.674 292.39 345.811C291.952 345.88 291.446 346.198 291.214 346.73C290.974 347.253 291.051 347.982 291.532 348.454C292.004 348.935 292.733 349.012 293.257 348.772C293.789 348.54 294.107 348.034 294.176 347.596C294.313 346.661 293.755 346.18 293.832 346.146C293.849 346.129 293.995 346.206 294.167 346.438C294.339 346.67 294.528 347.09 294.476 347.631C294.433 348.163 294.09 348.815 293.42 349.141C292.768 349.475 291.815 349.39 291.205 348.763C290.587 348.154 290.501 347.202 290.836 346.549C291.162 345.88 291.815 345.537 292.347 345.494C292.888 345.442 293.309 345.631 293.54 345.803C293.772 345.983 293.849 346.129 293.832 346.146Z" fill="#FAFAFA"/>
<path d="M309.37 385.025C309.335 385.102 308.855 384.553 307.928 384.691C307.49 384.759 306.983 385.077 306.752 385.609C306.511 386.132 306.588 386.861 307.069 387.333C307.541 387.814 308.271 387.891 308.795 387.651C309.327 387.419 309.644 386.913 309.713 386.475C309.842 385.54 309.293 385.06 309.37 385.025C309.387 385.008 309.533 385.085 309.705 385.317C309.876 385.549 310.065 385.969 310.014 386.51C309.971 387.042 309.627 387.694 308.958 388.02C308.305 388.355 307.352 388.269 306.743 387.651C306.125 387.042 306.039 386.089 306.374 385.437C306.7 384.768 307.352 384.425 307.885 384.382C308.426 384.33 308.846 384.519 309.078 384.691C309.31 384.862 309.387 385.008 309.37 385.025Z" fill="#FAFAFA"/>
<path d="M248.601 362.286C248.601 362.329 248.284 362.329 247.743 362.483C247.211 362.638 246.447 363.007 245.863 363.805C245.279 364.577 244.953 365.839 245.408 367.048C245.829 368.25 247.108 369.288 248.601 369.271C250.095 369.288 251.374 368.25 251.795 367.048C252.25 365.839 251.932 364.577 251.34 363.805C250.756 363.007 249.984 362.638 249.46 362.483C248.919 362.329 248.593 362.329 248.601 362.286C248.601 362.269 248.928 362.2 249.503 362.312C250.069 362.423 250.919 362.767 251.597 363.616C252.276 364.431 252.679 365.821 252.19 367.194C251.743 368.55 250.301 369.743 248.61 369.726C246.919 369.743 245.477 368.55 245.03 367.194C244.541 365.821 244.945 364.431 245.623 363.616C246.301 362.767 247.151 362.423 247.717 362.312C248.275 362.209 248.601 362.269 248.601 362.286Z" fill="#FAFAFA"/>
<path d="M306.082 363.024C306.082 363.067 305.764 363.067 305.224 363.222C304.691 363.376 303.927 363.745 303.344 364.543C302.76 365.315 302.434 366.577 302.889 367.786C303.309 368.988 304.588 370.026 306.082 370.009C307.576 370.026 308.855 368.988 309.275 367.786C309.73 366.577 309.413 365.315 308.82 364.543C308.237 363.745 307.464 363.376 306.94 363.222C306.408 363.059 306.082 363.067 306.082 363.024C306.082 363.007 306.408 362.938 306.983 363.05C307.55 363.161 308.4 363.505 309.078 364.346C309.756 365.161 310.16 366.551 309.67 367.924C309.224 369.28 307.782 370.472 306.091 370.455C304.399 370.472 302.957 369.28 302.511 367.924C302.022 366.551 302.425 365.161 303.103 364.346C303.781 363.496 304.631 363.153 305.198 363.041C305.764 362.938 306.082 363.007 306.082 363.024Z" fill="#FAFAFA"/>
<path d="M253.211 385.755C254.174 385.755 254.954 384.975 254.954 384.013C254.954 383.051 254.174 382.271 253.211 382.271C252.249 382.271 251.469 383.051 251.469 384.013C251.469 384.975 252.249 385.755 253.211 385.755Z" fill="#FAFAFA"/>
<path d="M284.922 336.132C285.884 336.132 286.664 335.352 286.664 334.39C286.664 333.428 285.884 332.648 284.922 332.648C283.959 332.648 283.179 333.428 283.179 334.39C283.179 335.352 283.959 336.132 284.922 336.132Z" fill="#FAFAFA"/>
<path d="M319.25 347.888C320.213 347.888 320.993 347.108 320.993 346.146C320.993 345.184 320.213 344.404 319.25 344.404C318.288 344.404 317.508 345.184 317.508 346.146C317.508 347.108 318.288 347.888 319.25 347.888Z" fill="#FAFAFA"/>
<path d="M278.689 343.829C278.707 343.838 278.595 344.027 278.38 344.361C278.131 344.739 277.805 345.219 277.419 345.811C276.526 347.116 275.307 348.883 273.839 351.037L273.702 351.243L273.556 351.046C272.045 349.003 270.251 346.592 268.302 343.966H268.654C267.762 345.168 266.826 346.421 265.873 347.699C265.006 348.849 264.165 349.982 263.349 351.071L263.16 351.32L262.989 351.063C261.229 348.446 259.607 346.034 258.199 343.941L258.491 343.958C256.645 346.052 255.117 347.802 253.992 349.072C253.477 349.647 253.057 350.11 252.722 350.471C252.421 350.788 252.258 350.951 252.25 350.943C252.241 350.934 252.37 350.745 252.645 350.402C252.954 350.024 253.349 349.535 253.838 348.935C254.928 347.63 256.422 345.854 258.216 343.718L258.37 343.537L258.508 343.735C259.933 345.82 261.581 348.214 263.366 350.814L263.006 350.805C263.821 349.716 264.663 348.583 265.521 347.433C266.483 346.155 267.418 344.902 268.311 343.709L268.491 343.469L268.663 343.709C270.586 346.352 272.354 348.78 273.848 350.84H273.565C275.084 348.729 276.346 346.987 277.273 345.708C277.694 345.142 278.046 344.679 278.312 344.31C278.535 343.975 278.672 343.812 278.689 343.829Z" fill="#FAFAFA"/>
<path d="M295.97 377.526C295.987 377.534 295.927 377.732 295.789 378.109C295.635 378.538 295.429 379.079 295.18 379.748C294.613 381.215 293.832 383.223 292.888 385.652L292.802 385.883L292.613 385.72C290.673 384.081 288.373 382.142 285.875 380.031L286.218 379.954C285.626 381.327 284.999 382.76 284.364 384.227C283.789 385.549 283.222 386.844 282.681 388.089L282.561 388.372L282.338 388.166C280.029 386.021 277.891 384.047 276.037 382.331L276.32 382.279C275.007 384.742 273.917 386.793 273.118 388.295C272.749 388.972 272.44 389.522 272.208 389.951C271.994 390.328 271.874 390.525 271.856 390.517C271.839 390.508 271.934 390.294 272.114 389.899C272.328 389.453 272.603 388.895 272.938 388.2C273.702 386.681 274.749 384.613 276.003 382.116L276.106 381.902L276.286 382.065C278.149 383.764 280.303 385.72 282.638 387.848L282.286 387.926C282.827 386.681 283.385 385.386 283.96 384.064C284.604 382.597 285.222 381.164 285.823 379.8L285.943 379.525L286.166 379.714C288.647 381.842 290.922 383.807 292.854 385.463L292.57 385.532C293.566 383.129 294.399 381.138 295 379.688C295.283 379.036 295.515 378.504 295.695 378.092C295.858 377.706 295.953 377.517 295.97 377.526Z" fill="#FAFAFA"/>
<path d="M325.517 362.286C325.525 362.269 325.706 362.389 326.032 362.621C326.401 362.896 326.865 363.239 327.431 363.659C328.685 364.612 330.393 365.925 332.462 367.503L332.659 367.649L332.453 367.787C330.341 369.194 327.835 370.858 325.113 372.669L325.131 372.317C326.281 373.27 327.483 374.265 328.719 375.286C329.826 376.204 330.908 377.114 331.955 377.98L332.195 378.178L331.929 378.332C329.225 379.954 326.727 381.456 324.564 382.751L324.598 382.46C326.599 384.407 328.264 386.029 329.483 387.213C330.024 387.762 330.47 388.2 330.813 388.552C331.114 388.861 331.268 389.032 331.26 389.05C331.251 389.067 331.071 388.921 330.745 388.629C330.376 388.303 329.912 387.883 329.346 387.359C328.101 386.201 326.401 384.622 324.358 382.717L324.186 382.554L324.392 382.425C326.547 381.104 329.028 379.585 331.715 377.946L331.689 378.307C330.642 377.44 329.56 376.539 328.444 375.621C327.217 374.6 326.015 373.596 324.865 372.643L324.633 372.454L324.882 372.291C327.62 370.507 330.144 368.868 332.273 367.478L332.264 367.761C330.238 366.13 328.556 364.783 327.328 363.796C326.779 363.342 326.332 362.973 325.989 362.681C325.663 362.449 325.508 362.303 325.517 362.286Z" fill="#FAFAFA"/>
<g opacity="0.2">
<path opacity="0.2" d="M238.395 363.728L343.407 355.902L341.123 347.502H240.403L238.395 363.728Z" fill="black"/>
</g>
<path d="M293.54 388.492C293.42 388.492 293.394 381.233 293.497 372.283C293.592 363.333 293.772 356.083 293.901 356.083C294.021 356.083 294.047 363.342 293.944 372.291C293.849 381.241 293.669 388.492 293.54 388.492Z" fill="#263238"/>
<path d="M315.473 388.492C315.447 388.501 315.31 388.089 315.096 387.342C314.864 386.51 314.563 385.446 314.211 384.176C313.473 381.499 312.434 377.8 311.241 373.742C310.039 369.675 308.898 366.011 308.065 363.368C307.67 362.106 307.344 361.051 307.086 360.227C306.863 359.481 306.752 359.069 306.777 359.06C306.803 359.052 306.975 359.446 307.249 360.176C307.524 360.905 307.91 361.96 308.365 363.273C309.275 365.899 310.469 369.554 311.67 373.622C312.872 377.689 313.859 381.404 314.52 384.099C314.855 385.446 315.104 386.544 315.267 387.308C315.43 388.063 315.508 388.484 315.473 388.492Z" fill="#263238"/>
<path d="M402.896 261.222L387.281 271.391V114.672H402.896V261.222Z" fill="#F5F5F5"/>
<path d="M387.195 252.058C394.363 230.066 391.153 205.559 399.05 183.756C399.805 181.662 400.681 179.517 400.458 177.329C400.269 175.484 399.299 173.751 398.046 172.24C396.646 170.559 394.543 168.988 392.14 169.16C390.062 169.306 388.354 170.764 387.564 172.421C386.766 174.077 386.714 175.913 386.68 177.706C386.551 184.373 386.586 191.041 386.62 197.699C386.706 214.466 386.8 231.241 386.886 248.008" fill="#E0E0E0"/>
<path d="M387.144 154.693V148.892L402.759 144.421V151.106L387.144 154.693Z" fill="#E0E0E0"/>
<path d="M197.868 178.77C197.868 178.77 196.744 170.052 197.259 166.972C197.799 163.694 203.276 156.752 203.276 156.752C203.199 156.452 202.298 155.697 199.499 156.752C196.701 157.807 195.722 159.772 193.078 161.66L179.498 153.234L175.017 167.478L186.554 185.635L197.868 178.77Z" fill="#FFAD9D"/>
<path d="M257.864 145.443C250.851 152.316 257.589 162.99 253.091 169.881C250.37 174.059 244.532 176.084 243.279 180.915C242.661 183.309 243.356 185.806 243.726 188.252C244.095 190.697 244 193.503 242.223 195.219C241.399 196.017 240.309 196.472 239.382 197.15C236.643 199.167 235.708 202.925 236.017 206.306C236.326 209.695 237.648 212.896 238.566 216.165C241.176 225.389 240.584 235.48 236.927 244.344C240.137 244.387 243.331 242.851 245.314 240.328C245.228 242.602 245.142 244.868 245.056 247.141C248.078 247.33 250.996 245.7 253.014 243.452C255.031 241.195 256.276 238.363 257.332 235.532C262.079 222.789 263.667 208.88 261.899 195.391" fill="#263238"/>
<path d="M315.739 125.827C319.722 131.688 321.439 139.059 320.452 146.078C319.894 150.068 318.512 154.212 319.886 158.005C321.07 161.266 324.203 163.926 324.032 167.392C323.834 171.339 319.379 174.008 318.984 177.938C318.426 183.387 325.749 187.051 325.663 192.525C325.62 195.348 323.603 197.682 322.203 200.136C320.804 202.59 320.177 206.126 322.366 207.902L296.923 206.031L301.455 126.411L315.739 125.827Z" fill="#263238"/>
<path d="M390.277 193.649L390.002 193.641L391.127 189.891L394.715 175.561C395.058 174.257 394.329 172.918 393.033 172.438L390.449 172.352L381.598 168.216C379.924 167.598 378.079 168.645 377.864 170.352C377.538 172.987 375.752 180.066 373.838 177.586C373.795 177.526 373.744 177.483 373.701 177.423C371.022 173.733 367.683 171.743 366.31 171.803C364.97 171.854 364.472 173.476 365.374 174.445C365.503 174.608 365.666 174.763 365.88 174.883C365.966 174.935 366.078 175.02 366.172 175.08C367.211 175.913 368.447 177.397 369.357 178.573C370.224 179.697 370.885 180.967 371.306 182.305C371.778 183.79 372.13 185.094 372.396 186.201L371.709 193.512" fill="#FFAD9D"/>
<path d="M366.653 128.745C366.653 128.745 376.997 126.762 391.865 113.265C406.733 99.7674 414.055 81.4905 415.824 81.6278C417.592 81.765 425.43 78.4014 439.233 110.794C453.037 143.195 447.028 150.454 444.101 150.317C441.173 150.171 421.455 144.07 409.008 145.134C396.552 146.189 380.414 152.204 380.414 152.204L366.653 128.745Z" fill="#455A64"/>
<path d="M344.317 145.554L347.639 152.324L349.124 155.353C351.158 159.515 356.103 161.343 360.361 159.532L382.62 152.479L370.619 122.824L348.265 133.927C343.965 136.064 342.205 141.255 344.317 145.554Z" fill="#263238"/>
<path d="M356.721 156.589L363.357 170.55L366.893 169.675L389.298 188.973L396.063 176.608C396.063 176.608 382.671 170.387 380.302 165.487C377.933 160.588 380.86 159.575 380.86 159.575L374.688 152.144L356.721 156.589Z" fill="#263238"/>
<path d="M438.023 111.343C445.362 128.89 448.178 144.422 444.324 146.035C440.469 147.648 431.396 134.725 424.056 117.178C416.717 99.6301 413.901 84.099 417.755 82.4858C421.61 80.8812 430.683 93.7952 438.023 111.343Z" fill="#263238"/>
<path d="M342.153 155.139L348.179 153.431L344.677 146.301L340.119 148.952L342.153 155.139Z" fill="#455A64"/>
<path d="M376.808 154.693L360.464 164.466L358.575 160.493L376.808 154.693Z" fill="#455A64"/>
<path d="M344.677 146.301L348.179 153.431L346.935 153.783L344.136 146.618L344.677 146.301Z" fill="#455A64"/>
<path d="M348.746 148.034C348.832 148.232 351.845 147.159 355.476 145.64C359.116 144.121 361.992 142.731 361.914 142.534C361.837 142.337 358.815 143.409 355.184 144.937C351.553 146.447 348.669 147.845 348.746 148.034Z" fill="#455A64"/>
<path d="M347.029 143.804C347.115 144.001 349.845 142.937 353.124 141.436C356.403 139.934 358.987 138.561 358.901 138.372C358.815 138.183 356.086 139.239 352.806 140.74C349.527 142.234 346.943 143.606 347.029 143.804Z" fill="#455A64"/>
<path d="M350.944 152.488C350.969 152.59 351.69 152.445 352.832 152.127C353.399 151.973 354.077 151.767 354.824 151.535C355.571 151.286 356.343 150.926 357.176 150.574C360.489 149.15 363.022 147.734 362.944 147.562C362.85 147.348 360.155 148.463 356.875 149.87C356.051 150.214 355.287 150.6 354.566 150.874C353.845 151.14 353.201 151.389 352.66 151.612C351.57 152.058 350.918 152.393 350.944 152.488Z" fill="#455A64"/>
<path d="M422.168 107.044C422.168 107.044 431.258 101.758 435.808 113.969C440.358 126.179 430.898 127.895 430.898 127.895C427.224 121.811 424.288 114.887 422.168 107.044Z" fill="#455A64"/>
<path d="M413.077 92.388C413.025 92.3966 413.128 93.2203 413.36 94.7048C413.6 96.1893 413.944 98.343 414.442 100.986C414.785 102.29 415.154 103.715 415.558 105.242C415.764 106.006 415.97 106.795 416.184 107.61C416.296 108.022 416.399 108.434 416.511 108.854C416.631 109.266 416.794 109.678 416.94 110.099C417.532 111.78 418.159 113.54 418.811 115.367C418.974 115.822 419.137 116.285 419.3 116.749C419.464 117.212 419.695 117.658 419.893 118.113C420.305 119.023 420.717 119.949 421.146 120.885C421.567 121.82 421.987 122.747 422.399 123.656C422.614 124.111 422.794 124.574 423.035 125.003C423.275 125.432 423.507 125.861 423.747 126.29C424.683 127.981 425.593 129.62 426.46 131.181C426.683 131.568 426.88 131.962 427.112 132.331C427.353 132.692 427.593 133.052 427.825 133.404C428.297 134.108 428.752 134.785 429.19 135.446C430.074 136.759 430.898 137.986 431.653 139.102C433.301 141.221 434.692 142.894 435.645 144.053C436.606 145.211 437.156 145.829 437.199 145.803C437.242 145.769 436.77 145.082 435.885 143.872C434.967 142.637 433.679 140.903 432.091 138.767C431.37 137.634 430.572 136.407 429.73 135.086C429.301 134.425 428.863 133.739 428.408 133.044C428.177 132.692 427.953 132.34 427.713 131.971C427.49 131.602 427.292 131.207 427.078 130.821C426.228 129.268 425.344 127.638 424.425 125.947C424.194 125.527 423.962 125.098 423.73 124.669C423.49 124.24 423.318 123.776 423.103 123.33C422.691 122.421 422.279 121.502 421.859 120.576C421.438 119.649 421.026 118.731 420.614 117.821C420.416 117.367 420.185 116.929 420.022 116.466C419.858 116.002 419.687 115.547 419.524 115.101C418.863 113.291 418.227 111.549 417.627 109.884C417.481 109.464 417.309 109.06 417.189 108.648C417.069 108.237 416.957 107.825 416.845 107.421C416.622 106.615 416.399 105.834 416.184 105.07C415.755 103.56 415.352 102.153 414.983 100.857C414.433 98.2658 413.987 96.1549 413.669 94.6533C413.334 93.186 413.128 92.3794 413.077 92.388Z" fill="#263238"/>
<path d="M368.593 190.577L364.112 230.332L341.75 208.056C341.75 208.056 329.783 232.932 329.612 233.944C329.5 234.622 342.162 247.133 351.57 254.358C356.661 258.271 363.537 264.312 369.881 263.299C380.456 261.6 386.74 254.615 387.659 243.95L391.71 191.195L368.593 190.577Z" fill="#E8505B"/>
<path d="M251.529 227.491L235.133 216.628C239.614 191.427 276.028 188.904 276.028 188.904L303.756 188.415C303.756 188.415 324.306 185.617 337.011 199.896C350.162 214.672 360.06 226.299 360.06 226.299L342.067 245.983L324.427 232.142C324.427 232.142 328.745 237.806 328.762 245.451C328.77 253.654 322.65 261.497 322.65 261.497L321.113 275.509L327.835 302.667L249.288 302.873C254.645 294.387 258.473 287.05 263.246 274.505L255.907 248.094L251.529 227.491Z" fill="#E8505B"/>
<path d="M252.722 196.412L212.934 217.452L198.538 178.144L180.974 186.493L193.396 236.527C195.868 246.472 206.401 252.453 216.024 248.901C216.35 248.78 216.668 248.652 216.985 248.514L260.087 229.86L252.722 196.412Z" fill="#E8505B"/>
<path d="M279.196 227.303C279.213 227.406 278.123 227.311 276.664 228.058C275.942 228.427 275.17 229.045 274.56 229.92C273.951 230.795 273.556 231.936 273.547 233.163C273.556 234.391 273.951 235.54 274.56 236.407C275.17 237.282 275.942 237.9 276.664 238.269C278.123 239.016 279.213 238.921 279.196 239.024C279.196 239.05 278.938 239.084 278.466 239.058C277.994 239.033 277.307 238.904 276.526 238.552C275.745 238.2 274.895 237.574 274.226 236.647C273.556 235.729 273.11 234.485 273.101 233.163C273.11 231.842 273.547 230.606 274.226 229.68C274.895 228.753 275.745 228.127 276.526 227.775C277.307 227.414 277.994 227.294 278.466 227.269C278.938 227.243 279.196 227.286 279.196 227.303Z" fill="#FAFAFA"/>
<path d="M307.181 240.972C307.267 240.92 307.533 241.984 308.717 243.117C309.301 243.675 310.134 244.215 311.164 244.499C312.185 244.79 313.396 244.79 314.563 244.404C315.722 244.001 316.675 243.254 317.31 242.396C317.946 241.538 318.28 240.612 318.392 239.805C318.632 238.183 318.186 237.179 318.289 237.162C318.315 237.154 318.426 237.385 318.564 237.84C318.692 238.295 318.795 238.99 318.709 239.839C318.632 240.689 318.306 241.693 317.645 242.628C316.993 243.563 315.963 244.378 314.709 244.816C313.456 245.237 312.143 245.219 311.052 244.885C309.954 244.55 309.086 243.958 308.503 243.332C307.91 242.714 307.567 242.096 307.387 241.658C307.207 241.238 307.155 240.981 307.181 240.972Z" fill="#FAFAFA"/>
<path d="M287.111 285.738C287.162 285.652 287.961 286.39 289.574 286.69C290.373 286.845 291.36 286.827 292.373 286.51C293.386 286.192 294.399 285.532 295.163 284.562C295.91 283.584 296.305 282.443 296.356 281.379C296.416 280.315 296.184 279.354 295.841 278.624C295.146 277.14 294.227 276.548 294.304 276.479C294.322 276.462 294.545 276.591 294.905 276.899C295.257 277.208 295.729 277.732 296.124 278.495C296.519 279.251 296.811 280.272 296.768 281.413C296.734 282.554 296.322 283.798 295.515 284.854C294.699 285.892 293.592 286.604 292.493 286.913C291.394 287.239 290.338 287.214 289.506 287.016C288.673 286.819 288.046 286.501 287.66 286.227C287.282 285.944 287.102 285.755 287.111 285.738Z" fill="#FAFAFA"/>
<path d="M369.649 216.903C369.7 216.817 370.499 217.555 372.113 217.855C372.911 218.01 373.898 217.993 374.911 217.675C375.924 217.358 376.937 216.697 377.701 215.727C378.448 214.749 378.843 213.608 378.894 212.544C378.954 211.48 378.722 210.519 378.379 209.79C377.684 208.305 376.765 207.713 376.842 207.644C376.86 207.627 377.083 207.756 377.443 208.065C377.795 208.374 378.267 208.897 378.662 209.661C379.057 210.416 379.349 211.437 379.306 212.578C379.272 213.719 378.86 214.964 378.053 216.019C377.237 217.057 376.13 217.77 375.031 218.079C373.932 218.405 372.877 218.379 372.044 218.181C371.211 217.984 370.585 217.667 370.198 217.392C369.821 217.109 369.632 216.929 369.649 216.903Z" fill="#FAFAFA"/>
<path d="M377.1 257.044C376.997 257.069 377.023 255.971 376.173 254.572C375.761 253.877 375.091 253.148 374.173 252.599C373.263 252.05 372.095 251.732 370.868 251.809C369.64 251.904 368.524 252.367 367.692 253.036C366.859 253.697 366.292 254.512 365.975 255.259C365.322 256.76 365.494 257.842 365.391 257.833C365.365 257.833 365.314 257.576 365.305 257.104C365.297 256.632 365.382 255.937 365.683 255.139C365.983 254.341 366.55 253.448 367.434 252.719C368.31 251.989 369.511 251.466 370.833 251.372C372.155 251.286 373.417 251.646 374.387 252.256C375.357 252.856 376.044 253.663 376.448 254.418C376.86 255.173 377.031 255.851 377.083 256.323C377.143 256.778 377.126 257.044 377.1 257.044Z" fill="#FAFAFA"/>
<path d="M316.417 206.598C316.495 206.529 316.984 207.507 318.392 208.348C319.087 208.768 320.014 209.103 321.079 209.155C322.143 209.215 323.319 208.949 324.375 208.305C325.414 207.653 326.178 206.709 326.607 205.739C327.036 204.761 327.148 203.783 327.088 202.976C326.959 201.346 326.307 200.462 326.401 200.428C326.418 200.411 326.59 200.617 326.822 201.029C327.045 201.441 327.302 202.093 327.405 202.942C327.517 203.792 327.431 204.838 326.993 205.903C326.564 206.958 325.74 207.988 324.624 208.691C323.491 209.378 322.212 209.652 321.07 209.575C319.928 209.498 318.95 209.103 318.237 208.631C317.525 208.159 317.053 207.636 316.778 207.25C316.503 206.846 316.4 206.606 316.417 206.598Z" fill="#FAFAFA"/>
<path d="M238.438 227.998C238.515 227.929 239.004 228.907 240.412 229.748C241.107 230.169 242.034 230.504 243.099 230.555C244.163 230.615 245.339 230.349 246.395 229.706C247.434 229.053 248.198 228.109 248.627 227.14C249.056 226.162 249.168 225.183 249.108 224.377C248.979 222.747 248.327 221.863 248.421 221.828C248.438 221.811 248.61 222.017 248.842 222.429C249.065 222.841 249.323 223.493 249.426 224.343C249.537 225.192 249.451 226.239 249.014 227.303C248.584 228.358 247.76 229.388 246.644 230.092C245.511 230.778 244.232 231.053 243.09 230.975C241.949 230.898 240.97 230.504 240.257 230.032C239.545 229.56 239.073 229.036 238.798 228.65C238.523 228.255 238.412 228.015 238.438 227.998Z" fill="#FAFAFA"/>
<path d="M206.822 229.585C206.727 229.542 207.431 228.702 207.663 227.08C207.774 226.282 207.714 225.295 207.345 224.291C206.985 223.296 206.272 222.309 205.268 221.597C204.255 220.893 203.096 220.558 202.032 220.558C200.967 220.55 200.014 220.824 199.302 221.202C197.851 221.966 197.302 222.91 197.224 222.841C197.207 222.824 197.327 222.592 197.619 222.223C197.911 221.854 198.409 221.365 199.156 220.927C199.894 220.49 200.898 220.164 202.04 220.147C203.182 220.129 204.444 220.481 205.534 221.236C206.616 222 207.371 223.081 207.74 224.154C208.118 225.235 208.144 226.29 207.98 227.131C207.826 227.972 207.534 228.607 207.285 229.01C207.019 229.405 206.839 229.594 206.822 229.585Z" fill="#FAFAFA"/>
<path d="M295.532 234.965C295.498 235.043 295.017 234.485 294.09 234.631C293.652 234.699 293.145 235.017 292.914 235.549C292.673 236.072 292.751 236.802 293.231 237.274C293.703 237.754 294.433 237.831 294.957 237.591C295.489 237.359 295.807 236.853 295.875 236.416C296.004 235.48 295.446 235 295.532 234.965C295.549 234.948 295.695 235.026 295.867 235.257C296.038 235.489 296.227 235.909 296.176 236.45C296.133 236.982 295.789 237.634 295.12 237.96C294.467 238.295 293.515 238.209 292.905 237.583C292.287 236.973 292.201 236.021 292.536 235.369C292.862 234.699 293.515 234.356 294.047 234.313C294.588 234.262 295.008 234.451 295.24 234.622C295.472 234.802 295.549 234.948 295.532 234.965Z" fill="#FAFAFA"/>
<path d="M323.079 221.528C323.045 221.605 322.564 221.047 321.637 221.193C321.199 221.262 320.693 221.579 320.461 222.111C320.22 222.635 320.298 223.364 320.778 223.836C321.25 224.317 321.98 224.394 322.504 224.154C323.036 223.922 323.354 223.416 323.422 222.978C323.551 222.043 322.993 221.562 323.079 221.528C323.096 221.511 323.242 221.588 323.414 221.82C323.585 222.051 323.774 222.472 323.723 223.012C323.68 223.544 323.336 224.197 322.667 224.523C322.014 224.857 321.062 224.771 320.452 224.145C319.834 223.536 319.748 222.583 320.083 221.931C320.409 221.262 321.062 220.919 321.594 220.876C322.135 220.824 322.555 221.013 322.787 221.185C323.019 221.373 323.096 221.511 323.079 221.528Z" fill="#FAFAFA"/>
<path d="M382.903 199.192C382.869 199.269 382.388 198.712 381.461 198.858C381.023 198.926 380.517 199.244 380.285 199.776C380.044 200.299 380.122 201.029 380.602 201.5C381.075 201.981 381.804 202.058 382.328 201.818C382.86 201.586 383.178 201.08 383.246 200.642C383.384 199.707 382.826 199.227 382.903 199.192C382.92 199.175 383.066 199.252 383.238 199.484C383.41 199.716 383.598 200.136 383.547 200.677C383.504 201.209 383.161 201.861 382.491 202.187C381.839 202.522 380.886 202.436 380.276 201.809C379.658 201.2 379.572 200.248 379.907 199.596C380.233 198.926 380.886 198.583 381.418 198.54C381.959 198.489 382.379 198.677 382.611 198.849C382.843 199.029 382.92 199.175 382.903 199.192Z" fill="#FAFAFA"/>
<path d="M315.405 263.814C315.37 263.891 314.89 263.342 313.962 263.479C313.525 263.548 313.018 263.865 312.786 264.397C312.546 264.921 312.623 265.65 313.104 266.122C313.576 266.603 314.306 266.68 314.829 266.44C315.362 266.208 315.679 265.702 315.748 265.264C315.885 264.329 315.327 263.848 315.405 263.814C315.422 263.797 315.568 263.874 315.739 264.106C315.911 264.337 316.1 264.758 316.048 265.298C316.005 265.83 315.662 266.482 314.993 266.809C314.34 267.143 313.387 267.057 312.778 266.431C312.16 265.822 312.074 264.869 312.409 264.217C312.735 263.548 313.387 263.205 313.92 263.162C314.46 263.11 314.881 263.299 315.113 263.471C315.344 263.651 315.422 263.797 315.405 263.814Z" fill="#FAFAFA"/>
<path d="M222.411 234.965C222.376 235.043 221.896 234.485 220.969 234.631C220.531 234.699 220.024 235.017 219.793 235.549C219.552 236.072 219.629 236.802 220.11 237.274C220.582 237.754 221.312 237.831 221.836 237.591C222.368 237.359 222.685 236.853 222.754 236.416C222.891 235.48 222.333 235 222.411 234.965C222.428 234.948 222.574 235.026 222.746 235.257C222.917 235.489 223.106 235.909 223.055 236.45C223.012 236.982 222.668 237.634 221.999 237.96C221.346 238.295 220.393 238.209 219.784 237.583C219.166 236.973 219.08 236.021 219.415 235.369C219.741 234.699 220.393 234.356 220.926 234.313C221.466 234.262 221.887 234.451 222.119 234.622C222.351 234.802 222.428 234.948 222.411 234.965Z" fill="#FAFAFA"/>
<path d="M273.333 274.771C273.333 274.814 273.015 274.814 272.474 274.969C271.942 275.123 271.178 275.492 270.594 276.29C270.011 277.063 269.685 278.324 270.139 279.534C270.56 280.735 271.839 281.773 273.333 281.756C274.827 281.773 276.106 280.735 276.526 279.534C276.981 278.324 276.664 277.063 276.071 276.29C275.487 275.492 274.715 275.123 274.191 274.969C273.65 274.814 273.333 274.814 273.333 274.771C273.333 274.754 273.659 274.686 274.234 274.797C274.801 274.909 275.651 275.252 276.329 276.102C277.007 276.917 277.41 278.307 276.921 279.68C276.475 281.035 275.033 282.228 273.341 282.211C271.65 282.228 270.208 281.035 269.762 279.68C269.272 278.307 269.676 276.917 270.354 276.102C271.024 275.252 271.882 274.909 272.449 274.797C273.007 274.694 273.333 274.754 273.333 274.771Z" fill="#FAFAFA"/>
<path d="M354.549 227.303C354.549 227.346 354.231 227.346 353.691 227.5C353.158 227.655 352.394 228.024 351.811 228.822C351.227 229.594 350.901 230.855 351.356 232.065C351.776 233.266 353.055 234.305 354.549 234.287C356.043 234.305 357.322 233.266 357.742 232.065C358.197 230.855 357.88 229.594 357.287 228.822C356.704 228.024 355.931 227.655 355.407 227.5C354.867 227.346 354.549 227.346 354.549 227.303C354.549 227.286 354.875 227.217 355.45 227.328C356.017 227.44 356.867 227.783 357.545 228.624C358.223 229.439 358.627 230.829 358.137 232.202C357.691 233.558 356.249 234.751 354.558 234.734C352.867 234.751 351.424 233.558 350.978 232.202C350.489 230.829 350.892 229.439 351.57 228.624C352.24 227.775 353.098 227.431 353.665 227.32C354.223 227.226 354.549 227.286 354.549 227.303Z" fill="#FAFAFA"/>
<path d="M267.444 248.832C268.122 248.154 269.23 248.154 269.908 248.832C270.586 249.51 270.586 250.617 269.908 251.295C269.23 251.972 268.122 251.972 267.444 251.295C266.757 250.608 266.757 249.51 267.444 248.832Z" fill="#FAFAFA"/>
<path d="M203.268 237.934C204.23 237.934 205.01 237.155 205.01 236.193C205.01 235.231 204.23 234.451 203.268 234.451C202.305 234.451 201.525 235.231 201.525 236.193C201.525 237.155 202.305 237.934 203.268 237.934Z" fill="#FAFAFA"/>
<path d="M382.611 226.247C383.574 226.247 384.354 225.468 384.354 224.506C384.354 223.544 383.574 222.764 382.611 222.764C381.649 222.764 380.869 223.544 380.869 224.506C380.869 225.468 381.649 226.247 382.611 226.247Z" fill="#FAFAFA"/>
<path d="M316.615 196.412C317.293 195.734 318.4 195.734 319.079 196.412C319.757 197.09 319.757 198.197 319.079 198.875C318.4 199.553 317.293 199.553 316.615 198.875C315.937 198.197 315.937 197.099 316.615 196.412Z" fill="#FAFAFA"/>
<path d="M276.715 295.262C277.393 294.584 278.501 294.584 279.179 295.262C279.857 295.94 279.857 297.047 279.179 297.725C278.501 298.403 277.393 298.403 276.715 297.725C276.037 297.047 276.037 295.94 276.715 295.262Z" fill="#FAFAFA"/>
<path d="M303.421 256.306C303.438 256.314 303.326 256.503 303.112 256.838C302.863 257.215 302.537 257.696 302.15 258.288C301.258 259.584 300.039 261.36 298.571 263.514L298.433 263.719L298.287 263.522C296.777 261.48 294.982 259.069 293.034 256.443H293.386C292.493 257.644 291.557 258.897 290.604 260.176C289.737 261.325 288.896 262.458 288.081 263.548L287.892 263.797L287.72 263.539C285.96 260.922 284.338 258.511 282.93 256.417L283.222 256.434C281.376 258.528 279.848 260.279 278.724 261.549C278.209 262.123 277.788 262.587 277.453 262.947C277.153 263.265 276.99 263.428 276.981 263.419C276.964 263.411 277.101 263.222 277.376 262.879C277.685 262.501 278.08 262.012 278.569 261.411C279.659 260.107 281.153 258.331 282.947 256.194L283.102 256.014L283.239 256.211C284.664 258.296 286.312 260.69 288.098 263.29L287.737 263.282C288.553 262.192 289.394 261.059 290.253 259.91C291.214 258.631 292.15 257.378 293.042 256.186L293.223 255.945L293.394 256.186C295.317 258.828 297.086 261.257 298.579 263.316H298.296C299.815 261.205 301.077 259.463 302.004 258.185C302.425 257.619 302.777 257.155 303.043 256.786C303.275 256.46 303.412 256.297 303.421 256.306Z" fill="#FAFAFA"/>
<path d="M320.701 285.549C320.718 285.557 320.658 285.755 320.521 286.132C320.366 286.561 320.16 287.102 319.911 287.771C319.345 289.239 318.564 291.246 317.619 293.675L317.533 293.907L317.345 293.743C315.405 292.105 313.104 290.165 310.606 288.054L310.949 287.977C310.357 289.35 309.73 290.783 309.095 292.25C308.52 293.572 307.953 294.868 307.413 296.112L307.292 296.395L307.069 296.189C304.76 294.044 302.623 292.07 300.768 290.354L301.052 290.303C299.738 292.765 298.648 294.816 297.85 296.318C297.481 296.996 297.171 297.545 296.94 297.974C296.725 298.351 296.605 298.549 296.588 298.54C296.571 298.532 296.665 298.317 296.845 297.922C297.06 297.476 297.335 296.918 297.669 296.223C298.433 294.705 299.481 292.637 300.734 290.14L300.837 289.925L301.017 290.088C302.88 291.787 305.035 293.743 307.37 295.871L307.018 295.949C307.558 294.705 308.116 293.409 308.692 292.087C309.335 290.62 309.954 289.187 310.554 287.823L310.675 287.548L310.898 287.737C313.379 289.865 315.654 291.83 317.585 293.486L317.302 293.555C318.297 291.152 319.13 289.161 319.731 287.711C320.014 287.059 320.246 286.527 320.426 286.115C320.589 285.729 320.684 285.54 320.701 285.549Z" fill="#FAFAFA"/>
<path d="M335.045 209.523C335.054 209.506 335.234 209.618 335.578 209.832C335.955 210.09 336.436 210.407 337.028 210.802C338.325 211.694 340.102 212.921 342.239 214.406L342.445 214.543L342.248 214.689C340.205 216.191 337.775 217.975 335.148 219.915V219.563C336.35 220.464 337.595 221.399 338.874 222.36C340.024 223.227 341.149 224.076 342.239 224.9L342.488 225.089L342.231 225.261C339.604 227.011 337.183 228.624 335.088 230.023L335.106 229.731C337.192 231.585 338.934 233.12 340.205 234.245C340.771 234.759 341.235 235.188 341.604 235.514C341.922 235.815 342.085 235.978 342.067 235.986C342.059 236.004 341.87 235.866 341.527 235.592C341.149 235.283 340.66 234.88 340.067 234.39C338.771 233.292 336.994 231.79 334.865 229.988L334.685 229.834L334.882 229.697C336.968 228.281 339.381 226.642 341.99 224.874L341.982 225.235C340.891 224.42 339.767 223.57 338.617 222.703C337.337 221.742 336.093 220.799 334.9 219.898L334.659 219.717L334.9 219.546C337.552 217.632 339.99 215.873 342.05 214.389V214.672C339.947 213.145 338.204 211.875 336.925 210.948C336.359 210.519 335.895 210.176 335.535 209.901C335.2 209.678 335.037 209.541 335.045 209.523Z" fill="#FAFAFA"/>
<path d="M356.395 249.287C356.378 249.278 356.446 249.081 356.584 248.703C356.747 248.283 356.961 247.742 357.219 247.082C357.82 245.623 358.635 243.632 359.631 241.229L359.725 240.998L359.914 241.161C361.82 242.843 364.078 244.825 366.533 246.987L366.189 247.056C366.816 245.691 367.46 244.276 368.129 242.825C368.73 241.513 369.323 240.234 369.889 238.998L370.018 238.715L370.241 238.93C372.507 241.118 374.602 243.143 376.422 244.893L376.139 244.936C377.504 242.499 378.637 240.474 379.469 238.99C379.856 238.321 380.173 237.78 380.414 237.36C380.637 236.991 380.766 236.793 380.783 236.802C380.8 236.81 380.705 237.025 380.517 237.411C380.293 237.849 380.01 238.406 379.658 239.093C378.86 240.594 377.778 242.645 376.465 245.108L376.353 245.322L376.182 245.159C374.353 243.426 372.241 241.418 369.949 239.247L370.301 239.179C369.735 240.414 369.151 241.693 368.542 243.006C367.872 244.456 367.22 245.872 366.593 247.236L366.473 247.502L366.249 247.305C363.812 245.125 361.58 243.117 359.682 241.418L359.966 241.358C358.918 243.744 358.051 245.709 357.416 247.15C357.124 247.794 356.875 248.317 356.687 248.738C356.515 249.107 356.412 249.295 356.395 249.287Z" fill="#FAFAFA"/>
<path d="M220.35 224.308C220.333 224.3 220.402 224.102 220.539 223.725C220.702 223.304 220.917 222.764 221.175 222.103C221.775 220.644 222.591 218.654 223.587 216.251L223.681 216.019L223.87 216.182C225.776 217.864 228.033 219.846 230.489 222.009L230.145 222.077C230.772 220.713 231.416 219.297 232.085 217.847C232.686 216.534 233.278 215.256 233.845 214.02L233.974 213.737L234.197 213.951C236.463 216.139 238.558 218.164 240.378 219.915L240.094 219.958C241.459 217.521 242.592 215.496 243.425 214.011C243.811 213.342 244.129 212.801 244.369 212.381C244.593 212.012 244.721 211.815 244.739 211.823C244.756 211.832 244.661 212.046 244.472 212.432C244.249 212.87 243.966 213.428 243.614 214.114C242.816 215.616 241.734 217.667 240.421 220.129L240.309 220.344L240.137 220.181C238.309 218.448 236.197 216.44 233.905 214.269L234.257 214.2C233.691 215.436 233.107 216.714 232.497 218.027C231.828 219.477 231.175 220.893 230.549 222.257L230.428 222.523L230.205 222.326C227.767 220.147 225.535 218.139 223.638 216.44L223.922 216.38C222.874 218.765 222.007 220.73 221.372 222.172C221.08 222.815 220.831 223.339 220.642 223.759C220.462 224.119 220.368 224.308 220.35 224.308Z" fill="#FAFAFA"/>
<path d="M282.097 214.029C282.089 214.011 282.261 213.891 282.604 213.685C282.999 213.454 283.488 213.153 284.098 212.784C285.463 211.995 287.325 210.914 289.574 209.601L289.789 209.481L289.841 209.721C290.33 212.209 290.914 215.161 291.549 218.37L291.231 218.216C292.553 217.512 293.935 216.783 295.352 216.036C296.631 215.367 297.875 214.706 299.077 214.08L299.352 213.934L299.395 214.243C299.858 217.358 300.288 220.241 300.665 222.738L300.408 222.601C302.975 221.502 305.103 220.584 306.666 219.906C307.378 219.615 307.962 219.374 308.408 219.186C308.812 219.022 309.026 218.945 309.035 218.962C309.044 218.98 308.838 219.091 308.451 219.28C308.005 219.494 307.438 219.76 306.743 220.095C305.198 220.799 303.086 221.768 300.545 222.927L300.331 223.03L300.296 222.789C299.901 220.301 299.446 217.426 298.948 214.312L299.266 214.475C298.064 215.11 296.82 215.77 295.541 216.44C294.124 217.186 292.742 217.907 291.42 218.611L291.154 218.748L291.102 218.456C290.502 215.247 289.944 212.287 289.48 209.79L289.738 209.91C287.454 211.163 285.566 212.201 284.183 212.956C283.557 213.291 283.042 213.557 282.638 213.771C282.304 213.951 282.106 214.046 282.097 214.029Z" fill="#FAFAFA"/>
<path d="M303.266 193.606C303.447 185.892 303.773 177.62 303.773 177.62C303.773 177.62 315.508 176.136 316.014 164.166C316.4 155.045 316.563 140.715 316.615 134.391C316.632 132.503 315.405 130.83 313.593 130.272L294.055 124.248L277.625 136.373L277.23 193.203C277.179 200.428 281.9 204.89 289.128 204.89C296.201 204.899 303.103 200.677 303.266 193.606Z" fill="#FFAD9D"/>
<path d="M303.773 177.62C303.773 177.62 295.918 177.843 288.227 172.532C288.227 172.532 291.884 181.259 303.567 180.555L303.773 177.62Z" fill="#E88B79"/>
<path d="M302.708 163.668C302.914 163.222 302.863 162.664 302.571 162.261C302.279 161.858 301.773 161.634 301.275 161.686C301.206 160.588 300.133 159.687 299.034 159.729C297.935 159.772 296.957 160.691 296.768 161.772C296.571 162.853 297.129 164.011 298.047 164.612C298.966 165.213 300.193 165.273 301.206 164.844C301.996 164.509 302.7 163.823 302.803 162.964" fill="#E88B79"/>
<path d="M312.151 145.769C312.186 146.635 311.473 147.382 310.563 147.425C309.662 147.476 308.898 146.807 308.872 145.94C308.838 145.074 309.55 144.327 310.451 144.284C311.353 144.233 312.117 144.894 312.151 145.769Z" fill="#263238"/>
<path d="M314.151 144.387C313.945 144.602 312.701 143.684 310.932 143.684C309.164 143.667 307.868 144.576 307.67 144.353C307.576 144.259 307.782 143.873 308.348 143.461C308.906 143.049 309.851 142.654 310.958 142.654C312.057 142.663 312.984 143.066 313.516 143.478C314.065 143.907 314.246 144.293 314.151 144.387Z" fill="#263238"/>
<path d="M303.181 157.833C303.172 157.73 304.271 157.542 306.056 157.319C306.511 157.276 306.932 157.181 307.009 156.872C307.112 156.546 306.923 156.057 306.709 155.534C306.288 154.444 305.842 153.294 305.37 152.093C303.515 147.193 302.168 143.169 302.365 143.1C302.562 143.032 304.228 146.936 306.082 151.835C306.528 153.045 306.958 154.195 307.361 155.293C307.533 155.808 307.825 156.392 307.593 157.07C307.473 157.404 307.138 157.653 306.846 157.73C306.554 157.816 306.305 157.825 306.082 157.833C304.296 157.928 303.181 157.936 303.181 157.833Z" fill="#263238"/>
<path d="M297.97 159.061C298.262 159.043 298.262 160.965 299.901 162.33C301.541 163.694 303.593 163.48 303.601 163.746C303.627 163.866 303.146 164.115 302.279 164.14C301.429 164.166 300.193 163.9 299.189 163.068C298.184 162.235 297.755 161.12 297.687 160.33C297.627 159.524 297.841 159.043 297.97 159.061Z" fill="#263238"/>
<path d="M297.652 143.503C297.463 143.975 295.978 143.624 294.193 143.735C292.407 143.804 290.931 144.301 290.733 143.855C290.647 143.641 290.931 143.212 291.54 142.791C292.15 142.371 293.094 142.002 294.167 141.95C295.24 141.899 296.193 142.173 296.811 142.525C297.438 142.886 297.738 143.289 297.652 143.503Z" fill="#263238"/>
<path d="M314.538 140.054C314.16 140.457 312.683 140.037 310.906 140.02C309.129 139.951 307.627 140.286 307.275 139.865C307.121 139.659 307.361 139.256 308.022 138.879C308.666 138.501 309.756 138.192 310.975 138.218C312.194 138.252 313.259 138.613 313.877 139.024C314.495 139.445 314.701 139.857 314.538 140.054Z" fill="#263238"/>
<path d="M297.146 146.953C297.086 146.987 296.88 146.636 296.373 146.284C295.884 145.932 295.051 145.606 294.124 145.683C293.188 145.76 292.399 146.164 291.866 146.49C291.326 146.824 291.017 147.082 290.974 147.03C290.931 146.996 291.163 146.653 291.686 146.232C292.193 145.82 293.034 145.323 294.09 145.237C295.154 145.151 296.081 145.58 296.579 146.043C297.077 146.498 297.189 146.936 297.146 146.953Z" fill="#263238"/>
<path d="M291.102 150.994C291.034 151.097 290.785 151.063 290.536 150.909C290.287 150.754 290.132 150.548 290.201 150.437C290.27 150.325 290.519 150.368 290.768 150.522C291.017 150.685 291.162 150.891 291.102 150.994Z" fill="#E88B79"/>
<path d="M294.158 151.217C294.038 151.2 293.97 150.969 294.004 150.703C294.038 150.437 294.176 150.231 294.296 150.248C294.416 150.265 294.485 150.497 294.45 150.763C294.407 151.029 294.279 151.235 294.158 151.217Z" fill="#E88B79"/>
<path d="M292.493 156.306C292.381 156.255 292.364 156.04 292.467 155.834C292.562 155.62 292.733 155.491 292.845 155.542C292.957 155.594 292.974 155.808 292.871 156.014C292.768 156.22 292.605 156.349 292.493 156.306Z" fill="#E88B79"/>
<path d="M312.151 150.729C312.082 150.832 311.885 150.823 311.713 150.703C311.542 150.591 311.456 150.411 311.524 150.308C311.593 150.205 311.791 150.214 311.962 150.334C312.134 150.445 312.22 150.626 312.151 150.729Z" fill="#E88B79"/>
<path d="M314.091 150.445C313.988 150.385 314.005 150.145 314.143 149.913C314.28 149.682 314.469 149.544 314.58 149.604C314.684 149.664 314.666 149.905 314.529 150.136C314.392 150.368 314.194 150.505 314.091 150.445Z" fill="#E88B79"/>
<path d="M312.778 155.534C312.658 155.516 312.606 155.216 312.666 154.873C312.726 154.53 312.872 154.264 312.992 154.281C313.113 154.298 313.164 154.598 313.104 154.942C313.044 155.293 312.898 155.559 312.778 155.534Z" fill="#E88B79"/>
<path d="M312.143 174.308C312.16 174.274 312.512 174.446 313.181 174.634C313.842 174.815 314.855 175.02 316.074 174.883C317.293 174.754 318.727 174.265 320.014 173.27C321.311 172.292 322.375 170.764 322.804 168.937C323.233 167.118 323.045 165.264 322.461 163.754C321.886 162.235 320.873 161.094 319.843 160.442C318.804 159.772 317.808 159.524 317.13 159.438C316.443 159.352 316.048 159.395 316.048 159.352C316.048 159.335 316.143 159.318 316.332 159.283C316.521 159.258 316.795 159.24 317.147 159.258C317.86 159.292 318.907 159.506 320.014 160.167C321.122 160.819 322.221 162.012 322.847 163.599C323.482 165.178 323.697 167.118 323.242 169.04C322.796 170.962 321.637 172.592 320.263 173.596C318.898 174.617 317.379 175.098 316.1 175.192C314.812 175.286 313.782 175.029 313.121 174.789C312.46 174.557 312.134 174.334 312.143 174.308Z" fill="#E8505B"/>
<g opacity="0.2">
<g opacity="0.2">
<path opacity="0.2" d="M295.721 253.997C295.961 254.109 295.395 256.023 293.326 258.425C292.296 259.618 290.871 260.879 289.068 261.969C287.274 263.059 285.076 263.934 282.664 264.354C280.243 264.749 277.883 264.638 275.831 264.191C273.771 263.754 272.011 263.024 270.655 262.235C267.916 260.648 266.757 259.017 266.946 258.837C267.169 258.571 268.663 259.712 271.35 260.819C274.002 261.935 278.003 262.87 282.295 262.149C286.578 261.42 290.055 259.232 292.201 257.31C294.39 255.396 295.42 253.826 295.721 253.997Z" fill="black"/>
</g>
</g>
<g opacity="0.2">
<path opacity="0.2" d="M252.713 233.061C252.713 233.061 267.684 268.01 266.895 272.583C266.096 277.157 255.606 292.036 255.606 292.036L263.246 274.514C258.765 259.575 255.057 245.528 252.713 233.061Z" fill="black"/>
</g>
<path d="M367.211 240.225C367.108 240.277 366.026 238.218 365.108 235.515C364.181 232.812 363.786 230.521 363.906 230.495C364.035 230.469 364.618 232.692 365.537 235.369C366.447 238.054 367.331 240.174 367.211 240.225Z" fill="#263238"/>
<path d="M369.065 237.814C368.971 237.892 367.554 236.278 366.121 234.047C364.678 231.825 363.786 229.869 363.897 229.817C364.009 229.757 365.073 231.61 366.498 233.807C367.915 236.004 369.168 237.729 369.065 237.814Z" fill="#263238"/>
<path d="M314.349 269.246C314.366 269.271 313.98 269.563 313.267 270.069C312.486 270.61 311.456 271.322 310.22 272.18C307.576 273.991 304.047 276.419 300.15 279.096C296.262 281.799 292.742 284.236 290.115 286.064C288.879 286.913 287.849 287.625 287.068 288.166C286.347 288.655 285.935 288.913 285.917 288.887C285.9 288.861 286.278 288.552 286.965 288.02C287.66 287.488 288.673 286.724 289.935 285.806C292.459 283.953 295.97 281.439 299.901 278.727C303.833 276.016 307.43 273.622 310.057 271.923C311.37 271.073 312.434 270.395 313.181 269.932C313.911 269.46 314.332 269.22 314.349 269.246Z" fill="#263238"/>
<path d="M208.83 226.539C208.719 226.505 209.294 224.325 210.384 221.768C211.466 219.211 212.625 217.272 212.728 217.332C212.839 217.392 211.869 219.408 210.796 221.94C209.715 224.471 208.951 226.573 208.83 226.539Z" fill="#263238"/>
<path d="M211.663 230.358C211.603 230.358 211.577 229.611 211.612 228.41C211.646 227.209 211.766 225.544 211.981 223.725C212.204 221.897 212.479 220.258 212.728 219.083C212.977 217.907 213.174 217.186 213.234 217.203C213.294 217.212 213.2 217.95 213.037 219.143C212.874 220.327 212.642 221.966 212.419 223.785C212.204 225.595 212.041 227.243 211.921 228.436C211.809 229.62 211.723 230.358 211.663 230.358Z" fill="#263238"/>
<path d="M293.952 117.238C297.523 123.373 296.296 131.894 291.145 136.785C288.544 139.247 285.033 140.938 283.411 144.138C281.711 147.502 282.612 151.569 283.84 155.13C285.068 158.691 286.621 162.364 286.106 166.096C285.462 170.739 281.745 174.471 280.956 179.088C279.445 187.917 288.948 195.708 287.84 204.598C287.36 208.494 284.896 211.806 282.758 215.101C280.621 218.396 278.681 222.232 279.419 226.084C279.771 227.921 281.333 229.542 281.153 231.404C280.449 238.912 269.822 239.925 268.285 238.612C270.225 234.914 267.933 229.165 267.702 228.882C267.092 232.168 264.13 234.871 260.808 235.188C261.229 232.331 260.997 229.388 260.13 226.633C258.868 228.753 256.636 230.263 254.19 230.641C256.224 220.267 254.945 209.266 250.576 199.63C249.039 196.24 247.082 192.74 247.589 189.05C248.232 184.279 252.713 181.044 254.825 176.719C257.203 171.854 256.405 166.114 255.752 160.742C255.1 155.362 254.774 149.458 257.864 145.014C259.744 142.302 262.74 140.423 264.259 137.488C265.676 134.768 265.616 131.533 266.474 128.59C268.036 123.253 271.951 117.229 277.204 115.41C282.484 113.599 290.647 111.84 293.952 117.238Z" fill="#263238"/>
<path d="M256.379 219.408C255.091 223.115 253.778 226.96 254.061 230.872C254.344 234.794 256.645 238.844 260.422 239.925C261.856 240.337 263.547 240.371 264.56 241.47C265.401 242.379 265.495 243.786 265.109 244.962C264.731 246.137 263.95 247.133 263.186 248.111C265.538 247.004 267.556 245.219 268.938 243.023C269.633 246.017 268.706 249.347 266.56 251.552C269.453 251.663 271.985 249.673 274.028 247.613C278.698 242.928 282.63 236.75 282.046 230.16C281.462 223.604 276.518 217.898 276.543 211.317C276.552 208.786 277.307 206.314 277.428 203.792C277.556 201.269 276.878 198.446 274.766 197.056" fill="#263238"/>
<path d="M292.768 117.718C295.188 114.689 299.309 113.265 303.163 113.694C307.018 114.123 310.563 116.26 313.13 119.16C315.696 122.06 317.345 125.69 318.349 129.44C318.649 130.555 318.89 131.705 318.752 132.855C318.615 133.996 318.031 135.146 317.027 135.704C315.988 136.279 314.666 136.133 313.593 135.618C312.52 135.103 311.645 134.271 310.786 133.447C310.288 135.738 308.116 137.557 305.773 137.643C303.429 137.729 301.12 136.081 300.451 133.833C299.197 136.845 295.841 138.853 292.596 138.527C289.343 138.201 286.45 135.583 285.814 132.383C285.222 129.397 286.45 126.316 288.167 123.811C289.883 121.305 292.107 119.16 293.875 116.68" fill="#263238"/>
<path d="M248.576 197.245C248.559 197.227 248.842 196.979 249.22 196.395C249.597 195.812 250.001 194.842 250.121 193.521C250.284 192.199 250.069 190.586 249.829 188.707C249.726 187.763 249.632 186.742 249.726 185.652C249.812 184.562 250.155 183.43 250.739 182.366C251.924 180.22 253.984 178.47 256.233 176.814C257.357 175.973 258.525 175.123 259.624 174.137C260.723 173.15 261.753 172.009 262.457 170.627C263.16 169.254 263.461 167.658 263.478 166.036C263.487 164.406 263.229 162.75 262.911 161.068C262.594 159.395 262.19 157.679 262.019 155.894C261.847 154.126 261.838 152.264 262.371 150.471C262.637 149.579 263.04 148.729 263.581 147.974C264.139 147.236 264.791 146.584 265.513 146.043C266.963 144.962 268.56 144.216 270.071 143.409C271.573 142.611 273.041 141.762 274.097 140.535C275.187 139.342 275.711 137.797 275.9 136.261C276.097 134.717 276.037 133.181 276.08 131.679C276.106 130.178 276.277 128.702 276.715 127.346C277.556 124.626 279.162 122.395 280.973 120.816C282.793 119.237 284.827 118.268 286.707 117.881C288.587 117.495 290.278 117.641 291.566 118.019C292.862 118.405 293.738 119.031 294.261 119.503C294.528 119.735 294.699 119.941 294.811 120.087C294.922 120.224 294.982 120.301 294.974 120.301C294.948 120.327 294.734 120.018 294.201 119.572C293.669 119.126 292.802 118.542 291.523 118.19C290.253 117.839 288.596 117.727 286.759 118.13C284.93 118.525 282.956 119.495 281.188 121.056C279.428 122.618 277.883 124.806 277.076 127.458C276.664 128.779 276.5 130.203 276.483 131.696C276.449 133.181 276.509 134.725 276.32 136.321C276.14 137.9 275.582 139.556 274.432 140.826C273.316 142.122 271.796 142.989 270.294 143.804C268.775 144.61 267.195 145.357 265.796 146.404C265.1 146.927 264.482 147.545 263.959 148.24C263.444 148.944 263.066 149.75 262.808 150.6C262.302 152.307 262.302 154.118 262.465 155.851C262.637 157.602 263.023 159.292 263.341 160.982C263.658 162.673 263.916 164.355 263.907 166.036C263.89 167.71 263.572 169.374 262.826 170.807C262.087 172.249 261.014 173.416 259.89 174.42C258.765 175.424 257.581 176.273 256.456 177.106C254.207 178.745 252.173 180.452 251.014 182.511C250.438 183.533 250.095 184.614 250.009 185.669C249.906 186.725 249.984 187.729 250.078 188.672C250.293 190.543 250.481 192.199 250.293 193.538C250.138 194.876 249.7 195.863 249.288 196.438C248.885 197.021 248.576 197.245 248.576 197.245Z" fill="#455A64"/>
<path d="M269.109 216.937C269.109 216.937 268.946 216.603 268.783 215.925C268.629 215.238 268.586 214.174 268.886 212.87C269.169 211.557 269.813 210.056 270.526 208.322C271.204 206.597 272.054 204.53 271.719 202.204C271.556 201.054 271.049 199.922 270.38 198.832C269.71 197.742 268.878 196.687 268.036 195.58C267.195 194.473 266.337 193.28 265.71 191.907C265.083 190.543 264.654 189.033 264.465 187.454C264.113 184.313 264.697 180.838 266.534 177.886C268.363 174.909 271.281 172.746 273.814 170.224C275.075 168.954 276.234 167.589 277.058 166.071C277.47 165.307 277.797 164.518 278.011 163.694C278.226 162.879 278.286 162.029 278.295 161.197C278.209 157.825 276.861 154.736 276.415 151.595C276.191 150.025 276.217 148.437 276.621 146.97C277.033 145.503 277.797 144.224 278.672 143.117C280.466 140.921 282.612 139.385 284.535 138.003C286.484 136.647 288.201 135.386 289.54 134.073C290.888 132.777 291.875 131.473 292.467 130.306C293.669 127.938 293.437 126.359 293.532 126.393C293.532 126.393 293.566 126.762 293.506 127.457C293.446 128.152 293.214 129.182 292.63 130.383C292.047 131.585 291.068 132.923 289.72 134.253C288.381 135.6 286.656 136.896 284.724 138.269C282.819 139.659 280.698 141.204 278.973 143.349C278.131 144.43 277.393 145.674 277.007 147.073C276.621 148.48 276.603 149.999 276.827 151.526C277.273 154.59 278.638 157.687 278.741 161.18C278.732 162.046 278.672 162.93 278.449 163.797C278.226 164.655 277.891 165.487 277.462 166.277C276.612 167.855 275.419 169.246 274.14 170.533C271.564 173.081 268.689 175.226 266.912 178.109C265.126 180.967 264.543 184.339 264.877 187.402C265.058 188.938 265.461 190.406 266.071 191.736C266.671 193.074 267.496 194.241 268.337 195.348C269.169 196.455 270.002 197.528 270.68 198.643C271.35 199.759 271.874 200.943 272.037 202.153C272.363 204.598 271.461 206.692 270.758 208.417C270.019 210.15 269.358 211.626 269.049 212.913C268.732 214.191 268.74 215.23 268.86 215.908C269.006 216.577 269.135 216.929 269.109 216.937Z" fill="#455A64"/>
<path d="M314.048 132.074C313.971 132.082 313.808 130.658 313.379 128.41C313.155 127.286 312.838 125.956 312.254 124.574C311.67 123.201 310.786 121.76 309.499 120.627C308.211 119.486 306.614 118.902 305.138 118.714C303.653 118.516 302.288 118.619 301.146 118.748C298.871 119.04 297.481 119.374 297.463 119.297C297.455 119.271 297.798 119.16 298.425 118.997C299.051 118.834 299.961 118.611 301.103 118.439C302.245 118.267 303.644 118.122 305.189 118.31C306.726 118.491 308.426 119.091 309.79 120.301C311.155 121.494 312.048 123.004 312.632 124.428C313.216 125.861 313.499 127.226 313.688 128.367C313.877 129.508 313.962 130.444 314.014 131.087C314.065 131.713 314.074 132.074 314.048 132.074Z" fill="#455A64"/>
<path d="M302.803 134.588C302.734 134.579 302.854 133.541 302.992 131.868C303.103 130.212 303.232 127.852 302.468 125.432C302.082 124.231 301.515 123.158 300.811 122.335C300.107 121.511 299.3 120.919 298.571 120.55C297.086 119.803 295.995 119.898 296.004 119.803C296.004 119.778 296.262 119.726 296.742 119.76C297.223 119.786 297.918 119.915 298.708 120.267C299.489 120.619 300.365 121.211 301.12 122.069C301.884 122.927 302.494 124.051 302.897 125.295C303.687 127.818 303.498 130.229 303.309 131.894C303.206 132.735 303.086 133.404 303 133.867C302.897 134.339 302.829 134.597 302.803 134.588Z" fill="#455A64"/>
<path d="M402.759 101.132V69.2456H179.489V348.643H402.759V253.131L387.144 263.41V299.664H195.902V100.788H387.135V117.306C391.779 114.26 398.561 106.906 402.759 101.132Z" fill="#F5F5F5"/>
<path d="M201.843 84.8798C202.667 84.5279 203.259 83.6785 203.259 82.6745C203.259 81.3617 202.263 80.2891 201.027 80.2891C199.791 80.2891 198.787 81.3531 198.787 82.6659C198.787 83.6785 199.379 84.5451 200.22 84.8883C198.34 85.1715 197.542 86.4243 197.199 87.4969C197.988 88.3807 199.07 88.9899 200.306 89.1615H201.688C202.941 88.9985 204.04 88.3721 204.839 87.4711C204.487 86.39 203.697 85.1543 201.843 84.8798Z" fill="#455A64"/>
<path d="M201.01 89.2129C201.01 89.17 201.465 89.1872 202.229 88.9813C202.984 88.7753 204.092 88.2605 204.933 87.1192C205.783 86.0209 206.255 84.2018 205.603 82.4513C205.285 81.5932 204.701 80.7695 203.886 80.186C203.079 79.5854 202.049 79.2507 200.993 79.2421C199.928 79.2507 198.907 79.5939 198.1 80.1946C197.284 80.7781 196.701 81.6018 196.392 82.4685C195.739 84.219 196.22 86.0295 197.078 87.1278C197.928 88.2605 199.036 88.7753 199.791 88.9813C200.555 89.1872 201.01 89.17 201.01 89.2129C201.01 89.2301 200.898 89.2301 200.684 89.2387C200.469 89.2473 200.152 89.2215 199.748 89.1357C198.958 88.9727 197.782 88.4836 196.855 87.2994C196.4 86.7159 196.014 85.9694 195.851 85.1113C195.696 84.2533 195.713 83.2837 196.057 82.3484C196.383 81.4131 197.01 80.5292 197.877 79.8857C198.735 79.2335 199.851 78.8646 200.993 78.8474C202.135 78.856 203.25 79.225 204.118 79.8685C204.993 80.5035 205.62 81.3873 205.946 82.3226C206.298 83.2493 206.315 84.2275 206.161 85.0856C205.997 85.9523 205.611 86.6988 205.165 87.2823C204.238 88.4664 203.062 88.9555 202.28 89.1271C201.877 89.2129 201.559 89.2387 201.345 89.2387C201.122 89.2301 201.01 89.2215 201.01 89.2129Z" fill="#455A64"/>
<path d="M387.041 78.9161C387.049 79.5339 386.56 80.0316 385.942 80.0401C385.324 80.0487 384.826 79.5596 384.817 78.9418C384.809 78.324 385.298 77.8263 385.916 77.8177C386.526 77.8092 387.032 78.2983 387.041 78.9161Z" fill="#455A64"/>
<path d="M387.092 82.9234C387.101 83.5412 386.611 84.0389 385.993 84.0475C385.375 84.0561 384.877 83.567 384.869 82.9491C384.86 82.3313 385.349 81.8336 385.968 81.8251C386.577 81.8165 387.084 82.3056 387.092 82.9234Z" fill="#455A64"/>
<path d="M387.135 86.9219C387.144 87.5397 386.654 88.0374 386.036 88.046C385.418 88.0546 384.92 87.5655 384.912 86.9477C384.903 86.3299 385.392 85.8322 386.011 85.8236C386.629 85.815 387.135 86.3127 387.135 86.9219Z" fill="#455A64"/>
<path d="M310.228 84.2275C310.228 84.3476 288.218 84.4506 261.083 84.4506C233.931 84.4506 211.929 84.3476 211.929 84.2275C211.929 84.1074 233.931 84.0044 261.083 84.0044C288.218 84.0044 310.228 84.0988 310.228 84.2275Z" fill="#263238"/>
<path d="M230.609 324.231L228.342 323.227C227.252 323.819 226.291 324.111 225.415 324.119C221.947 324.154 219.106 321.356 219.08 317.898C219.046 314.44 221.844 311.591 225.304 311.566C228.763 311.531 231.613 314.329 231.639 317.787C231.656 319.331 231.098 320.807 230.077 321.974L230.609 324.231ZM225.312 311.995C222.085 312.021 219.483 314.672 219.509 317.898C219.535 321.125 222.188 323.725 225.415 323.699C226.248 323.69 227.166 323.399 228.231 322.807L228.325 322.755L229.991 323.502L229.613 321.863L229.69 321.777C230.686 320.678 231.227 319.263 231.218 317.795C231.184 314.56 228.54 311.96 225.312 311.995Z" fill="#263238"/>
<path d="M245.151 323.253L242.549 316.929L237.682 312.509L249.468 312.406L245.151 323.253ZM238.79 312.93L242.936 316.723L245.151 322.103L248.85 312.836L238.79 312.93Z" fill="#263238"/>
<path d="M249.03 312.435L242.609 316.619L242.843 316.979L249.265 312.794L249.03 312.435Z" fill="#263238"/>
<path d="M386.586 323.45L381.667 318.619L377.074 323.296L376.945 309.318L386.457 309.232L386.586 323.45ZM381.658 318.01L381.813 318.156L386.148 322.412L386.036 309.652L377.383 309.729L377.495 322.24L381.658 318.01Z" fill="#263238"/>
<path d="M212.049 313.848C211.715 312.166 210.041 310.853 208.324 310.922C206.624 310.991 205.079 312.406 204.856 314.088C204.598 312.406 203.036 311.016 201.336 310.982C199.619 310.939 197.971 312.286 197.662 313.968C197.439 315.195 197.868 316.474 198.564 317.512C199.259 318.55 200.212 319.391 201.147 320.215C202.461 321.373 203.68 322.463 204.993 323.621C206.289 322.437 207.388 321.33 208.676 320.146C209.603 319.305 210.53 318.447 211.208 317.392C211.886 316.362 212.298 315.075 212.049 313.848Z" fill="#E8505B"/>
<path d="M179.489 174.789C180.433 175.467 180.845 175.878 181.773 176.582C182.7 177.286 183.996 177.715 185.026 177.183C186.125 176.616 186.494 175.175 186.322 173.948C186.159 172.721 185.601 171.58 185.352 170.361C186.065 170.696 186.975 170.37 187.455 169.752C187.936 169.125 188.048 168.276 187.928 167.495C187.807 166.714 187.481 165.985 187.155 165.264C187.438 165.719 188.211 165.547 188.468 165.084C188.734 164.621 188.64 164.046 188.511 163.522C188.194 162.244 187.67 160.948 186.674 160.081C185.678 159.215 184.099 158.906 183.017 159.661C182.15 160.262 180.579 161.145 180.322 162.175C179.42 165.796 179.73 171.133 179.472 174.866" fill="#E0E0E0"/>
<path d="M384.508 165.547C385.504 165.959 385.993 167.075 385.616 168.078C384.903 170.009 383.753 173.03 382.894 174.857C382.62 175.449 382.319 176.05 381.839 176.488C381.358 176.925 380.654 177.183 380.036 176.96C379.392 176.728 379.014 176.016 378.963 175.329C378.911 174.643 379.126 173.965 379.349 173.313C379.959 171.511 381.006 168.816 381.899 166.62C382.319 165.607 383.487 165.118 384.508 165.547Z" fill="#FFAD9D"/>
<path d="M387.324 169.1C388.32 169.512 388.809 170.627 388.431 171.631C387.719 173.562 386.569 176.582 385.71 178.41C385.435 179.002 385.135 179.602 384.654 180.04C384.174 180.478 383.47 180.735 382.852 180.512C382.208 180.28 381.83 179.568 381.778 178.882C381.727 178.195 381.942 177.517 382.165 176.865C382.774 175.063 383.822 172.369 384.714 170.172C385.126 169.16 386.294 168.671 387.324 169.1Z" fill="#FFAD9D"/>
<path d="M389.968 171.348C390.826 171.7 391.247 172.669 390.929 173.545C390.311 175.209 389.315 177.835 388.569 179.414C388.328 179.929 388.071 180.443 387.65 180.83C387.238 181.216 386.62 181.43 386.088 181.241C385.53 181.035 385.204 180.426 385.152 179.834C385.109 179.242 385.298 178.659 385.487 178.092C386.01 176.531 386.92 174.197 387.693 172.3C388.071 171.408 389.084 170.987 389.968 171.348Z" fill="#FFAD9D"/>
<path d="M393.384 172.112C394.251 172.472 394.672 173.442 394.354 174.317C393.736 175.99 392.732 178.624 391.985 180.22C391.745 180.735 391.487 181.259 391.067 181.636C390.646 182.022 390.037 182.245 389.504 182.048C388.938 181.842 388.612 181.224 388.569 180.632C388.526 180.032 388.715 179.448 388.903 178.882C389.427 177.312 390.346 174.969 391.118 173.064C391.479 172.163 392.492 171.743 393.384 172.112Z" fill="#FFAD9D"/>
<path d="M382.027 176.565C381.916 176.514 382.508 174.9 383.358 172.961C384.208 171.022 384.989 169.486 385.101 169.537C385.212 169.589 384.62 171.202 383.77 173.141C382.92 175.081 382.139 176.616 382.027 176.565Z" fill="#E88B79"/>
<path d="M385.101 179.517C384.989 179.474 385.641 177.629 386.56 175.406C387.478 173.184 388.32 171.416 388.431 171.468C388.543 171.519 387.891 173.356 386.972 175.578C386.053 177.8 385.212 179.56 385.101 179.517Z" fill="#E88B79"/>
<path d="M388.311 179.911C388.2 179.851 388.912 178.29 389.719 176.342C390.534 174.394 391.144 172.789 391.264 172.824C391.376 172.858 390.955 174.54 390.131 176.514C389.315 178.478 388.414 179.963 388.311 179.911Z" fill="#E88B79"/>
<path d="M402.758 101.132C402.758 101.132 402.741 100.445 402.741 99.0981C402.733 97.7423 402.733 95.7258 402.724 93.0487C402.716 87.6943 402.707 79.7228 402.69 69.2457L402.767 69.3229C362.344 69.3401 282.166 69.383 179.498 69.4431L179.695 69.2457C179.704 135.472 179.712 212.501 179.721 294.31C179.721 312.724 179.721 330.889 179.721 348.652L179.498 348.428C262.388 348.446 338.711 348.454 402.767 348.471L402.587 348.652C402.621 287.196 402.647 236.536 402.664 201.235C402.681 183.584 402.698 169.778 402.716 160.382C402.724 155.688 402.733 152.093 402.741 149.664C402.75 147.245 402.767 146 402.767 146C402.767 146 402.784 147.245 402.793 149.664C402.801 152.093 402.81 155.679 402.819 160.382C402.827 169.786 402.844 183.593 402.87 201.235C402.887 236.536 402.913 287.196 402.947 348.652V348.832H402.767C338.711 348.84 262.388 348.857 179.498 348.875H179.275V348.652C179.275 330.889 179.275 312.724 179.275 294.31C179.283 212.51 179.292 135.48 179.3 69.2457V69.0483H179.498C282.166 69.0998 362.344 69.1427 402.767 69.1685H402.844V69.2457C402.827 79.7228 402.819 87.6943 402.81 93.0487C402.801 95.7258 402.793 97.7423 402.793 99.0981C402.767 100.445 402.758 101.132 402.758 101.132Z" fill="#263238"/>
<path d="M174.922 166.517C175.386 165.65 176.553 165.341 177.403 165.882C178.854 166.8 180.425 167.77 181.79 168.654C182.382 169.04 183.009 169.426 183.361 170.018C183.713 170.61 183.687 171.468 183.095 171.88C182.502 172.292 181.678 172.095 181.009 171.829C180.794 171.743 177.377 169.683 175.48 168.533C174.776 168.096 174.536 167.238 174.922 166.517Z" fill="#FFAD9D"/>
<path d="M174.519 161.789C175.06 160.734 176.399 160.399 177.369 161.077C179.026 162.244 180.82 163.479 182.382 164.595C183.06 165.084 183.773 165.582 184.176 166.311C184.571 167.049 184.537 168.096 183.859 168.585C183.18 169.074 182.228 168.808 181.472 168.465C181.232 168.353 177.326 165.736 175.163 164.277C174.339 163.737 174.072 162.664 174.519 161.789Z" fill="#FFAD9D"/>
<path d="M175.231 157.79C175.781 156.744 177.128 156.426 178.09 157.121C179.73 158.305 181.506 159.567 183.052 160.708C183.721 161.206 184.434 161.712 184.82 162.45C185.206 163.188 185.155 164.235 184.477 164.715C183.79 165.196 182.846 164.921 182.09 164.561C181.85 164.449 177.987 161.772 175.841 160.287C175.025 159.73 174.776 158.657 175.231 157.79Z" fill="#FFAD9D"/>
<path d="M175.618 153.2C176.219 151.99 177.729 151.604 178.82 152.385C180.682 153.732 182.708 155.165 184.468 156.46C185.232 157.027 186.039 157.602 186.494 158.451C186.949 159.301 186.906 160.51 186.151 161.068C185.387 161.635 184.322 161.326 183.464 160.922C183.189 160.794 178.794 157.756 176.356 156.066C175.429 155.439 175.12 154.204 175.618 153.2Z" fill="#FFAD9D"/>
<path d="M184.056 161.446C183.987 161.549 182.425 160.579 180.571 159.283C178.717 157.988 177.266 156.855 177.343 156.752C177.412 156.649 178.974 157.619 180.828 158.914C182.674 160.219 184.125 161.351 184.056 161.446Z" fill="#E88B79"/>
<path d="M182.957 165.033C182.889 165.136 181.403 164.269 179.635 163.102C177.867 161.935 176.493 160.905 176.553 160.802C176.622 160.699 178.107 161.566 179.875 162.733C181.652 163.9 183.026 164.93 182.957 165.033Z" fill="#E88B79"/>
<path d="M183.043 169.537C182.974 169.64 181.489 168.774 179.721 167.607C177.953 166.44 176.579 165.41 176.639 165.307C176.708 165.204 178.193 166.071 179.961 167.238C181.73 168.405 183.112 169.434 183.043 169.537Z" fill="#E88B79"/>
<path d="M387.144 117.306C387.144 117.306 387.135 116.946 387.126 116.242C387.126 115.53 387.118 114.483 387.109 113.093C387.101 110.304 387.092 106.177 387.075 100.788L387.144 100.857C356.867 100.883 286.209 100.934 195.911 100.994L196.117 100.788C196.126 136.973 196.126 176.685 196.134 218.224C196.134 246.361 196.126 273.664 196.126 299.673L195.911 299.458C275.848 299.501 343.776 299.535 387.144 299.553L387.023 299.673C387.049 282.975 387.066 269.846 387.084 260.879C387.101 256.4 387.109 252.968 387.118 250.651C387.126 249.501 387.126 248.617 387.135 248.025C387.144 247.433 387.152 247.141 387.152 247.141C387.152 247.141 387.161 247.442 387.169 248.025C387.169 248.617 387.178 249.493 387.187 250.651C387.195 252.968 387.204 256.409 387.221 260.879C387.238 269.846 387.255 282.975 387.281 299.673V299.793H387.161C343.793 299.819 275.865 299.844 195.928 299.887H195.713V299.673C195.713 273.673 195.705 246.369 195.705 218.224C195.713 176.694 195.713 136.973 195.722 100.788V100.583H195.928C286.226 100.651 356.884 100.703 387.161 100.72H387.229V100.788C387.212 106.177 387.204 110.304 387.195 113.093C387.187 114.483 387.178 115.53 387.178 116.242C387.152 116.946 387.144 117.306 387.144 117.306Z" fill="#263238"/>
<path d="M387.144 169.1C387.023 169.1 386.92 164.809 386.92 159.524C386.92 154.229 387.023 149.948 387.144 149.948C387.264 149.948 387.367 154.238 387.367 159.524C387.367 164.809 387.264 169.1 387.144 169.1Z" fill="#263238"/>
<path d="M477.777 395.777C477.777 395.897 398.226 396 300.107 396C201.963 396 122.421 395.897 122.421 395.777C122.421 395.657 201.954 395.554 300.107 395.554C398.226 395.554 477.777 395.648 477.777 395.777Z" fill="#263238"/>
<path d="M362.472 44.5074C364.189 43.8038 365.417 42.0533 365.443 39.9768C365.477 37.2567 363.434 35.0257 360.884 34.9914C358.335 34.957 356.24 37.1365 356.206 39.8566C356.18 41.9503 357.39 43.7437 359.107 44.4731C351.991 45.4856 352.248 53.2083 352.248 53.2083L369.048 53.4314C369.057 53.4314 369.511 45.6315 362.472 44.5074Z" fill="#455A64"/>
<path d="M462.84 245.64H464.437L467.922 240.792V237.608C467.922 237.608 470.386 237.454 470.102 241.624C469.811 245.794 470.128 244.73 470.128 244.73C470.128 244.73 475.365 244.747 475.802 245.202C476.12 245.528 476.266 250.728 476.317 253.551C476.343 254.967 475.476 256.288 474.154 256.623C473.965 256.675 473.777 256.7 473.588 256.7C472.283 256.7 465.604 255.636 465.604 255.636H462.849V245.64H462.84Z" fill="#455A64"/>
<path d="M458.273 244.764L459.252 255.671H461.982V244.979L458.273 244.764Z" fill="#455A64"/>
<path d="M167.626 57.4215C167.119 54.8644 164.595 52.8651 161.986 52.9595C159.402 53.0539 157.05 55.1905 156.698 57.7476C156.32 55.1905 153.951 53.0711 151.367 53.0024C148.757 52.9338 146.251 54.9588 145.77 57.5159C145.418 59.3865 146.062 61.3257 147.109 62.9046C148.156 64.4834 149.599 65.7705 151.015 67.0319C153.007 68.7995 154.844 70.4642 156.827 72.2318C158.801 70.447 160.475 68.7652 162.449 66.9804C163.857 65.7019 165.282 64.4148 166.321 62.8188C167.368 61.2399 167.986 59.2921 167.626 57.4215Z" fill="#455A64"/>
<path d="M440.461 354.255C438.555 356.975 434.847 356.074 433.13 354.418C431.413 352.753 430.683 350.35 430.022 348.051C428.512 342.799 426.992 337.299 428.108 331.953C428.443 330.357 429.044 328.761 430.168 327.577C431.293 326.393 433.018 325.689 434.598 326.101C436.469 326.599 437.628 328.427 438.469 330.169C440.942 335.283 442.246 340.955 442.264 346.644C442.272 349.278 441.955 352.058 440.461 354.255Z" fill="#E8505B"/>
<g opacity="0.2">
<g opacity="0.2">
<path opacity="0.2" d="M440.461 354.255C438.555 356.975 434.847 356.074 433.13 354.418C431.413 352.753 430.683 350.35 430.022 348.051C428.512 342.799 426.992 337.299 428.108 331.953C428.443 330.357 429.044 328.761 430.168 327.577C431.293 326.393 433.018 325.689 434.598 326.101C436.469 326.599 437.628 328.427 438.469 330.169C440.942 335.283 442.246 340.955 442.264 346.644C442.272 349.278 441.955 352.058 440.461 354.255Z" fill="black"/>
</g>
</g>
<path d="M433.31 368.044C430.194 366.439 426.52 366.225 423.052 366.8C421.189 367.108 419.249 367.666 417.987 369.056C416.725 370.455 416.485 372.909 417.936 374.11C418.803 374.823 420.004 374.934 421.129 374.917C423.842 374.883 426.846 374.411 429.018 376.041C430.254 376.968 431.078 378.521 432.555 378.976C433.997 379.422 435.628 378.572 436.4 377.268C437.165 375.964 437.19 374.333 436.838 372.866C436.83 372.866 436.452 369.666 433.31 368.044Z" fill="#E8505B"/>
<path d="M445.697 358.159C443.628 355.705 443.234 352.118 444.152 349.038C445.071 345.957 447.157 343.34 449.552 341.203C452.367 338.698 455.672 336.75 459.226 335.497C460.625 335.008 462.102 334.613 463.578 334.759C465.055 334.897 466.54 335.652 467.227 336.964C468.248 338.904 467.27 341.263 466.214 343.177C464.351 346.558 462.231 349.801 459.861 352.847C457.956 355.302 455.775 357.721 452.874 358.837C449.972 359.944 446.959 359.815 445.414 357.807" fill="#E8505B"/>
<path d="M440.59 395.331C440.555 395.331 440.495 394.893 440.418 394.095C440.332 393.194 440.22 392.062 440.092 390.714C439.937 389.29 439.723 387.6 439.328 385.763C438.933 383.927 438.315 381.936 437.525 379.92C436.71 377.912 435.705 376.093 434.538 374.634C433.379 373.167 432.031 372.111 430.761 371.494C429.499 370.867 428.366 370.618 427.584 370.507C426.795 370.43 426.348 370.361 426.348 370.327C426.348 370.292 426.795 370.284 427.602 370.309C428.408 370.361 429.585 370.567 430.915 371.176C432.254 371.768 433.679 372.849 434.898 374.342C436.126 375.835 437.156 377.697 437.997 379.74C438.804 381.79 439.414 383.807 439.783 385.677C440.16 387.548 440.332 389.264 440.444 390.697C440.547 392.13 440.59 393.289 440.615 394.095C440.633 394.885 440.624 395.331 440.59 395.331Z" fill="#263238"/>
<path d="M440.358 392.731C440.341 392.731 440.332 392.533 440.323 392.156C440.323 391.727 440.323 391.177 440.332 390.517C440.332 389.092 440.332 387.033 440.255 384.484C440.126 379.396 439.688 372.36 438.847 364.637C437.997 356.906 436.864 349.956 435.834 344.97C435.594 343.717 435.345 342.593 435.113 341.607C434.89 340.62 434.701 339.77 434.52 339.075C434.366 338.423 434.237 337.9 434.134 337.479C434.048 337.11 434.014 336.921 434.031 336.913C434.048 336.904 434.117 337.093 434.229 337.453C434.357 337.865 434.512 338.389 434.709 339.024C434.924 339.71 435.139 340.551 435.387 341.538C435.645 342.516 435.92 343.64 436.186 344.893C437.31 349.878 438.504 356.837 439.353 364.586C440.203 372.326 440.581 379.379 440.615 384.484C440.65 387.033 440.59 389.101 440.529 390.525C440.487 391.195 440.452 391.735 440.426 392.164C440.401 392.533 440.375 392.731 440.358 392.731Z" fill="#263238"/>
<path d="M440.324 379.13C440.289 379.13 440.298 378.521 440.332 377.414C440.392 376.316 440.547 374.72 440.856 372.763C441.182 370.816 441.645 368.507 442.367 365.993C443.053 363.47 443.998 360.75 445.199 357.979C447.551 352.41 450.745 347.854 453.518 345.03C454.17 344.284 454.891 343.743 455.475 343.211C455.775 342.954 456.041 342.705 456.307 342.508C456.582 342.319 456.831 342.147 457.063 341.984C457.973 341.358 458.488 341.032 458.505 341.058C458.591 341.169 456.462 342.422 453.767 345.279C451.088 348.128 447.989 352.659 445.654 358.176C444.461 360.922 443.517 363.616 442.804 366.113C442.058 368.602 441.568 370.893 441.199 372.815C440.847 374.746 440.641 376.324 440.512 377.414C440.427 378.53 440.358 379.13 440.324 379.13Z" fill="#263238"/>
<path d="M150.054 341.204C152.861 341.573 155.359 343.357 157.015 345.648C158.672 347.948 159.556 350.72 160.02 353.508C160.921 358.906 159.462 365.041 157.462 370.138C151.951 367.555 149.015 361.137 147.736 357.79C145.701 352.496 145.246 341.701 150.054 341.204Z" fill="#455A64"/>
<path d="M165.583 377.74C163.831 375.106 163.874 371.494 165.368 368.713C166.862 365.925 169.652 363.96 172.699 363.102C174.107 362.707 175.729 362.561 176.931 363.402C178.047 364.191 178.511 365.684 178.33 367.04C178.15 368.396 177.437 369.623 176.596 370.704C173.72 374.402 170.261 377.457 165.583 377.74Z" fill="#455A64"/>
<path d="M164.192 394.842C164.149 394.842 164.089 394.438 164.012 393.709C163.934 392.971 163.84 391.907 163.771 390.594C163.643 387.969 163.531 384.262 164.398 380.272C165.274 376.282 167.205 372.978 169.094 371.082C170.029 370.121 170.896 369.468 171.531 369.082C172.167 368.696 172.544 368.533 172.562 368.567C172.63 368.67 171.145 369.426 169.411 371.382C167.66 373.304 165.849 376.522 164.999 380.409C164.149 384.305 164.183 387.96 164.2 390.586C164.235 393.203 164.278 394.842 164.192 394.842Z" fill="#263238"/>
<path d="M151.333 349.389C151.376 349.372 151.616 350.007 152.028 351.157C152.44 352.307 153.007 353.98 153.685 356.057C155.041 360.201 156.818 365.967 158.629 372.369C160.432 378.778 161.926 384.622 162.939 388.869C163.445 390.989 163.831 392.714 164.08 393.906C164.329 395.099 164.449 395.768 164.407 395.777C164.364 395.786 164.166 395.142 163.849 393.966C163.505 392.688 163.059 391.006 162.518 388.981C161.402 384.768 159.848 378.95 158.046 372.54C156.243 366.139 154.526 360.364 153.281 356.185C152.689 354.178 152.191 352.504 151.813 351.234C151.461 350.059 151.298 349.407 151.333 349.389Z" fill="#263238"/>
<path d="M158.243 382.872C155.556 376.771 149.744 372.146 143.195 370.893C141.529 370.575 139.469 370.618 138.542 372.043C137.615 373.467 138.405 375.372 139.409 376.754C143.572 382.477 151.427 385.223 158.252 383.335" fill="#455A64"/>
<path d="M145.032 375.69C145.04 375.647 145.427 375.69 146.13 375.801C146.482 375.853 146.912 375.93 147.392 376.067C147.882 376.205 148.44 376.325 149.032 376.556C150.242 376.96 151.624 377.595 153.084 378.444C154.526 379.319 156.028 380.426 157.436 381.773C158.827 383.138 159.977 384.605 160.904 386.012C161.797 387.445 162.484 388.801 162.921 390.002C163.179 390.586 163.316 391.144 163.471 391.624C163.625 392.105 163.72 392.525 163.78 392.877C163.917 393.572 163.969 393.958 163.926 393.967C163.806 393.992 163.505 392.456 162.518 390.157C162.037 389.007 161.325 387.694 160.423 386.313C159.496 384.957 158.355 383.532 156.998 382.202C155.625 380.89 154.174 379.8 152.783 378.916C151.375 378.067 150.045 377.397 148.877 376.951C146.56 376.059 145.006 375.81 145.032 375.69Z" fill="#263238"/>
<path d="M439.027 196.875C439.036 196.875 439.062 196.97 439.104 197.167C439.13 197.365 439.182 197.656 439.173 198.034C439.165 198.798 438.941 199.939 438.22 201.174C437.516 202.419 436.297 203.671 434.847 204.976C433.422 206.314 431.834 207.824 430.1 209.455L429.971 209.575L429.833 209.455C428.383 208.168 426.829 206.786 425.198 205.327C423.593 203.886 421.713 202.341 420.811 200.033C420.253 198.617 420.193 196.953 420.923 195.614C421.635 194.301 422.906 193.357 424.279 193.057C425.67 192.722 427.112 193.169 428.134 193.967C429.164 194.765 429.859 195.923 430.022 197.107H429.653C429.979 195.048 431.567 193.615 433.121 193.16C434.726 192.662 436.22 193.211 437.13 193.889C438.074 194.576 438.555 195.391 438.778 195.957C439.019 196.541 439.027 196.875 439.027 196.875C438.993 196.884 438.941 196.558 438.692 196.017C438.435 195.485 437.946 194.713 437.027 194.087C436.134 193.469 434.718 192.988 433.233 193.469C431.782 193.915 430.323 195.288 430.048 197.176L429.868 198.42L429.679 197.176C429.516 196.086 428.863 195.031 427.911 194.301C426.958 193.572 425.653 193.177 424.391 193.486C423.138 193.761 421.97 194.636 421.326 195.837C420.665 197.038 420.717 198.549 421.241 199.887C422.073 202.05 423.893 203.568 425.498 205.019C427.121 206.477 428.666 207.876 430.108 209.172H429.842C431.585 207.558 433.198 206.074 434.632 204.744C436.091 203.465 437.302 202.264 438.023 201.063C438.744 199.879 439.001 198.78 439.053 198.034C439.096 197.279 438.993 196.875 439.027 196.875Z" fill="#263238"/>
<path d="M414.322 182.726C414.322 182.726 414.33 182.94 414.339 183.344C414.339 183.764 414.347 184.348 414.356 185.12C414.364 186.69 414.382 188.973 414.399 191.907C414.416 197.785 414.45 206.263 414.485 216.697L414.322 216.534C420.846 216.525 428.185 216.517 436.143 216.5H436.34V216.697C436.34 219.975 436.349 223.467 436.349 227.063L435.997 226.917C439.302 223.605 442.787 220.121 446.367 216.543L446.427 216.483H446.521C454.136 216.483 462.179 216.483 470.446 216.474C472.918 216.474 475.365 216.474 477.785 216.474L477.562 216.697C477.571 204.684 477.571 193.246 477.579 182.717L477.785 182.923C459.149 182.88 443.319 182.846 432.117 182.82C426.52 182.795 422.082 182.777 419.034 182.769C417.524 182.76 416.356 182.752 415.541 182.743C415.154 182.735 414.854 182.735 414.639 182.735C414.425 182.735 414.322 182.726 414.322 182.726C414.322 182.726 414.416 182.717 414.613 182.717C414.828 182.717 415.12 182.709 415.498 182.709C416.296 182.7 417.455 182.692 418.949 182.683C421.987 182.666 426.408 182.649 431.988 182.632C443.216 182.606 459.097 182.571 477.785 182.529H477.991V182.735C478 193.263 478 204.701 478.009 216.714V216.937H477.785C475.365 216.937 472.918 216.937 470.446 216.937C462.179 216.937 454.136 216.937 446.521 216.929L446.676 216.869C443.096 220.447 439.611 223.922 436.297 227.234L435.945 227.586V227.088C435.945 223.493 435.954 219.992 435.954 216.723L436.151 216.92C428.194 216.912 420.846 216.894 414.33 216.886H414.167V216.723C414.201 206.237 414.236 197.734 414.253 191.83C414.27 188.913 414.287 186.639 414.296 185.077C414.304 184.322 414.313 183.738 414.313 183.327C414.304 182.915 414.322 182.726 414.322 182.726Z" fill="#263238"/>
<path d="M449.311 200.274H446.633V202.882H445.998V200.274H443.319V199.664H445.998V197.047H446.633V199.664H449.311V200.274Z" fill="#263238"/>
<path d="M453.354 195.039V204.899H452.633V195.683H450.221V195.031H453.354V195.039Z" fill="#263238"/>
<path d="M455.844 199.965C455.844 196.876 457.441 194.962 459.707 194.962C461.973 194.962 463.57 196.876 463.57 199.965C463.57 203.054 461.973 204.967 459.707 204.967C457.441 204.967 455.844 203.054 455.844 199.965ZM462.849 199.965C462.849 197.219 461.57 195.623 459.707 195.623C457.844 195.623 456.565 197.21 456.565 199.965C456.565 202.711 457.844 204.307 459.707 204.307C461.57 204.307 462.849 202.711 462.849 199.965Z" fill="#263238"/>
<path d="M465.124 199.965C465.124 196.876 466.712 194.962 468.986 194.962C471.253 194.962 472.849 196.876 472.849 199.965C472.849 203.054 471.253 204.967 468.986 204.967C466.712 204.967 465.124 203.054 465.124 199.965ZM472.128 199.965C472.128 197.219 470.849 195.623 468.986 195.623C467.124 195.623 465.845 197.21 465.845 199.965C465.845 202.711 467.124 204.307 468.986 204.307C470.841 204.307 472.128 202.711 472.128 199.965Z" fill="#263238"/>
<path d="M122 102.951H191.404V140.105H157.213L145.873 151.449V140.105H122V102.951Z" fill="#E8505B"/>
<path d="M133.761 120.507C133.769 120.516 133.795 120.764 133.838 121.219C133.872 121.717 133.924 122.378 133.984 123.193C134.095 124.926 134.25 127.337 134.447 130.272L134.267 130.109C135.125 130.057 136.018 130.006 136.962 129.954H136.971H136.988C139.28 130.169 141.838 130.452 144.551 130.555C144.714 130.564 144.877 130.546 145.023 130.504C145.178 130.478 145.332 130.452 145.478 130.383C145.77 130.263 146.045 130.083 146.276 129.851C146.74 129.388 147.032 128.745 147.092 128.075C147.135 127.749 147.083 127.397 147.058 127.02C147.032 126.651 146.998 126.29 146.972 125.921C146.912 125.184 146.843 124.437 146.783 123.682C146.706 122.815 146.62 121.957 146.517 121.116C146.465 120.696 146.405 120.275 146.319 119.881C146.302 119.778 146.268 119.692 146.251 119.606C146.234 119.572 146.242 119.58 146.234 119.563C146.208 119.563 146.199 119.555 146.173 119.537C146.01 119.494 145.804 119.46 145.607 119.443C143.984 119.323 142.371 119.392 140.834 119.443L141.031 119.28C141.023 119.314 141.014 119.349 140.997 119.383L140.963 119.452C140.946 119.477 140.92 119.503 140.903 119.52C140.894 119.529 140.843 119.572 140.748 119.563C140.705 119.563 140.662 119.546 140.637 119.529C140.619 119.512 140.619 119.512 140.611 119.503C140.594 119.486 140.576 119.469 140.568 119.443C140.534 119.392 140.542 119.392 140.534 119.366C140.525 119.331 140.508 119.289 140.508 119.271C140.491 119.16 140.482 119.065 140.473 118.962L140.448 118.388C140.448 118.01 140.448 117.632 140.439 117.263C140.439 116.526 140.491 115.805 140.405 115.135C140.336 114.466 140.156 113.823 139.804 113.316C139.452 112.827 138.877 112.527 138.336 112.553L138.49 112.372C138.542 113.497 138.585 114.535 138.628 115.487V115.539L138.602 115.582C137.177 117.735 136.095 119.374 135.383 120.456L135.366 120.49H135.331C134.851 120.498 134.473 120.507 134.173 120.507C133.906 120.516 133.769 120.516 133.761 120.507C133.752 120.498 133.872 120.481 134.121 120.456C134.422 120.43 134.816 120.395 135.314 120.353L135.263 120.387C135.95 119.289 136.988 117.624 138.353 115.427L138.327 115.513C138.267 114.561 138.207 113.531 138.139 112.407L138.13 112.235L138.293 112.227C138.997 112.184 139.667 112.544 140.096 113.11C140.508 113.685 140.705 114.389 140.783 115.101C140.877 115.822 140.834 116.543 140.834 117.272C140.843 117.641 140.843 118.01 140.851 118.379L140.877 118.937C140.886 119.023 140.894 119.117 140.911 119.194C140.911 119.22 140.92 119.22 140.92 119.237C140.928 119.237 140.928 119.254 140.86 119.263C140.808 119.263 140.757 119.366 140.765 119.331C140.765 119.357 140.74 119.271 140.697 119.28C140.671 119.263 140.628 119.237 140.619 119.228L140.628 119.194L140.679 119.04L140.825 119.031C142.371 118.971 143.976 118.894 145.658 119.014C145.873 119.04 146.088 119.065 146.319 119.126C146.388 119.151 146.465 119.194 146.534 119.237C146.594 119.289 146.646 119.4 146.671 119.46C146.706 119.572 146.74 119.692 146.757 119.795C146.852 120.224 146.903 120.644 146.963 121.065C147.075 121.914 147.152 122.772 147.238 123.639C147.298 124.394 147.367 125.141 147.427 125.879C147.453 126.248 147.478 126.616 147.513 126.985C147.53 127.346 147.581 127.723 147.538 128.118C147.461 128.89 147.126 129.62 146.585 130.16C146.319 130.426 145.993 130.641 145.641 130.778C145.47 130.855 145.281 130.89 145.092 130.915C144.903 130.958 144.723 130.975 144.542 130.967C141.778 130.847 139.246 130.538 136.945 130.306H136.971C136.035 130.349 135.134 130.392 134.276 130.435L134.104 130.443L134.095 130.28C133.975 127.294 133.881 124.849 133.812 123.09C133.786 122.283 133.769 121.64 133.752 121.151C133.752 120.722 133.752 120.498 133.761 120.507Z" fill="white"/>
<path d="M129.254 119.889C129.228 119.872 129.554 119.855 130.172 119.829C130.79 119.803 131.717 119.778 132.893 119.76H133.031L133.039 119.906C133.211 122.378 133.434 125.982 133.64 129.989L133.657 130.341L133.666 130.564L133.443 130.572C132.524 130.615 131.632 130.667 130.773 130.71L130.584 130.718L130.559 130.521C130.129 127.432 129.795 124.737 129.563 122.841C129.46 121.966 129.383 121.236 129.314 120.636C129.254 120.138 129.237 119.872 129.254 119.889C129.271 119.906 129.331 120.207 129.425 120.739C129.528 121.348 129.657 122.094 129.812 122.978C130.129 124.875 130.55 127.475 130.988 130.461L130.765 130.272C131.623 130.229 132.516 130.178 133.434 130.126L133.22 130.358L133.203 130.006C132.997 125.999 132.833 122.395 132.748 119.915L132.893 120.061C131.795 120.035 130.902 119.992 130.275 119.958C129.64 119.924 129.279 119.906 129.254 119.889Z" fill="white"/>
<path d="M160.269 122.146H157.342V124.995H156.646V122.146H153.719V121.485H156.646V118.619H157.342V121.485H160.269V122.146Z" fill="white"/>
<path d="M164.69 116.414V127.2H163.9V117.117H161.265V116.405H164.69V116.414Z" fill="white"/>
<path d="M167.42 121.803C167.42 118.43 169.162 116.328 171.643 116.328C174.124 116.328 175.867 118.422 175.867 121.803C175.867 125.175 174.124 127.277 171.643 127.277C169.162 127.277 167.42 125.183 167.42 121.803ZM175.077 121.803C175.077 118.799 173.678 117.057 171.643 117.057C169.609 117.057 168.209 118.799 168.209 121.803C168.209 124.806 169.609 126.548 171.643 126.548C173.678 126.548 175.077 124.806 175.077 121.803Z" fill="white"/>
<path d="M177.558 121.803C177.558 118.43 179.3 116.328 181.781 116.328C184.262 116.328 186.005 118.422 186.005 121.803C186.005 125.175 184.262 127.277 181.781 127.277C179.3 127.277 177.558 125.183 177.558 121.803ZM185.223 121.803C185.223 118.799 183.824 117.057 181.79 117.057C179.755 117.057 178.356 118.799 178.356 121.803C178.356 124.806 179.755 126.548 181.79 126.548C183.816 126.548 185.223 124.806 185.223 121.803Z" fill="white"/>
</g>
<defs>
<clipPath id="clip0_4_1337">
<rect width="356" height="361" fill="white" transform="translate(122 35)"/>
</clipPath>
</defs>
</svg>
