<svg width="447" height="701" viewBox="0 0 447 701" fill="none" xmlns="http://www.w3.org/2000/svg">
<rect width="447" height="701" fill="#5D25B7"/>
<g clip-path="url(#clip0_75_3)">
<path d="M297.4 188.07H363.15C363.15 188.07 357.34 177.49 340.41 179.03C324.25 180.5 323.42 173.82 315.21 173C306.99 172.18 300.14 178.48 297.4 188.07Z" fill="#E0E0E0"/>
<path d="M125.54 361.89C125.54 361.89 118.95 365.45 128.54 379.21C138.13 392.97 144.37 399.57 144.37 399.57C144.37 399.57 146.18 402.82 143.36 403.75C140.54 404.68 134.03 404.54 133.23 408.26C132.4 412.11 135.54 415.21 141.37 417.5C147.19 419.79 159.77 425.28 160.9 425.78C162.01 426.27 163.26 427.73 161.45 428.67C159.63 429.61 145.52 433.08 147.56 439.68C149.61 446.28 166.88 450 168.76 450.44C170.64 450.88 171.17 451.58 171.16 452.58C171.15 453.58 166.29 454.3 162.32 455.45C158.35 456.6 153.94 458.63 155.44 462.34C156.94 466.05 167.8 472.78 191.77 471.84L202.85 470.68L207.57 460.53C216.35 438.2 213.56 425.73 210.55 423.09C207.54 420.45 204.17 423.95 201.78 427.32C199.39 430.69 197.11 435.04 196.16 434.72C195.21 434.4 194.73 433.67 194.93 431.75C195.13 429.83 197.3 412.29 191.74 408.19C186.18 404.09 178.26 416.28 176.77 417.68C175.28 419.09 174.32 417.43 174.22 416.21C174.12 414.97 173.07 401.29 172.82 395.04C172.57 388.79 170.68 384.8 166.77 384.32C163 383.85 160.99 390.04 159.18 392.4C157.37 394.75 154.9 391.97 154.9 391.97C154.9 391.97 150.71 383.9 140.88 370.32C131.04 356.74 125.4 361.94 125.4 361.94" fill="#EBEBEB"/>
<path d="M203.79 473.21C196.6 463.21 184.13 445.22 173.34 429.82C162.55 414.43 152.78 400.51 145.64 390.47C142.07 385.46 139.18 381.41 137.18 378.59C136.19 377.2 135.42 376.11 134.88 375.36C134.63 375 134.43 374.72 134.29 374.51C134.16 374.32 134.1 374.21 134.1 374.21C134.1 374.21 134.18 374.3 134.32 374.48C134.47 374.68 134.67 374.95 134.94 375.31C135.49 376.05 136.28 377.13 137.29 378.5C139.33 381.28 142.25 385.31 145.84 390.32C153.03 400.32 162.84 414.22 173.62 429.61C184.41 445 196.85 463.01 203.98 473.05" fill="#E0E0E0"/>
<path d="M142.34 408.83C142.35 408.81 142.63 408.85 143.14 408.94C143.65 409.03 144.38 409.18 145.29 409.38C147.1 409.77 149.58 410.38 152.31 411.1C155 411.82 157.43 412.47 159.29 412.97C160.13 413.19 160.84 413.37 161.41 413.52C161.91 413.65 162.19 413.73 162.18 413.75C162.18 413.77 161.89 413.74 161.38 413.65C160.87 413.56 160.14 413.41 159.23 413.2C157.42 412.79 154.95 412.15 152.22 411.43C149.53 410.73 147.09 410.1 145.23 409.61C144.39 409.39 143.68 409.21 143.11 409.07C142.61 408.93 142.33 408.85 142.34 408.83Z" fill="#E0E0E0"/>
<path d="M162.83 412.94C162.74 412.92 163.77 407.74 165.13 401.38C166.49 395.01 167.67 389.87 167.77 389.89C167.86 389.91 166.84 395.09 165.47 401.45C164.11 407.82 162.93 412.96 162.83 412.94Z" fill="#E0E0E0"/>
<path d="M178.33 437.32C178.31 437.31 178.44 437.04 178.68 436.58C178.96 436.05 179.32 435.39 179.74 434.61C180.63 432.95 181.86 430.65 183.11 428.06C184.37 425.47 185.43 423.09 186.19 421.36C186.55 420.55 186.85 419.86 187.09 419.31C187.3 418.83 187.43 418.56 187.46 418.57C187.48 418.58 187.4 418.86 187.22 419.36C187.04 419.86 186.78 420.58 186.42 421.45C185.72 423.21 184.69 425.61 183.43 428.21C182.17 430.81 180.91 433.1 179.96 434.73C179.48 435.55 179.09 436.2 178.8 436.65C178.52 437.09 178.36 437.34 178.33 437.32Z" fill="#E0E0E0"/>
<path d="M158.97 437.68C158.97 437.66 159.24 437.63 159.73 437.59C160.29 437.56 160.98 437.52 161.79 437.47C163.53 437.38 165.94 437.29 168.6 437.21C171.26 437.13 173.67 437.07 175.42 437.05C176.23 437.05 176.93 437.04 177.49 437.04C177.98 437.05 178.25 437.06 178.25 437.08C178.25 437.1 177.98 437.14 177.49 437.17C176.93 437.2 176.24 437.24 175.43 437.29C173.69 437.38 171.28 437.47 168.61 437.55C165.95 437.63 163.54 437.69 161.79 437.71C160.98 437.71 160.28 437.72 159.72 437.72C159.25 437.72 158.97 437.7 158.97 437.68Z" fill="#E0E0E0"/>
<path d="M169.92 460.94C169.92 460.92 170.26 460.88 170.89 460.83C171.58 460.79 172.47 460.73 173.53 460.67C175.76 460.55 178.85 460.4 182.26 460.26C185.67 460.12 188.76 460.01 191 459.95C192.07 459.93 192.96 459.91 193.65 459.9C194.28 459.9 194.62 459.9 194.62 459.93C194.62 459.95 194.28 459.99 193.65 460.04C192.96 460.08 192.07 460.14 191.01 460.2C188.78 460.32 185.69 460.47 182.28 460.61C178.87 460.75 175.78 460.86 173.55 460.92C172.48 460.94 171.59 460.96 170.9 460.97C170.27 460.97 169.92 460.97 169.92 460.94Z" fill="#E0E0E0"/>
<path d="M194.03 459.79C194.01 459.78 194.16 459.44 194.45 458.84C194.77 458.18 195.2 457.33 195.7 456.3C196.76 454.15 198.21 451.18 199.71 447.85C201.22 444.52 202.51 441.48 203.43 439.26C203.87 438.2 204.24 437.32 204.52 436.64C204.78 436.02 204.93 435.68 204.96 435.69C204.98 435.7 204.87 436.05 204.65 436.69C204.43 437.32 204.09 438.23 203.66 439.35C202.8 441.59 201.54 444.66 200.03 447.99C198.52 451.32 197.04 454.29 195.92 456.41C195.36 457.47 194.9 458.32 194.57 458.91C194.24 459.49 194.05 459.8 194.03 459.79Z" fill="#E0E0E0"/>
<path d="M287.02 312.21C275.11 298.86 276.26 279.6 280.76 263.1C281.51 260.35 281.9 257.35 283.8 255.22C285.7 253.1 289.17 252.16 291.38 253.92C293.21 255.38 293.54 257.99 294.23 260.25C295.14 263.25 296.91 265.98 299.27 268.01C300.82 269.35 302.87 270.42 304.85 269.88C307.56 269.13 308.62 265.88 309.26 263.12C310.45 257.97 311.63 252.81 312.82 247.66C313.46 244.9 314.12 242.07 315.6 239.66C317.08 237.24 319.55 235.26 322.35 235.14C325.15 235.03 328.04 237.31 327.95 240.14C327.91 241.32 327.41 242.43 327.21 243.6C327.02 244.76 327.25 246.16 328.26 246.74C329.29 247.32 330.58 246.8 331.59 246.19C335.1 244.08 337.88 240.94 340.54 237.8C343.19 234.66 345.81 231.42 349.12 228.99C352.43 226.56 356.57 225 360.58 225.71C364.59 226.42 368.22 229.86 368.3 233.98C368.38 238.11 365.17 241.52 361.96 244.09C357.19 247.9 351.87 251 346.23 253.28C345.21 253.69 344.11 254.14 343.54 255.08C342.5 256.78 343.82 259.02 345.49 260.06C347.39 261.23 349.67 261.55 351.76 262.31C353.85 263.07 355.96 264.58 356.29 266.8C356.75 269.89 353.69 272.29 350.91 273.68C345.34 276.46 339.3 278.27 333.15 279C330.94 279.26 328.65 279.41 326.68 280.45C324.7 281.49 323.13 283.74 323.66 285.92C324.19 288.1 326.58 289.33 328.8 289.43C331.02 289.54 333.2 288.84 335.41 288.55C339.54 288.02 344.38 289.44 346.04 293.29C347.13 295.82 346.56 298.86 345.14 301.24C343.72 303.62 341.56 305.44 339.34 307.07C331.57 312.76 322.42 316.66 312.9 317.63C303.36 318.59 295.01 317.48 287.02 312.21Z" fill="#F5F5F5"/>
<path d="M289.43 313.82C291.59 307.37 289.33 310.61 293.78 302.81C298.22 295 303.79 286.84 309.91 278.5C311.45 276.42 312.97 274.37 314.47 272.34C315.97 270.32 317.46 268.32 319.03 266.46C322.17 262.71 325.47 259.35 328.7 256.25C331.93 253.15 335.11 250.33 338.1 247.71C341.1 245.1 343.94 242.72 346.62 240.66C351.97 236.52 356.68 233.7 359.99 231.89C361.64 230.98 362.95 230.32 363.84 229.88C364.27 229.67 364.6 229.51 364.86 229.39C365.09 229.28 365.21 229.23 365.21 229.24C365.21 229.25 365.1 229.32 364.88 229.44C364.63 229.57 364.3 229.75 363.89 229.98C363.02 230.45 361.73 231.14 360.09 232.07C356.82 233.93 352.16 236.79 346.85 240.95C344.19 243.02 341.37 245.41 338.39 248.04C335.41 250.67 332.25 253.5 329.03 256.6C325.82 259.7 322.54 263.06 319.42 266.79C317.86 268.65 316.38 270.63 314.88 272.65C313.38 274.67 311.87 276.73 310.33 278.8C304.21 287.13 298.64 295.26 294.2 303.04C289.74 310.81 291.98 307.52 289.78 313.93" fill="#E0E0E0"/>
<path d="M319.18 266.47C319.14 266.47 319.15 266.03 319.19 265.23C319.23 264.43 319.32 263.28 319.45 261.86C319.71 259.02 320.2 255.11 320.77 250.8C321.33 246.49 321.77 242.58 321.99 239.74C322.1 238.32 322.18 237.17 322.23 236.38C322.28 235.58 322.32 235.14 322.36 235.14C322.4 235.14 322.42 235.58 322.43 236.38C322.45 237.18 322.42 238.33 322.36 239.76C322.24 242.61 321.86 246.54 321.29 250.86C320.73 255.11 320.21 258.96 319.82 261.9C319.65 263.23 319.51 264.35 319.4 265.25C319.29 266.04 319.22 266.47 319.18 266.47Z" fill="#E0E0E0"/>
<path d="M356.25 268.24C356.24 268.28 355.72 268.21 354.79 268.07C353.86 267.94 352.52 267.73 350.85 267.54C347.52 267.12 342.89 266.7 337.76 266.47C332.63 266.24 327.99 266.23 324.62 266.32C322.94 266.35 321.58 266.42 320.64 266.45C319.7 266.49 319.18 266.5 319.17 266.46C319.17 266.42 319.68 266.35 320.62 266.24C321.56 266.14 322.92 266.02 324.6 265.94C327.97 265.75 332.63 265.7 337.77 265.93C342.91 266.17 347.55 266.65 350.88 267.16C352.55 267.4 353.89 267.66 354.81 267.86C355.75 268.08 356.26 268.21 356.25 268.24Z" fill="#E0E0E0"/>
<path d="M294.38 302.25C294.36 302.25 294.31 302.09 294.24 301.76C294.16 301.37 294.06 300.9 293.94 300.33C293.68 299.09 293.36 297.28 292.98 295.05C292.23 290.58 291.39 284.37 290.55 277.5C289.71 270.63 288.93 264.42 288.28 259.94C287.96 257.76 287.69 255.97 287.49 254.63C287.41 254.05 287.34 253.58 287.28 253.18C287.24 252.85 287.22 252.67 287.24 252.67C287.26 252.67 287.31 252.84 287.38 253.16C287.46 253.55 287.56 254.02 287.68 254.59C287.94 255.83 288.26 257.64 288.64 259.87C289.39 264.34 290.23 270.55 291.07 277.42C291.91 284.29 292.69 290.49 293.34 294.98C293.67 297.16 293.93 298.95 294.13 300.29C294.21 300.87 294.28 301.35 294.34 301.74C294.38 302.08 294.39 302.25 294.38 302.25Z" fill="#E0E0E0"/>
<path d="M345.15 298.22C345.15 298.24 344.97 298.27 344.64 298.3C344.24 298.34 343.75 298.38 343.16 298.43C341.8 298.54 339.96 298.69 337.72 298.87C333.13 299.24 326.79 299.83 319.79 300.49C312.79 301.15 306.44 301.68 301.84 301.96C299.54 302.1 297.68 302.19 296.39 302.23C295.8 302.24 295.3 302.26 294.91 302.27C294.57 302.27 294.39 302.26 294.39 302.25C294.39 302.23 294.57 302.2 294.9 302.17C295.3 302.13 295.79 302.09 296.38 302.04C297.74 301.93 299.58 301.78 301.82 301.6C306.41 301.23 312.75 300.64 319.75 299.98C326.75 299.32 333.1 298.79 337.7 298.51C340 298.37 341.86 298.28 343.15 298.24C343.75 298.23 344.23 298.21 344.63 298.2C344.97 298.2 345.15 298.21 345.15 298.22Z" fill="#E0E0E0"/>
<path d="M384.53 399.999C384.54 399.999 384.48 400.159 384.36 400.469C384.22 400.799 384.04 401.239 383.81 401.799C383.3 402.999 382.58 404.689 381.68 406.829C379.8 411.179 377.15 417.319 373.97 424.659L373.92 424.769L373.8 424.789C366.69 425.959 358.4 427.329 349.58 428.789C346.82 429.24 344.1 429.689 341.46 430.119L341.09 430.179L341.18 429.819C343.15 422.029 344.97 414.859 346.52 408.769L346.63 408.999C340.72 406.359 335.84 404.18 332.4 402.64C330.73 401.88 329.41 401.279 328.47 400.849C328.04 400.649 327.71 400.489 327.45 400.369C327.22 400.259 327.1 400.199 327.11 400.189C327.12 400.179 327.24 400.219 327.48 400.319C327.75 400.429 328.09 400.569 328.53 400.749C329.48 401.149 330.81 401.719 332.5 402.439C335.96 403.939 340.86 406.07 346.8 408.64L346.96 408.709L346.92 408.879C345.4 414.979 343.61 422.159 341.67 429.959L341.39 429.659C344.03 429.229 346.74 428.779 349.51 428.329C358.33 426.899 366.63 425.55 373.74 424.39L373.58 424.519C376.82 417.209 379.53 411.1 381.45 406.76C382.4 404.64 383.16 402.969 383.7 401.779C383.95 401.229 384.16 400.799 384.31 400.469C384.44 400.139 384.52 399.989 384.53 399.999Z" fill="#E0E0E0"/>
<path d="M344.31 427.24L343.65 428.99L344.71 430.52L342.85 430.43L341.72 431.91L341.23 430.11L339.47 429.5L341.03 428.48L341.07 426.61L342.53 427.78L344.31 427.24Z" fill="#E0E0E0"/>
<path d="M327.68 398.99L327.35 399.86L327.88 400.62L326.96 400.58L326.39 401.31L326.15 400.42L325.28 400.11L326.05 399.6L326.07 398.68L326.8 399.26L327.68 398.99Z" fill="#E0E0E0"/>
<path d="M374.65 423.56L374.32 424.43L374.85 425.19L373.93 425.14L373.36 425.88L373.12 424.99L372.25 424.68L373.02 424.17L373.04 423.24L373.77 423.82L374.65 423.56Z" fill="#E0E0E0"/>
<path d="M347.55 407.96L347.22 408.83L347.75 409.59L346.82 409.55L346.26 410.28L346.02 409.39L345.14 409.08L345.92 408.57L345.94 407.65L346.66 408.23L347.55 407.96Z" fill="#E0E0E0"/>
<path d="M385.66 399.13L385.33 400L385.86 400.76L384.93 400.71L384.37 401.45L384.12 400.56L383.25 400.25L384.03 399.74L384.05 398.81L384.77 399.39L385.66 399.13Z" fill="#E0E0E0"/>
<path d="M82.56 471.9H134.91C134.91 471.9 130.28 463.48 116.81 464.7C103.94 465.87 103.29 460.56 96.74 459.9C90.2 459.25 84.74 464.27 82.56 471.9Z" fill="#E0E0E0"/>
<path d="M92.96 265.79H145.31C145.31 265.79 140.68 257.37 127.21 258.59C114.34 259.76 113.69 254.45 107.14 253.79C100.59 253.13 95.14 258.15 92.96 265.79Z" fill="#F5F5F5"/>
<path d="M358.84 302.19H401.85C401.85 302.19 398.05 295.27 386.97 296.28C376.4 297.24 375.86 292.87 370.48 292.34C365.11 291.8 360.63 295.92 358.84 302.19Z" fill="#F5F5F5"/>
<path d="M272.95 387.09C275.09 370.97 263.75 357.67 249.59 349.68C235.43 341.69 219 339.01 203.36 334.57C188.61 330.38 173.94 324.26 163.01 313.5C152.08 302.74 145.53 286.57 149.46 271.74C150.45 268.02 152.21 264.28 155.4 262.13C158.6 259.98 163.48 260.04 165.86 263.06C170.94 269.5 161.04 281.03 167.24 286.4C168.66 287.63 170.62 288.09 172.09 289.26C176.01 292.38 174.74 298.46 175.29 303.44C176.38 313.29 185.62 320.13 194.69 324.12C206.84 329.46 220 331.98 232.89 335.15C245.78 338.32 258.77 342.31 269.51 350.11C280.25 357.91 289.56 370.12 289.49 383.39C289.47 387.1 289 391.66 286.67 394.55C284.34 397.44 281.38 398.04 278.02 396.46C274.66 394.88 272.33 392.44 272.95 387.09Z" fill="#E8505B"/>
<g opacity="0.8">
<path opacity="0.8" d="M272.95 387.09C275.09 370.97 263.75 357.67 249.59 349.68C235.43 341.69 219 339.01 203.36 334.57C188.61 330.38 173.94 324.26 163.01 313.5C152.08 302.74 145.53 286.57 149.46 271.74C150.45 268.02 152.21 264.28 155.4 262.13C158.6 259.98 163.48 260.04 165.86 263.06C170.94 269.5 161.04 281.03 167.24 286.4C168.66 287.63 170.62 288.09 172.09 289.26C176.01 292.38 174.74 298.46 175.29 303.44C176.38 313.29 185.62 320.13 194.69 324.12C206.84 329.46 220 331.98 232.89 335.15C245.78 338.32 258.77 342.31 269.51 350.11C280.25 357.91 289.56 370.12 289.49 383.39C289.47 387.1 289 391.66 286.67 394.55C284.34 397.44 281.38 398.04 278.02 396.46C274.66 394.88 272.33 392.44 272.95 387.09Z" fill="white"/>
</g>
<path d="M204.45 258.97C203.94 253 208.39 247.8 213.45 245.01C218.51 242.22 224.3 241.09 229.52 238.62C242.47 232.48 250.7 218.04 251.31 203.22C251.92 188.4 245.5 173.6 235.45 162.71C231.37 158.29 226.34 153.66 226.28 147.62C226.22 141.32 232.32 136.36 238.42 136.44C244.52 136.52 250.14 140.6 253.79 145.74C257.44 150.88 259.46 157 261.43 163C260.03 160.49 262.91 157.38 265.68 157.64C268.45 157.91 270.64 160.22 272.35 162.52C279.7 172.41 283.33 185.12 282.32 197.36C281.31 209.6 275.65 221.25 266.82 229.31C256.95 238.3 243.9 242.52 231.25 246.51C222.44 249.29 213.64 252.07 204.83 254.85" fill="#E8505B"/>
<g opacity="0.8">
<path opacity="0.8" d="M204.45 258.97C203.94 253 208.39 247.8 213.45 245.01C218.51 242.22 224.3 241.09 229.52 238.62C242.47 232.48 250.7 218.04 251.31 203.22C251.92 188.4 245.5 173.6 235.45 162.71C231.37 158.29 226.34 153.66 226.28 147.62C226.22 141.32 232.32 136.36 238.42 136.44C244.52 136.52 250.14 140.6 253.79 145.74C257.44 150.88 259.46 157 261.43 163C260.03 160.49 262.91 157.38 265.68 157.64C268.45 157.91 270.64 160.22 272.35 162.52C279.7 172.41 283.33 185.12 282.32 197.36C281.31 209.6 275.65 221.25 266.82 229.31C256.95 238.3 243.9 242.52 231.25 246.51C222.44 249.29 213.64 252.07 204.83 254.85" fill="white"/>
</g>
<path d="M197.1 133.52C194.48 134.62 193.04 137.95 194.03 140.62C195.02 143.29 198.28 144.87 200.99 144C203.7 143.13 205.42 139.94 204.67 137.19C203.92 134.44 200.81 132.59 198.03 133.22" fill="#E8505B"/>
<g opacity="0.8">
<path opacity="0.8" d="M197.1 133.52C194.48 134.62 193.04 137.95 194.03 140.62C195.02 143.29 198.28 144.87 200.99 144C203.7 143.13 205.42 139.94 204.67 137.19C203.92 134.44 200.81 132.59 198.03 133.22" fill="white"/>
</g>
<path d="M229.67 518.83C226.43 512.12 229.25 503.75 234.41 498.37C239.57 492.99 246.61 489.92 253.44 486.92C268.49 480.29 284.43 472.39 292.09 457.83C294.67 452.92 296.14 447.52 297.59 442.16C300.4 431.8 303.03 420.03 297.38 410.9C295.75 408.27 293.31 405.94 290.27 405.4C286.81 404.79 283.25 406.69 281.11 409.49C278.98 412.28 278.06 415.83 277.62 419.31C276.78 425.95 277.48 432.7 276.78 439.35C276.08 446 273.65 452.96 268.16 456.79C261.5 461.44 251.99 460.39 245.51 465.3C240.28 469.26 238.29 476.14 234.21 481.27C230.77 485.58 225.97 488.53 221.56 491.84C217.16 495.16 212.9 499.2 211.4 504.51C209.85 510.02 211.79 516.36 216.17 520.05C220.55 523.74 227.12 524.59 232.29 522.13" fill="#E8505B"/>
<g opacity="0.8">
<path opacity="0.8" d="M229.67 518.83C226.43 512.12 229.25 503.75 234.41 498.37C239.57 492.99 246.61 489.92 253.44 486.92C268.49 480.29 284.43 472.39 292.09 457.83C294.67 452.92 296.14 447.52 297.59 442.16C300.4 431.8 303.03 420.03 297.38 410.9C295.75 408.27 293.31 405.94 290.27 405.4C286.81 404.79 283.25 406.69 281.11 409.49C278.98 412.28 278.06 415.83 277.62 419.31C276.78 425.95 277.48 432.7 276.78 439.35C276.08 446 273.65 452.96 268.16 456.79C261.5 461.44 251.99 460.39 245.51 465.3C240.28 469.26 238.29 476.14 234.21 481.27C230.77 485.58 225.97 488.53 221.56 491.84C217.16 495.16 212.9 499.2 211.4 504.51C209.85 510.02 211.79 516.36 216.17 520.05C220.55 523.74 227.12 524.59 232.29 522.13" fill="white"/>
</g>
<path d="M129.54 179.85C124.24 175.92 121 169.34 121.12 162.74C121.24 156.14 124.71 149.69 130.14 145.94C133.21 143.83 136.86 142.53 139.59 139.99C142.02 137.73 143.6 134.6 146.32 132.7C149.7 130.34 154.6 130.44 157.88 132.95C161.16 135.45 162.55 140.15 161.16 144.04C159.91 147.55 156.76 150.11 155.44 153.6C154.02 157.35 154.94 161.56 154.41 165.53C153.76 170.42 150.79 174.95 146.57 177.49C142.35 180.03 136.96 180.54 132.33 178.82" fill="#E8505B"/>
<g opacity="0.8">
<path opacity="0.8" d="M129.54 179.85C124.24 175.92 121 169.34 121.12 162.74C121.24 156.14 124.71 149.69 130.14 145.94C133.21 143.83 136.86 142.53 139.59 139.99C142.02 137.73 143.6 134.6 146.32 132.7C149.7 130.34 154.6 130.44 157.88 132.95C161.16 135.45 162.55 140.15 161.16 144.04C159.91 147.55 156.76 150.11 155.44 153.6C154.02 157.35 154.94 161.56 154.41 165.53C153.76 170.42 150.79 174.95 146.57 177.49C142.35 180.03 136.96 180.54 132.33 178.82" fill="white"/>
</g>
<path d="M136.8 189.16H135.34C132.35 189.16 129.93 186.74 129.93 183.75V158.41H142.22V183.75C142.22 186.73 139.79 189.16 136.8 189.16Z" fill="#E8505B"/>
<path d="M129.93 158.41L136.07 147.14L142.22 158.41H129.93Z" fill="#FFBE9D"/>
<path d="M133.64 151.6C133.64 151.6 135.51 154.41 138.51 151.6L136.08 147.14L133.64 151.6Z" fill="#E8505B"/>
<path d="M142.39 182.51C142.39 182.65 139.59 182.76 136.14 182.76C132.69 182.76 129.89 182.65 129.89 182.51C129.89 182.37 132.69 182.26 136.14 182.26C139.59 182.26 142.39 182.37 142.39 182.51Z" fill="#263238"/>
<path d="M142.26 180.63C142.26 180.77 139.52 180.88 136.14 180.88C132.76 180.88 130.02 180.77 130.02 180.63C130.02 180.49 132.76 180.38 136.14 180.38C139.52 180.38 142.26 180.49 142.26 180.63Z" fill="#263238"/>
<path d="M133.54 158.59C133.68 158.59 133.79 163.5 133.79 169.55C133.79 175.6 133.68 180.51 133.54 180.51C133.4 180.51 133.29 175.61 133.29 169.55C133.29 163.5 133.4 158.59 133.54 158.59Z" fill="#FAFAFA"/>
<path d="M138.51 158.59C138.65 158.59 138.76 163.5 138.76 169.55C138.76 175.6 138.65 180.51 138.51 180.51C138.37 180.51 138.26 175.61 138.26 169.55C138.26 163.5 138.37 158.59 138.51 158.59Z" fill="#FAFAFA"/>
<path d="M236.7 504.71L292.54 507.1L293.89 510.35L257.29 569.75L191.23 567.82L236.7 504.71Z" fill="#263238"/>
<path d="M188.72 562.03L255.18 565.83L289.89 511.96L265.52 513.94L203.83 535.67L188.72 562.03Z" fill="#E0E0E0"/>
<path d="M179.39 558.04L240.42 559C237.88 551.19 243.86 540.2 252.07 536.5C257.51 534.05 267.74 530.87 273.02 528.16C283.05 523.01 292.12 513.27 291.33 504.9L266.26 504.1L234.27 502.86C231.59 510.8 225.87 515.99 217.17 519.12C209.39 521.92 200.53 521.91 192.93 525.09C180.71 530.23 174.84 546.81 179.39 558.04Z" fill="#EBEBEB"/>
<path d="M179.39 558.04C179.39 558.04 179.33 557.91 179.24 557.65C179.14 557.37 179 556.98 178.82 556.47C178.61 555.96 178.48 555.28 178.3 554.49C178.08 553.7 178.01 552.77 177.88 551.71C177.73 549.6 177.75 546.96 178.36 543.95C178.98 540.96 180.16 537.58 182.27 534.26C182.82 533.45 183.34 532.58 184.03 531.81C184.36 531.41 184.67 530.99 185.03 530.6C185.4 530.22 185.78 529.84 186.16 529.46C186.53 529.06 186.95 528.71 187.38 528.36C187.81 528.01 188.23 527.64 188.69 527.31C189.65 526.71 190.57 526.01 191.66 525.54C195.89 523.41 200.94 522.51 206.2 521.56C208.84 521.08 211.55 520.58 214.28 519.83C217 519.06 219.73 518.03 222.32 516.59C223.62 515.88 224.88 515.06 226.08 514.13C227.28 513.21 228.4 512.16 229.41 510.98C231.46 508.66 233.01 505.84 234.05 502.8L234.11 502.64L234.28 502.65C242.78 502.97 251.69 503.31 260.94 503.67C270.18 504.03 279.75 504.28 289.55 504.61C290.15 504.63 290.75 504.65 291.34 504.67L291.56 504.68L291.58 504.9C291.75 506.83 291.4 508.76 290.77 510.54C290.49 511.45 290.05 512.29 289.65 513.14C289.18 513.95 288.74 514.78 288.19 515.54C286.11 518.65 283.44 521.25 280.63 523.53C277.79 525.8 274.71 527.68 271.51 529.17C268.29 530.62 265.03 531.8 261.84 532.98C258.65 534.16 255.49 535.28 252.49 536.58C251.02 537.26 249.61 538.05 248.38 539.07C247.73 539.53 247.19 540.12 246.6 540.64C246.08 541.23 245.5 541.76 245.03 542.39C243.06 544.81 241.58 547.55 240.76 550.41C239.9 553.25 239.8 556.26 240.61 558.95L240.69 559.22H240.41C221.92 558.89 206.67 558.62 196.03 558.43C190.72 558.32 186.57 558.24 183.72 558.18C182.31 558.14 181.24 558.12 180.49 558.1C179.76 558.07 179.39 558.04 179.39 558.04C179.39 558.04 179.77 558.03 180.5 558.03C181.24 558.03 182.32 558.04 183.73 558.05C186.58 558.08 190.73 558.13 196.04 558.19C206.69 558.34 221.94 558.55 240.43 558.8L240.23 559.07C239.38 556.29 239.48 553.19 240.36 550.29C241.19 547.36 242.69 544.57 244.69 542.11C245.16 541.47 245.75 540.92 246.28 540.32C246.88 539.79 247.43 539.19 248.1 538.72C249.35 537.67 250.8 536.86 252.3 536.16C255.32 534.84 258.48 533.72 261.67 532.53C264.86 531.35 268.11 530.16 271.3 528.73C274.47 527.26 277.51 525.39 280.32 523.15C283.1 520.89 285.73 518.32 287.78 515.26C288.32 514.52 288.75 513.7 289.21 512.91C289.6 512.08 290.02 511.26 290.3 510.38C290.9 508.65 291.24 506.79 291.08 504.95L291.32 505.17C290.74 505.15 290.13 505.13 289.53 505.11C279.73 504.78 270.16 504.53 260.92 504.16C251.68 503.8 242.76 503.45 234.26 503.12L234.49 502.96C233.43 506.05 231.85 508.93 229.75 511.29C228.72 512.48 227.57 513.55 226.35 514.49C225.14 515.44 223.86 516.27 222.53 516.98C219.9 518.43 217.13 519.46 214.39 520.24C211.64 520.99 208.91 521.49 206.27 521.96C201.01 522.9 195.98 523.78 191.81 525.87C190.74 526.33 189.82 527.02 188.88 527.6C188.43 527.93 188.01 528.29 187.59 528.63C187.16 528.97 186.74 529.31 186.38 529.71C186 530.09 185.63 530.46 185.26 530.83C184.9 531.21 184.6 531.63 184.27 532.02C183.59 532.79 183.07 533.64 182.52 534.44C180.41 537.71 179.22 541.05 178.58 544.02C177.95 547 177.9 549.62 178.03 551.72C178.15 552.77 178.21 553.7 178.41 554.49C178.58 555.28 178.69 555.95 178.89 556.47C179.05 556.98 179.18 557.38 179.27 557.66C179.36 557.9 179.39 558.04 179.39 558.04Z" fill="#263238"/>
<path d="M251.41 503.86C251.37 503.85 251.49 503.47 251.55 502.77C251.6 502.08 251.56 501.04 251.07 499.89C250.6 498.76 249.66 497.5 248.19 496.8C246.73 496.1 244.81 495.95 243.05 496.62C241.28 497.27 240 498.71 239.33 500.2C238.64 501.69 238.54 503.23 238.74 504.45C238.94 505.68 239.41 506.61 239.78 507.2C240.16 507.79 240.44 508.07 240.41 508.1C240.39 508.12 240.06 507.88 239.62 507.31C239.18 506.74 238.65 505.8 238.39 504.51C238.14 503.24 238.19 501.6 238.91 500.01C239.59 498.43 240.95 496.86 242.87 496.16C244.76 495.45 246.83 495.62 248.39 496.4C249.98 497.18 250.95 498.56 251.4 499.77C251.87 501 251.86 502.09 251.75 502.8C251.69 503.16 251.62 503.43 251.55 503.61C251.47 503.78 251.43 503.87 251.41 503.86Z" fill="#263238"/>
<path d="M260.98 503.86C260.94 503.85 261.06 503.47 261.12 502.77C261.17 502.08 261.13 501.04 260.64 499.89C260.17 498.76 259.23 497.5 257.76 496.8C256.3 496.1 254.38 495.95 252.62 496.62C250.85 497.27 249.57 498.71 248.9 500.2C248.21 501.69 248.11 503.23 248.31 504.45C248.51 505.68 248.98 506.61 249.35 507.2C249.73 507.79 250.01 508.07 249.98 508.1C249.96 508.12 249.63 507.88 249.19 507.31C248.75 506.74 248.22 505.8 247.96 504.51C247.71 503.24 247.76 501.6 248.48 500.01C249.16 498.43 250.52 496.86 252.44 496.16C254.33 495.45 256.4 495.62 257.96 496.4C259.55 497.18 260.52 498.56 260.97 499.77C261.44 501 261.43 502.09 261.32 502.8C261.26 503.16 261.19 503.43 261.12 503.61C261.03 503.78 260.99 503.87 260.98 503.86Z" fill="#263238"/>
<path d="M268.24 504.36C268.19 504.35 268.3 503.96 268.32 503.26C268.33 502.56 268.23 501.53 267.68 500.41C267.15 499.3 266.14 498.1 264.62 497.49C263.13 496.87 261.19 496.83 259.48 497.6C257.75 498.35 256.55 499.86 255.97 501.38C255.36 502.91 255.36 504.45 255.62 505.66C255.89 506.88 256.41 507.78 256.82 508.34C257.23 508.91 257.53 509.18 257.5 509.21C257.48 509.23 257.14 509.01 256.67 508.46C256.2 507.91 255.61 507.01 255.28 505.74C254.95 504.48 254.92 502.85 255.54 501.22C256.13 499.6 257.4 497.96 259.27 497.15C261.12 496.33 263.19 496.38 264.79 497.08C266.42 497.77 267.47 499.09 267.99 500.28C268.53 501.48 268.58 502.57 268.51 503.29C268.47 503.65 268.41 503.93 268.35 504.11C268.29 504.27 268.26 504.36 268.24 504.36Z" fill="#263238"/>
<path d="M276.03 504.8C275.98 504.79 276.07 504.4 276.05 503.7C276.03 503 275.87 501.98 275.26 500.89C274.67 499.81 273.6 498.66 272.05 498.13C270.53 497.59 268.6 497.66 266.92 498.51C265.23 499.35 264.12 500.93 263.62 502.47C263.09 504.03 263.17 505.57 263.5 506.76C263.83 507.96 264.4 508.83 264.84 509.38C265.28 509.93 265.59 510.18 265.56 510.21C265.55 510.23 265.19 510.03 264.69 509.51C264.19 508.99 263.56 508.12 263.16 506.87C262.77 505.63 262.65 504 263.18 502.34C263.68 500.7 264.86 498.99 266.69 498.08C268.5 497.16 270.56 497.11 272.2 497.71C273.87 498.31 274.98 499.58 275.56 500.73C276.16 501.9 276.27 502.99 276.24 503.71C276.22 504.07 276.18 504.35 276.13 504.53C276.08 504.71 276.05 504.81 276.03 504.8Z" fill="#263238"/>
<path d="M283.83 504.62C283.78 504.61 283.86 504.22 283.82 503.52C283.78 502.83 283.59 501.8 282.95 500.73C282.33 499.67 281.23 498.55 279.67 498.06C278.13 497.56 276.2 497.68 274.55 498.58C272.88 499.47 271.82 501.07 271.36 502.63C270.88 504.2 271 505.74 271.36 506.92C271.73 508.11 272.32 508.97 272.77 509.5C273.23 510.04 273.54 510.28 273.52 510.31C273.51 510.33 273.15 510.14 272.63 509.63C272.12 509.12 271.46 508.27 271.03 507.03C270.6 505.8 270.44 504.18 270.92 502.5C271.38 500.84 272.51 499.1 274.31 498.14C276.09 497.17 278.16 497.06 279.81 497.62C281.49 498.18 282.64 499.41 283.25 500.55C283.88 501.7 284.03 502.79 284.01 503.51C284 503.87 283.97 504.15 283.92 504.34C283.88 504.53 283.85 504.62 283.83 504.62Z" fill="#263238"/>
<path d="M290.41 505.5C290.36 505.49 290.45 505.1 290.44 504.4C290.43 503.7 290.28 502.67 289.68 501.58C289.1 500.5 288.05 499.34 286.51 498.79C284.99 498.23 283.06 498.28 281.37 499.11C279.67 499.93 278.54 501.49 278.02 503.03C277.48 504.58 277.53 506.12 277.85 507.32C278.17 508.53 278.72 509.4 279.16 509.95C279.59 510.5 279.9 510.76 279.87 510.79C279.86 510.81 279.5 510.61 279.01 510.08C278.52 509.55 277.89 508.67 277.51 507.42C277.13 506.18 277.03 504.55 277.58 502.89C278.1 501.25 279.3 499.56 281.14 498.67C282.96 497.77 285.02 497.74 286.66 498.37C288.32 498.99 289.42 500.27 289.98 501.43C290.57 502.61 290.67 503.7 290.62 504.42C290.6 504.78 290.55 505.06 290.5 505.24C290.46 505.41 290.42 505.5 290.41 505.5Z" fill="#263238"/>
<path d="M319.17 300.65C316.54 300.58 313.76 300.67 310.9 301.02C293.67 303.16 280.83 317.96 280.86 335.32C280.87 340.38 281.41 346.03 283 351.67C287.81 368.73 289.29 383.76 288.74 391.08L304.84 399.73C304.84 399.73 312.29 389.02 319.49 384.41C326.69 379.79 350.65 367.45 360.14 354.75C366.26 346.57 367.43 329.78 352.85 315.09C343.94 306.12 331.81 301 319.17 300.65Z" fill="#E8505B"/>
<path d="M281.12 409.71L295.66 417.56L286.19 429.59L276.5 425.18L281.12 409.71Z" fill="#455A64"/>
<path d="M281.82 410.19C281.69 410.14 283.13 405.83 285.04 400.55C286.95 395.27 288.6 391.03 288.73 391.08C288.86 391.13 287.42 395.44 285.51 400.72C283.61 406 281.95 410.24 281.82 410.19Z" fill="#263238"/>
<path d="M294.74 416.97C294.62 416.9 296.9 412.82 299.83 407.86C302.76 402.9 305.23 398.94 305.35 399.01C305.47 399.08 303.19 403.16 300.26 408.12C297.33 413.08 294.86 417.04 294.74 416.97Z" fill="#263238"/>
<g opacity="0.4">
<path opacity="0.4" d="M324.02 301.1C323.37 301.14 315.37 310.5 311.83 316.84C299.92 338.17 299.39 358.92 296.08 383.12C295.61 386.58 293.89 394.03 293.92 393.86C295.68 395.24 301.6 397.99 301.6 397.99C301.6 397.99 307.18 391.25 309.4 387.86C318.29 374.28 327.93 363.7 335.54 349.37C343.15 335.04 350.47 322.33 343.43 307.71C343.43 307.72 331.24 300.7 324.02 301.1Z" fill="black"/>
</g>
<path d="M360.2 356.9C360.19 356.9 360.12 356.75 359.99 356.44C359.86 356.14 359.7 355.67 359.43 355.09C358.91 353.93 358.05 352.25 356.62 350.36C355.19 348.49 353.19 346.37 350.44 344.6C347.74 342.78 344.25 341.34 340.31 340.85L340.21 340.84L340.15 340.76C338.3 338.27 336.18 335.69 333.65 333.3C331.13 330.92 328.18 328.73 324.78 327.19C321.39 325.68 317.74 325.01 314.3 325.19C310.86 325.36 307.63 326.46 305.13 328.25L304.99 328.35L304.86 328.23C301.87 325.6 298.29 324.24 295.06 323.88C291.81 323.51 288.93 324.1 286.73 324.94C284.52 325.78 282.95 326.86 281.95 327.63C281.45 328.02 281.07 328.34 280.83 328.57C280.58 328.79 280.45 328.9 280.44 328.89C280.43 328.88 280.55 328.75 280.78 328.51C281.01 328.27 281.37 327.93 281.86 327.51C282.85 326.69 284.4 325.57 286.64 324.68C288.86 323.79 291.79 323.15 295.11 323.5C298.41 323.84 302.08 325.2 305.16 327.89L304.88 327.88C307.44 326.03 310.76 324.89 314.29 324.7C317.81 324.5 321.54 325.18 325 326.73C328.46 328.29 331.45 330.52 334 332.94C336.55 335.36 338.68 337.97 340.52 340.48L340.37 340.39C344.4 340.91 347.93 342.41 350.65 344.28C353.42 346.11 355.42 348.28 356.84 350.19C358.25 352.12 359.08 353.83 359.57 355.02C359.82 355.61 359.95 356.09 360.06 356.4C360.16 356.73 360.21 356.89 360.2 356.9Z" fill="#263238"/>
<path d="M330.27 378.15C330.17 378.18 330.19 376.7 328.88 374.65C328.22 373.66 327.23 372.53 325.79 371.68C324.38 370.81 322.5 370.22 320.46 370.42L320.26 370.44L320.23 370.24C319.91 368.17 319.05 365.97 317.59 364.02C316.14 362.08 314.1 360.35 311.62 359.38C309.58 358.57 307.41 358.28 305.38 358.42C303.34 358.57 301.43 359.15 299.82 359.99L299.67 360.07L299.55 359.94C297.94 358.22 295.86 357.25 293.96 356.91C292.05 356.52 290.31 356.72 288.95 357.07C286.2 357.82 285.03 359.15 284.97 359.04C284.96 359.03 285.03 358.96 285.18 358.82C285.33 358.69 285.54 358.48 285.86 358.25C286.49 357.8 287.48 357.21 288.87 356.8C290.25 356.4 292.04 356.17 294.02 356.54C295.99 356.86 298.17 357.83 299.87 359.63L299.6 359.58C301.26 358.69 303.23 358.08 305.34 357.92C307.44 357.77 309.69 358.06 311.8 358.9C314.38 359.9 316.48 361.7 317.97 363.71C319.47 365.73 320.34 368.01 320.65 370.15L320.42 369.97C322.57 369.78 324.53 370.43 325.97 371.36C327.45 372.27 328.44 373.45 329.09 374.49C329.73 375.54 330.02 376.48 330.16 377.12C330.23 377.44 330.24 377.69 330.26 377.86C330.28 378.06 330.29 378.15 330.27 378.15Z" fill="#263238"/>
<path d="M292.85 421.35C292.81 421.38 292.69 421.15 292.32 421C291.95 420.84 291.34 420.82 290.62 421.05C290.25 421.15 289.83 421.28 289.33 421.29C288.83 421.3 288.28 421.06 287.89 420.66C287.12 419.86 286.82 418.69 286.1 417.89C285.74 417.5 285.26 417.29 284.76 417.33C284.26 417.35 283.75 417.52 283.24 417.63C282.74 417.75 282.21 417.83 281.72 417.71C281.23 417.61 280.84 417.37 280.53 417.1C279.91 416.56 279.64 415.92 279.57 415.48C279.5 415.04 279.57 414.79 279.59 414.79C279.63 414.79 279.63 415.03 279.76 415.43C279.88 415.82 280.18 416.37 280.75 416.82C281.04 417.04 281.39 417.23 281.8 417.3C282.2 417.38 282.65 417.31 283.13 417.18C283.61 417.06 284.13 416.87 284.74 416.83C285.35 416.78 286.03 417.06 286.46 417.54C287.31 418.5 287.57 419.65 288.22 420.33C288.54 420.67 288.93 420.86 289.34 420.87C289.75 420.89 290.15 420.78 290.53 420.71C291.29 420.51 292 420.58 292.4 420.83C292.81 421.07 292.87 421.35 292.85 421.35Z" fill="#263238"/>
<path d="M294.52 419.02C294.46 419.14 291.28 417.57 287.43 415.52C283.58 413.46 280.5 411.7 280.57 411.58C280.63 411.46 283.81 413.03 287.66 415.08C291.51 417.13 294.58 418.9 294.52 419.02Z" fill="#263238"/>
<path d="M291.63 422.68C291.64 422.72 291.43 422.78 291.08 422.94C290.9 423.02 290.7 423.14 290.42 423.25C290.14 423.37 289.78 423.41 289.42 423.38C288.69 423.33 287.8 423.1 287.02 422.46C286.64 422.15 286.31 421.69 286.11 421.2C285.9 420.73 285.73 420.24 285.41 419.89C284.75 419.18 283.67 419.1 282.78 419.13C281.86 419.16 280.96 419.19 280.25 418.89C279.55 418.6 279.13 418.1 278.97 417.72C278.81 417.33 278.86 417.09 278.89 417.09C278.93 417.08 278.95 417.31 279.14 417.63C279.33 417.95 279.74 418.34 280.37 418.56C281 418.78 281.82 418.73 282.76 418.67C283.67 418.62 284.9 418.64 285.78 419.55C286.19 420.01 286.36 420.55 286.56 421C286.75 421.46 287 421.82 287.33 422.11C287.99 422.69 288.79 422.94 289.46 423.03C290.13 423.15 290.62 422.87 291.02 422.76C291.4 422.65 291.62 422.66 291.63 422.68Z" fill="#263238"/>
<path d="M181.84 329.29L206.99 325.56L194.97 308.53L188.52 308.91C184.18 309.17 180.36 311.85 178.64 315.84C177.73 317.96 177.47 320.31 177.91 322.57L181.84 329.29Z" fill="#E8505B"/>
<path opacity="0.4" d="M181.84 329.29L206.99 325.56L194.97 308.53L188.52 308.91C184.18 309.17 180.36 311.85 178.64 315.84C177.73 317.96 177.47 320.31 177.91 322.57L181.84 329.29Z" fill="black"/>
<path d="M289.85 357.15C290.11 357.87 290.39 358.72 290.68 359.74C290.93 360.62 291.01 361.53 290.95 362.43C290.88 363.53 290.72 364.99 290.38 365.76C289.97 366.71 290.93 367.67 291.74 367.2C292.55 366.72 293.76 364.12 293.68 360.78C293.61 357.43 297.02 361.44 298.29 362.88C299.56 364.32 303.7 368.59 304.45 368.55C305.55 368.49 305.69 367.3 304.39 365.89C303.07 364.46 299.48 359.98 300.27 359.35C301.05 358.73 307.42 366.14 307.42 366.14C307.42 366.14 308.52 367.95 309.46 367.24C311.16 365.97 303.81 358.59 303.09 357.9C302.59 357.42 303.43 356.7 303.94 357.24C304.46 357.8 310.12 364.79 311.86 363.51C313.19 362.53 305.87 357.38 305.5 355.28C305.13 353.18 310.66 359.75 311.89 358.77C312.35 358.4 312.64 358.07 308.93 354.75C307.13 353.14 300.27 348.34 300.27 348.34L279.63 289.24L263.69 298.37L289.85 357.15Z" fill="#FFBE9D"/>
<path d="M166.99 245.39L143.93 217.87C143.63 216.92 143.27 216 142.8 215.13C141.65 212.98 139.74 211.11 137.36 210.59C135.9 210.27 134.22 210.42 133.08 209.46C132.57 209.03 132.22 208.42 131.69 208.02C131.15 207.62 130.26 207.54 129.91 208.12C129.67 208.53 129.82 209.05 130.01 209.49C130.87 211.52 132.26 213.32 134.01 214.66C131.85 215.32 128.76 216.31 128.76 216.31C128.76 216.31 123.88 211.02 121.39 211.04C118.9 211.06 123.41 215.76 123.41 215.76C123.41 215.76 119.41 212.06 118.17 213.11C116.93 214.15 120.11 216.89 120.11 216.89C119.1 216.35 118 215.79 116.87 215.98C115.74 216.17 114.77 217.5 115.38 218.47C115.61 218.84 116.01 219.07 116.4 219.28C118.45 220.42 120.49 221.56 122.54 222.7C123.57 223.27 124.65 223.86 125.82 223.9C128.93 224 131.3 222.07 134.42 222.15C134.42 222.15 151.81 258.76 153.57 260.65C155.33 262.54 193.54 265.11 193.54 265.11L215.65 246.06L166.99 245.39Z" fill="#FFBE9D"/>
<path d="M236.26 444.82L259.81 455.08L247.2 484.45C244.47 483.07 245.36 465.46 245.36 465.46L230 459.5L236.26 444.82Z" fill="#E8505B"/>
<g opacity="0.6">
<path opacity="0.6" d="M247.99 455.83C248.39 455.33 249.2 455.21 249.71 455.59C250.23 455.97 250.36 456.79 249.96 457.3C249.57 457.81 248.6 457.98 248.13 457.55C247.66 457.12 247.56 456.14 248.06 455.74" fill="white"/>
</g>
<path opacity="0.6" d="M259.82 455.08L257.41 454.14L246.22 482.65C246.22 482.65 246.23 484.2 247.21 484.45L259.82 455.08Z" fill="white"/>
<path d="M245.01 465.87C245.16 465.93 245.53 465.24 246.29 464.73C247.04 464.2 247.82 464.11 247.82 463.95C247.85 463.81 246.9 463.65 245.99 464.28C245.07 464.9 244.87 465.84 245.01 465.87Z" fill="#263238"/>
<path d="M244.96 469.5C245.08 469.59 245.6 469.08 246.41 468.85C247.22 468.6 247.93 468.76 247.98 468.61C248.06 468.48 247.26 468.02 246.25 468.33C245.25 468.62 244.83 469.43 244.96 469.5Z" fill="#263238"/>
<path d="M247.9 472.83C247.99 472.71 247.36 472.21 246.41 472.24C245.47 472.26 244.87 472.81 244.96 472.92C245.04 473.05 245.65 472.8 246.43 472.78C247.2 472.75 247.82 472.97 247.9 472.83Z" fill="#263238"/>
<path d="M241.66 464.12C241.82 464.12 241.9 463.37 242.3 462.59C242.69 461.79 243.23 461.28 243.14 461.15C243.07 461.02 242.28 461.41 241.81 462.34C241.35 463.28 241.52 464.15 241.66 464.12Z" fill="#263238"/>
<path d="M238.48 461.93C238.54 461.96 238.87 461.43 239.1 460.46C239.22 459.98 239.3 459.38 239.29 458.72C239.29 458.39 239.26 458.04 239.2 457.68C239.17 457.51 239.15 457.31 239.04 457.09C238.96 456.87 238.62 456.61 238.31 456.7C238.02 456.75 237.81 456.98 237.71 457.19C237.61 457.4 237.58 457.6 237.55 457.77C237.49 458.13 237.47 458.48 237.47 458.82C237.48 459.49 237.61 460.09 237.78 460.56C238.12 461.51 238.55 461.97 238.6 461.94C238.68 461.9 238.37 461.37 238.15 460.45C238.04 459.99 237.96 459.44 237.97 458.82C237.98 458.51 238.01 458.19 238.07 457.86C238.12 457.51 238.23 457.25 238.41 457.23C238.48 457.22 238.5 457.23 238.56 457.33C238.62 457.43 238.64 457.59 238.67 457.76C238.73 458.09 238.76 458.42 238.78 458.73C238.81 459.35 238.78 459.92 238.71 460.39C238.6 461.33 238.4 461.9 238.48 461.93Z" fill="#263238"/>
<path d="M238.76 461.83C238.8 461.79 238.41 461.28 237.51 460.83C237.06 460.61 236.48 460.42 235.81 460.34C235.48 460.3 235.12 460.3 234.76 460.33C234.4 460.38 233.92 460.42 233.61 460.95C233.47 461.24 233.6 461.57 233.76 461.74C233.92 461.92 234.08 462.01 234.23 462.12C234.55 462.32 234.89 462.46 235.22 462.55C235.88 462.73 236.51 462.69 237.01 462.57C238.02 462.32 238.45 461.8 238.4 461.77C238.35 461.69 237.86 462.07 236.94 462.2C236.49 462.26 235.93 462.25 235.36 462.07C235.08 461.98 234.79 461.85 234.52 461.68C234.23 461.5 234.03 461.27 234.11 461.17C234.17 461.02 234.51 460.88 234.81 460.86C235.14 460.82 235.46 460.82 235.76 460.84C236.37 460.88 236.91 461.02 237.35 461.19C238.24 461.51 238.71 461.9 238.76 461.83Z" fill="#263238"/>
<path d="M218.12 485.17L227.86 505.58L230.91 523.94C231.13 525.26 232.42 526.12 233.73 525.81C234.46 525.64 235.06 525.13 235.34 524.43C237.13 520 243.64 503.65 242.84 502.2C241.92 500.52 233.99 479.99 233.99 479.99L218.12 485.17Z" fill="#E8505B"/>
<path opacity="0.6" d="M233.74 525.81L242.23 500.81L242.62 501.68C242.96 502.44 243.02 503.29 242.79 504.08C242.17 506.21 240.34 512.05 235.41 524.4C235.12 525.13 234.49 525.66 233.74 525.81Z" fill="white"/>
<g opacity="0.6">
<path opacity="0.6" d="M235 496.06C234.64 496.65 234.83 497.51 235.4 497.89C235.97 498.27 236.85 498.09 237.21 497.51C237.58 496.93 237.39 495.89 236.78 495.58C236.17 495.27 235.15 495.53 234.94 496.19" fill="white"/>
</g>
<path d="M234.4 514.68C234.31 514.79 233.36 513.92 231.87 513.89C230.38 513.82 229.37 514.62 229.29 514.5C229.25 514.46 229.44 514.18 229.89 513.89C230.34 513.6 231.06 513.36 231.89 513.39C232.71 513.42 233.42 513.72 233.85 514.03C234.27 514.35 234.44 514.64 234.4 514.68Z" fill="#263238"/>
<path d="M234.17 518.1C234.11 518.23 233.15 517.86 231.94 518.03C230.73 518.18 229.9 518.79 229.81 518.68C229.7 518.6 230.5 517.72 231.88 517.54C233.25 517.36 234.25 518 234.17 518.1Z" fill="#263238"/>
<path d="M235.54 509.91C235.49 510.05 234.01 509.47 232.11 509.58C230.21 509.66 228.8 510.38 228.73 510.24C228.65 510.14 230.05 509.17 232.09 509.08C234.12 508.97 235.62 509.81 235.54 509.91Z" fill="#263238"/>
<path d="M233.1 503.46C233.1 503.61 231.75 503.64 230.24 504.26C228.72 504.85 227.72 505.76 227.62 505.65C227.52 505.57 228.43 504.44 230.06 503.8C231.68 503.14 233.12 503.34 233.1 503.46Z" fill="#263238"/>
<path d="M230.39 497.4C230.38 497.55 228.92 497.38 227.39 498.15C225.84 498.89 225.09 500.15 224.96 500.07C224.91 500.04 225.02 499.68 225.37 499.19C225.72 498.7 226.34 498.11 227.17 497.7C228 497.29 228.85 497.16 229.45 497.18C230.05 497.2 230.4 497.34 230.39 497.4Z" fill="#263238"/>
<path d="M226.91 496.98C226.88 496.99 226.71 496.74 226.53 496.21C226.35 495.69 226.17 494.89 226.23 493.89C226.28 493.41 226.29 492.81 226.74 492.28C226.96 492.01 227.42 491.88 227.78 492.04C228.14 492.2 228.37 492.5 228.52 492.82C229.09 494.14 228.53 495.91 227.14 496.76C225.73 497.59 224.02 497.34 222.92 496.48C222.66 496.24 222.41 495.93 222.41 495.51C222.41 495.09 222.77 494.76 223.08 494.68C223.73 494.5 224.28 494.68 224.76 494.78C225.73 495.03 226.44 495.43 226.89 495.75C227.34 496.07 227.55 496.3 227.53 496.32C227.48 496.41 226.55 495.54 224.68 495.12C224.22 495.04 223.68 494.92 223.22 495.07C223 495.15 222.85 495.31 222.85 495.52C222.85 495.72 223.01 495.96 223.22 496.14C224.13 496.84 225.7 497.06 226.88 496.34C228.06 495.64 228.54 494.08 228.1 493.01C227.99 492.75 227.81 492.53 227.6 492.44C227.4 492.35 227.18 492.4 227.02 492.56C226.69 492.9 226.62 493.46 226.56 493.92C226.4 495.83 227.01 496.96 226.91 496.98Z" fill="#263238"/>
<path d="M250.95 447.31L224.24 429.33L233.08 342.54L207.78 327.77L184.65 322.41C184.65 322.41 174.99 342.51 170.69 355.38C161.55 382.75 155.14 392.55 156.6 412.39C157.06 418.67 180.25 434.37 194.89 443.1C195.09 445.1 195.35 446.85 195.67 448.3C200.67 470.92 215.94 500.99 215.94 500.99L239.15 490.2L231.66 464.55L239.46 469.1L250.95 447.31ZM193.54 391.35L196.66 377.44C196 386.29 195.4 395.51 194.97 404.36C193.47 400.27 192.95 395.72 193.54 391.35Z" fill="#263238"/>
<path d="M215.94 500.98C215.93 500.98 215.87 500.86 215.76 500.61C215.64 500.34 215.48 499.98 215.28 499.52C214.86 498.53 214.26 497.11 213.49 495.29C211.95 491.61 209.74 486.27 207.09 479.64C204.45 473.01 201.3 465.11 198.14 456.21C197.35 453.98 196.58 451.69 195.85 449.32C195.53 448.12 195.12 446.94 194.91 445.67C194.85 445.36 194.78 445.04 194.73 444.73L194.62 443.78C194.55 443.15 194.48 442.51 194.41 441.87C194.14 439.31 193.91 436.71 193.75 434.06C193.67 432.74 193.59 431.4 193.54 430.05C193.49 428.71 193.43 427.34 193.51 425.98C193.9 415.07 194.82 404.74 195.57 395.33C196.36 385.93 197.06 377.46 197.66 370.34C198.24 363.23 198.64 357.47 198.87 353.48C198.99 351.49 199.06 349.94 199.11 348.89C199.14 348.38 199.16 347.99 199.17 347.7C199.19 347.43 199.2 347.29 199.21 347.29C199.22 347.29 199.22 347.43 199.22 347.7C199.22 347.99 199.21 348.39 199.2 348.9C199.19 349.95 199.15 351.5 199.05 353.5C198.88 357.49 198.53 363.26 198 370.38C197.43 377.5 196.76 385.97 196.02 395.38C195.29 404.79 194.39 415.14 194 426.01C193.92 427.37 193.98 428.71 194.03 430.05C194.08 431.39 194.15 432.72 194.24 434.04C194.41 436.68 194.63 439.28 194.89 441.83C194.96 442.47 195.03 443.1 195.1 443.73L195.21 444.67C195.26 444.98 195.33 445.28 195.39 445.59C195.59 446.81 195.99 448 196.31 449.19C197.03 451.55 197.79 453.84 198.58 456.06C201.72 464.95 204.83 472.86 207.43 479.51C210.06 486.12 212.2 491.48 213.69 495.21C214.42 497.04 215 498.48 215.4 499.48C215.58 499.95 215.73 500.32 215.84 500.59C215.91 500.85 215.95 500.98 215.94 500.98Z" fill="#455A64"/>
<path d="M198.09 344.37C198.07 344.4 197.86 344.22 197.48 343.88C197.13 343.51 196.71 342.9 196.35 342.07C195.63 340.4 195.27 337.9 195.21 335.18C195.16 332.45 195.36 329.99 195.54 328.23C195.72 326.46 195.87 325.37 195.94 325.38C196.01 325.38 195.98 326.49 195.89 328.26C195.8 330.03 195.66 332.48 195.71 335.18C195.76 337.87 196.07 340.31 196.68 341.95C196.98 342.77 197.34 343.38 197.63 343.77C197.95 344.12 198.11 344.34 198.09 344.37Z" fill="#455A64"/>
<path d="M188.1 323.71C188.15 323.7 188.39 324.62 188.3 326.14C188.22 327.64 187.7 329.76 186.39 331.7C185.07 333.64 183.29 334.89 181.92 335.52C180.54 336.16 179.6 336.27 179.59 336.22C179.57 336.14 180.47 335.9 181.76 335.2C183.05 334.51 184.72 333.27 185.98 331.42C187.24 329.57 187.79 327.56 187.96 326.11C188.13 324.64 188.02 323.72 188.1 323.71Z" fill="#455A64"/>
<path d="M229.6 374.17C229.61 374.17 229.61 374.26 229.59 374.43C229.57 374.63 229.55 374.89 229.53 375.2C229.46 375.91 229.36 376.91 229.23 378.16C228.95 380.77 228.54 384.48 228.04 389.05C227 398.27 225.56 410.95 223.97 424.95C223.36 431.96 223.97 438.71 225.29 444.65C225.94 447.63 226.8 450.4 227.71 452.96C228.61 455.52 229.45 457.91 230.21 460.1C231.72 464.44 232.94 467.97 233.8 470.45C234.2 471.65 234.52 472.59 234.75 473.27C234.85 473.57 234.92 473.81 234.99 474.01C235.04 474.18 235.06 474.26 235.05 474.27C235.04 474.27 235 474.19 234.94 474.03C234.87 473.84 234.77 473.6 234.66 473.31C234.41 472.64 234.06 471.7 233.62 470.52C232.72 468.05 231.45 464.54 229.88 460.22C229.1 458.04 228.24 455.66 227.32 453.1C226.39 450.54 225.51 447.75 224.84 444.76C223.49 438.78 222.86 431.98 223.48 424.91C225.04 410.87 226.59 398.2 227.69 389.01C228.25 384.45 228.71 380.74 229.03 378.14C229.2 376.89 229.33 375.9 229.42 375.19C229.47 374.88 229.5 374.62 229.53 374.42C229.58 374.26 229.6 374.17 229.6 374.17Z" fill="#455A64"/>
<path d="M184.65 322.24L188.75 311.78L198.09 325.71L185.63 322.6" fill="#FFBE9D"/>
<path d="M282.47 290.78L271.38 265.91C270.05 261.91 267.57 261.29 265.48 258.97L237.69 243.3C217.44 235 206.41 262.83 206.41 262.83L188 304.82C166.35 312 181.68 328.62 181.68 328.62C181.68 328.62 175.79 318.38 181.58 314.69C187.64 310.82 194.37 321.01 200.83 330.69C208.46 342.11 233.24 349.53 233.24 349.53C236.14 346.47 235.33 335.78 237.6 330.04C238.32 328.22 255.48 288.47 255.48 288.47L262.13 304.59C262.13 304.59 270.66 294.59 274.79 293C278.91 291.41 282.47 290.78 282.47 290.78Z" fill="#E8505B"/>
<path d="M233.23 308.45C233.25 308.48 232.95 308.7 232.39 309.04C231.82 309.38 230.97 309.82 229.86 310.24C227.66 311.09 224.33 311.74 220.73 311.19C217.12 310.63 214.15 309 212.31 307.53C211.38 306.8 210.7 306.12 210.26 305.63C209.82 305.13 209.61 304.84 209.64 304.82C209.71 304.75 210.64 305.89 212.53 307.26C214.39 308.63 217.31 310.17 220.82 310.71C224.33 311.25 227.57 310.67 229.76 309.92C231.95 309.16 233.18 308.37 233.23 308.45Z" fill="#263238"/>
<path d="M187.17 269.01L204.32 270.63L231.76 241.63L215.62 241.08L186.88 243.92C186.88 243.91 189.43 255.89 187.17 269.01Z" fill="#E8505B"/>
<path d="M210.99 253.73C211.01 253.74 210.93 253.92 210.78 254.26C210.6 254.65 210.37 255.14 210.09 255.74C209.46 257.08 208.6 258.92 207.54 261.17C205.41 265.77 202.58 272.17 199.51 279.27C196.44 286.37 193.65 292.8 191.54 297.41C190.49 299.72 189.62 301.58 188.99 302.85C188.69 303.45 188.45 303.93 188.26 304.31C188.09 304.64 187.99 304.81 187.98 304.81C187.96 304.8 188.03 304.62 188.17 304.27C188.34 303.88 188.55 303.38 188.81 302.77C189.4 301.41 190.22 299.55 191.21 297.27C193.24 292.56 196 286.16 199.04 279.08C202.11 271.98 204.99 265.59 207.21 261.03C208.31 258.75 209.23 256.91 209.9 255.66C210.21 255.07 210.47 254.6 210.67 254.22C210.87 253.89 210.97 253.72 210.99 253.73Z" fill="#263238"/>
<path d="M263.34 262.17C263.39 262.25 262.32 262.81 260.87 264.04C260.14 264.65 259.35 265.47 258.55 266.44C257.78 267.43 257.02 268.59 256.37 269.89C255.75 271.2 255.31 272.51 255.01 273.73C254.74 274.96 254.59 276.08 254.56 277.03C254.49 278.93 254.71 280.11 254.62 280.13C254.59 280.14 254.51 279.85 254.41 279.31C254.35 279.04 254.3 278.72 254.28 278.33C254.25 277.95 254.19 277.51 254.21 277.02C254.19 276.05 254.31 274.89 254.56 273.62C254.84 272.36 255.28 271.01 255.92 269.66C256.58 268.32 257.37 267.14 258.19 266.14C259.03 265.16 259.86 264.35 260.64 263.76C261.01 263.44 261.39 263.22 261.71 263C262.03 262.78 262.32 262.62 262.56 262.5C263.05 262.26 263.32 262.14 263.34 262.17Z" fill="#263238"/>
<path d="M268.13 222.33L252.04 252.41C249.41 257.32 243.44 259.36 238.35 257.09C232.75 254.59 230.44 247.87 233.3 242.45C234.82 239.58 236.08 237.24 236.08 237.24C236.08 237.24 229.08 232.71 232.36 225.15C235.28 218.41 246 199.37 248.27 195.35L261.83 201.42C269.45 205.37 272.3 214.83 268.13 222.33Z" fill="#FFBE9D"/>
<path d="M236.12 237.12C236.12 237.12 240.7 239.63 247.17 238.72C247.17 238.72 242.43 243.09 235.23 239.06L236.12 237.12Z" fill="#EB996E"/>
<path d="M241.29 213.08C241.02 213.64 241.26 214.33 241.84 214.63C242.42 214.93 243.11 214.72 243.38 214.16C243.65 213.6 243.41 212.91 242.83 212.61C242.25 212.31 241.56 212.52 241.29 213.08Z" fill="#263238"/>
<path d="M241.35 212.12C241.42 212.32 242.5 212.08 243.66 212.6C244.82 213.1 245.4 214.08 245.59 213.99C245.68 213.96 245.66 213.64 245.41 213.21C245.17 212.78 244.66 212.24 243.94 211.92C243.22 211.6 242.49 211.6 242.03 211.71C241.54 211.83 241.31 212.03 241.35 212.12Z" fill="#263238"/>
<path d="M252.09 218.389C251.82 218.949 252.06 219.639 252.64 219.939C253.22 220.239 253.91 220.029 254.18 219.469C254.45 218.909 254.21 218.219 253.63 217.919C253.06 217.619 252.37 217.839 252.09 218.389Z" fill="#263238"/>
<path d="M252.61 217.42C252.68 217.62 253.76 217.38 254.92 217.9C256.08 218.4 256.66 219.38 256.85 219.29C256.94 219.25 256.92 218.94 256.67 218.51C256.43 218.08 255.92 217.54 255.2 217.22C254.48 216.9 253.75 216.9 253.29 217.01C252.8 217.13 252.57 217.32 252.61 217.42Z" fill="#263238"/>
<path d="M244.58 224.11C244.61 224.05 243.95 223.6 242.86 222.93C242.58 222.77 242.33 222.58 242.37 222.36C242.4 222.12 242.66 221.85 242.96 221.57C243.56 220.98 244.18 220.36 244.84 219.71C247.48 217.05 249.54 214.82 249.43 214.71C249.32 214.6 247.09 216.67 244.45 219.33C243.81 219.99 243.19 220.62 242.6 221.22C242.34 221.51 241.98 221.8 241.93 222.31C241.91 222.57 242.06 222.82 242.22 222.96C242.38 223.1 242.55 223.18 242.69 223.25C243.82 223.84 244.55 224.17 244.58 224.11Z" fill="#263238"/>
<path d="M247.62 226.43C247.44 226.33 246.87 227.59 245.4 228C243.93 228.41 242.66 227.67 242.57 227.85C242.52 227.92 242.76 228.23 243.32 228.49C243.86 228.76 244.75 228.94 245.65 228.69C246.55 228.44 247.16 227.83 247.43 227.34C247.71 226.83 247.71 226.46 247.62 226.43Z" fill="#263238"/>
<path d="M254.33 212.76C254.3 213.13 255.52 213.49 256.81 214.26C258.11 215 259.02 215.89 259.33 215.69C259.47 215.59 259.41 215.21 259.11 214.71C258.81 214.21 258.24 213.61 257.47 213.15C256.7 212.7 255.89 212.49 255.31 212.47C254.71 212.45 254.35 212.58 254.33 212.76Z" fill="#263238"/>
<path d="M243.27 208.97C243.36 209.32 244.27 209.41 245.24 209.82C246.22 210.2 246.93 210.79 247.24 210.6C247.38 210.5 247.37 210.18 247.13 209.78C246.89 209.38 246.4 208.91 245.73 208.64C245.06 208.37 244.39 208.35 243.93 208.47C243.47 208.58 243.24 208.8 243.27 208.97Z" fill="#263238"/>
<path d="M263.07 226.84C263.22 226.84 268.92 227.62 266.45 232.69C263.99 237.76 259.41 234.24 259.47 234.09C259.54 233.94 263.07 226.84 263.07 226.84Z" fill="#FFBE9D"/>
<path d="M261.96 232.921C261.99 232.911 262.02 233.021 262.13 233.171C262.24 233.311 262.47 233.471 262.78 233.501C263.41 233.561 264.27 232.931 264.74 232.031C264.98 231.581 265.09 231.091 265.11 230.651C265.14 230.201 265.02 229.831 264.78 229.651C264.54 229.461 264.27 229.531 264.14 229.641C264 229.751 263.99 229.871 263.96 229.861C263.94 229.871 263.89 229.721 264.03 229.531C264.1 229.441 264.22 229.351 264.38 229.311C264.55 229.271 264.75 229.311 264.93 229.421C265.31 229.641 265.48 230.171 265.47 230.651C265.48 231.151 265.36 231.701 265.09 232.211C264.56 233.211 263.57 233.921 262.74 233.771C262.34 233.691 262.09 233.441 262 233.241C261.91 233.051 261.93 232.921 261.96 232.921Z" fill="#EB996E"/>
<path d="M266.01 227.95C265.31 227.41 263.63 227.53 262.97 228.11C262.31 228.69 261.86 229.49 261.2 230.08C260.54 230.67 259.49 230.99 258.79 230.46C258.31 230.09 258.15 229.41 258.24 228.81C258.34 228.21 258.65 227.67 258.97 227.15C260.35 224.89 261.92 222.73 263.09 220.36C264.27 217.99 265.05 215.32 264.7 212.69C264.35 210.06 262.7 207.5 260.2 206.62C258.55 206.03 256.71 206.21 255.02 205.72C253.02 205.14 251.33 203.59 250.58 201.64C250.48 201.39 249.92 200.5 249.92 200.5C249.98 200.38 250.57 199.35 251.17 199.15C255.62 197.65 261.66 199.37 265.35 202.28C269.04 205.19 271.62 209.87 271.67 214.57C271.72 219.26 268.76 224.45 266.01 227.95Z" fill="#263238"/>
<path d="M266.06 227.44C267.47 225.05 269.75 223.31 271.49 221.15C273.23 218.99 274.43 215.94 273.19 213.46C272.77 212.61 272.09 211.9 271.73 211.02C271.37 210.14 271.37 209.16 271.24 208.21C270.82 205.29 268.97 202.62 266.4 201.18C264.62 200.19 262.57 199.78 260.76 198.83C257.9 197.33 255.81 194.54 252.81 193.36C251.81 192.97 250.65 192.77 249.7 193.27C248.75 193.76 248.24 195.14 248.93 195.96C248.81 195 247.56 194.48 246.68 194.87C245.8 195.27 245.35 196.32 245.41 197.28C245.47 198.24 245.95 199.13 246.5 199.93C248.32 202.54 251.11 204.46 254.2 205.23L261.1 204.69L266.76 208.88L270.95 215.55L263.35 225.42L266.06 227.44Z" fill="#263238"/>
<path d="M222.87 188.09C222 174.65 210.41 164.47 196.97 165.33C183.53 166.2 173.35 177.79 174.21 191.23C174.84 200.96 181.09 208.98 189.59 212.34C189.78 215.22 189.99 218.48 189.99 218.48L211.31 217.1C211.31 217.1 211.22 213.65 211.07 210.57C218.65 206.03 223.48 197.51 222.87 188.09Z" fill="#E8505B"/>
<path d="M203.6 217.5C203.6 217.5 203.6 217.4 203.6 217.2C203.61 216.99 203.62 216.7 203.64 216.32C203.68 215.54 203.75 214.4 203.87 212.92C203.99 211.45 204.16 209.64 204.5 207.57C204.84 205.5 205.34 203.14 206.27 200.66C206.74 199.42 207.29 198.14 208.04 196.89C208.43 196.28 208.92 195.67 209.61 195.29C210.3 194.91 211.18 194.85 211.92 195.22C212.29 195.4 212.61 195.73 212.75 196.13C212.91 196.53 212.89 196.99 212.73 197.39C212.4 198.18 211.72 198.77 210.96 199.13C209.39 199.8 207.53 199.77 205.88 199.1C204.22 198.43 202.85 197.01 202.18 195.26C201.86 194.39 201.65 193.43 201.85 192.46C202.02 191.5 202.88 190.6 203.95 190.63C204.48 190.63 204.98 190.96 205.24 191.41C205.51 191.85 205.61 192.39 205.53 192.9C205.36 193.93 204.68 194.74 203.98 195.43C202.53 196.8 200.49 197.64 198.42 197.44C196.36 197.25 194.45 196.02 193.49 194.24C192.99 193.37 192.81 192.28 193.14 191.3C193.3 190.82 193.64 190.36 194.14 190.16C194.62 189.94 195.19 189.99 195.65 190.2C196.11 190.41 196.5 190.77 196.75 191.2C197 191.63 197.14 192.1 197.21 192.58C197.34 193.53 197.27 194.49 197.02 195.38C196.54 197.18 195.38 198.75 193.85 199.68C192.33 200.62 190.53 200.96 188.86 200.7C188.04 200.57 187.19 200.3 186.59 199.68C186.01 199.07 185.79 198.06 186.3 197.35C186.55 197 186.96 196.8 187.36 196.74C187.76 196.69 188.17 196.74 188.54 196.89C189.29 197.2 189.77 197.84 190.14 198.46C190.84 199.74 191.41 200.99 191.99 202.18C194.25 206.96 195.89 210.91 197 213.65C197.55 215.02 197.96 216.09 198.24 216.82C198.37 217.18 198.47 217.45 198.55 217.65C198.62 217.84 198.65 217.94 198.65 217.94C198.65 217.94 198.6 217.85 198.53 217.66C198.45 217.46 198.34 217.19 198.19 216.84C197.89 216.11 197.45 215.05 196.9 213.69C195.76 210.97 194.09 207.03 191.81 202.27C191.23 201.09 190.64 199.82 189.96 198.57C189.6 197.97 189.13 197.37 188.47 197.1C187.83 196.83 186.96 196.89 186.53 197.48C186.11 198.06 186.29 198.96 186.8 199.49C187.33 200.05 188.12 200.31 188.92 200.43C190.52 200.68 192.27 200.35 193.72 199.44C195.18 198.54 196.3 197.03 196.75 195.3C196.99 194.44 197.05 193.51 196.93 192.61C196.81 191.73 196.38 190.82 195.54 190.46C195.14 190.28 194.67 190.24 194.27 190.42C193.87 190.59 193.58 190.96 193.43 191.39C193.14 192.26 193.29 193.27 193.77 194.09C194.68 195.78 196.51 196.95 198.47 197.14C200.44 197.33 202.41 196.52 203.8 195.21C204.48 194.55 205.12 193.77 205.27 192.85C205.34 192.41 205.25 191.94 205.02 191.56C204.79 191.18 204.4 190.93 203.97 190.92C203.54 190.91 203.11 191.09 202.79 191.39C202.46 191.68 202.26 192.09 202.17 192.52C201.98 193.39 202.17 194.32 202.48 195.15C203.11 196.83 204.43 198.19 206.02 198.83C207.59 199.48 209.4 199.5 210.88 198.88C211.6 198.54 212.24 197.99 212.53 197.29C212.84 196.59 212.51 195.75 211.84 195.44C211.19 195.11 210.37 195.16 209.75 195.5C209.11 195.85 208.64 196.42 208.26 197.01C207.52 198.23 206.96 199.51 206.5 200.73C205.56 203.19 205.05 205.53 204.7 207.6C204.35 209.67 204.16 211.46 204.03 212.93C203.91 214.39 203.81 215.53 203.75 216.32C203.72 216.7 203.69 216.99 203.68 217.2C203.62 217.4 203.6 217.5 203.6 217.5Z" fill="#263238"/>
<path d="M209.93 221.16L191.62 222.34C190.86 222.39 190.21 221.81 190.16 221.05C190.11 220.29 190.69 219.64 191.45 219.59L209.76 218.41C210.52 218.36 211.17 218.94 211.22 219.7C211.27 220.45 210.69 221.11 209.93 221.16Z" fill="#263238"/>
<path d="M210.01 222.36L191.7 223.54C190.94 223.59 190.37 224.24 190.41 225C190.46 225.76 191.11 226.33 191.87 226.29L193.88 226.16L196.87 231.06C197.21 231.62 197.84 231.95 198.49 231.9L205.03 231.48C205.69 231.44 206.27 231.03 206.54 230.42L208.8 225.19L210.17 225.1C210.93 225.05 211.5 224.4 211.46 223.64C211.42 222.88 210.77 222.31 210.01 222.36Z" fill="#263238"/>
<g opacity="0.2">
<path opacity="0.2" d="M181.91 175.17C183.45 173.55 185.09 172.38 186.57 171.62C188.05 170.85 189.34 170.44 190.25 170.29C191.16 170.13 191.69 170.19 191.75 170.38C191.88 170.81 190.08 171.59 187.7 173.41C185.33 175.19 182.41 178.24 180.8 182.37C179.2 186.51 179.3 190.73 179.85 193.64C180.38 196.59 181.19 198.37 180.79 198.6C180.62 198.7 180.19 198.39 179.62 197.66C179.05 196.93 178.37 195.76 177.8 194.2C177.22 192.64 176.8 190.66 176.75 188.43C176.7 186.2 177.07 183.72 178 181.29" fill="white"/>
</g>
<g opacity="0.2">
<path opacity="0.2" d="M197.67 171.05C196.13 171.14 194.74 170.8 194.53 170C194.44 169.6 194.69 169.15 195.23 168.78C195.76 168.41 196.57 168.12 197.5 168.07C198.42 168.02 199.26 168.2 199.83 168.51C200.41 168.82 200.71 169.23 200.67 169.64" fill="white"/>
</g>
<path d="M206.24 230.87C206.22 230.92 205.75 230.74 204.96 230.56C204.17 230.39 203.05 230.26 201.83 230.37C200.6 230.49 199.53 230.82 198.79 231.14C198.05 231.46 197.61 231.72 197.59 231.68C197.57 231.65 197.97 231.32 198.71 230.95C199.45 230.58 200.55 230.2 201.81 230.08C203.07 229.96 204.23 230.13 205.02 230.36C205.81 230.59 206.26 230.85 206.24 230.87Z" fill="#455A64"/>
<path d="M208.86 225.25C208.87 225.33 205.56 225.61 201.48 225.88C197.4 226.14 194.08 226.29 194.08 226.21C194.07 226.13 197.38 225.85 201.46 225.58C205.54 225.32 208.86 225.17 208.86 225.25Z" fill="#455A64"/>
<path d="M207.86 227.5C207.86 227.54 207.18 227.66 206.07 227.8C204.96 227.94 203.42 228.11 201.71 228.24C200 228.37 198.46 228.45 197.34 228.49C196.22 228.52 195.53 228.51 195.52 228.47C195.52 228.43 196.21 228.36 197.32 228.27C198.53 228.18 200.02 228.06 201.68 227.94C203.34 227.81 204.83 227.68 206.04 227.59C207.16 227.5 207.85 227.46 207.86 227.5Z" fill="#455A64"/>
<path d="M76.02 349.97L80 356.34C80 356.34 96.96 340.73 113.79 345.14C113.78 345.14 98.66 332.32 76.02 349.97Z" fill="#E8505B"/>
<path d="M113.78 345.14C113.78 345.14 126.23 331.62 144.49 334.7L149.47 335.45L147.88 332.57C147.87 332.58 116.12 321.71 113.78 345.14Z" fill="#E8505B"/>
<path d="M87.5 299.56C87.5 299.56 62.56 295.27 46.21 304.12L72.18 353.02C72.18 353.02 93.44 332.53 113.78 345.15L87.5 299.56Z" fill="#F5F5F5"/>
<path d="M87.5 299.56C87.5 299.56 87.55 299.62 87.63 299.76C87.72 299.91 87.85 300.12 88 300.38C88.34 300.95 88.82 301.76 89.44 302.81C90.7 304.97 92.53 308.1 94.85 312.07C99.5 320.08 106.1 331.47 113.97 345.04C114.03 345.15 114 345.28 113.89 345.34C113.82 345.38 113.73 345.38 113.66 345.34C110.84 343.61 107.6 342.29 104.1 341.67C102.35 341.38 100.54 341.26 98.71 341.3C96.88 341.37 95.03 341.61 93.19 341.99C85.82 343.62 78.67 347.62 72.56 353L72.35 353.2C72.25 353.3 72.09 353.29 72 353.19C71.98 353.17 71.97 353.15 71.96 353.13C62.31 334.93 53.37 318.06 46.03 304.21C45.98 304.11 46.01 303.99 46.11 303.94H46.12C51.84 300.98 57.64 299.7 62.74 299.02C67.86 298.36 72.36 298.34 76.04 298.44C79.72 298.56 82.59 298.86 84.54 299.1C85.51 299.22 86.26 299.33 86.76 299.41C87 299.45 87.18 299.49 87.33 299.51C87.44 299.54 87.5 299.55 87.5 299.56C87.5 299.56 87.43 299.56 87.3 299.54C87.16 299.52 86.97 299.5 86.73 299.47C86.23 299.41 85.48 299.31 84.51 299.22C82.56 299.02 79.69 298.76 76.02 298.67C72.35 298.6 67.86 298.65 62.77 299.34C57.7 300.05 51.94 301.35 46.3 304.29L46.38 304.01C53.74 317.85 62.71 334.7 72.39 352.89L72 352.84L72.22 352.63C75.3 349.87 78.66 347.56 82.16 345.65C85.67 343.76 89.34 342.31 93.08 341.51C94.95 341.12 96.83 340.89 98.69 340.81C100.55 340.78 102.39 340.9 104.17 341.2C107.73 341.84 111.03 343.19 113.88 344.95L113.57 345.25C105.78 331.66 99.25 320.27 94.66 312.25C92.38 308.25 90.58 305.09 89.35 302.91C88.75 301.84 88.28 301.01 87.95 300.43C87.8 300.16 87.68 299.95 87.6 299.79C87.54 299.64 87.5 299.56 87.5 299.56Z" fill="#263238"/>
<path d="M126.7 289.52C126.7 289.52 107.84 277.5 87.82 299.55L114.1 345.14C114.1 345.14 119.46 326.64 150.84 333.07L126.7 289.52Z" fill="#F5F5F5"/>
<path d="M126.7 289.52C126.7 289.52 126.75 289.58 126.83 289.71C126.92 289.86 127.03 290.05 127.18 290.3C127.49 290.84 127.93 291.62 128.5 292.62C129.66 294.68 131.34 297.67 133.47 301.46C137.73 309.11 143.8 319.98 151.03 332.97C151.09 333.08 151.05 333.21 150.95 333.27C150.91 333.29 150.86 333.3 150.81 333.29H150.8C149.27 333.04 147.71 332.78 146.13 332.52C145.34 332.36 144.53 332.32 143.72 332.25C142.91 332.19 142.09 332.12 141.26 332.05C140.43 331.95 139.6 331.97 138.76 331.99C137.92 332 137.07 332.01 136.22 332.02C135.37 332.04 134.52 332.19 133.66 332.27C132.8 332.38 131.93 332.42 131.08 332.66C130.23 332.85 129.37 333.05 128.5 333.24C127.66 333.53 126.82 333.83 125.98 334.12C125.13 334.41 124.36 334.88 123.53 335.25C123.11 335.43 122.73 335.67 122.35 335.92L121.2 336.66C120.44 337.17 119.76 337.79 119.05 338.37C118.42 339.04 117.71 339.64 117.16 340.39C115.98 341.81 114.97 343.45 114.36 345.19V345.2C114.31 345.33 114.17 345.4 114.04 345.35C113.98 345.33 113.94 345.29 113.91 345.24C113.58 344.66 113.21 344.03 112.85 343.4C103.56 327.25 94.9 312.21 87.66 299.63C87.61 299.55 87.63 299.45 87.69 299.38C92.13 294.53 97.04 290.84 101.93 288.68C106.81 286.47 111.56 285.92 115.36 286.16C119.18 286.4 122.07 287.33 123.95 288.08C124.89 288.46 125.59 288.82 126.05 289.07C126.27 289.2 126.43 289.29 126.56 289.37C126.65 289.48 126.7 289.52 126.7 289.52C126.7 289.52 126.63 289.49 126.52 289.43C126.39 289.36 126.21 289.27 125.99 289.16C125.52 288.93 124.82 288.59 123.87 288.23C121.98 287.51 119.1 286.63 115.31 286.43C111.55 286.22 106.85 286.8 102.03 289.02C97.21 291.18 92.36 294.87 87.97 299.69L88 299.45C95.25 312.01 103.94 327.05 113.25 343.18C113.61 343.81 113.97 344.44 114.31 345.02L113.86 345.07C114.51 343.2 115.54 341.56 116.75 340.09C117.32 339.32 118.04 338.7 118.69 338.02C119.42 337.43 120.12 336.79 120.9 336.28L122.08 335.53C122.47 335.27 122.86 335.03 123.28 334.84C124.12 334.46 124.91 333.99 125.78 333.69C126.64 333.39 127.5 333.09 128.35 332.8C129.23 332.6 130.1 332.41 130.97 332.21C131.83 331.97 132.72 331.93 133.58 331.82C134.45 331.74 135.31 331.59 136.18 331.57C137.04 331.56 137.9 331.55 138.75 331.54C139.6 331.52 140.45 331.51 141.28 331.61C142.11 331.68 142.94 331.75 143.76 331.81C144.58 331.88 145.4 331.92 146.19 332.09C147.78 332.36 149.35 332.62 150.89 332.88L150.65 333.2C143.49 320.2 137.49 309.31 133.27 301.65C131.18 297.83 129.54 294.82 128.4 292.74C127.85 291.72 127.43 290.93 127.13 290.38C126.99 290.12 126.89 289.92 126.81 289.77C126.73 289.6 126.7 289.53 126.7 289.52Z" fill="#263238"/>
<path d="M53.23 280.61L81.35 334.76C81.35 334.76 104.21 333.76 113.88 344.9L87.82 299.56C87.82 299.56 72.54 280.61 53.23 280.61Z" fill="#F5F5F5"/>
<path d="M53.23 280.61C53.23 280.61 53.46 280.61 53.94 280.63C54.45 280.65 55.17 280.68 56.11 280.72C56.35 280.73 56.61 280.74 56.87 280.76C57.13 280.8 57.4 280.85 57.69 280.9C58.27 281 58.89 281.1 59.57 281.21C60.26 281.29 60.96 281.52 61.72 281.72C62.47 281.95 63.31 282.1 64.13 282.43C70.85 284.67 79.87 290.09 87.97 299.42L87.98 299.44V299.45C95.4 312.33 104.38 327.93 114.08 344.77C114.15 344.89 114.11 345.04 113.99 345.11C113.89 345.17 113.77 345.15 113.69 345.07L113.68 345.06C113.33 344.71 112.95 344.34 112.58 343.96C110.49 341.93 108.01 340.33 105.38 339.2C102.76 338.04 100.06 337.15 97.34 336.56C91.9 335.34 86.48 334.88 81.35 334.98H81.34C81.25 334.98 81.17 334.93 81.13 334.85C72.93 318.95 65.93 305.37 60.96 295.74C58.51 290.97 56.57 287.18 55.22 284.56C54.57 283.28 54.06 282.29 53.71 281.6C53.55 281.28 53.42 281.03 53.33 280.84C53.26 280.69 53.22 280.61 53.23 280.61C53.24 280.61 53.29 280.7 53.38 280.88C53.48 281.07 53.62 281.33 53.79 281.66C54.16 282.36 54.69 283.36 55.37 284.65C56.75 287.27 58.74 291.06 61.25 295.84C66.25 305.4 73.3 318.88 81.56 334.66L81.34 334.54C86.52 334.43 91.96 334.88 97.45 336.11C100.2 336.7 102.93 337.6 105.59 338.77C108.26 339.92 110.79 341.54 112.93 343.62C113.32 344.01 113.7 344.39 114.06 344.75L113.66 345.04C103.99 328.18 95.03 312.57 87.63 299.67L87.65 299.7C83.69 295.05 79.37 291.4 75.34 288.56C71.27 285.76 67.39 283.81 64.05 282.68C63.23 282.34 62.41 282.18 61.66 281.95C60.9 281.74 60.2 281.5 59.52 281.41C58.85 281.29 58.23 281.18 57.65 281.07C57.37 281.02 57.09 280.97 56.83 280.92C56.57 280.89 56.33 280.88 56.1 280.86C54.4 280.7 53.61 280.64 53.23 280.61Z" fill="#263238"/>
<path d="M141.02 434.19L141.62 435.19C142.3 436.32 143.28 437.22 144.46 437.81L145.51 438.33L144.51 438.93C143.38 439.61 142.48 440.59 141.89 441.77L141.37 442.82L140.77 441.82C140.09 440.69 139.11 439.79 137.93 439.2L136.88 438.68L137.88 438.08C139.01 437.4 139.91 436.42 140.5 435.24L141.02 434.19Z" fill="#E8505B"/>
<path d="M85.57 227.93L86.17 228.93C86.85 230.06 87.83 230.96 89.01 231.55L90.06 232.07L89.06 232.67C87.93 233.35 87.03 234.33 86.44 235.51L85.92 236.56L85.32 235.56C84.64 234.43 83.66 233.53 82.48 232.94L81.43 232.42L82.43 231.82C83.56 231.14 84.46 230.16 85.05 228.98L85.57 227.93Z" fill="#E8505B"/>
<path d="M342.16 263.51L342.76 264.51C343.44 265.64 344.42 266.54 345.6 267.13L346.65 267.65L345.65 268.25C344.52 268.93 343.62 269.91 343.03 271.09L342.51 272.14L341.91 271.14C341.23 270.01 340.25 269.11 339.07 268.52L338.02 268L339.02 267.4C340.15 266.72 341.05 265.74 341.64 264.56L342.16 263.51Z" fill="#E8505B"/>
<path d="M311.86 447.15L312.46 448.15C313.14 449.28 314.12 450.18 315.3 450.77L316.35 451.29L315.35 451.89C314.22 452.57 313.32 453.55 312.73 454.73L312.21 455.78L311.61 454.78C310.93 453.65 309.95 452.75 308.77 452.16L307.72 451.64L308.72 451.04C309.85 450.36 310.75 449.38 311.34 448.2L311.86 447.15Z" fill="#E8505B"/>
<path d="M317.63 485.74L317.92 485.86C318.24 485.99 318.6 486.03 318.94 485.96L319.25 485.9L319.13 486.19C319 486.51 318.96 486.87 319.03 487.21L319.09 487.52L318.8 487.4C318.48 487.27 318.12 487.23 317.78 487.3L317.47 487.36L317.59 487.07C317.72 486.75 317.76 486.39 317.69 486.05L317.63 485.74Z" fill="#E8505B"/>
<path d="M335.07 224.8L335.36 224.92C335.68 225.05 336.04 225.09 336.38 225.02L336.69 224.96L336.57 225.25C336.44 225.57 336.4 225.93 336.47 226.27L336.53 226.58L336.24 226.46C335.92 226.33 335.56 226.29 335.22 226.36L334.91 226.42L335.03 226.13C335.16 225.81 335.2 225.45 335.13 225.11L335.07 224.8Z" fill="#E8505B"/>
<path d="M96.85 200.98L97.14 201.1C97.46 201.23 97.82 201.27 98.16 201.2L98.47 201.14L98.35 201.43C98.22 201.75 98.18 202.11 98.25 202.45L98.31 202.76L98.02 202.64C97.7 202.51 97.34 202.47 97 202.54L96.69 202.6L96.81 202.31C96.94 201.99 96.98 201.63 96.91 201.29L96.85 200.98Z" fill="#E8505B"/>
<path d="M126.25 404.15L126.54 404.27C126.86 404.4 127.22 404.44 127.56 404.37L127.87 404.31L127.75 404.6C127.62 404.92 127.58 405.28 127.65 405.62L127.71 405.93L127.42 405.81C127.1 405.68 126.74 405.64 126.4 405.71L126.09 405.77L126.21 405.48C126.34 405.16 126.38 404.8 126.31 404.46L126.25 404.15Z" fill="#E8505B"/>
<path d="M158.12 482.68C158.12 482.68 158.03 482.78 157.85 482.97C157.65 483.17 157.37 483.44 157.02 483.8C156.27 484.53 155.18 485.59 153.79 486.95C150.95 489.69 146.87 493.63 141.8 498.51L141.85 498.39C142.42 510.94 143.19 527.99 144.06 546.96L144.08 547.39L143.72 547.15C142.35 546.23 140.87 545.25 139.39 544.26C129.52 537.65 120.17 531.39 111.94 525.89L111.88 525.85L111.86 525.79C107.77 513.56 104.31 503.25 101.87 495.97C100.67 492.35 99.73 489.49 99.07 487.51C98.76 486.54 98.51 485.79 98.34 485.26C98.26 485.02 98.21 484.83 98.16 484.68C98.12 484.55 98.1 484.48 98.11 484.48C98.12 484.48 98.14 484.54 98.19 484.67C98.24 484.81 98.31 485 98.4 485.24C98.58 485.76 98.85 486.51 99.18 487.47C99.86 489.44 100.84 492.29 102.08 495.9C104.55 503.17 108.06 513.46 112.22 525.67L112.14 525.57C120.37 531.07 129.73 537.31 139.61 543.91C141.09 544.9 142.56 545.88 143.94 546.8L143.6 546.99C142.79 528.02 142.06 510.97 141.52 498.42V498.35L141.57 498.3C146.67 493.46 150.79 489.55 153.65 486.84C155.07 485.51 156.17 484.47 156.94 483.75C157.31 483.41 157.59 483.15 157.8 482.96C158.02 482.77 158.12 482.68 158.12 482.68Z" fill="#E8505B"/>
<path d="M145.35 541.25L145.26 544.08L147.54 545.76L144.82 546.55L143.93 549.24L142.34 546.89L139.51 546.88L141.24 544.64L140.38 541.94L143.05 542.9L145.35 541.25Z" fill="#E8505B"/>
<path d="M112.29 522.03L112.34 523.86L113.88 524.86L112.16 525.48L111.69 527.25L110.57 525.8L108.74 525.9L109.77 524.39L109.11 522.68L110.87 523.19L112.29 522.03Z" fill="#E8505B"/>
<path d="M98.05 481.11L99.43 482.88L101.68 482.75L100.42 484.61L101.24 486.71L99.07 486.08L97.33 487.51L97.26 485.26L95.36 484.05L97.48 483.28L98.05 481.11Z" fill="#E8505B"/>
<path d="M156.74 479.33L158.12 481.11L160.37 480.97L159.11 482.84L159.93 484.93L157.77 484.31L156.03 485.74L155.95 483.49L154.06 482.27L156.17 481.51L156.74 479.33Z" fill="#E8505B"/>
<path d="M141.33 496.48L142.22 497.61L143.65 497.52L142.84 498.71L143.37 500.05L141.99 499.65L140.88 500.56L140.83 499.13L139.62 498.35L140.97 497.87L141.33 496.48Z" fill="#E8505B"/>
<path d="M88.41 420.84C99.4225 420.84 108.35 411.913 108.35 400.9C108.35 389.887 99.4225 380.96 88.41 380.96C77.3974 380.96 68.47 389.887 68.47 400.9C68.47 411.913 77.3974 420.84 88.41 420.84Z" fill="#E8505B"/>
<g opacity="0.3">
<g opacity="0.3">
<g opacity="0.3">
<g opacity="0.3">
<path opacity="0.3" d="M85.8199 407.13C85.8199 408.93 84.3599 410.38 82.5699 410.38C80.7699 410.38 79.3199 408.92 79.3199 407.13C79.3199 405.33 80.7799 403.88 82.5699 403.88C84.3599 403.88 85.8199 405.33 85.8199 407.13Z" fill="white"/>
</g>
</g>
</g>
</g>
<g opacity="0.3">
<g opacity="0.3">
<g opacity="0.3">
<g opacity="0.3">
<path opacity="0.3" d="M81.2 397.74C81.2 398.79 80.35 399.63 79.31 399.63C78.26 399.63 77.42 398.78 77.42 397.74C77.42 396.69 78.27 395.85 79.31 395.85C80.36 395.85 81.2 396.7 81.2 397.74Z" fill="white"/>
</g>
</g>
</g>
</g>
<path d="M69.06 405.75C69.15 406.1 51.99 422.56 56.41 426.07C60.83 429.58 79.44 420.58 95.3 407.77C111.16 394.96 125.65 379.4 121.68 375.28C117.71 371.16 97.89 383.35 97.89 383.35L100.26 384.86C100.26 384.86 112.24 377.17 116.04 380.16C119.83 383.14 109.02 394.8 93.77 405.93C78.52 417.06 63.78 424.88 61.49 421.83C59.2 418.78 70 408.61 70 408.61L69.06 405.75Z" fill="#E8505B"/>
<g opacity="0.3">
<g opacity="0.3">
<g opacity="0.3">
<g opacity="0.3">
<path opacity="0.3" d="M69.06 405.75C69.15 406.1 51.99 422.56 56.41 426.07C60.83 429.58 79.44 420.58 95.3 407.77C111.16 394.96 125.65 379.4 121.68 375.28C117.71 371.16 97.89 383.35 97.89 383.35L100.26 384.86C100.26 384.86 112.24 377.17 116.04 380.16C119.83 383.14 109.02 394.8 93.77 405.93C78.52 417.06 63.78 424.88 61.49 421.83C59.2 418.78 70 408.61 70 408.61L69.06 405.75Z" fill="black"/>
</g>
</g>
</g>
</g>
<g opacity="0.3">
<g opacity="0.3">
<g opacity="0.3">
<g opacity="0.3">
<g opacity="0.3">
<path opacity="0.3" d="M77.42 386.85C77.58 387.04 76.23 388.19 74.7 390.49C73.17 392.76 71.57 396.35 71.48 400.51C71.4 404.68 72.86 408.33 74.3 410.66C75.74 413.02 77.04 414.22 76.87 414.41C76.77 414.55 75.17 413.62 73.39 411.27C72.51 410.1 71.63 408.57 70.97 406.73C70.31 404.9 69.9 402.75 69.94 400.48C70 398.21 70.49 396.08 71.22 394.28C71.95 392.47 72.89 390.97 73.82 389.84C75.68 387.57 77.32 386.71 77.42 386.85Z" fill="white"/>
</g>
</g>
</g>
</g>
</g>
<path d="M319.559 225.964C326.119 219.678 326.341 209.265 320.055 202.705C313.769 196.146 303.355 195.924 296.796 202.21C290.237 208.496 290.015 218.909 296.301 225.469C302.587 232.028 313 232.25 319.559 225.964Z" fill="#E8505B"/>
<g opacity="0.4">
<g opacity="0.4">
<g opacity="0.4">
<g opacity="0.4">
<path opacity="0.4" d="M313.55 207.79C313.59 206.31 314.81 205.14 316.3 205.17C317.78 205.21 318.95 206.43 318.92 207.92C318.88 209.4 317.66 210.57 316.17 210.54C314.68 210.5 313.51 209.27 313.55 207.79Z" fill="black"/>
</g>
</g>
</g>
</g>
<g opacity="0.4">
<g opacity="0.4">
<g opacity="0.4">
<g opacity="0.4">
<path opacity="0.4" d="M318.91 214.06C318.93 213.2 319.65 212.52 320.51 212.54C321.37 212.56 322.05 213.28 322.03 214.14C322.01 215 321.29 215.68 320.43 215.66C319.57 215.63 318.89 214.92 318.91 214.06Z" fill="black"/>
</g>
</g>
</g>
</g>
<g opacity="0.4">
<g opacity="0.4">
<g opacity="0.4">
<g opacity="0.4">
<path opacity="0.4" d="M316.82 218.85C317.14 218.86 317.39 219.12 317.38 219.44C317.37 219.76 317.11 220.01 316.79 220C316.47 219.99 316.22 219.73 316.23 219.41C316.24 219.09 316.5 218.84 316.82 218.85Z" fill="black"/>
</g>
</g>
</g>
</g>
</g>
<defs>
<clipPath id="clip0_75_3">
<rect width="355.85" height="438.75" fill="white" transform="translate(46 131)"/>
</clipPath>
</defs>
</svg>
