<svg width="644" height="650" viewBox="0 0 644 650" fill="none" xmlns="http://www.w3.org/2000/svg">
<rect x="68" width="506" height="650" fill="#1DA2FC"/>
<rect x="68" y="509" width="183" height="77" fill="#328BC8"/>
<rect x="68" y="534" width="506" height="116" fill="#328BC8"/>
<rect x="390" y="509" width="183" height="77" fill="#328BC8"/>
<g clip-path="url(#clip0_61_3)">
<path d="M70.85 183.37H570.22" stroke="#DED8D5" stroke-width="1.9678" stroke-miterlimit="10"/>
<path d="M563.7 459.6H77.37C73.77 459.6 70.85 456.68 70.85 453.08V157.16C70.85 153.56 73.77 150.64 77.37 150.64H563.7C567.3 150.64 570.22 153.56 570.22 157.16V453.08C570.22 456.68 567.3 459.6 563.7 459.6Z" stroke="#DED8D5" stroke-width="1.9678" stroke-miterlimit="10"/>
<path d="M103.76 167.34C103.76 169.86 101.72 171.91 99.19 171.91C96.67 171.91 94.62 169.86 94.62 167.34C94.62 164.82 96.66 162.77 99.19 162.77C101.72 162.77 103.76 164.82 103.76 167.34Z" fill="#FFB1A5"/>
<path d="M121.51 167.34C121.51 169.86 119.46 171.91 116.94 171.91C114.42 171.91 112.37 169.86 112.37 167.34C112.37 164.82 114.42 162.77 116.94 162.77C119.47 162.77 121.51 164.82 121.51 167.34Z" fill="#EAD254"/>
<path d="M139.27 167.34C139.27 169.86 137.22 171.91 134.7 171.91C132.18 171.91 130.13 169.86 130.13 167.34C130.13 164.82 132.17 162.77 134.7 162.77C137.23 162.77 139.27 164.82 139.27 167.34Z" fill="#00857B"/>
<path d="M635.09 293.63H517.73C514.42 293.63 511.74 290.95 511.74 287.64V179.1C511.74 175.79 514.42 173.11 517.73 173.11H635.09C638.4 173.11 641.08 175.79 641.08 179.1V287.64C641.08 290.95 638.4 293.63 635.09 293.63Z" fill="#EDEDED"/>
<path d="M635.09 293.63H517.73C514.42 293.63 511.74 290.95 511.74 287.64V179.1C511.74 175.79 514.42 173.11 517.73 173.11H635.09C638.4 173.11 641.08 175.79 641.08 179.1V287.64C641.08 290.95 638.4 293.63 635.09 293.63Z" stroke="#DED8D5" stroke-width="1.9678" stroke-miterlimit="10"/>
<path d="M546.1 262.28H607.1C610.43 262.28 613.12 259.58 613.12 256.26V206.27C613.12 202.94 610.42 200.25 607.1 200.25H546.1C542.77 200.25 540.08 202.95 540.08 206.27V256.26C540.08 259.58 542.78 262.28 546.1 262.28Z" fill="#C98BD2"/>
<path d="M593.26 241.58H564.71H559.56V218.97H593.26V224.62V241.58Z" stroke="white" stroke-width="1.6466" stroke-miterlimit="10" stroke-linecap="round" stroke-linejoin="round"/>
<path d="M559.56 218.97L576.41 232.25L593.26 218.97" stroke="white" stroke-width="1.6466" stroke-miterlimit="10" stroke-linecap="round" stroke-linejoin="round"/>
<path d="M118.62 384.52H6.69999C3.53999 384.52 0.98999 381.96 0.98999 378.81V281.23C0.98999 278.07 3.54999 275.52 6.69999 275.52H118.63C121.79 275.52 124.34 278.08 124.34 281.23V378.81C124.34 381.96 121.78 384.52 118.62 384.52Z" fill="#EDEDED"/>
<path d="M118.62 384.52H6.69999C3.53999 384.52 0.98999 381.96 0.98999 378.81V281.23C0.98999 278.07 3.54999 275.52 6.69999 275.52H118.63C121.79 275.52 124.34 278.08 124.34 281.23V378.81C124.34 381.96 121.78 384.52 118.62 384.52Z" stroke="#DED8D5" stroke-width="1.9678" stroke-miterlimit="10"/>
<path d="M91.39 363.52H33.35C29.68 363.52 26.71 360.55 26.71 356.88V300.82C26.71 297.15 29.68 294.18 33.35 294.18H91.4C95.07 294.18 98.04 297.15 98.04 300.82V356.88C98.03 360.55 95.06 363.52 91.39 363.52Z" fill="#FFB1A5"/>
<path d="M48.55 315.24C40.72 323.07 40.72 335.93 48.55 343.76C56.38 351.59 69.24 351.59 77.07 343.76C84.9 335.93 84.9 323.07 77.07 315.24C69.23 307.41 56.38 307.41 48.55 315.24ZM77.02 318.14H70.59C69.95 316.12 69.12 314.1 68.09 312.08C71.65 313.16 74.75 315.31 77.02 318.14ZM55.4 328.32C55.4 325.71 55.71 323.11 56.36 320.5H69.26C69.9 323.11 70.21 325.71 70.22 328.32H55.4ZM70.13 330.68C69.95 333.29 69.48 335.89 68.74 338.5H56.86C56.12 335.89 55.65 333.29 55.47 330.68H70.13ZM62.81 311.3C63.78 311.3 64.73 311.38 65.66 311.52C66.9 313.73 67.86 315.93 68.58 318.14H57.03C57.75 315.93 58.72 313.73 59.95 311.52C60.88 311.38 61.84 311.3 62.81 311.3ZM57.52 312.08C56.5 314.1 55.67 316.12 55.02 318.14H48.59C50.86 315.31 53.96 313.16 57.52 312.08ZM46.99 320.5H54.35C53.7 323.11 53.37 325.71 53.32 328.32H44.65C44.83 325.49 45.66 322.83 46.99 320.5ZM46.99 338.49C45.66 336.16 44.83 333.5 44.65 330.67H53.35C53.48 333.28 53.89 335.88 54.58 338.49H46.99ZM48.59 340.85H55.28C55.95 342.89 56.78 344.94 57.77 346.98C54.1 345.93 50.91 343.75 48.59 340.85ZM62.81 347.69C62 347.69 61.21 347.64 60.43 347.54C59.32 345.31 58.37 343.08 57.61 340.86H68.02C67.26 343.09 66.31 345.32 65.2 347.54C64.41 347.64 63.61 347.69 62.81 347.69ZM67.85 346.98C68.84 344.94 69.67 342.89 70.34 340.85H77.03C74.7 343.75 71.51 345.93 67.85 346.98ZM78.62 338.49H71.03C71.72 335.88 72.13 333.28 72.26 330.67H80.96C80.78 333.51 79.95 336.16 78.62 338.49ZM80.96 328.32H72.29C72.24 325.71 71.9 323.11 71.26 320.5H78.62C79.95 322.83 80.78 325.49 80.96 328.32Z" fill="white"/>
<path d="M111.95 122.13H10.55C8.46001 122.13 6.76001 120.43 6.76001 118.34C6.76001 116.25 8.46001 114.55 10.55 114.55H111.95C114.04 114.55 115.74 116.25 115.74 118.34C115.75 120.43 114.05 122.13 111.95 122.13Z" fill="#C98BD2"/>
<path d="M639.22 369.81H590C587.91 369.81 586.21 368.11 586.21 366.02C586.21 363.93 587.91 362.23 590 362.23H639.22C641.31 362.23 643.01 363.93 643.01 366.02C643.02 368.11 641.32 369.81 639.22 369.81Z" fill="#56DFED"/>
<path d="M604.75 413.69H598.74C597.16 413.69 595.88 412.41 595.88 410.83V405.18C595.88 403.6 597.16 402.32 598.74 402.32H604.75C606.33 402.32 607.61 403.6 607.61 405.18V410.83C607.62 412.41 606.33 413.69 604.75 413.69Z" fill="#C98BD2"/>
<path d="M34.71 439.97H28.7C27.12 439.97 25.84 438.69 25.84 437.11V431.46C25.84 429.88 27.12 428.6 28.7 428.6H34.71C36.29 428.6 37.57 429.88 37.57 431.46V437.11C37.57 438.69 36.29 439.97 34.71 439.97Z" fill="#FFB1A5"/>
<path d="M494.98 118.21H394.9C393.24 118.21 391.89 116.86 391.89 115.2V90.76C391.89 89.1 393.24 87.75 394.9 87.75H494.98C496.64 87.75 497.99 89.1 497.99 90.76V115.2C497.99 116.86 496.65 118.21 494.98 118.21Z" fill="#FFB1A5"/>
<path d="M406.34 98.6H477.52" stroke="white" stroke-width="1.1803" stroke-miterlimit="10"/>
<path d="M406.34 105.91H435.33" stroke="white" stroke-width="1.1803" stroke-miterlimit="10"/>
<path d="M403.44 114.76V126.63L418.37 114.76H403.44Z" fill="#FFB1A5"/>
<path d="M249.09 120.02H200.64C195.93 120.02 192.12 116.21 192.12 111.5V66.46C192.12 62.89 195.01 60 198.58 60H249.09C252.66 60 255.55 62.89 255.55 66.46V113.56C255.55 117.13 252.66 120.02 249.09 120.02Z" fill="#56DFED"/>
<path d="M238.64 94.45L235.03 90.84C234.39 90.13 233.55 89.74 232.71 89.74C231.87 89.74 231.03 90.13 230.39 90.77L228.33 92.83C228.2 92.77 228.07 92.7 227.94 92.64C227.68 92.51 227.49 92.45 227.29 92.32C225.36 91.09 223.61 89.48 221.94 87.42C221.17 86.45 220.59 85.55 220.26 84.78C220.78 84.33 221.23 83.81 221.68 83.36C221.87 83.17 222.07 82.97 222.26 82.78C222.97 82.07 223.36 81.23 223.36 80.39C223.36 79.55 222.97 78.71 222.26 78L220.45 76.19C220.26 76 220.06 75.8 219.87 75.55C219.48 75.16 219.03 74.71 218.64 74.32C218 73.68 217.16 73.29 216.32 73.29C215.48 73.29 214.71 73.61 214 74.32L211.74 76.58C210.9 77.42 210.39 78.51 210.26 79.74C210.13 81.67 210.65 83.48 211.1 84.64C212.13 87.61 213.74 90.25 216.13 93.09C219.03 96.51 222.45 99.22 226.45 101.15C227.93 101.86 230 102.7 232.25 102.89C232.38 102.89 232.51 102.89 232.7 102.89C234.25 102.89 235.54 102.31 236.57 101.21C236.57 101.21 236.57 101.21 236.63 101.15C236.95 100.76 237.34 100.38 237.79 99.99C238.05 99.73 238.37 99.41 238.63 99.15C239.99 97.74 239.99 95.8 238.64 94.45ZM237.15 97.8C236.89 98.06 236.63 98.32 236.38 98.57C235.93 98.96 235.54 99.41 235.09 99.86C234.44 100.51 233.74 100.83 232.77 100.83C232.64 100.83 232.58 100.83 232.45 100.83C230.52 100.7 228.71 99.93 227.42 99.28C223.74 97.47 220.52 94.96 217.81 91.73C215.62 89.09 214.13 86.57 213.1 83.93C212.45 82.38 212.2 81.16 212.33 79.93C212.39 79.22 212.65 78.58 213.23 78.06L215.42 75.87C215.61 75.68 215.94 75.42 216.32 75.42C216.71 75.42 216.96 75.61 217.22 75.87C217.61 76.26 217.99 76.64 218.38 77.03C218.57 77.22 218.77 77.48 219.02 77.68L220.83 79.49C221.02 79.68 221.28 80.07 221.28 80.39C221.28 80.78 221.02 81.1 220.83 81.29C220.64 81.48 220.44 81.68 220.25 81.87C219.67 82.45 219.15 82.97 218.64 83.48C218.64 83.48 218.64 83.48 218.58 83.54C217.94 84.18 218.06 84.77 218.19 85.15V85.21C218.64 86.37 219.35 87.4 220.32 88.69C222.13 90.95 224.06 92.69 226.19 94.04C226.45 94.23 226.77 94.36 227.03 94.49C227.29 94.62 227.48 94.68 227.67 94.81L227.73 94.87C228.37 95.19 229.02 95.06 229.54 94.55L231.8 92.29C231.99 92.1 232.32 91.84 232.7 91.84C233.02 91.84 233.34 92.1 233.54 92.29L237.15 95.9C237.73 96.51 237.73 97.16 237.15 97.8Z" fill="white"/>
<path d="M459.84 347.28L423.34 342.42L423.63 346.04L392.42 350.2C392.42 350.2 372.3 400.67 390.03 511.66H415.42L424.56 399.11H427.8L436.65 511.66H462.04C479.76 400.67 459.84 347.28 459.84 347.28Z" fill="#8E716C"/>
<path d="M412.94 399.11H439.43" stroke="#282828" stroke-width="1.2333" stroke-miterlimit="10" stroke-linecap="round" stroke-linejoin="round"/>
<path d="M481.15 294.04C478.03 289.06 460.49 289.23 459.56 289.12C454.82 288.56 462.6 326.3 472.47 359.29C474.36 365.61 481.32 368.91 487.4 366.33C487.47 366.3 487.53 366.27 487.6 366.25C492.41 364.21 495.14 359.11 494.18 353.98C489.48 329.08 484.76 299.8 481.15 294.04Z" fill="#FFB1A5"/>
<path d="M485.33 307.68L462.94 316.37L460.84 305.75L484.03 299.96L485.33 307.68Z" fill="#F3978E"/>
<path d="M489.56 328.94C489.56 328.94 478.95 343.19 479.46 342.53C479.97 341.87 487.78 319.5 487.78 319.5L489.56 328.94Z" fill="#F3978E"/>
<path d="M504.73 309.79L474.32 349.19C470.33 354.36 471.6 361.84 477.08 365.4C482.55 368.95 489.89 367.08 493 361.35L518.31 314.65L504.73 309.79Z" fill="#FFB1A5"/>
<path d="M512.61 319.91C506.02 317.78 502.4 310.71 504.53 304.12C506.66 297.53 513.73 293.91 520.32 296.04C526.91 298.17 530.53 305.24 528.4 311.83C526.27 318.42 519.2 322.04 512.61 319.91Z" fill="#FFB1A5"/>
<path d="M525.61 300.43C525.61 300.43 529.04 296.87 522.95 294.37C516.86 291.87 509.33 292.44 504.52 304.12L525.61 300.43Z" fill="#FFB1A5"/>
<path d="M531.92 275.53L544.65 281.05C545.36 281.36 545.62 282.2 545.23 282.93L528.48 314.22C528.09 314.95 527.2 315.29 526.49 314.98L513.76 309.46C513.05 309.15 512.79 308.31 513.18 307.58L529.93 276.29C530.32 275.56 531.21 275.22 531.92 275.53Z" fill="#372F5F"/>
<path d="M530.7 274.97L543.43 280.49C544.14 280.8 544.4 281.64 544.01 282.37L527.26 313.66C526.87 314.39 525.98 314.73 525.27 314.42L512.54 308.9C511.83 308.59 511.57 307.75 511.96 307.02L528.71 275.73C529.1 275.01 529.99 274.67 530.7 274.97Z" fill="#261B43"/>
<path d="M529.27 278.16L540.45 283.01L526.8 308.51L515.61 303.66L529.27 278.16Z" fill="#E6E6E6"/>
<path d="M540.45 283.01L515.61 303.66L529.27 278.16L540.45 283.01Z" fill="white"/>
<path d="M519.3 293.33C519.3 293.33 522.14 293.88 524.69 295.33C525.82 295.97 526.39 297.27 526.08 298.53C525.8 299.68 524.83 300.53 523.66 300.68L517.04 301.51C517.04 301.51 513.59 307.46 509.07 308.13L513.21 297.68L519.3 293.33Z" fill="#FFB1A5"/>
<path d="M434.75 244.42C434.02 244.42 481.7 251.02 489.56 305.37L464.82 309.16L459.83 350.2H390.81L377.11 274.38C377.11 274.38 392.4 252.47 420.79 244.42H434.75Z" fill="#56DFED"/>
<path d="M464.82 309.16L466.97 285.43" stroke="#282828" stroke-width="1.2333" stroke-miterlimit="10" stroke-linecap="round" stroke-linejoin="round"/>
<path d="M439.28 245.19V226.31H417.15V245.41C416.02 245.75 414.13 246.43 411.21 247.82L428.47 258.1L446.11 247.82C446.11 247.83 443.31 246.2 439.28 245.19Z" fill="#FFB1A5"/>
<path d="M416.95 228.62C416.95 228.62 420.92 239.17 431.53 238.26C441.28 237.42 439.73 222.8 439.73 222.8L416.95 228.62Z" fill="#282828"/>
<path d="M407.3 214.59C403.83 217.74 396.08 205.8 399.43 202.45C402.78 199.1 405.34 204.36 405.34 204.36L406.84 207.92L407.97 212.74L408.24 214L407.3 214.59Z" fill="#F3978E"/>
<path d="M401.05 206.68C401.05 206.68 403.68 205.5 406.01 209.3" stroke="#282828" stroke-width="0.9928" stroke-miterlimit="10" stroke-linecap="round" stroke-linejoin="round"/>
<path d="M448.31 214.23C451.5 217.66 460.24 206.42 457.18 202.8C454.12 199.18 451.13 204.2 451.13 204.2L449.34 207.62L447.81 212.33L447.44 213.57L448.31 214.23Z" fill="#F3978E"/>
<path d="M455.21 206.87C455.21 206.87 452.69 205.47 450.05 209.07" stroke="#282828" stroke-width="0.9928" stroke-miterlimit="10" stroke-linecap="round" stroke-linejoin="round"/>
<path d="M401.22 191.07C401.22 206.86 413.26 214.35 428.12 214.35C442.98 214.35 455.02 206.86 455.02 191.07C455.02 175.28 442.98 164.53 428.12 164.53C413.26 164.53 401.22 175.28 401.22 191.07Z" fill="#282828"/>
<path d="M404.87 192.17C404.87 201.87 406.24 210.23 407.61 216.17C408.95 221.98 412.72 226.05 418.04 229.32L419.01 229.92C424.64 233.38 431.92 233.46 437.64 230.13C443.41 226.77 447.45 222.33 448.69 216.09C450.95 204.74 451.2 192.18 451.2 192.18C451.2 192.18 453.35 167.7 428.37 168.18C403.38 168.64 404.87 192.17 404.87 192.17Z" fill="#FFB1A5"/>
<path d="M426.52 206.14V209.53C426.52 209.73 426.56 209.92 426.63 210.1C426.91 210.79 427.71 211.12 428.43 210.93L429.98 210.52" stroke="#282828" stroke-width="1.2316" stroke-miterlimit="10" stroke-linecap="round" stroke-linejoin="round"/>
<path d="M422.55 193L410.13 195.91C410.13 195.91 410.69 192.75 415.77 191.6C420.86 190.46 422.55 193 422.55 193Z" fill="#282828"/>
<path d="M433.57 193L445.56 195.91C445.56 195.91 445.02 192.75 440.11 191.6C435.2 190.46 433.57 193 433.57 193Z" fill="#282828"/>
<path d="M417.83 204.21C418.984 204.21 419.92 203.274 419.92 202.12C419.92 200.966 418.984 200.03 417.83 200.03C416.676 200.03 415.74 200.966 415.74 202.12C415.74 203.274 416.676 204.21 417.83 204.21Z" fill="#282828"/>
<path d="M439.78 202.12C439.78 203.27 438.84 204.21 437.69 204.21C436.53 204.21 435.6 203.27 435.6 202.12C435.6 200.97 436.54 200.03 437.69 200.03C438.84 200.04 439.78 200.97 439.78 202.12Z" fill="#282828"/>
<path d="M419.93 214.87H436.08C436.07 214.87 428.92 223.57 419.93 214.87Z" fill="white"/>
<path d="M423.243 209.234C426.719 205.758 426.719 200.123 423.243 196.648C419.767 193.172 414.132 193.172 410.657 196.648C407.181 200.123 407.181 205.758 410.657 209.234C414.132 212.71 419.767 212.71 423.243 209.234Z" stroke="#C98BD2" stroke-width="1.3423" stroke-miterlimit="10"/>
<path d="M445.122 209.231C448.597 205.756 448.597 200.121 445.122 196.645C441.646 193.169 436.011 193.169 432.535 196.645C429.06 200.121 429.06 205.756 432.535 209.231C436.011 212.707 441.646 212.707 445.122 209.231Z" stroke="#C98BD2" stroke-width="1.3423" stroke-miterlimit="10"/>
<path d="M425.86 202.94C425.86 202.94 427.97 200.97 429.93 202.94" stroke="#C98BD2" stroke-width="1.3423" stroke-miterlimit="10"/>
<path d="M408.05 202.94L405.24 202.86" stroke="#C98BD2" stroke-width="1.3423" stroke-miterlimit="10"/>
<path d="M447.73 202.94L450.55 202.86" stroke="#C98BD2" stroke-width="1.3423" stroke-miterlimit="10"/>
<path d="M450.88 200.28C450.88 200.28 440.89 186.78 443.19 173.09C443.19 173.09 450.6 176.82 452.54 186.45C454.47 196.09 450.88 200.28 450.88 200.28Z" fill="#282828"/>
<path d="M404.86 201.2C404.86 201.2 416.46 185.86 414.16 172.18C414.16 172.18 406.11 176.83 404.18 186.46C402.25 196.09 404.86 201.2 404.86 201.2Z" fill="#282828"/>
<path d="M450.04 178.49C450.04 178.49 437.21 192.53 402.12 190.13C402.12 190.13 407.49 169.52 424.5 167.33C424.5 167.32 444.14 164.98 450.04 178.49Z" fill="#282828"/>
<path d="M465.707 164.759C467.182 155.621 460.971 147.018 451.833 145.542C442.695 144.067 434.091 150.278 432.616 159.416C431.14 168.554 437.352 177.158 446.49 178.633C455.628 180.109 464.231 173.897 465.707 164.759Z" fill="#282828"/>
<path d="M244.6 347.24L213.39 343.08L213.68 339.46L177.18 344.32C177.18 344.32 157.26 397.71 174.99 508.7H200.38L209.23 396.15H212.47L221.61 508.7H247C264.72 397.71 244.6 347.24 244.6 347.24Z" fill="#282828"/>
<path d="M242.11 195.4C237.89 190.43 234.5 184.63 231.63 176.5C228.54 167.77 218.44 171.32 218.44 171.32C218.44 171.32 210.02 160.49 197.35 164.26C184.68 168.03 180.28 177.05 180.02 187.77C179.76 198.49 171.33 200.16 164.84 212.56C153.38 234.45 172.67 252.89 207.8 247.77L207.85 247.43C211.31 248.48 215.55 248.94 220.72 248.63C262.92 246.12 258.85 215.09 242.11 195.4Z" fill="#282828"/>
<path d="M228.29 211.63C231.76 214.78 239.51 202.84 236.16 199.49C232.81 196.14 230.25 201.4 230.25 201.4L228.75 204.96L227.62 209.78L227.35 211.04L228.29 211.63Z" fill="#F3978E"/>
<path d="M234.55 203.72C234.55 203.72 231.92 202.54 229.59 206.34" stroke="#282828" stroke-width="0.9928" stroke-miterlimit="10" stroke-linecap="round" stroke-linejoin="round"/>
<path d="M187.28 211.27C184.09 214.7 175.35 203.46 178.41 199.84C181.47 196.22 184.46 201.24 184.46 201.24L186.25 204.66L187.78 209.37L188.15 210.61L187.28 211.27Z" fill="#F3978E"/>
<path d="M180.38 203.91C180.38 203.91 182.9 202.51 185.54 206.11" stroke="#282828" stroke-width="0.9928" stroke-miterlimit="10" stroke-linecap="round" stroke-linejoin="round"/>
<path d="M234.38 188.11C234.38 203.9 222.34 211.39 207.48 211.39C192.62 211.39 180.58 203.9 180.58 188.11C180.58 172.32 192.62 161.57 207.48 161.57C222.34 161.57 234.38 172.32 234.38 188.11Z" fill="#282828"/>
<path d="M218.44 223.35H196.31V252H218.44V223.35Z" fill="#FFB1A5"/>
<path d="M193.09 221.57C193.09 221.57 199.25 233.86 206.83 235.78C208.85 236.29 211.02 236.12 212.97 235.43C215.82 234.42 219.44 230.17 220.05 225.46L220.34 222.77C220.33 222.77 206.84 230.11 193.09 221.57Z" fill="#282828"/>
<path d="M230.72 189.21C230.72 198.91 229.35 207.27 227.98 213.21C226.64 219.02 222.87 223.09 217.55 226.36L216.58 226.96C210.95 230.42 203.67 230.5 197.95 227.17C192.18 223.81 188.14 219.37 186.9 213.13C184.64 201.78 184.39 189.22 184.39 189.22C184.39 189.22 182.24 164.74 207.22 165.22C232.2 165.7 230.72 189.21 230.72 189.21Z" fill="#FFB1A5"/>
<path d="M205.81 204.5V206.51C205.81 206.71 205.85 206.9 205.92 207.08C206.2 207.77 207 208.1 207.72 207.91L209.27 207.5" stroke="#282828" stroke-width="1.2298" stroke-miterlimit="10" stroke-linecap="round" stroke-linejoin="round"/>
<path d="M211.02 191.24L224.31 194.39C224.31 194.39 223.71 190.97 218.27 189.73C212.83 188.49 211.02 191.24 211.02 191.24Z" fill="#282828"/>
<path d="M204.04 191.24L190.58 194.39C190.58 194.39 191.19 190.97 196.7 189.73C202.2 188.48 204.04 191.24 204.04 191.24Z" fill="#282828"/>
<path d="M199.22 199.49C199.22 200.64 198.28 201.57 197.13 201.57C195.97 201.57 195.04 200.64 195.04 199.49C195.04 198.34 195.98 197.41 197.13 197.41C198.28 197.4 199.22 198.34 199.22 199.49Z" fill="#282828"/>
<path d="M219.07 199.49C219.07 200.64 218.13 201.57 216.98 201.57C215.82 201.57 214.89 200.64 214.89 199.49C214.89 198.34 215.83 197.41 216.98 197.41C218.13 197.4 219.07 198.34 219.07 199.49Z" fill="#282828"/>
<path d="M197.83 211.39H216.21C216.21 211.39 214.91 216.44 206.58 216.44C200.23 216.44 197.83 211.39 197.83 211.39Z" fill="white"/>
<path d="M184.71 197.32C184.71 197.32 194.7 183.82 192.4 170.13C192.4 170.13 184.99 173.86 183.05 183.49C181.12 193.13 184.71 197.32 184.71 197.32Z" fill="#282828"/>
<path d="M230.74 196.88C230.74 196.88 219.14 182.91 221.44 169.23C221.44 169.23 229.49 173.88 231.42 183.51C233.35 193.13 230.74 196.88 230.74 196.88Z" fill="#282828"/>
<path d="M185.55 175.53C185.55 175.53 197.01 190.94 232.11 188.53C232.11 188.53 228.1 166.56 211.09 164.37C211.09 164.37 191.45 162.02 185.55 175.53Z" fill="#282828"/>
<path d="M153.56 415.01C153.05 415.81 182.77 285.71 173.95 287.67C173.14 287.85 157.69 289.28 155.4 293.95C148.74 307.49 143.97 414.02 143.97 414.02L153.56 415.01Z" fill="#FFB1A5"/>
<path d="M143.96 414.02C143.96 414.02 139.17 436.24 157.28 438.67C158.47 438.83 159.63 438.13 160.02 436.99L160.07 436.84C160.5 435.58 159.87 434.24 158.66 433.7C155.71 432.38 151.13 429.04 153.4 421.47C153.4 421.47 156.02 421.15 157.46 426.03C157.83 427.29 159.24 427.92 160.41 427.33C161.21 426.93 161.66 426.07 161.55 425.18C161.12 421.76 159.4 413.53 152.8 411.32L143.96 414.02Z" fill="#FFB1A5"/>
<path d="M150.05 325.22C150.05 325.22 167.17 349.33 167.26 348.87C167.35 348.4 173.25 315.01 173.25 315.01L152.47 306.01L150.05 325.22Z" fill="#F3978E"/>
<path d="M197.63 247.29C198.36 247.29 155.31 248.06 147.44 302.41L172.18 306.2L177.17 347.24H246.19L259.89 271.42C259.89 271.42 250.15 254.99 221.76 246.95L197.63 247.29Z" fill="#00857B"/>
<path d="M176.59 253.86C176.59 253.86 182.67 261.94 207.6 261.94C232.3 261.94 238.61 253.44 238.61 253.44C238.61 253.44 224.05 245.31 207.16 242.67C207.16 242.67 192.08 245.36 176.59 253.86Z" fill="#FFB1A5"/>
<path d="M261.29 426.06L261.35 534.47H314.98L319.1 426.06H261.29Z" fill="#005683"/>
<path d="M377.73 426.06L377.67 534.47H324.04L319.92 426.06H377.73Z" fill="#005683"/>
<path d="M348.44 426.06H292.99V463.72H348.44V426.06Z" fill="#005683"/>
<path d="M300.74 463.72H338.98" stroke="#282828" stroke-width="1.3968" stroke-miterlimit="10" stroke-linecap="round" stroke-linejoin="round"/>
<path d="M411.61 331.46C414.94 368.19 411.43 394.96 412.4 462.55L380.39 463.89L375.62 337.37L411.61 331.46Z" fill="#FFB1A5"/>
<path d="M379.57 360.12C379.57 360.12 399.39 358.31 412.94 349.37L412.58 341.5L379.55 346L379.57 360.12Z" fill="#F3978E"/>
<path d="M347.77 246.88C347.77 246.88 410.73 262.71 422.14 342.63C422.14 342.63 391.33 355.99 360.45 350.24L367.4 323.51L347.77 246.88Z" fill="#C98BD2"/>
<path d="M159.71 280.11L206.59 335.47L192.24 375.87C192.24 375.87 156.61 326.33 140.6 288.04L159.71 280.11Z" fill="#FFB1A5"/>
<path d="M161.25 282.11C161.25 282.11 144.79 291.41 140.6 288.05C133.28 282.17 127.24 260.65 127.24 260.65C127.24 260.65 158.02 249.05 157.73 249.5C157.44 249.95 161.25 282.11 161.25 282.11Z" fill="#FFB1A5"/>
<path d="M161.25 282.11C160.96 280.45 167.35 262.58 169.55 255.87C170.08 254.25 168.96 252.48 167.21 252.14C166.07 251.92 164.26 252.06 163.4 253.7L155.68 266.9L161.25 282.11Z" fill="#FFB1A5"/>
<path d="M160.68 262.78L155.38 236.41C155.07 234.66 153.3 233.45 151.54 233.78C150.02 234.07 149.01 235.42 149.19 236.95L151.5 256.59L160.68 262.78Z" fill="#FFB1A5"/>
<path d="M150.14 253.06L142.94 234.23C142.34 232.58 140.49 231.67 138.85 232.22C137.43 232.7 136.63 234.13 136.97 235.6L142.31 257.36L150.14 253.06Z" fill="#FFB1A5"/>
<path d="M142.41 258.61L133.3 240.11C132.46 238.39 130.38 237.6 128.68 238.34C127.08 239.04 126.37 240.85 127.05 242.51L134.31 259.98L142.41 258.61Z" fill="#FFB1A5"/>
<path d="M127.24 260.65L120.09 249.31C119.5 247.98 120.04 246.48 121.34 245.89C122.58 245.32 124.11 245.77 124.91 246.93L134.31 259.97L127.24 260.65Z" fill="#FFB1A5"/>
<path d="M159.24 260.8C159.24 260.8 148.51 259.67 147.4 273.98" stroke="#282828" stroke-width="1.5317" stroke-miterlimit="10" stroke-linecap="round" stroke-linejoin="round"/>
<path d="M182.73 356.98C182.73 356.98 191.55 387.49 209.12 383.44C226.69 379.38 254.07 341.86 254.07 341.86L247.94 277.79L198.63 338.48L182.73 356.98Z" fill="#FFB1A5"/>
<path d="M213.93 319.62C213.93 319.62 230.58 344.73 244.78 353.59L254.08 341.86L218.22 314.12L213.93 319.62Z" fill="#F3978E"/>
<path d="M286.77 245.5C286.77 245.5 237.89 256.52 211.84 313.33C211.84 313.33 227.58 337.04 252.81 347.58L269.7 326.89L286.77 245.5Z" fill="#C98BD2"/>
<path d="M286.77 245.32C267.68 255.11 255.67 268.1 255.67 268.1L259.44 434.16H379.77L379.38 268.96C379.38 268.96 364.21 254.12 347.77 246.88C333.81 240.74 300.34 238.36 286.77 245.32Z" fill="#C98BD2"/>
<path d="M343.7 326.24C334.46 326.24 326.96 318.75 326.96 309.5V292.76H360.43V309.5C360.44 318.75 352.95 326.24 343.7 326.24Z" stroke="#282828" stroke-width="1.3968" stroke-miterlimit="10" stroke-linecap="round" stroke-linejoin="round"/>
<path d="M379.57 350.86L381.13 296.54" stroke="#282828" stroke-width="1.3968" stroke-miterlimit="10" stroke-linecap="round" stroke-linejoin="round"/>
<path d="M257.52 341.81L254.92 294.72" stroke="#282828" stroke-width="1.3968" stroke-miterlimit="10" stroke-linecap="round" stroke-linejoin="round"/>
<path d="M288.18 184.67L283.16 159.86C282.88 157.84 282.09 154.72 283.05 151.79C284.64 146.94 290.48 137.63 300.46 141.89L302.62 151.71C302.62 151.71 292.26 153.8 288.1 167.36L288.18 184.67Z" fill="#282828"/>
<path d="M299.73 147.01C299.55 150.27 296.67 164.54 286.55 169.73C286.55 169.73 277.69 150.73 299.73 147.01Z" fill="#282828"/>
<path d="M335.22 240.75V198.61H296.38V240.75L284.82 246.02C284.82 246.02 287.53 263.48 316.21 263.87C344.89 264.26 347.77 246.88 347.77 246.88L335.22 240.75Z" fill="#FFB1A5"/>
<path d="M300.46 141.89C300.46 141.89 307.59 123.08 329.57 133.08C342.88 139.13 346.6 147.24 348.19 152.99C348.72 154.9 348.93 157.91 348.78 159.7L343.46 184.67L322.7 150.12L302.61 151.71L300.46 141.89Z" fill="#282828"/>
<path d="M343.47 184.67C343.47 184.67 346.09 180.5 351.49 182.55C356.89 184.6 354.45 197.72 346.35 199.39C346.35 199.39 343.45 200.02 341.17 198.03C341.16 198.04 343.15 188.35 343.47 184.67Z" fill="#F3978E"/>
<path d="M350.42 187.18C350.42 187.18 345.9 185.67 342.68 192.33" stroke="#282828" stroke-width="1.3968" stroke-miterlimit="10" stroke-linecap="round" stroke-linejoin="round"/>
<path d="M288.18 184.67C288.18 184.67 285.56 180.5 280.16 182.55C274.76 184.6 277.2 197.72 285.3 199.39C285.3 199.39 288.2 200.02 290.48 198.03C290.48 198.04 288.49 188.35 288.18 184.67Z" fill="#F3978E"/>
<path d="M281.23 187.18C281.23 187.18 285.75 185.67 288.97 192.33" stroke="#282828" stroke-width="1.3968" stroke-miterlimit="10" stroke-linecap="round" stroke-linejoin="round"/>
<path d="M344.01 172.22C344.01 180.13 343.24 196.67 338.37 206.49C333.81 215.71 326.26 220.67 316.36 220.97C306.46 221.27 299.09 217.45 293.18 205.48C287.27 193.51 287.55 172.36 287.55 172.36C287.55 172.36 287.55 144.11 315.47 144.11C344.88 144.12 344.01 172.22 344.01 172.22Z" fill="#FFB1A5"/>
<path d="M296.67 211.38C296.67 211.38 299.92 227.89 314.29 229.78C330.82 231.96 335.22 211.8 335.22 211.8C335.22 211.8 327.92 220.95 316.36 220.97C303.48 220.99 296.67 211.38 296.67 211.38Z" fill="#282828"/>
<path d="M313.79 183.95V190.49C313.79 190.77 313.84 191.04 313.94 191.29C314.33 192.26 315.44 192.72 316.45 192.45L318.62 191.87" stroke="#282828" stroke-width="1.3968" stroke-miterlimit="10" stroke-linecap="round" stroke-linejoin="round"/>
<path d="M305.55 180.83C305.55 182.23 304.41 183.37 303.01 183.37C301.61 183.37 300.47 182.23 300.47 180.83C300.47 179.43 301.61 178.29 303.01 178.29C304.41 178.29 305.55 179.42 305.55 180.83Z" fill="#282828"/>
<path d="M329.38 180.83C329.38 182.23 328.24 183.37 326.84 183.37C325.44 183.37 324.3 182.23 324.3 180.83C324.3 179.43 325.44 178.29 326.84 178.29C328.24 178.29 329.38 179.42 329.38 180.83Z" fill="#282828"/>
<path d="M320.33 168.18L337.42 172.59C337.42 172.59 336.64 167.8 329.65 166.05C322.66 164.32 320.33 168.18 320.33 168.18Z" fill="#282828"/>
<path d="M309.71 168.18L292.62 172.59C292.62 172.59 293.4 167.8 300.39 166.05C307.38 164.32 309.71 168.18 309.71 168.18Z" fill="#282828"/>
<path d="M306.31 197.08C306.31 197.08 308.83 199.01 315.46 199.01C321.49 199.01 325.25 197.08 325.25 197.08" stroke="#282828" stroke-width="1.3968" stroke-miterlimit="10" stroke-linecap="round" stroke-linejoin="round"/>
<path d="M302.32 192.37C308.285 192.37 313.12 187.535 313.12 181.57C313.12 175.605 308.285 170.77 302.32 170.77C296.355 170.77 291.52 175.605 291.52 181.57C291.52 187.535 296.355 192.37 302.32 192.37Z" stroke="white" stroke-width="1.9514" stroke-miterlimit="10"/>
<path d="M328.85 192.37C334.815 192.37 339.65 187.535 339.65 181.57C339.65 175.605 334.815 170.77 328.85 170.77C322.885 170.77 318.05 175.605 318.05 181.57C318.05 187.535 322.885 192.37 328.85 192.37Z" stroke="white" stroke-width="1.9514" stroke-miterlimit="10"/>
<path d="M313.12 181.57C313.12 181.57 315.68 179.18 318.05 181.57" stroke="white" stroke-width="1.9514" stroke-miterlimit="10"/>
<path d="M291.52 181.57L287.9 181.48" stroke="white" stroke-width="1.9514" stroke-miterlimit="10"/>
<path d="M339.65 181.57L343.7 181.5" stroke="white" stroke-width="1.9514" stroke-miterlimit="10"/>
<path d="M296.67 147.65C296.67 147.65 301.86 162.39 325.26 161.93C341.16 161.62 344.96 173.13 344.96 173.13C344.96 173.13 342.19 147.4 341.46 147.65C340.73 147.89 317.26 141.39 317.26 141.39L296.67 147.65Z" fill="#282828"/>
</g>
<defs>
<clipPath id="clip0_61_3">
<rect width="643.02" height="474.47" fill="white" transform="translate(0 60)"/>
</clipPath>
</defs>
</svg>
