<svg width="600" height="396" viewBox="0 0 600 396" fill="none" xmlns="http://www.w3.org/2000/svg">
<rect width="600" height="396" fill="#00D09A"/>
<g clip-path="url(#clip0_4_1334)">
<path d="M120.208 391.438C119.824 391.438 119.45 391.237 119.23 390.881C117.942 388.7 116.636 386.373 115.329 383.983C115.028 383.435 115.229 382.751 115.777 382.459C116.325 382.158 117.01 382.359 117.303 382.906C118.6 385.279 119.897 387.569 121.167 389.74C121.487 390.279 121.304 390.963 120.765 391.283C120.601 391.392 120.4 391.438 120.208 391.438ZM522.393 387.149C522.348 387.149 522.302 387.149 522.256 387.14C521.635 387.067 521.196 386.501 521.279 385.881C521.571 383.527 521.955 380.963 522.448 378.034C522.549 377.422 523.133 377.012 523.745 377.112C524.358 377.212 524.769 377.796 524.668 378.408C524.175 381.3 523.8 383.837 523.508 386.164C523.444 386.738 522.951 387.149 522.393 387.149ZM112.634 377.605C112.223 377.605 111.83 377.386 111.629 376.993C110.451 374.703 109.263 372.312 108.103 369.913C107.829 369.356 108.066 368.681 108.623 368.407C109.19 368.142 109.857 368.371 110.131 368.927C111.291 371.318 112.47 373.69 113.63 375.962C113.913 376.519 113.694 377.194 113.137 377.477C112.981 377.568 112.808 377.605 112.634 377.605ZM524.979 371.591C524.906 371.591 524.833 371.582 524.76 371.573C524.147 371.455 523.745 370.862 523.864 370.25C524.348 367.741 524.878 365.149 525.417 362.503C525.545 361.892 526.139 361.509 526.751 361.627C527.363 361.755 527.756 362.348 527.628 362.96C527.08 365.587 526.559 368.17 526.075 370.679C525.984 371.217 525.509 371.591 524.979 371.591ZM105.764 363.407C105.334 363.407 104.923 363.16 104.741 362.75C103.653 360.377 102.575 357.95 101.525 355.523C101.278 354.948 101.543 354.291 102.109 354.045C102.676 353.798 103.343 354.063 103.589 354.629C104.631 357.038 105.709 359.456 106.787 361.81C107.043 362.376 106.796 363.042 106.23 363.297C106.084 363.37 105.919 363.407 105.764 363.407ZM528.158 356.143C528.076 356.143 528.003 356.134 527.921 356.116C527.308 355.988 526.925 355.386 527.053 354.784L528.706 347.074C528.834 346.471 529.428 346.07 530.04 346.207C530.652 346.334 531.036 346.937 530.908 347.539L529.254 355.249C529.145 355.778 528.679 356.143 528.158 356.143ZM99.4874 348.935C99.0397 348.935 98.6195 348.67 98.4459 348.241C97.4409 345.805 96.4543 343.332 95.5132 340.896C95.2848 340.312 95.5772 339.664 96.1528 339.436C96.7283 339.208 97.3861 339.5 97.6145 340.075C98.5555 342.502 99.5422 344.957 100.538 347.375C100.776 347.949 100.502 348.606 99.9259 348.844C99.7706 348.908 99.6244 348.935 99.4874 348.935ZM531.456 340.714C531.383 340.714 531.301 340.704 531.219 340.686C530.607 340.559 530.223 339.965 530.351 339.354C530.899 336.754 531.429 334.171 531.94 331.644C532.059 331.032 532.653 330.64 533.265 330.759C533.877 330.877 534.27 331.47 534.151 332.082C533.64 334.618 533.11 337.21 532.553 339.819C532.452 340.358 531.977 340.714 531.456 340.714ZM93.7683 334.244C93.3115 334.244 92.8729 333.961 92.7085 333.505C91.804 331.032 90.9087 328.532 90.059 326.059C89.8581 325.475 90.1687 324.828 90.7625 324.627C91.3472 324.426 91.9959 324.736 92.1969 325.329C93.0465 327.784 93.9327 330.284 94.828 332.739C95.0382 333.323 94.7458 333.97 94.1611 334.18C94.0332 334.226 93.8962 334.244 93.7683 334.244ZM534.544 325.247C534.48 325.247 534.407 325.238 534.343 325.229C533.731 325.12 533.329 324.526 533.439 323.915C533.95 321.132 534.398 318.522 534.754 316.168C534.846 315.557 535.421 315.137 536.043 315.228C536.655 315.32 537.075 315.895 536.983 316.515C536.609 318.924 536.18 321.479 535.65 324.326C535.558 324.873 535.083 325.247 534.544 325.247ZM88.6338 319.335C88.1588 319.335 87.7111 319.033 87.5649 318.55C86.7518 316.013 85.957 313.467 85.2261 310.985C85.0525 310.392 85.3905 309.763 85.9844 309.589C86.5874 309.416 87.2086 309.754 87.3822 310.347C88.1131 312.81 88.8988 315.338 89.7119 317.865C89.9037 318.459 89.5748 319.088 88.981 319.28C88.8714 319.316 88.7526 319.335 88.6338 319.335ZM536.901 309.653C536.865 309.653 536.828 309.653 536.782 309.644C536.161 309.58 535.714 309.033 535.778 308.412C535.933 306.879 536.052 305.438 536.116 304.142C536.116 303.065 536.088 301.897 536.033 300.711C536.006 300.091 536.481 299.561 537.102 299.534C537.714 299.488 538.253 299.981 538.281 300.602C538.336 301.815 538.372 303.029 538.372 304.197C538.299 305.593 538.18 307.062 538.025 308.64C537.961 309.224 537.468 309.653 536.901 309.653ZM84.148 304.215C83.6547 304.215 83.1979 303.886 83.0609 303.385C82.3665 300.821 81.6996 298.238 81.0875 295.72C80.9413 295.118 81.3067 294.506 81.9189 294.36C82.5218 294.214 83.1339 294.579 83.2801 295.191C83.8922 297.691 84.55 300.246 85.2444 302.801C85.4088 303.403 85.0525 304.014 84.4495 304.178C84.3399 304.197 84.2394 304.215 84.148 304.215ZM536.39 293.95C535.842 293.95 535.357 293.548 535.275 292.982C534.919 290.51 534.435 287.936 533.841 285.327C533.704 284.725 534.078 284.113 534.69 283.976C535.293 283.83 535.905 284.214 536.043 284.825C536.655 287.489 537.148 290.126 537.513 292.654C537.605 293.265 537.175 293.84 536.563 293.931C536.499 293.941 536.444 293.95 536.39 293.95ZM80.4114 288.895C79.8907 288.895 79.4247 288.53 79.306 288C78.7487 285.372 78.2279 282.754 77.7802 280.226C77.6706 279.615 78.0817 279.031 78.6938 278.921C79.3151 278.812 79.8907 279.222 80.0003 279.834C80.448 282.334 80.9596 284.925 81.5169 287.535C81.6448 288.146 81.2611 288.739 80.649 288.867C80.5667 288.885 80.4936 288.895 80.4114 288.895ZM532.909 278.593C532.425 278.593 531.977 278.283 531.831 277.79C531.109 275.399 530.287 272.899 529.373 270.372C529.163 269.788 529.465 269.14 530.049 268.93C530.634 268.711 531.283 269.021 531.493 269.605C532.416 272.169 533.256 274.706 533.987 277.142C534.17 277.735 533.832 278.365 533.229 278.547C533.128 278.575 533.018 278.593 532.909 278.593ZM77.6523 273.374C77.095 273.374 76.62 272.963 76.5377 272.406C76.1632 269.715 75.8525 267.059 75.615 264.523C75.5602 263.902 76.017 263.355 76.6291 263.3C77.2504 263.245 77.7985 263.701 77.8533 264.313C78.0817 266.813 78.3924 269.432 78.7578 272.087C78.84 272.698 78.4106 273.273 77.7985 273.355C77.7528 273.364 77.7072 273.374 77.6523 273.374ZM527.601 263.756C527.153 263.756 526.733 263.492 526.559 263.054C526.395 262.652 526.23 262.26 526.066 261.858C525.189 259.878 524.294 257.871 523.407 255.863C523.161 255.298 523.417 254.631 523.983 254.376C524.549 254.13 525.216 254.385 525.472 254.951C526.358 256.958 527.244 258.957 528.14 260.955C528.323 261.384 528.487 261.785 528.651 262.196C528.889 262.771 528.606 263.428 528.03 263.665C527.884 263.729 527.738 263.756 527.601 263.756ZM76.2271 257.679C75.6241 257.679 75.1217 257.205 75.1034 256.593C75.0486 255.133 75.0212 253.664 75.0212 252.25C75.0212 251.027 75.0394 249.823 75.0851 248.637C75.1034 248.016 75.6059 247.487 76.2545 247.551C76.8758 247.569 77.36 248.089 77.3417 248.71C77.3052 249.868 77.2778 251.045 77.2778 252.241C77.2778 253.637 77.3052 255.069 77.36 256.502C77.3783 257.122 76.8941 257.643 76.2728 257.67C76.2545 257.679 76.2363 257.679 76.2271 257.679ZM521.279 249.321C520.84 249.321 520.429 249.065 520.246 248.637C519.205 246.219 518.182 243.791 517.186 241.355C516.948 240.78 517.231 240.123 517.807 239.886C518.383 239.649 519.04 239.922 519.278 240.506C520.265 242.934 521.288 245.343 522.32 247.751C522.567 248.326 522.302 248.983 521.726 249.23C521.58 249.294 521.425 249.321 521.279 249.321ZM76.9945 241.966C76.9306 241.966 76.8666 241.957 76.8027 241.948C76.1906 241.848 75.7795 241.264 75.88 240.652C76.3276 238.006 76.9489 235.378 77.7254 232.842C77.9082 232.249 78.5385 231.911 79.1324 232.094C79.7262 232.276 80.0642 232.906 79.8815 233.499C79.1324 235.944 78.5385 238.472 78.1091 241.017C78.0178 241.574 77.5427 241.966 76.9945 241.966ZM515.331 234.721C514.874 234.721 514.445 234.448 514.281 233.991C513.294 231.382 512.417 228.955 511.595 226.546C511.394 225.962 511.704 225.314 512.298 225.122C512.892 224.922 513.531 225.241 513.723 225.825C514.536 228.206 515.404 230.615 516.382 233.198C516.601 233.782 516.309 234.429 515.724 234.648C515.605 234.703 515.468 234.721 515.331 234.721ZM81.6082 226.938C81.4529 226.938 81.2885 226.902 81.1423 226.838C80.5759 226.582 80.3292 225.907 80.585 225.35C81.6813 222.951 82.9604 220.578 84.3856 218.288C84.7145 217.759 85.4088 217.594 85.9387 217.923C86.4686 218.251 86.633 218.945 86.3041 219.474C84.9337 221.673 83.7004 223.963 82.6406 226.281C82.4396 226.701 82.0376 226.938 81.6082 226.938ZM510.261 219.803C509.776 219.803 509.329 219.483 509.183 219C508.415 216.408 507.721 213.835 507.109 211.344C506.963 210.742 507.328 210.13 507.931 209.984C508.534 209.838 509.146 210.203 509.292 210.806C509.895 213.26 510.58 215.797 511.339 218.361C511.512 218.954 511.174 219.584 510.58 219.757C510.48 219.793 510.37 219.803 510.261 219.803ZM89.8946 213.589C89.6479 213.589 89.4013 213.507 89.1911 213.342C88.7069 212.95 88.6247 212.247 89.0175 211.764C90.6437 209.729 92.4344 207.722 94.3438 205.796C94.7824 205.358 95.495 205.349 95.9335 205.787C96.372 206.225 96.3812 206.937 95.9426 207.375C94.088 209.245 92.3522 211.189 90.7717 213.169C90.5524 213.443 90.2235 213.589 89.8946 213.589ZM506.533 204.501C506.003 204.501 505.528 204.126 505.428 203.588C505.117 201.927 504.825 200.239 504.578 198.56C504.478 197.538 504.405 196.58 504.35 195.631C504.313 195.011 504.797 194.482 505.419 194.445C505.994 194.409 506.57 194.883 506.606 195.504C506.661 196.416 506.725 197.338 506.816 198.277C507.054 199.874 507.337 201.535 507.648 203.159C507.767 203.771 507.365 204.355 506.752 204.473C506.67 204.491 506.597 204.501 506.533 204.501ZM101.05 202.475C100.73 202.475 100.419 202.338 100.191 202.082C99.7889 201.608 99.8437 200.896 100.319 200.495C102.31 198.788 104.366 197.091 106.422 195.44C106.906 195.047 107.618 195.129 108.002 195.613C108.395 196.097 108.313 196.808 107.829 197.192C105.791 198.825 103.754 200.513 101.781 202.201C101.561 202.393 101.305 202.475 101.05 202.475ZM113.338 192.593C113 192.593 112.662 192.438 112.442 192.146C112.068 191.653 112.168 190.941 112.662 190.567C114.754 188.989 116.901 187.41 119.048 185.877C119.559 185.512 120.263 185.631 120.619 186.142C120.984 186.644 120.866 187.355 120.354 187.711C118.225 189.226 116.097 190.786 114.023 192.356C113.813 192.52 113.575 192.593 113.338 192.593ZM505.464 188.824C505.446 188.824 505.428 188.824 505.409 188.824C504.788 188.797 504.304 188.268 504.331 187.647C504.45 184.983 504.66 182.391 504.88 179.745C504.934 179.125 505.464 178.669 506.095 178.714C506.716 178.769 507.173 179.307 507.127 179.928C506.908 182.547 506.707 185.12 506.588 187.739C506.561 188.35 506.067 188.824 505.464 188.824ZM126.192 183.441C125.827 183.441 125.47 183.267 125.251 182.939C124.904 182.419 125.041 181.725 125.562 181.379C127.736 179.928 129.974 178.477 132.203 177.072C132.733 176.743 133.428 176.898 133.757 177.428C134.085 177.957 133.93 178.65 133.4 178.979C131.18 180.375 128.969 181.807 126.813 183.249C126.621 183.386 126.402 183.441 126.192 183.441ZM139.54 175.046C139.156 175.046 138.781 174.845 138.571 174.489C138.251 173.951 138.434 173.267 138.964 172.947C141.221 171.615 143.532 170.292 145.834 169.015C146.383 168.714 147.068 168.905 147.369 169.453C147.671 170 147.479 170.684 146.931 170.986C144.647 172.254 142.354 173.568 140.115 174.891C139.933 175 139.732 175.046 139.54 175.046ZM506.615 173.112C506.597 173.112 506.57 173.112 506.551 173.112C505.93 173.075 505.455 172.546 505.492 171.925C505.62 169.699 505.693 167.701 505.693 165.83L505.501 164.27C505.419 163.649 505.857 163.093 506.478 163.011C507.1 162.929 507.666 163.367 507.739 163.987L507.94 165.62C507.949 165.666 507.949 165.712 507.949 165.757C507.949 167.692 507.885 169.754 507.748 172.053C507.703 172.646 507.209 173.112 506.615 173.112ZM153.326 167.39C152.915 167.39 152.531 167.171 152.33 166.788C152.038 166.241 152.257 165.556 152.805 165.274C155.107 164.069 157.483 162.865 159.867 161.706C160.425 161.432 161.101 161.66 161.375 162.217C161.649 162.773 161.42 163.449 160.863 163.722C158.497 164.881 156.14 166.077 153.847 167.272C153.682 167.354 153.499 167.39 153.326 167.39ZM167.487 160.447C167.057 160.447 166.655 160.2 166.464 159.79C166.199 159.224 166.445 158.558 167.012 158.293C168.848 157.445 170.703 156.614 172.566 155.793L173.553 154.808C173.992 154.37 174.704 154.37 175.143 154.808C175.581 155.246 175.581 155.957 175.143 156.395L174.01 157.527C173.909 157.627 173.791 157.709 173.663 157.764C171.753 158.603 169.844 159.461 167.953 160.337C167.806 160.419 167.642 160.447 167.487 160.447ZM505.382 157.463C504.861 157.463 504.386 157.098 504.277 156.559C503.71 153.786 503.007 151.386 502.13 149.196C501.901 148.621 502.175 147.964 502.76 147.736C503.336 147.508 503.993 147.782 504.222 148.366C505.144 150.674 505.885 153.211 506.478 156.112C506.606 156.724 506.213 157.317 505.601 157.445C505.537 157.454 505.455 157.463 505.382 157.463ZM180.679 152.143C180.295 152.143 179.921 151.942 179.711 151.587C179.391 151.048 179.574 150.364 180.113 150.044C182.762 148.484 184.845 147.152 186.681 145.856C187.193 145.5 187.897 145.619 188.253 146.13C188.609 146.641 188.49 147.344 187.979 147.699C186.097 149.032 183.959 150.391 181.255 151.988C181.072 152.088 180.871 152.143 180.679 152.143ZM499.398 143.018C499.051 143.018 498.704 142.854 498.484 142.553C498 141.887 497.479 141.23 496.94 140.591C495.798 139.286 494.602 138 493.386 136.777C492.948 136.33 492.957 135.618 493.396 135.19C493.843 134.752 494.556 134.761 494.985 135.199C496.228 136.458 497.452 137.772 498.631 139.122C499.224 139.816 499.782 140.518 500.302 141.239C500.668 141.741 500.549 142.444 500.047 142.809C499.864 142.945 499.626 143.018 499.398 143.018ZM193.415 142.918C193.122 142.918 192.83 142.799 192.602 142.58C192.172 142.133 192.181 141.422 192.629 140.993C194.319 139.359 195.781 137.671 197.087 135.846C197.124 135.792 197.16 135.746 197.206 135.7C197.425 135.482 197.645 135.272 197.864 135.071C198.321 134.651 199.033 134.679 199.454 135.144C199.874 135.6 199.846 136.312 199.381 136.732C199.207 136.887 199.033 137.051 198.86 137.224C197.489 139.131 195.964 140.892 194.191 142.608C193.981 142.809 193.698 142.918 193.415 142.918ZM204.725 132.023C204.433 132.023 204.15 131.914 203.93 131.695C203.492 131.257 203.492 130.545 203.93 130.107L203.976 130.061C205.429 128.3 207.027 126.32 208.809 124.076C209.193 123.592 209.905 123.51 210.389 123.893C210.874 124.276 210.956 124.988 210.572 125.472C208.781 127.726 207.174 129.715 205.639 131.567C205.62 131.594 205.547 131.667 205.52 131.695C205.301 131.914 205.008 132.023 204.725 132.023ZM488.407 131.768C488.152 131.768 487.896 131.677 487.686 131.503C485.73 129.861 483.647 128.264 481.51 126.777C480.998 126.421 480.87 125.718 481.226 125.207C481.583 124.696 482.286 124.568 482.798 124.924C485 126.457 487.128 128.081 489.138 129.779C489.613 130.18 489.677 130.892 489.275 131.366C489.047 131.631 488.727 131.768 488.407 131.768ZM475.489 122.753C475.297 122.753 475.105 122.707 474.923 122.597C473.077 121.53 471.122 120.481 469.112 119.477C468.792 119.34 468.427 119.185 468.052 119.03C467.477 118.783 467.212 118.126 467.449 117.552C467.687 116.977 468.354 116.712 468.929 116.949C469.313 117.114 469.688 117.269 470.062 117.433C472.164 118.482 474.155 119.55 476.046 120.645C476.585 120.955 476.768 121.649 476.457 122.187C476.256 122.552 475.873 122.753 475.489 122.753ZM214.546 119.696C214.309 119.696 214.062 119.623 213.852 119.459C213.359 119.075 213.267 118.373 213.651 117.88L215.387 115.654C216.428 114.321 217.461 112.98 218.493 111.657C218.877 111.164 219.589 111.082 220.074 111.456C220.567 111.839 220.649 112.542 220.275 113.035C219.242 114.358 218.21 115.69 217.168 117.031L215.433 119.267C215.213 119.541 214.884 119.696 214.546 119.696ZM461.136 116.283C461.018 116.283 460.89 116.265 460.762 116.219C458.377 115.38 455.865 114.577 453.307 113.838C452.713 113.664 452.366 113.035 452.539 112.442C452.713 111.849 453.334 111.502 453.937 111.675C456.532 112.433 459.081 113.245 461.502 114.093C462.087 114.303 462.397 114.942 462.196 115.526C462.041 115.991 461.602 116.283 461.136 116.283ZM446.016 111.849C445.925 111.849 445.834 111.839 445.751 111.812C443.33 111.219 440.827 110.653 438.095 110.078C437.483 109.951 437.1 109.358 437.227 108.746C437.355 108.135 437.958 107.752 438.561 107.879C441.311 108.454 443.842 109.029 446.29 109.631C446.893 109.777 447.268 110.389 447.113 110.991C446.985 111.502 446.519 111.849 446.016 111.849ZM430.576 108.573C430.512 108.573 430.439 108.564 430.366 108.555C427.79 108.08 425.204 107.615 422.61 107.168C421.998 107.058 421.587 106.483 421.696 105.863C421.806 105.251 422.391 104.841 423.003 104.95C425.606 105.397 428.201 105.863 430.787 106.337C431.399 106.447 431.801 107.04 431.691 107.651C431.581 108.199 431.115 108.573 430.576 108.573ZM224.276 107.277C224.029 107.277 223.783 107.195 223.573 107.031C223.088 106.638 223.006 105.936 223.399 105.452C225.208 103.198 226.853 101.2 228.424 99.3296C228.826 98.8551 229.539 98.7912 230.014 99.1927C230.489 99.5942 230.553 100.306 230.151 100.78C228.588 102.633 226.953 104.613 225.162 106.857C224.934 107.131 224.605 107.277 224.276 107.277ZM415.036 105.854C414.972 105.854 414.908 105.845 414.844 105.835C412.259 105.397 409.664 104.95 407.06 104.485C406.448 104.375 406.037 103.792 406.147 103.18C406.256 102.569 406.832 102.158 407.453 102.268C410.048 102.724 412.633 103.171 415.219 103.609C415.831 103.709 416.242 104.293 416.142 104.905C416.05 105.47 415.575 105.854 415.036 105.854ZM399.496 103.08C399.423 103.08 399.35 103.071 399.276 103.062C396.499 102.523 393.968 102.003 391.52 101.465C390.917 101.328 390.524 100.726 390.661 100.123C390.798 99.5212 391.392 99.1288 392.004 99.2657C394.425 99.804 396.947 100.324 399.706 100.853C400.318 100.972 400.72 101.565 400.601 102.176C400.501 102.706 400.026 103.08 399.496 103.08ZM384.038 99.9227C383.974 99.9227 383.901 99.9135 383.837 99.9044C381.251 99.4299 378.629 98.8368 376.053 98.1251C375.45 97.9609 375.103 97.3404 375.267 96.7382C375.431 96.1359 376.062 95.7892 376.656 95.9534C379.177 96.6469 381.726 97.2309 384.248 97.6871C384.86 97.7966 385.262 98.3897 385.152 99.0011C385.052 99.5485 384.577 99.9227 384.038 99.9227ZM368.844 95.7618C368.716 95.7618 368.589 95.7436 368.461 95.6888C366.725 95.0501 364.971 94.3566 363.244 93.6175C362.513 93.2981 361.801 92.9788 361.088 92.6503C360.521 92.3948 360.275 91.7196 360.531 91.1539C360.786 90.5881 361.453 90.3418 362.029 90.5972C362.732 90.9166 363.436 91.236 364.139 91.5462C365.82 92.2671 367.538 92.9514 369.237 93.5719C369.822 93.7818 370.123 94.4296 369.904 95.0136C369.731 95.4789 369.301 95.7618 368.844 95.7618ZM234.49 95.2417C234.216 95.2417 233.942 95.1413 233.732 94.9497C233.275 94.53 233.239 93.8183 233.659 93.362C235.55 91.2907 237.359 89.4202 239.177 87.6409C239.616 87.2029 240.337 87.212 240.767 87.6591C241.205 88.1062 241.196 88.8179 240.748 89.2468C238.958 90.9987 237.185 92.8419 235.322 94.8858C235.093 95.1231 234.792 95.2417 234.49 95.2417ZM354.437 89.3289C354.263 89.3289 354.09 89.2924 353.934 89.2103C351.586 88.0332 349.248 86.8105 346.9 85.5787C346.352 85.2867 346.141 84.6115 346.425 84.0549C346.717 83.5074 347.393 83.2975 347.95 83.5804C350.28 84.8122 352.61 86.0258 354.939 87.1937C355.497 87.4766 355.716 88.1518 355.442 88.7084C355.25 89.1008 354.848 89.3289 354.437 89.3289ZM245.764 84.2282C245.444 84.2282 245.134 84.0914 244.905 83.8359C244.503 83.3614 244.558 82.6497 245.024 82.2482C247.098 80.478 249.199 78.8173 251.291 77.3209C251.794 76.9559 252.497 77.0745 252.863 77.5763C253.228 78.0782 253.109 78.7808 252.607 79.1458C250.57 80.6149 248.514 82.2299 246.486 83.9545C246.285 84.1461 246.029 84.2282 245.764 84.2282ZM340.45 82.0109C340.276 82.0109 340.093 81.9653 339.929 81.8832C337.608 80.6605 335.279 79.4469 332.94 78.2607C332.383 77.9778 332.163 77.3026 332.446 76.746C332.73 76.1894 333.406 75.9704 333.963 76.2533C336.311 77.4395 338.65 78.6622 340.98 79.894C341.528 80.186 341.738 80.8612 341.455 81.4178C341.244 81.7919 340.861 82.0109 340.45 82.0109ZM258.564 75.0671C258.171 75.0671 257.796 74.8663 257.586 74.5105C257.275 73.9721 257.458 73.2877 257.997 72.9684C260.318 71.6179 262.711 70.3952 265.114 69.3185C265.681 69.063 266.347 69.3185 266.603 69.8842C266.859 70.45 266.603 71.1161 266.037 71.3716C263.707 72.4118 261.387 73.6071 259.13 74.9119C258.956 75.0214 258.755 75.0671 258.564 75.0671ZM326.353 74.9302C326.198 74.9302 326.033 74.8937 325.878 74.8298C323.338 73.6527 320.99 72.6399 318.697 71.7274C318.121 71.4993 317.838 70.8423 318.066 70.2675C318.295 69.6926 318.953 69.4098 319.528 69.6379C321.858 70.5686 324.242 71.5997 326.819 72.795C327.385 73.0596 327.632 73.7257 327.367 74.2915C327.193 74.6929 326.782 74.9302 326.353 74.9302ZM311.699 69.1543C311.589 69.1543 311.47 69.136 311.361 69.0995C308.803 68.2966 306.281 67.6304 303.842 67.1286C303.23 67.0008 302.846 66.4077 302.974 65.7964C303.102 65.185 303.696 64.7927 304.308 64.9295C306.811 65.4497 309.405 66.134 312.037 66.9552C312.631 67.1377 312.959 67.7764 312.777 68.3695C312.621 68.844 312.183 69.1543 311.699 69.1543ZM272.935 68.6615C272.459 68.6615 272.012 68.3604 271.866 67.8768C271.674 67.2837 272.003 66.6541 272.597 66.4625C273.538 66.1614 274.497 65.8694 275.474 65.6048C277.101 65.1577 278.745 64.7744 280.371 64.4733C280.983 64.3547 281.568 64.7653 281.687 65.3767C281.806 65.988 281.394 66.572 280.782 66.6906C279.22 66.9826 277.64 67.3476 276.068 67.7764C275.127 68.0411 274.195 68.3148 273.282 68.6068C273.163 68.6433 273.053 68.6615 272.935 68.6615ZM296.286 65.9789C296.25 65.9789 296.222 65.9789 296.186 65.9789C293.591 65.7508 291.033 65.6869 288.457 65.8055C287.808 65.8146 287.305 65.3493 287.278 64.7288C287.251 64.1083 287.735 63.5791 288.356 63.5517C291.033 63.4331 293.692 63.4878 296.387 63.7251C297.008 63.7798 297.465 64.3273 297.41 64.9478C297.355 65.5409 296.862 65.9789 296.286 65.9789Z" fill="#8EE4FD"/>
<path d="M66.141 207.959C66.141 210.76 63.8661 213.023 61.0705 213.023C58.2657 213.023 56 210.751 56 207.959C56 205.157 58.2749 202.895 61.0705 202.895C63.8752 202.895 66.141 205.167 66.141 207.959Z" fill="#8EE4FD"/>
<path d="M541.727 160.151C545.78 154.257 544.282 146.197 538.38 142.148C532.478 138.1 524.408 139.597 520.355 145.492C516.301 151.386 517.8 159.446 523.702 163.494C529.604 167.543 537.674 166.046 541.727 160.151Z" fill="#8EE4FD"/>
<path d="M527.665 147.736C535.445 147.736 541.753 141.436 541.753 133.666C541.753 125.895 535.445 119.595 527.665 119.595C519.884 119.595 513.577 125.895 513.577 133.666C513.577 141.436 519.884 147.736 527.665 147.736Z" stroke="#8EE4FD" stroke-width="1.2336" stroke-miterlimit="10"/>
<path d="M204.771 65.5683C209.751 65.5683 213.788 61.5361 213.788 56.5622C213.788 51.5883 209.751 47.5562 204.771 47.5562C199.791 47.5562 195.754 51.5883 195.754 56.5622C195.754 61.5361 199.791 65.5683 204.771 65.5683Z" fill="#8EE4FD"/>
<path d="M217.726 68.9536C223.019 68.9536 227.309 64.6682 227.309 59.3818C227.309 54.0955 223.019 49.8101 217.726 49.8101C212.433 49.8101 208.142 54.0955 208.142 59.3818C208.142 64.6682 212.433 68.9536 217.726 68.9536Z" stroke="#8EE4FD" stroke-width="1.2336" stroke-miterlimit="10"/>
<path d="M80.7951 186.014C83.9083 186.014 86.432 183.493 86.432 180.384C86.432 177.275 83.9083 174.754 80.7951 174.754C77.6819 174.754 75.1582 177.275 75.1582 180.384C75.1582 183.493 77.6819 186.014 80.7951 186.014Z" stroke="#8EE4FD" stroke-width="1.2336" stroke-miterlimit="10"/>
<path d="M528.789 222.029C532.209 222.029 534.983 219.259 534.983 215.843C534.983 212.426 532.209 209.656 528.789 209.656C525.368 209.656 522.594 212.426 522.594 215.843C522.594 219.259 525.368 222.029 528.789 222.029Z" stroke="#8EE4FD" stroke-width="1.2336" stroke-miterlimit="10"/>
<path d="M414.963 148.302C414.963 148.302 412.149 82.449 391.858 66.1341C371.567 49.8101 390.168 135.92 414.963 148.302Z" fill="#64E4E6"/>
<path d="M409.143 139.661C402.958 131.065 400.729 119.742 403.196 109.449C403.744 107.177 404.575 104.832 406.366 103.326C408.33 101.666 411.135 101.301 413.666 101.766C416.196 102.231 418.526 103.427 420.81 104.604C419.96 99.4392 420.116 93.864 420.134 88.6356C420.152 84.2648 420.527 79.7299 422.628 75.8975C424.729 72.056 428.959 69.0905 433.299 69.6836C438.278 70.368 441.503 75.1219 444.079 79.4379C445.514 72.5579 449.104 65.6961 453.745 60.4038C458.085 55.4491 464.663 51.3704 470.994 53.1771C476.32 54.7009 479.829 60.1392 480.514 65.6231C481.199 71.1162 479.564 76.6275 477.472 81.7464C475.197 87.3307 472.355 92.6869 469.012 97.7055C472.904 97.2857 478.367 97.7237 480.742 100.835C482.46 103.08 482.643 106.182 481.957 108.92C480.888 113.181 477.928 116.776 474.42 119.44C470.921 122.105 466.874 123.939 462.863 125.746C468.692 128.118 472.036 135.628 469.551 141.404C468.089 144.798 465.12 147.325 461.986 149.287C453.526 154.57 443.056 156.55 433.253 154.716C423.45 152.891 414.972 147.745 409.143 139.661Z" fill="#2CD0D1"/>
<path d="M470.556 55.6226L427.169 143.612" stroke="#0B334C" stroke-width="0.9252" stroke-miterlimit="10" stroke-linecap="round" stroke-linejoin="round"/>
<path d="M430.924 71.3809L447.834 101.401" stroke="#0B334C" stroke-width="0.9252" stroke-miterlimit="10" stroke-linecap="round" stroke-linejoin="round"/>
<path d="M425.287 74.9487L445.011 107.405" stroke="#0B334C" stroke-width="0.9252" stroke-miterlimit="10" stroke-linecap="round" stroke-linejoin="round"/>
<path d="M465.485 120.161L438.817 120.535" stroke="#0B334C" stroke-width="0.9252" stroke-miterlimit="10" stroke-linecap="round" stroke-linejoin="round"/>
<path d="M419.915 144.095C419.915 144.095 389.419 93.7909 366.533 89.7122C343.647 85.6426 395.193 145.035 419.915 144.095Z" fill="#2CD0D1"/>
<path d="M365.747 93.7087L400.683 127.671" stroke="#0B334C" stroke-width="0.9252" stroke-miterlimit="10" stroke-linecap="round" stroke-linejoin="round"/>
<path d="M134.14 373.426C134.14 373.426 98.455 298.01 128.878 280.372C159.31 262.734 139.394 373.8 139.394 373.8L134.14 373.426Z" fill="#64E4E6"/>
<path d="M133.017 365.551C133.017 365.551 113.484 308.148 97.3313 308.148C81.1788 308.148 93.2018 338.542 128.513 367.057L133.017 365.551Z" fill="#2CD0D1"/>
<path d="M94.0332 312.08L120.244 352.603" stroke="#0B334C" stroke-width="0.9252" stroke-miterlimit="10" stroke-linecap="round" stroke-linejoin="round"/>
<path d="M95.2574 391.438C95.2574 391.438 83.0517 379.804 88.4968 369.11C93.9418 358.416 109.72 361.792 109.72 361.792C109.72 361.792 102.767 347.156 115.165 340.595C127.562 334.025 137.703 350.541 137.703 350.541C137.703 350.541 144.464 331.589 171.698 332.155C198.933 332.72 197.243 361.801 197.243 361.801C197.243 361.801 204.003 355.614 212.646 361.235C221.289 366.865 212.646 377.559 212.646 377.559C212.646 377.559 221.097 379.995 220.54 391.255L95.2574 391.438Z" fill="#2CD0D1"/>
<path d="M439.502 308.896H133.446V121.448C133.446 117.424 136.717 114.166 140.736 114.166H432.203C436.232 114.166 439.493 117.424 439.493 121.448V308.896H439.502Z" fill="white" stroke="#1F5B99" stroke-width="1.1536" stroke-miterlimit="10"/>
<path d="M439.502 128.793H133.446V121.448C133.446 117.424 136.717 114.166 140.736 114.166H432.203C436.232 114.166 439.493 117.424 439.493 121.448V128.793H439.502Z" fill="#1F5B99"/>
<path d="M365.74 222.369C366.666 218.435 364.224 214.495 360.285 213.57C356.346 212.644 352.402 215.083 351.475 219.017C350.549 222.951 352.991 226.891 356.93 227.816C360.869 228.742 364.813 226.303 365.74 222.369Z" fill="#00A2DD"/>
<path d="M387.825 225.847C390.686 222.989 390.686 218.356 387.825 215.498C384.964 212.64 380.324 212.64 377.463 215.498C374.602 218.356 374.602 222.989 377.463 225.847C380.324 228.705 384.964 228.705 387.825 225.847Z" fill="#FCB13A"/>
<path d="M409.245 227.534C413.043 226.14 414.991 221.935 413.596 218.141C412.2 214.347 407.989 212.402 404.191 213.796C400.392 215.19 398.444 219.395 399.84 223.189C401.235 226.983 405.446 228.928 409.245 227.534Z" fill="#F64652"/>
<path d="M339.317 146.422H228.497V289.022H339.317V146.422Z" stroke="#0B334C" stroke-width="1.1536" stroke-miterlimit="10"/>
<path d="M343.391 213.598H335.142V221.837H343.391V213.598Z" fill="white" stroke="#1F5B99" stroke-width="1.1536" stroke-miterlimit="10"/>
<path d="M343.391 284.898H335.142V293.138H343.391V284.898Z" fill="white" stroke="#1F5B99" stroke-width="1.1536" stroke-miterlimit="10"/>
<path d="M343.391 142.562H335.142V150.802H343.391V142.562Z" fill="white" stroke="#1F5B99" stroke-width="1.1536" stroke-miterlimit="10"/>
<path d="M232.581 142.562H224.331V150.802H232.581V142.562Z" fill="white" stroke="#1F5B99" stroke-width="1.1536" stroke-miterlimit="10"/>
<path d="M232.188 213.598H223.938V221.837H232.188V213.598Z" fill="white" stroke="#1F5B99" stroke-width="1.1536" stroke-miterlimit="10"/>
<path d="M232.188 284.387H223.938V292.627H232.188V284.387Z" fill="white" stroke="#1F5B99" stroke-width="1.1536" stroke-miterlimit="10"/>
<path d="M279.782 142.815V151.054H288.032V142.815H279.782Z" fill="white" stroke="#1F5B99" stroke-width="1.1536" stroke-miterlimit="10"/>
<path d="M279.782 283.353V291.593H288.032V283.353H279.782Z" fill="white" stroke="#1F5B99" stroke-width="1.1536" stroke-miterlimit="10"/>
<path d="M321.173 196.872C321.173 176.588 305.029 160.073 284.875 159.434C264.045 158.777 246.276 175.849 246.166 196.672C246.111 206.827 250.113 216.052 256.636 222.823C262.711 229.137 266.302 237.422 266.302 246.182V247.651H301.037V246.191C301.037 237.578 304.362 229.265 310.41 223.115C317.061 216.363 321.173 207.092 321.173 196.872Z" fill="#FCB13A"/>
<path d="M292.148 276.284H275.182C270.322 276.284 266.384 272.352 266.384 267.497V247.204H300.946V267.497C300.946 272.343 297.008 276.284 292.148 276.284Z" fill="#0B334C"/>
<path d="M299.484 265.28L266.713 258.646C265.379 258.373 264.42 257.205 264.42 255.845C264.42 254.039 266.083 252.679 267.855 253.044L300.626 259.668C301.96 259.942 302.919 261.11 302.919 262.47C302.919 264.286 301.256 265.645 299.484 265.28Z" fill="#114D73"/>
<path d="M299.484 259.44L266.713 252.816C265.379 252.542 264.42 251.374 264.42 250.014C264.42 248.208 266.083 246.848 267.855 247.213L300.626 253.838C301.96 254.111 302.919 255.279 302.919 256.639C302.919 258.446 301.256 259.796 299.484 259.44Z" fill="#0B334C"/>
<path d="M299.484 271.12L266.713 264.495C265.379 264.222 264.42 263.054 264.42 261.694C264.42 259.887 266.083 258.528 267.855 258.893L300.626 265.526C301.96 265.8 302.919 266.968 302.919 268.328C302.919 270.125 301.256 271.485 299.484 271.12Z" fill="#0B334C"/>
<path d="M287.543 250.534L285.606 250.288C287.26 237.441 289.251 224.511 291.535 211.691C289.297 213.014 286.639 213.917 283.669 214.319C281.577 214.602 278.864 214.693 276.141 213.999C279.768 225.049 282.281 236.473 283.624 248.025L281.687 248.253C280.307 236.336 277.667 224.566 273.821 213.205C273.172 212.913 272.523 212.567 271.902 212.156C269.828 210.778 268.193 208.652 267.426 206.325C267.005 205.03 267.572 203.725 268.805 203.141C270.048 202.557 271.427 202.958 272.149 204.108C273.154 205.696 273.857 207.484 274.469 209.181C274.771 210.03 275.072 210.87 275.365 211.718C277.676 212.558 280.435 212.795 283.395 212.393C285.698 212.083 289.114 211.253 292.001 209.072C292.568 205.979 293.143 202.904 293.746 199.829C293.883 199.117 294.075 198.141 294.742 197.402C295.199 196.891 295.875 196.58 296.551 196.553C297.108 196.526 297.657 196.735 298.049 197.11C298.579 197.63 298.707 198.314 298.762 198.852C298.954 200.759 298.753 202.502 298.159 204.026C297.236 206.408 295.747 208.452 293.792 210.094C291.38 223.507 289.279 237.076 287.543 250.534ZM269.974 204.82C269.828 204.82 269.7 204.865 269.646 204.893C269.481 204.966 269.125 205.203 269.289 205.705C269.901 207.585 271.208 209.3 272.871 210.441C272.798 210.24 272.724 210.039 272.651 209.838C272.076 208.242 271.418 206.572 270.514 205.139C270.349 204.893 270.148 204.82 269.974 204.82ZM296.652 198.487C296.551 198.487 296.341 198.551 296.213 198.688C295.921 199.007 295.802 199.537 295.674 200.194C295.254 202.356 294.843 204.537 294.432 206.709C295.19 205.741 295.848 204.619 296.359 203.314C296.844 202.073 296.999 200.641 296.844 199.035C296.798 198.606 296.725 198.506 296.706 198.487C296.688 198.496 296.67 198.487 296.652 198.487Z" fill="#0B334C"/>
<path d="M268.449 247.122L300.946 253.975" stroke="white" stroke-width="0.3084" stroke-miterlimit="10" stroke-linecap="round" stroke-linejoin="round"/>
<path d="M266.475 264.295L299.721 271.33" stroke="white" stroke-width="0.3084" stroke-miterlimit="10" stroke-linecap="round" stroke-linejoin="round"/>
<path d="M223.335 320.621H210.17C208.955 320.621 207.978 319.636 207.978 318.431V302.29C207.978 301.122 208.928 300.173 210.097 300.173H223.408C224.578 300.173 225.528 301.122 225.528 302.29V318.431C225.528 319.636 224.55 320.621 223.335 320.621Z" fill="#0B334C"/>
<path d="M218.219 306.158H207.978V315.648H218.219V306.158Z" fill="#FCB13A"/>
<path d="M207.74 300.939V301.405C207.74 301.861 208.096 302.244 208.553 302.253C209.056 302.271 209.558 302.326 209.969 302.554C210.883 303.056 211.504 304.032 212.5 304.361C213.496 304.689 214.592 304.261 215.469 303.677C216.556 302.956 217.497 301.979 218.84 301.715C219.434 301.596 220.074 301.669 220.576 302.016C221.627 302.728 221.462 303.987 221.499 305.091C221.526 305.784 221.645 306.478 221.864 307.135C222.047 307.691 222.312 308.248 222.796 308.577C223.271 308.905 224.011 308.932 224.395 308.494C224.623 308.239 224.687 307.874 224.724 307.536C224.824 306.669 224.833 305.803 224.742 304.936C224.696 304.461 224.614 303.978 224.715 303.512C224.788 303.184 224.971 302.865 225.245 302.682C225.482 302.518 225.628 302.262 225.628 301.97V300.939C225.628 300.337 225.135 299.844 224.532 299.844H208.845C208.233 299.844 207.74 300.337 207.74 300.939Z" fill="#FCB13A"/>
<path d="M127.106 320.511H120.345V391.328H127.106V320.511Z" fill="#184778"/>
<path d="M101.936 320.511H95.1752V391.328H101.936V320.511Z" fill="#1F5B99"/>
<path d="M205.885 320.511H199.125V391.328H205.885V320.511Z" fill="#184778"/>
<path d="M231.046 320.511H224.285V391.328H231.046V320.511Z" fill="#1F5B99"/>
<path d="M231.037 320.521H95.3488V327.273H231.037V320.521Z" fill="#1F5B99"/>
<path d="M202.596 266.329C200.605 265.316 199.737 265.809 195.872 264.97C195.297 264.842 194.566 264.714 193.744 264.586C192.62 269.085 191.35 273.547 190.537 278.127C190.464 278.547 190.4 278.967 190.336 279.387C192.437 279.25 194.548 279.122 196.658 279.049C194.867 290.865 192.519 305.1 190.82 316.944C192.099 317.154 192.949 318.048 194.411 317.509C198.778 309.817 205.794 287.918 207.1 281.932C208.407 275.956 208.361 277.352 208.389 275.5C208.489 269.021 207.713 268.93 202.596 266.329Z" fill="#FA9778"/>
<path d="M196.95 278.036L196.667 279.159" stroke="#0B334C" stroke-width="0.3084" stroke-miterlimit="10" stroke-linecap="round" stroke-linejoin="round"/>
<path d="M194.803 316.625C194.803 316.625 192.501 318.139 190.774 316.625L190.409 317.628C190.089 318.504 189.925 319.435 189.925 320.366V320.648L201.984 320.658C201.984 319.791 201.436 319.015 200.623 318.714L194.803 316.625Z" fill="#1F5B99"/>
<path d="M157.245 305.976C155.226 305.711 153.225 305.437 151.261 305.082C151.343 306.177 151.426 307.271 151.517 308.33C137.658 307.354 116.49 310.547 112.15 311.25C111.629 311.332 111.346 311.378 111.346 311.378L110.971 315.119L112.095 315.265L152.805 320.457L156.606 320.94C162.051 321.634 166.993 317.719 167.569 312.272L168.053 307.682L168.099 307.29C164.472 306.97 160.872 306.45 157.245 305.976Z" fill="#FA9778"/>
<path d="M151.59 308.421C151.59 308.421 154.76 309.27 155.181 309.616" stroke="#0B334C" stroke-width="0.3084" stroke-miterlimit="10" stroke-linecap="round" stroke-linejoin="round"/>
<path d="M112.141 315.173C112.141 315.173 110.67 312.847 112.232 311.149L111.236 310.766C110.368 310.429 109.437 310.246 108.505 310.228L108.221 310.219L107.956 322.263C108.824 322.282 109.61 321.752 109.93 320.94L112.141 315.173Z" fill="#1F5B99"/>
<path d="M154.989 262.743C154.989 262.743 150.667 274.186 150.667 278.127C150.667 282.069 150.667 306.459 150.667 306.459L167.953 308.339L173.398 281.695L194.813 280.381L197.818 263.501L180.962 260.745L154.989 262.743Z" fill="#F64652"/>
<path d="M174.576 272.689L173.443 281.503" stroke="#0B334C" stroke-width="0.3084" stroke-miterlimit="10" stroke-linecap="round" stroke-linejoin="round"/>
<path d="M195.891 263.4L192.931 279.788" stroke="#0B334C" stroke-width="0.3084" stroke-miterlimit="10" stroke-linecap="round" stroke-linejoin="round"/>
<path d="M151.161 304.416L167.715 306.313" stroke="#0B334C" stroke-width="0.3084" stroke-miterlimit="10" stroke-linecap="round" stroke-linejoin="round"/>
<path d="M173.772 279.505L193.004 278.666" stroke="#0B334C" stroke-width="0.3084" stroke-miterlimit="10" stroke-linecap="round" stroke-linejoin="round"/>
<path d="M155.957 265.015C155.957 265.015 152.504 274.231 152.504 278.52C152.504 282.808 152.431 304.552 152.431 304.552" stroke="#0B334C" stroke-width="0.3084" stroke-miterlimit="10" stroke-linecap="round" stroke-linejoin="round"/>
<path d="M160.251 264.942L153.774 272.05" stroke="#0B334C" stroke-width="0.3084" stroke-miterlimit="10" stroke-linecap="round" stroke-linejoin="round"/>
<path d="M209.11 237.24C208.425 236.282 207.1 236.035 206.132 236.674C206.114 236.683 206.086 236.711 206.068 236.72L206.013 236.765C203.903 238.262 201.719 239.786 199.536 241.209C197.334 242.651 195.132 244.056 192.885 245.406C189.459 247.469 185.978 249.421 182.452 251.128C182.123 250.215 181.821 249.294 181.529 248.372C180.853 246.237 180.231 244.083 179.647 241.921C179.089 242.231 178.55 242.532 178.048 242.751C175.673 243.828 173.306 244.85 170.821 245.516C171.443 247.496 172.1 249.458 172.85 251.401C173.252 252.451 173.681 253.491 174.119 254.54C174.75 256.064 175.426 257.57 176.139 259.066L176.157 259.093C177.043 260.864 179.208 261.612 180.971 260.727C181.556 260.435 182.141 260.134 182.716 259.814C183.575 259.349 184.434 258.884 185.265 258.382C186.846 257.478 188.39 256.52 189.879 255.526C191.039 254.768 192.154 253.975 193.269 253.199C194.374 252.387 195.479 251.575 196.558 250.744C200.842 247.45 204.862 243.965 208.727 240.178C208.772 240.132 208.818 240.087 208.864 240.041C209.604 239.311 209.741 238.116 209.11 237.24Z" fill="#FA9778"/>
<path d="M205.922 237.203C205.922 237.203 207.356 233.307 207.978 233.344C208.599 233.38 208.599 235.424 208.599 235.424C208.599 235.424 212.171 232.577 212.628 232.887C213.094 233.198 210.362 235.698 210.362 235.698C210.362 235.698 212.993 234.119 213.496 234.493C213.998 234.867 210.691 236.975 210.691 236.975C210.691 236.975 213.669 236.017 213.916 236.647C214.163 237.276 210.517 238.234 210.517 238.234C210.517 238.234 212.737 238.034 212.829 238.508C212.92 238.983 208.051 240.388 208.051 240.388L205.922 237.203Z" fill="#FA9778"/>
<path d="M171.525 248.554C171.525 248.554 165.331 233.709 169.908 230.688C174.485 227.659 177.655 232.659 177.938 233.991C178.222 235.324 180.971 246.018 180.971 246.018L171.525 248.554Z" fill="#1F5B99"/>
<path d="M170.876 226.746V218.051H164.033V226.746C164.033 227.796 163.184 228.644 162.133 228.644C169.899 239.922 172.84 228.644 172.84 228.644H172.776C171.726 228.644 170.876 227.796 170.876 226.746Z" fill="#FA9778"/>
<path d="M170.876 223.535V224.976C170.538 225.004 170.209 224.985 169.871 224.922C168.391 224.639 166.29 223.963 164.983 222.348C164.664 221.965 164.344 221.409 164.024 220.742V220.523C164.134 220.706 164.253 220.87 164.371 221.007C165.678 222.622 167.779 223.297 169.259 223.58C169.807 223.69 170.355 223.662 170.876 223.535Z" fill="#0B334C"/>
<path d="M177.81 231.884C177.07 230.88 175.545 229.803 174.119 228.927L174.622 228.498L170.958 227.184L169.076 233.188L164.033 226.746L160.342 227.841L160.909 228.188C159.1 228.535 154.861 230.022 154.514 235.196C154.166 240.269 153.627 261.712 153.536 265.262C153.527 265.526 153.755 265.736 154.02 265.709L172.466 263.674L173.964 261.794L176.029 263.856L184.434 261.265C184.434 261.283 179.409 234.037 177.81 231.884Z" fill="#1F5B99"/>
<path d="M169.095 235.296V233.179L160.817 228.152" stroke="#0B334C" stroke-width="0.3084" stroke-miterlimit="10" stroke-linecap="round" stroke-linejoin="round"/>
<path d="M174.056 229.028L169.095 233.179" stroke="#0B334C" stroke-width="0.3084" stroke-miterlimit="10" stroke-linecap="round" stroke-linejoin="round"/>
<path d="M178.359 238.253H173.462V239.202H178.359V238.253Z" stroke="#0B334C" stroke-width="0.3084" stroke-miterlimit="10" stroke-linecap="round" stroke-linejoin="round"/>
<path d="M174.056 261.712V254.203" stroke="#0B334C" stroke-width="0.3084" stroke-miterlimit="10" stroke-linecap="round" stroke-linejoin="round"/>
<path d="M211.102 238.873L213.258 237.988C213.331 237.961 213.368 237.869 213.34 237.796L210.216 230.232C210.188 230.159 210.097 230.123 210.024 230.15L207.868 231.035C207.795 231.062 207.758 231.154 207.786 231.227L210.91 238.791C210.938 238.864 211.029 238.901 211.102 238.873Z" fill="#1F5B99"/>
<path d="M209.622 233.316L207.301 227.695L201.4 230.132C200.559 230.478 199.591 230.077 199.244 229.238L197.663 225.423C197.499 225.013 197.499 224.566 197.663 224.155C197.837 223.744 198.147 223.434 198.558 223.261L204.67 220.742L205.017 221.573L198.905 224.091C198.723 224.164 198.577 224.31 198.494 224.493C198.421 224.675 198.421 224.885 198.494 225.068L200.075 228.882C200.23 229.265 200.678 229.447 201.052 229.292L207.786 226.518L210.453 232.969L209.622 233.316Z" fill="#1F5B99"/>
<path d="M202.039 224.912L216.967 218.753C217.442 218.552 217.671 218.005 217.479 217.531L216.419 214.967C216.218 214.492 215.67 214.264 215.195 214.456L200.267 220.615C199.792 220.815 199.563 221.363 199.755 221.837L200.815 224.401C201.016 224.876 201.564 225.104 202.039 224.912Z" fill="#FCB13A"/>
<path d="M213.03 236.045C213.048 235.734 212.628 234.895 212.628 234.895C212.637 234.311 211.833 233.654 211.833 233.654C211.833 233.654 212.18 232.778 211.595 232.459C211.221 232.258 210.6 232.723 210.188 233.088C209.549 233.48 209.056 233.809 209.056 233.809C209.056 233.809 209.238 231.783 208.626 231.683C208.151 231.61 206.982 233.827 206.479 234.849C206.461 234.858 206.434 234.867 206.415 234.877L206.36 234.913C204.131 236.218 201.82 237.532 199.508 238.764C197.188 240.014 194.867 241.218 192.51 242.368C188.49 244.33 184.397 246.155 180.286 247.624C178.56 246.118 176.869 244.54 175.225 242.906C174.476 242.176 173.745 241.428 173.014 240.671C171.79 241.656 170.575 242.651 169.387 243.682C168.802 244.33 168.218 244.978 167.651 245.635C167.194 246.146 166.747 246.675 166.299 247.195C167.167 248.016 168.053 248.837 168.948 249.631C169.277 249.923 169.615 250.206 169.953 250.498C171.726 252.022 173.535 253.5 175.435 254.896C175.599 255.015 175.755 255.133 175.919 255.252C177.418 256.329 179.382 256.566 181.081 255.845C181.09 255.845 181.099 255.836 181.109 255.836C183.164 254.951 185.165 254.011 187.12 252.998C187.622 252.724 188.125 252.469 188.618 252.186C189.843 251.547 191.021 250.845 192.218 250.17C193.387 249.458 194.566 248.755 195.708 248.016C200.258 245.114 204.57 242.003 208.763 238.572C208.763 238.572 208.763 238.572 208.772 238.563C209.704 238.371 211.367 237.997 212.308 237.669C212.792 237.587 213.276 237.477 213.45 237.331C213.825 236.984 213.03 236.045 213.03 236.045ZM210.718 236.774C210.718 236.774 210.755 236.765 210.782 236.765V236.774C210.755 236.774 210.718 236.774 210.718 236.774Z" fill="#FA9778"/>
<path d="M174.202 241.894L167.953 248.746L169.853 250.434L174.202 241.894Z" fill="#0B334C"/>
<path d="M177.107 249.659C177.107 249.659 179.592 247.925 180.35 247.642" stroke="#0B334C" stroke-width="0.3084" stroke-miterlimit="10" stroke-linecap="round" stroke-linejoin="round"/>
<path d="M181.565 255.562C181.565 255.562 200.769 245.616 208.9 238.49L210.828 238.025" stroke="#0B334C" stroke-width="0.3084" stroke-miterlimit="10" stroke-linecap="round" stroke-linejoin="round"/>
<path d="M167.578 249.257L156.661 237.505C156.661 237.505 154.568 232.678 157.93 230.396C161.293 228.124 164.618 230.606 165.888 232.084C167.158 233.563 174.412 241.72 174.412 241.72L167.578 249.257Z" fill="#1F5B99"/>
<path d="M158.205 239.339L167.505 249.403L167.998 248.837" stroke="#0B334C" stroke-width="0.3084" stroke-miterlimit="10" stroke-linecap="round" stroke-linejoin="round"/>
<path d="M166.007 247.761L173.352 240.79" stroke="#0B334C" stroke-width="0.3084" stroke-miterlimit="10" stroke-linecap="round" stroke-linejoin="round"/>
<path d="M174.521 210.952C173.699 207.238 169.944 204.957 166.262 205.933C162.864 206.836 160.772 210.176 161.366 213.543C161.32 213.561 161.274 213.561 161.229 213.589C160.269 213.981 159.812 215.076 160.205 216.034C160.552 216.892 161.795 217.868 162.745 217.795C163.275 219.164 163.841 220.341 164.39 221.007C165.696 222.622 167.797 223.297 169.277 223.58C170.383 223.799 171.534 223.498 172.393 222.759C173.188 222.084 174.138 221.107 174.768 219.885C175.051 219.346 175.261 218.753 175.371 218.115C175.426 217.777 175.444 217.385 175.435 216.937C175.389 215.341 174.997 213.105 174.521 210.952Z" fill="#FA9778"/>
<path d="M170.456 214.702C170.648 215.304 170.858 215.788 171.004 216.399C171.05 216.691 171.141 217.01 171.004 217.394C170.858 217.786 170.502 217.923 170.209 217.987C170.401 217.731 170.566 217.485 170.566 217.275C170.575 217.074 170.492 216.801 170.438 216.509C170.319 215.961 170.182 215.295 170.456 214.702Z" fill="#0B334C"/>
<path d="M168.766 213.251C168.428 213.233 168.081 213.206 167.77 213.251C167.45 213.306 167.167 213.461 166.911 213.726L166.902 213.735C166.856 213.78 166.774 213.79 166.728 213.735C166.692 213.698 166.683 213.644 166.701 213.598C166.783 213.406 166.884 213.206 167.057 213.06C167.222 212.904 167.423 212.795 167.633 212.731C168.062 212.594 168.51 212.622 168.912 212.813C169.022 212.868 169.067 213.005 169.012 213.114C168.967 213.196 168.885 213.242 168.793 213.242L168.766 213.251Z" fill="#0B334C"/>
<path d="M172.1 212.822C172.502 212.631 172.95 212.603 173.379 212.74C173.59 212.804 173.8 212.913 173.955 213.069C174.129 213.215 174.229 213.415 174.311 213.607C174.339 213.671 174.311 213.744 174.247 213.771C174.202 213.789 174.147 213.78 174.11 213.744L174.101 213.735C173.845 213.47 173.562 213.315 173.242 213.26C172.923 213.215 172.575 213.242 172.247 213.26H172.21C172.082 213.269 171.982 213.169 171.973 213.05C171.973 212.941 172.027 212.859 172.1 212.822Z" fill="#0B334C"/>
<path d="M173.526 215.569C173.526 216.098 173.261 216.536 172.923 216.536C172.594 216.536 172.32 216.107 172.32 215.569C172.32 215.04 172.585 214.602 172.923 214.602C173.252 214.602 173.526 215.04 173.526 215.569Z" fill="#0B334C"/>
<path d="M168.693 215.569C168.693 216.098 168.428 216.536 168.09 216.536C167.761 216.536 167.487 216.107 167.487 215.569C167.487 215.04 167.752 214.602 168.09 214.602C168.419 214.602 168.693 215.04 168.693 215.569Z" fill="#0B334C"/>
<path d="M170.346 220.35C170.2 220.441 170.027 220.441 169.862 220.469C169.698 220.441 169.515 220.441 169.387 220.323C169.551 220.323 169.698 220.35 169.862 220.332C170.027 220.35 170.182 220.323 170.346 220.35Z" fill="#0B334C"/>
<path d="M171.47 219.31C171.159 219.739 170.657 220.031 170.09 220.067C169.807 220.067 169.524 219.994 169.296 219.83C169.058 219.675 168.903 219.456 168.784 219.228C169.186 219.556 169.606 219.83 170.081 219.784C170.556 219.784 171.013 219.556 171.47 219.31Z" fill="#0B334C"/>
<path d="M168.081 218.963C168.081 218.963 168.026 217.914 170.282 217.959C170.282 217.959 171.79 218.005 172.055 219.009C172.064 219 170.958 219.921 168.081 218.963Z" fill="#0B334C"/>
<path d="M162.307 209.912C162.288 209.912 162.27 209.902 162.252 209.902C160.79 209.547 159.237 210.331 158.744 211.764C158.698 211.892 158.661 212.01 158.634 212.138C158.095 214.2 158.579 216.472 159.822 218.215C160.845 219.657 162.361 220.724 164.033 221.299V220.533C163.595 219.848 163.156 218.89 162.727 217.795C161.777 217.877 160.543 216.892 160.205 216.043C159.959 215.45 160.05 214.802 160.379 214.3C160.781 213.689 161.658 213.589 162.27 213.99C162.672 214.246 163.01 214.611 163.165 215.103C163.165 215.103 163.96 215.24 164.243 214.912C164.39 214.738 164.225 213.543 164.207 212.375C164.179 211.216 163.421 210.185 162.307 209.912Z" fill="#0B334C"/>
<path d="M176.403 212.558C176.403 212.402 176.403 212.256 176.394 212.11C176.385 212.01 176.385 211.91 176.376 211.8C176.376 211.773 176.367 211.755 176.367 211.727C176.367 211.7 176.358 211.672 176.358 211.645C176.065 209.054 174.11 209.747 174.11 209.747C174.266 210.048 174.448 210.669 174.448 210.669C174.448 210.669 175.38 215.331 175.417 216.937C175.426 217.193 175.417 217.448 175.399 217.667C175.7 216.928 175.928 216.144 176.056 215.359C176.157 214.693 176.303 213.944 176.376 213.215C176.394 213.014 176.403 212.795 176.403 212.558Z" fill="#0B334C"/>
<path d="M355.679 367.184L350.81 373.699H355.871L355.679 367.184Z" fill="#FCB13A"/>
<path d="M395.567 367.184L400.437 373.699H395.375L395.567 367.184Z" fill="#FCB13A"/>
<path d="M395.595 367.184H355.679V388.481H395.595V367.184Z" fill="#FCB13A"/>
<path d="M398.317 375.935H352.948L355.679 367.184H395.595L398.317 375.935Z" fill="#FCB13A"/>
<path d="M395.558 367.248L397.669 373.654H399.432L395.558 367.248Z" fill="#0B334C"/>
<path d="M395.558 375.907H355.67V379.074L395.558 375.907Z" fill="#0B334C"/>
<path d="M307.021 365.989L309.287 371.418H303.394H299.484H290.457C290.457 371.418 288.384 374.548 286.337 378.408C283.194 384.32 285.853 391.648 292.065 394.166C299.685 397.241 308.291 396.411 315.143 392.003C327.641 388.728 343.492 383.527 348.188 377.358C354.227 369.411 307.021 365.989 307.021 365.989Z" fill="#0B334C"/>
<path d="M309.031 371.719C309.031 371.719 306.519 381.775 311.845 382.979C317.171 384.184 336.804 378.052 336.101 372.221" stroke="white" stroke-width="0.3305" stroke-miterlimit="10" stroke-linecap="round" stroke-linejoin="round"/>
<path d="M311.141 371.318L324.937 369.411" stroke="white" stroke-width="0.3305" stroke-miterlimit="10" stroke-linecap="round" stroke-linejoin="round"/>
<path d="M293.326 379.867L301.877 380.169C301.877 380.169 302.179 390.625 298.25 390.927C294.331 391.228 291.216 387.706 293.326 379.867Z" stroke="white" stroke-width="0.3305" stroke-miterlimit="10" stroke-linecap="round" stroke-linejoin="round"/>
<path d="M290.211 373.334C290.211 373.334 299.776 374.639 308.528 373.936" stroke="white" stroke-width="0.3305" stroke-miterlimit="10" stroke-linecap="round" stroke-linejoin="round"/>
<path d="M324.315 393.399C321.547 393.208 320.88 389.43 323.411 388.29C328.701 385.899 335.735 383.125 338.019 384.083C341.144 385.406 334.447 394.111 324.315 393.399Z" fill="#00A2DD"/>
<path d="M333.589 342.292C333.159 340.504 332.702 338.679 332.51 337.985C332.474 337.885 332.447 337.785 332.428 337.684C332.017 336.288 331.606 334.883 331.158 333.496C329.423 328.012 327.385 322.738 324.973 317.482C325.055 316.022 325.183 312.783 324.781 312.719C324.27 312.637 323.667 314.936 323.667 314.936C323.667 314.936 324.023 310.931 323.311 310.949C322.589 310.967 322.47 314.298 322.47 314.298C322.47 314.298 321.556 310.21 320.999 310.584C320.442 310.949 321.072 314.161 321.072 314.161C321.072 314.161 319.556 310.52 319.071 310.867C318.587 311.214 320.149 315.831 320.149 315.831C320.149 315.831 318.103 315.092 317.838 315.694C317.628 316.168 319.62 317.984 320.524 318.778C320.524 318.778 320.524 318.778 320.524 318.787C320.524 318.814 320.533 318.824 320.533 318.851L320.542 318.924C321.282 321.579 322.013 324.317 322.653 327.045C323.301 329.773 323.913 332.501 324.453 335.239C324.745 336.699 325.01 338.168 325.266 339.628C321.547 340.294 317.738 340.705 313.91 340.978C312.996 341.042 312.082 341.088 311.178 341.133C311.379 343.478 311.507 345.823 311.562 348.196C311.58 349.163 311.653 350.121 311.726 351.079C312.777 350.979 313.827 350.879 314.887 350.742C317.82 350.358 320.762 349.884 323.676 349.254C324.617 349.054 325.549 348.835 326.49 348.588C327.431 348.36 329.121 347.849 330.72 347.356C332.867 346.69 334.118 344.473 333.589 342.292Z" fill="#FFCBA1"/>
<path d="M325.211 339.527C325.211 339.527 325.668 342.767 326.271 343.898" stroke="#0B334C" stroke-width="0.3305" stroke-miterlimit="10" stroke-linecap="round" stroke-linejoin="round"/>
<path d="M313.261 351.216C313.261 351.216 296.149 354.337 292.623 349.61C289.096 344.884 294.733 341.17 295.848 341.07C296.953 340.969 312.256 340.869 312.256 340.869L313.261 351.216Z" fill="#F64652"/>
<path d="M302.435 339.938V330.649H295.126V339.938C295.126 341.051 294.359 342.055 293.235 342.055L292.668 342.164C303.184 350.833 304.527 341.955 304.527 341.955H304.454C303.348 341.955 302.435 341.051 302.435 339.938Z" fill="#FFCBA1"/>
<path d="M302.444 336.343V338.478C301.594 338.095 300.781 337.547 300.114 336.799C299.822 336.471 299.539 336.042 299.246 335.513C300.233 335.951 301.238 336.188 302.069 336.307C302.188 336.325 302.307 336.343 302.444 336.343Z" fill="#0B334C"/>
<path d="M294.605 341.38C294.605 341.38 303.494 341.462 304.6 341.964C305.705 342.466 310.84 347.393 311.543 350.404C312.247 353.415 307.916 362.367 308.419 364.073C308.921 365.779 310.876 371.409 310.876 371.409H289.699C289.699 371.409 292.413 360.952 289.9 354.72C287.388 348.497 288.036 341.599 294.605 341.38Z" fill="#F64652"/>
<path d="M370.087 373.991C370.005 373.398 365.199 372.595 365.199 372.595C365.199 372.595 366.825 371.144 366.414 370.624C366.094 370.223 363.555 371.108 362.422 371.528C362.403 371.519 362.376 371.509 362.358 371.509L362.285 371.491C359.599 370.889 356.821 370.232 354.126 369.511C351.413 368.799 348.709 368.051 346.05 367.23C340.724 365.597 335.48 363.763 330.583 361.509C325.732 359.255 321.09 356.417 316.586 353.324C315.079 352.293 313.599 351.225 312.137 350.13C311.827 350.705 311.516 351.28 311.224 351.846C310.018 354.173 308.83 356.718 307.469 359.136C308.711 359.967 309.972 360.77 311.251 361.554C313.782 363.087 316.376 364.538 319.044 365.87C321.73 367.175 324.48 368.407 327.33 369.429C330.162 370.433 332.995 371.336 335.845 372.048C337.27 372.431 338.696 372.75 340.121 373.079C341.555 373.38 342.98 373.681 344.415 373.937C350.079 374.986 355.716 375.698 361.49 376.063C362.751 376.829 365.519 378.453 365.766 378.134C366.076 377.723 364.34 376.108 364.34 376.108C364.34 376.108 367.711 378.316 368.031 377.678C368.351 377.03 365.473 375.351 365.473 375.351C365.473 375.351 369.511 376.473 369.447 375.807C369.383 375.141 366.25 374.183 366.25 374.183C366.25 374.183 370.16 374.575 370.087 373.991Z" fill="#FFCBA1"/>
<path d="M310.538 361.773C310.538 361.773 293.025 353.935 294.633 346.389C296.241 338.852 303.083 342.265 305.605 344.984C308.117 347.694 316.559 353.324 316.559 353.324L310.538 361.773Z" fill="#F64652"/>
<path d="M309.058 361.171C309.058 361.171 298.26 354.839 295.245 350.988" stroke="#0B334C" stroke-width="0.3305" stroke-miterlimit="10" stroke-linecap="round" stroke-linejoin="round"/>
<path d="M312.905 350.687L304.755 344.199" stroke="#0B334C" stroke-width="0.3305" stroke-miterlimit="10" stroke-linecap="round" stroke-linejoin="round"/>
<path d="M309.46 329.308C309.342 329.144 309.177 329.034 309.031 328.906C308.684 328.605 308.428 328.231 308.236 327.811C308.035 326.269 307.633 324.426 307.158 322.629C306.135 318.696 302.033 316.424 298.141 317.61C294.258 318.796 292.12 322.975 293.463 326.799C294.459 329.646 295.656 332.538 296.743 333.77C298.205 335.44 300.48 336.078 302.06 336.316C303.248 336.498 304.463 336.133 305.349 335.312C306.171 334.564 307.149 333.478 307.761 332.155C307.935 331.79 308.063 331.397 308.172 330.987C308.547 330.695 308.921 330.403 309.305 330.111C309.396 330.038 309.488 329.965 309.543 329.864C309.634 329.682 309.57 329.463 309.46 329.308Z" fill="#FFCBA1"/>
<path d="M304.938 330.54C304.938 331.48 304.18 332.237 303.239 332.237C302.298 332.237 301.539 331.48 301.539 330.54C301.539 329.6 302.298 328.843 303.239 328.843C304.18 328.843 304.938 329.6 304.938 330.54Z" fill="#FFB285"/>
<path d="M306.199 325.138C305.842 325.12 305.468 325.092 305.13 325.138C304.792 325.202 304.481 325.366 304.216 325.649L304.207 325.658C304.152 325.713 304.07 325.713 304.024 325.658C303.988 325.621 303.97 325.558 303.997 325.512C304.088 325.311 304.198 325.092 304.381 324.937C304.554 324.773 304.774 324.654 305.002 324.581C305.459 324.435 305.934 324.463 306.363 324.673C306.482 324.727 306.537 324.873 306.473 324.992C306.427 325.083 306.336 325.129 306.244 325.129L306.199 325.138Z" fill="#0B334C"/>
<path d="M305.669 332.547C305.486 332.575 305.322 332.502 305.148 332.465C305.002 332.374 304.819 332.301 304.746 332.127C304.911 332.2 305.048 332.283 305.212 332.328C305.349 332.41 305.514 332.447 305.669 332.547Z" fill="#0B334C"/>
<path d="M307.204 331.981C306.72 332.273 306.107 332.355 305.532 332.164C305.258 332.054 305.002 331.854 304.847 331.607C304.682 331.361 304.609 331.078 304.591 330.795C304.856 331.288 305.157 331.726 305.641 331.881C306.117 332.063 306.656 332.027 307.204 331.981Z" fill="#0B334C"/>
<path d="M306.436 327.948C306.025 327.83 305.705 327.766 305.377 327.793C305.048 327.802 304.719 327.903 304.308 328.012C304.408 327.821 304.554 327.665 304.737 327.547C304.911 327.419 305.139 327.364 305.358 327.346C305.806 327.319 306.263 327.556 306.436 327.948Z" fill="#0B334C"/>
<path d="M307.925 320.466C307.524 318.906 306.564 317.501 305.212 316.652C304.426 316.159 303.531 315.858 302.617 315.703C300.48 315.32 298.205 315.73 296.323 316.816C295.674 317.19 295.062 317.637 294.496 318.121C293.774 318.732 293.098 319.398 292.54 320.174C291.59 321.515 291.353 323.286 291.07 324.901C290.649 327.346 289.599 329.627 288.438 331.826C287.918 332.83 287.36 333.815 287.041 334.901C286.712 335.987 286.629 337.182 287.05 338.232C287.497 339.354 288.521 340.212 289.681 340.577C290.521 340.841 292.979 340.978 294.578 341.115C295.93 341.234 297.328 340.933 298.397 340.102C302.681 336.79 296.807 330.166 296.807 330.166C293.28 327.602 296.25 325.941 296.25 325.941C296.962 326.032 297.638 326.032 298.296 325.996C298.607 326.461 298.945 327.237 298.771 328.359C298.771 328.359 300.333 326.789 300.827 325.558C304.244 324.536 306.409 322.182 306.838 321.68C306.966 321.99 307.085 322.309 307.176 322.638C307.368 323.359 307.551 324.098 307.706 324.819C308.19 323.422 308.291 321.899 307.925 320.466Z" fill="#0B334C"/>
<path d="M337.946 41.1324L348.837 47.3281L360.302 25L337.946 41.1324Z" fill="#8EE4FD"/>
<path d="M337.946 41.1323L337.572 49.3902L344.515 44.8826L337.946 41.1323Z" fill="#84D3EB"/>
<path d="M337.572 49.3902L333.625 40.0101L360.302 25L337.946 41.1324L337.572 49.3902Z" fill="#51BAD9"/>
<path d="M360.302 25L324.608 36.8164L333.625 40.0101L360.302 25Z" fill="#8EE4FD"/>
<path d="M501.061 234.74H460.232V187.839H490.984L501.061 198.798V234.74Z" fill="#8EE4FD"/>
<path d="M490.984 187.839L488.17 198.925L501.061 198.798L490.984 187.839Z" fill="#8EE4FD"/>
<path d="M490.847 187.748L488.216 199.007L500.988 198.907" stroke="#0B334C" stroke-width="0.9252" stroke-miterlimit="10" stroke-linecap="round" stroke-linejoin="round"/>
<path d="M161.238 99.6579C164.106 98.7911 167.057 99.1835 169.506 100.516L161.603 74.4282L137.74 81.6458C137.895 80.2498 137.776 78.7989 137.347 77.3664C135.639 71.7182 129.655 68.5154 123.999 70.2309C118.344 71.9372 115.137 77.9139 116.855 83.562C117.293 84.9946 117.997 86.2629 118.901 87.3396L95.029 94.5573L102.932 120.645C104.22 118.181 106.458 116.219 109.336 115.352C114.991 113.646 120.966 116.84 122.675 122.488C124.392 128.145 121.195 134.113 115.539 135.819C112.671 136.686 109.72 136.293 107.271 134.961L115.174 161.049L139.046 153.831C138.891 155.227 139.01 156.678 139.439 158.111C141.148 163.759 147.132 166.962 152.787 165.246C158.442 163.54 161.649 157.563 159.931 151.915C159.493 150.482 158.789 149.214 157.885 148.137L181.748 140.92L173.845 114.832C172.557 117.296 170.319 119.258 167.441 120.125C161.786 121.831 155.802 118.646 154.093 112.989C152.376 107.341 155.583 101.373 161.238 99.6579Z" fill="#00A2DD"/>
<path d="M116.435 157.59L137.566 151.395" stroke="#0B334C" stroke-width="0.9252" stroke-miterlimit="10" stroke-linecap="round" stroke-linejoin="round"/>
<path d="M139.823 84.1459L160.671 77.5305" stroke="#0B334C" stroke-width="0.9252" stroke-miterlimit="10" stroke-linecap="round" stroke-linejoin="round"/>
<path d="M464.544 377.459L465.238 388.326L469.012 388.134C469.012 388.134 470.035 383.709 471.149 377.449H464.544V377.459Z" fill="#CC6F49"/>
<path d="M465.147 387.277C465.147 387.277 467.458 388.801 469.203 387.277L469.569 388.29C469.889 389.175 470.053 390.106 470.053 391.045V391.328L457.921 391.337C457.921 390.461 458.469 389.686 459.291 389.385L465.147 387.277Z" fill="#0B334C"/>
<path d="M483.529 377.458L484.68 388.426L488.453 388.144C488.453 388.144 489.294 383.727 490.216 377.458H483.529Z" fill="#CC6F49"/>
<path d="M484.643 387.268C484.643 387.268 486.955 388.791 488.7 387.268L489.065 388.28C489.385 389.166 489.549 390.096 489.549 391.036V391.319H477.417C477.417 390.443 477.965 389.667 478.787 389.366L484.643 387.268Z" fill="#0B334C"/>
<path d="M461.346 268.866C461.2 269.204 461.072 269.551 460.926 269.888C458.898 274.624 456.632 279.223 453.91 283.457C451.151 287.709 447.907 291.815 444.481 295.793C442.773 297.782 441.001 299.744 439.201 301.679C437.419 303.613 435.537 305.529 433.701 307.363L433.655 307.409C432.796 308.267 432.796 309.653 433.655 310.502C434.432 311.269 435.629 311.351 436.487 310.73C440.964 307.5 445.148 304.06 449.177 300.319C450.191 299.388 451.169 298.43 452.156 297.472C453.124 296.487 454.102 295.519 455.043 294.497C456.961 292.499 458.761 290.355 460.506 288.128C462.26 285.884 463.822 283.511 465.302 281.121C466.755 278.712 468.08 276.248 469.331 273.757C469.669 273.073 469.98 272.379 470.3 271.686C467.267 270.901 464.27 270.007 461.346 268.866Z" fill="#CC6F49"/>
<path d="M434.149 307.345C434.149 307.345 430.037 308.121 429.973 308.741C429.909 309.362 431.938 309.699 431.938 309.699C431.938 309.699 428.512 312.756 428.749 313.276C428.987 313.787 431.919 311.497 431.919 311.497C431.919 311.497 429.909 313.842 430.202 314.398C430.485 314.955 433.134 312.035 433.134 312.035C433.134 312.035 431.691 314.827 432.276 315.174C432.86 315.521 434.423 312.072 434.423 312.072C434.423 312.072 433.856 314.234 434.313 314.407C434.77 314.581 436.981 309.982 436.981 309.982L434.149 307.345Z" fill="#CC6F49"/>
<path d="M474.822 261.685C474.74 261.922 474.658 262.16 474.575 262.397C472.73 267.488 469.852 273.647 469.852 273.647L469.459 273.501L466.728 272.461L465.229 271.886H465.22L465.156 271.859L460.798 270.198L460.415 270.052C460.415 270.052 461.018 268.62 461.812 266.64C461.822 266.631 461.822 266.631 461.822 266.631C462.37 265.271 463.009 263.665 463.621 262.087C463.676 261.931 463.74 261.767 463.804 261.612C464.005 261.083 464.197 260.563 464.38 260.061C464.389 260.052 464.398 260.033 464.398 260.024C464.681 259.258 464.946 258.528 465.156 257.889C465.357 257.323 465.513 256.822 465.631 256.411C465.988 255.124 466.755 254.185 467.632 253.482C468.838 252.515 470.263 252.013 471.159 251.739C471.177 251.73 471.195 251.73 471.213 251.721C471.223 251.721 471.232 251.721 471.232 251.712C471.442 251.648 471.624 251.602 471.762 251.557C471.771 251.557 471.78 251.548 471.789 251.548C471.807 251.538 471.835 251.538 471.862 251.529H471.889C472.967 251.383 474.877 253.309 475.791 255.599C475.8 255.617 475.8 255.626 475.8 255.635C475.864 255.781 475.918 255.927 475.964 256.073C475.973 256.092 475.973 256.11 475.982 256.128C476.256 256.977 475.699 259.148 474.822 261.685Z" fill="#FCB13A"/>
<path d="M481.172 252.086C480.432 253.181 479.71 254.011 479.016 254.622C478.65 254.951 478.285 255.206 477.937 255.416C477.609 255.617 477.28 255.763 476.969 255.873C476.622 255.982 476.293 256.046 475.964 256.073C475.873 256.082 475.772 256.082 475.681 256.082C475.233 256.082 474.813 256.009 474.42 255.863C473.808 255.663 473.251 255.334 472.757 254.933C472.73 254.924 472.712 254.905 472.693 254.887C472.154 254.449 471.707 253.956 471.341 253.5C471.159 253.263 470.994 253.035 470.866 252.834C470.674 252.56 470.546 252.341 470.473 252.214C470.428 252.131 470.4 252.086 470.4 252.086H470.464C470.537 252.086 470.61 252.086 470.674 252.077C471.113 252.022 471.497 251.83 471.789 251.547C471.825 251.52 471.853 251.493 471.88 251.456L471.889 251.447C472.191 251.109 472.374 250.662 472.374 250.179V241.428H479.262V243.901C479.262 243.91 479.262 243.91 479.262 243.91V250.179C479.262 250.535 479.363 250.872 479.536 251.164C479.664 251.383 479.847 251.575 480.057 251.721C480.194 251.83 480.359 251.912 480.523 251.967C480.724 252.049 480.943 252.086 481.172 252.086Z" fill="#CC6F49"/>
<path d="M479.262 243.91V244.129C478.942 244.804 478.614 245.361 478.294 245.744C476.987 247.368 474.868 248.044 473.379 248.336C473.041 248.399 472.712 248.418 472.374 248.39V246.94C472.894 247.067 473.452 247.095 473.991 246.985C475.48 246.702 477.599 246.018 478.915 244.394C479.025 244.257 479.143 244.093 479.262 243.91Z" fill="#0B334C"/>
<path d="M483.465 271.211C482.944 273.292 482.688 274.97 483.072 275.773C484.205 278.118 485.146 280.235 485.146 280.235H463.21C463.21 280.235 464.407 278.83 465.403 276.896C465.869 275.983 466.298 274.961 466.536 273.912V273.903C466.645 273.428 466.718 272.945 466.728 272.461C466.755 271.832 466.691 271.22 466.499 270.627C466.49 270.6 466.481 270.572 466.472 270.545C465.385 267.333 463.886 264.623 463.64 262.342C463.63 262.251 463.621 262.169 463.621 262.086C463.576 261.502 463.63 260.946 463.795 260.417C464.014 259.723 464.508 258.838 465.156 257.889C466.07 256.566 467.294 255.124 468.509 253.92C468.692 253.737 468.875 253.564 469.048 253.409C469.541 252.953 470.017 252.551 470.473 252.214C470.537 252.168 470.61 252.122 470.674 252.077C470.857 251.94 471.04 251.83 471.213 251.721C471.223 251.721 471.232 251.721 471.232 251.712C471.286 251.684 471.332 251.657 471.378 251.639L471.405 251.62L471.899 251.392L471.889 251.447V251.529C471.853 252.022 471.826 253.756 472.721 254.887C472.73 254.905 472.739 254.914 472.757 254.933C473.105 255.371 473.598 255.708 474.292 255.845C474.338 255.854 474.384 255.863 474.42 255.863C474.904 255.936 475.361 255.836 475.8 255.635C475.818 255.626 475.836 255.617 475.845 255.608C477.8 254.668 479.299 251.602 479.491 251.201L479.481 251.246C479.454 251.392 479.491 251.657 480.011 251.839C480.139 251.894 480.313 251.931 480.523 251.967C480.742 251.995 480.998 252.022 481.318 252.022C481.391 252.031 481.464 252.031 481.546 252.031C482.341 252.031 483.127 252.195 483.821 252.579C485.182 253.336 487.074 254.969 486.854 258.145C486.854 258.218 486.845 258.291 486.836 258.373C486.525 261.393 484.881 266.083 483.812 269.915C483.766 270.107 483.711 270.29 483.666 270.481C483.593 270.727 483.529 270.974 483.465 271.211Z" fill="#FCB13A"/>
<path d="M491.011 347.867C493.103 358.324 492.5 370.478 491.468 379.576H481.555L475.069 315.511L475.041 315.219L475.023 315.539L472.885 347.959C474.475 356.682 473.315 369.794 471.999 379.576H463.073C462.032 362.485 460.204 332.684 459.035 314.809C459.035 314.772 459.026 314.745 459.026 314.708C458.825 311.588 458.633 308.832 458.478 306.578C458.295 303.896 458.149 301.925 458.048 300.866C457.783 297.965 458.286 294.525 459.126 291.075C459.273 290.473 459.428 289.871 459.592 289.278C460.259 286.832 461.063 284.442 461.849 282.279C462.05 281.732 462.242 281.212 462.443 280.701C463.009 279.186 463.557 277.826 464.005 276.713C464.544 275.354 464.946 274.359 465.092 273.857C465.229 273.383 465.238 272.689 465.156 271.859C465.156 271.832 465.147 271.795 465.147 271.768V271.759C465.092 271.257 465.01 270.7 464.9 270.125C464.626 268.693 464.224 267.105 463.831 265.736C463.521 264.614 463.457 263.455 463.64 262.342C463.685 262.095 463.731 261.849 463.804 261.612C463.941 261.074 464.133 260.553 464.38 260.061C464.389 260.052 464.398 260.033 464.398 260.024C464.581 259.668 464.791 259.322 465.028 258.993L468.655 253.956L469.048 253.409L469.788 252.378L470.4 252.086H470.409L471.159 251.739L471.378 251.639L471.405 251.62L471.899 251.392L471.889 251.447L471.88 251.456L471.862 251.529L471.341 253.5L471.076 254.513L469.313 261.192L474.822 261.685L475.608 261.758L477.709 256.037L477.937 255.416L479.481 251.246L479.491 251.201L479.509 251.155L479.536 251.164L481.336 251.903L481.318 252.022L481.117 253.099L480.477 256.675L479.363 262.88L482.798 269.851L483.099 270.454L483.465 271.211L485.813 275.974C485.813 275.974 486.087 276.795 486.617 278.337C487.814 281.796 490.262 288.858 493.642 298.339C498.521 312.035 491.011 347.867 491.011 347.867Z" fill="#0B334C"/>
<path d="M471.049 252.186L468.162 261.895L476.192 262.524L480.139 251.474" stroke="white" stroke-width="0.3084" stroke-miterlimit="10" stroke-linecap="round" stroke-linejoin="round"/>
<path d="M471.963 317.327L478.449 313.531" stroke="white" stroke-width="0.3084" stroke-miterlimit="10" stroke-linecap="round" stroke-linejoin="round"/>
<path d="M473.589 290.665H490.07" stroke="white" stroke-width="0.3084" stroke-miterlimit="10" stroke-linecap="round" stroke-linejoin="round"/>
<path d="M484.789 290.738C484.789 290.738 485.356 303.257 491.906 303.896" stroke="white" stroke-width="0.3084" stroke-miterlimit="10" stroke-linecap="round" stroke-linejoin="round"/>
<path d="M487.74 290.738C487.74 290.738 492.318 300.583 492.034 306.076C491.751 311.56 488.508 348.643 488.508 348.643V377.833" stroke="white" stroke-width="0.3084" stroke-miterlimit="10" stroke-linecap="round" stroke-linejoin="round"/>
<path d="M473.095 316.488L471.478 347.931C471.478 347.931 471.067 363.069 470.081 378.271" stroke="white" stroke-width="0.3084" stroke-miterlimit="10" stroke-linecap="round" stroke-linejoin="round"/>
<path d="M442.867 237.498L381.094 277.521L421.167 339.218L482.94 299.195L442.867 237.498Z" fill="white"/>
<path d="M440.758 247.359L390.964 279.62L423.266 329.353L473.06 297.091L440.758 247.359Z" fill="#8EE4FD"/>
<path d="M467.23 288.083L473.086 297.098L423.286 329.363L414.497 315.831C416.224 310.63 419.43 305.857 424.099 303.047C428.046 300.665 432.705 299.835 437.246 299.041C445.112 297.673 457.93 290.993 467.23 288.083Z" fill="#2CD0D1"/>
<path d="M436.953 270.417C438.872 273.374 438.031 277.325 435.071 279.241C432.111 281.157 428.155 280.318 426.237 277.361C424.318 274.405 425.159 270.454 428.119 268.538C431.079 266.621 435.035 267.47 436.953 270.417Z" fill="#FCB13A"/>
<path d="M442.919 237.486L381.169 277.525L421.029 339.299L483.017 299.333L442.919 237.486Z" stroke="#0B334C" stroke-width="0.3084" stroke-miterlimit="10" stroke-linecap="round" stroke-linejoin="round"/>
<path d="M477.956 269.204C477.956 270.372 477.947 271.53 477.919 272.689C477.874 274.478 477.791 276.257 477.673 278.027C474.731 277.89 471.752 277.635 468.783 277.306C466.17 277.014 463.557 276.668 460.935 276.266C458.322 275.883 455.682 275.408 453.133 274.934L453.069 274.925C453.051 274.925 453.033 274.916 453.014 274.925C452.201 274.14 450.319 272.406 449.89 272.644C449.342 272.945 450.201 274.806 450.201 274.806C450.201 274.806 445.742 273.711 445.45 274.186C445.157 274.669 448.702 275.792 448.702 275.792C448.702 275.792 445.633 275.454 445.331 276.011C445.03 276.567 448.94 277.096 448.94 277.096C448.94 277.096 445.815 277.48 445.861 278.155C445.898 278.83 449.643 278.173 449.643 278.173C449.643 278.173 447.533 278.921 447.652 279.396C447.743 279.761 450.749 279.387 452.128 279.195C457.244 281.029 462.388 282.517 467.687 283.721C469.03 284.04 470.382 284.305 471.734 284.579C473.086 284.825 474.438 285.09 475.818 285.272C476.174 285.327 476.531 285.382 476.887 285.427C477.773 285.564 479.098 285.701 480.432 285.838C483.172 286.102 485.685 284.241 486.169 281.54C486.169 281.522 486.178 281.513 486.178 281.495C486.37 280.336 486.534 279.168 486.671 278.009C486.882 276.385 487.046 274.779 487.174 273.173C487.265 272.105 487.311 271.029 487.366 269.961C484.196 270.052 480.961 269.778 477.956 269.204Z" fill="#CC6F49"/>
<path d="M487.914 257.46C487.914 257.88 487.887 258.208 487.887 258.373C487.887 259.358 487.539 270.618 487.539 270.618L487.32 270.609L483.666 270.481L483.099 270.454L477.956 270.271L477.673 270.262C477.673 270.262 478.741 262.342 480.13 256.593C480.441 255.27 480.779 254.066 481.117 253.099C481.263 252.697 481.4 252.341 481.546 252.031C487.329 251.931 487.896 255.617 487.914 257.46Z" fill="#FCB13A"/>
<path d="M483.118 239.393C482.761 240.251 481.51 241.236 480.56 241.163C480.139 242.249 479.701 243.217 479.262 243.901C479.262 243.91 479.262 243.91 479.262 243.91C479.143 244.092 479.025 244.257 478.915 244.394C477.599 246.018 475.48 246.702 473.991 246.985C473.443 247.094 472.894 247.076 472.374 246.949C471.826 246.812 471.305 246.547 470.866 246.164C470.062 245.479 469.103 244.503 468.482 243.271C468.189 242.724 467.979 242.131 467.87 241.483C467.815 241.154 467.797 240.753 467.806 240.306C467.833 238.691 468.226 236.446 468.71 234.283C469.532 230.542 473.315 228.252 477.015 229.238C480.441 230.141 482.542 233.508 481.939 236.893C481.985 236.911 482.04 236.92 482.085 236.939C483.045 237.331 483.51 238.426 483.118 239.393Z" fill="#CC6F49"/>
<path d="M474.877 241.674C474.877 242.56 475.59 243.271 476.476 243.271C477.362 243.271 478.075 242.56 478.075 241.674C478.075 240.789 477.362 240.078 476.476 240.078C475.59 240.078 474.877 240.789 474.877 241.674Z" fill="#C4533A"/>
<path d="M470.218 241.674C470.218 242.56 469.505 243.28 468.619 243.28C468.573 243.28 468.527 243.28 468.482 243.271C468.189 242.724 467.979 242.131 467.87 241.483C467.815 241.154 467.797 240.753 467.806 240.306C468.043 240.16 468.317 240.078 468.619 240.078C469.505 240.078 470.218 240.789 470.218 241.674Z" fill="#C4533A"/>
<path d="M472.794 238.043C473.068 238.645 472.931 239.32 472.821 239.868C472.757 240.151 472.684 240.433 472.684 240.634C472.684 240.835 472.858 241.09 473.041 241.346C472.748 241.282 472.392 241.145 472.237 240.753C472.1 240.37 472.191 240.041 472.237 239.749C472.383 239.147 472.602 238.645 472.794 238.043Z" fill="#0B334C"/>
<path d="M474.347 236.154C474.749 235.953 475.197 235.935 475.626 236.072C475.845 236.136 476.046 236.254 476.211 236.409C476.384 236.555 476.485 236.756 476.567 236.948C476.595 237.012 476.567 237.085 476.503 237.112C476.457 237.13 476.403 237.121 476.366 237.085L476.357 237.075C476.101 236.811 475.818 236.656 475.489 236.601C475.169 236.555 474.822 236.583 474.484 236.601H474.448C474.32 236.61 474.21 236.51 474.21 236.391C474.219 236.282 474.274 236.199 474.347 236.154Z" fill="#0B334C"/>
<path d="M470.994 236.583C470.656 236.565 470.309 236.537 469.989 236.583C469.669 236.638 469.386 236.793 469.121 237.057L469.112 237.066C469.066 237.112 468.984 237.121 468.939 237.066C468.902 237.03 468.893 236.975 468.911 236.93C468.993 236.738 469.094 236.537 469.267 236.391C469.432 236.236 469.633 236.117 469.852 236.054C470.281 235.917 470.729 235.944 471.131 236.136C471.241 236.19 471.296 236.327 471.232 236.437C471.186 236.519 471.104 236.565 471.012 236.565L470.994 236.583Z" fill="#0B334C"/>
<path d="M470.309 239.895C470.642 239.895 470.912 239.462 470.912 238.928C470.912 238.394 470.642 237.961 470.309 237.961C469.976 237.961 469.706 238.394 469.706 238.928C469.706 239.462 469.976 239.895 470.309 239.895Z" fill="#0B334C"/>
<path d="M474.566 238.928C474.566 239.466 474.84 239.895 475.169 239.895C475.507 239.895 475.772 239.457 475.772 238.928C475.772 238.389 475.498 237.961 475.169 237.961C474.84 237.951 474.566 238.389 474.566 238.928Z" fill="#0B334C"/>
<path d="M474.192 242.587C474.338 242.496 474.493 242.459 474.63 242.377C474.786 242.34 474.913 242.258 475.069 242.185C474.996 242.35 474.831 242.423 474.685 242.505C474.521 242.55 474.365 242.614 474.192 242.587Z" fill="#0B334C"/>
<path d="M472.739 242.058C473.26 242.112 473.771 242.14 474.21 241.957C474.667 241.811 474.95 241.392 475.197 240.935C475.178 241.2 475.114 241.465 474.95 241.702C474.804 241.939 474.566 242.122 474.301 242.231C473.771 242.404 473.196 242.331 472.739 242.058Z" fill="#0B334C"/>
<path d="M489.887 249.85C489.403 247.523 488.544 245.197 486.644 243.764C487.156 241.966 487.128 239.996 486.452 238.244C485.776 236.501 484.588 234.931 482.88 234.174C483.063 232.842 478.805 224.757 470.208 228.48C468.262 229.32 467.358 231.637 467.614 234.101C466.262 235.296 465.549 237.103 465.421 238.901C465.293 240.707 465.695 242.505 466.28 244.22C466.609 245.169 467.002 246.173 467.431 247.085C466.728 247.715 466.316 248.646 466.243 249.586C466.17 250.525 466.408 251.474 466.846 252.314C467.056 252.734 467.321 253.126 467.632 253.482C468.838 252.515 470.263 252.013 471.159 251.739L471.378 251.639L471.405 251.62C471.579 251.529 471.743 251.447 471.899 251.392L471.889 251.447C472.191 251.109 472.374 250.662 472.374 250.179V246.949C471.825 246.812 471.305 246.547 470.866 246.164C470.062 245.479 469.103 244.503 468.482 243.271C468.189 242.724 467.979 242.131 467.87 241.483C467.815 241.154 467.796 240.753 467.806 240.306C467.824 239.129 468.043 237.623 468.345 236.063C469.176 236.09 470.948 235.926 472.721 234.265C472.721 234.265 473.406 238.408 478.394 237.952C478.394 237.952 478.093 240.005 479.153 240.16C479.947 240.269 481.309 238.043 481.957 236.902C482.003 236.921 482.049 236.93 482.094 236.948C483.054 237.34 483.52 238.435 483.127 239.402C482.77 240.26 481.519 241.246 480.569 241.173C480.148 242.258 479.71 243.226 479.271 243.91C479.271 243.919 479.271 243.919 479.271 243.919V250.188C479.271 250.544 479.372 250.881 479.545 251.173L481.345 251.912L481.327 252.031C481.4 252.04 481.473 252.04 481.555 252.04C487.338 251.94 487.905 255.626 487.923 257.469C488.965 256.037 489.915 254.504 490.116 252.77C490.216 251.785 490.088 250.808 489.887 249.85Z" fill="#0B334C"/>
</g>
<defs>
<clipPath id="clip0_4_1334">
<rect width="488" height="371" fill="white" transform="translate(56 25)"/>
</clipPath>
</defs>
</svg>
