<svg width="401" height="335" viewBox="0 0 401 335" fill="none" xmlns="http://www.w3.org/2000/svg">
<rect width="401" height="333" fill="#D1B4FF"/>
<path d="M309.222 294.743C303.43 300.841 297.949 304.774 293.619 307.881C242.717 344.403 182.487 333.757 169.687 331.158C150.785 327.319 114.246 319.898 87.83 288.833C47.8647 241.834 54.0874 167.789 85.0874 118.91C90.7577 109.97 120.71 60.3476 181.589 52.3889C218.432 47.5728 261.38 57.2859 292.481 83.3429C357.764 138.038 353.116 248.532 309.222 294.743Z" fill="url(#paint0_linear_4_1342)"/>
<g opacity="0.3">
<path opacity="0.3" d="M103.436 129.05C103.518 128.516 104.018 128.15 104.55 128.232C105.588 128.391 106.647 128.506 107.699 128.577C108.232 128.613 108.636 129.068 108.611 129.599C108.611 129.605 108.61 129.611 108.61 129.618C108.574 130.157 108.107 130.564 107.569 130.529C106.461 130.455 105.346 130.333 104.255 130.165C103.756 130.089 103.403 129.648 103.426 129.154C103.428 129.119 103.431 129.085 103.436 129.05ZM112.846 128.565C113.897 128.492 114.956 128.372 115.992 128.21C116.525 128.126 117.026 128.491 117.109 129.024C117.191 129.56 116.828 130.058 116.294 130.141C115.204 130.312 114.09 130.438 112.983 130.516C112.444 130.554 111.976 130.148 111.938 129.61C111.935 129.571 111.935 129.532 111.937 129.493C111.961 129.005 112.346 128.601 112.846 128.565ZM121.005 127.063C122.011 126.757 123.016 126.405 123.992 126.013C124.493 125.813 125.062 126.056 125.264 126.557C125.463 127.059 125.221 127.627 124.719 127.829C123.691 128.24 122.632 128.613 121.574 128.934C121.057 129.09 120.511 128.799 120.354 128.282C120.321 128.172 120.308 128.06 120.313 127.952C120.332 127.551 120.599 127.187 121.005 127.063ZM128.624 123.773C129.538 123.25 130.439 122.68 131.303 122.082C131.747 121.775 132.357 121.886 132.664 122.328C132.971 122.772 132.86 123.381 132.417 123.689C131.507 124.319 130.558 124.919 129.597 125.469C129.128 125.737 128.531 125.575 128.263 125.107C128.167 124.939 128.126 124.755 128.134 124.575C128.149 124.253 128.323 123.945 128.624 123.773ZM135.32 118.867C136.093 118.156 136.846 117.401 137.558 116.624C137.923 116.226 138.542 116.2 138.94 116.565C139.338 116.93 139.364 117.549 138.999 117.946C138.25 118.763 137.457 119.557 136.644 120.305C136.247 120.671 135.628 120.646 135.263 120.248C135.079 120.047 134.994 119.791 135.005 119.539C135.018 119.292 135.123 119.049 135.32 118.867ZM140.764 112.602C141.361 111.737 141.928 110.834 142.449 109.921C142.717 109.452 143.315 109.289 143.783 109.557C144.253 109.825 144.416 110.421 144.148 110.891C143.599 111.852 143.002 112.802 142.374 113.713C142.067 114.157 141.458 114.27 141.013 113.963C140.725 113.763 140.576 113.437 140.592 113.11C140.6 112.935 140.656 112.759 140.764 112.602ZM145.231 76.569C145.732 76.3695 146.301 76.614 146.501 77.1153C146.911 78.1434 147.281 79.2032 147.601 80.264C147.757 80.7806 147.464 81.3269 146.947 81.4823C146.431 81.6378 145.886 81.3453 145.729 80.8287C145.425 79.82 145.073 78.8144 144.685 77.8385C144.631 77.7045 144.61 77.5664 144.616 77.4314C144.633 77.0611 144.863 76.7163 145.231 76.569ZM144.681 105.291C145.07 104.315 145.421 103.309 145.725 102.304C145.881 101.787 146.427 101.495 146.944 101.651C147.462 101.808 147.751 102.353 147.597 102.871C147.277 103.93 146.906 104.988 146.496 106.016C146.296 106.517 145.727 106.762 145.226 106.562C144.828 106.404 144.592 106.013 144.611 105.608C144.616 105.502 144.64 105.395 144.681 105.291ZM147.683 84.7313C148.217 84.6484 148.716 85.0147 148.799 85.5486C148.968 86.6422 149.092 87.7562 149.167 88.862C149.207 89.4011 148.797 89.8676 148.259 89.9044C147.72 89.9413 147.253 89.5341 147.216 88.996C147.145 87.9455 147.027 86.8857 146.867 85.8473C146.856 85.7809 146.853 85.7154 146.856 85.6509C146.877 85.1947 147.215 84.8029 147.683 84.7313ZM146.865 97.2893C147.025 96.2509 147.144 95.1922 147.215 94.1426C147.252 93.6035 147.719 93.1974 148.258 93.2342C148.79 93.271 149.193 93.7263 149.167 94.2562C149.167 94.2633 149.166 94.2705 149.166 94.2766C149.091 95.3824 148.967 96.4965 148.797 97.59C148.714 98.124 148.215 98.4892 147.681 98.4063C147.183 98.3296 146.831 97.8877 146.854 97.3946C146.856 97.3598 146.859 97.324 146.865 97.2893Z" fill="#91B3FA"/>
<path opacity="0.3" d="M141.508 71.3098C141.499 71.5021 141.546 71.6995 141.657 71.8744C141.925 72.301 142.188 72.7409 142.44 73.1818C142.708 73.6503 143.306 73.813 143.774 73.545C144.243 73.2769 144.406 72.6795 144.137 72.211C143.872 71.7476 143.595 71.2852 143.314 70.8361C143.027 70.3789 142.423 70.2408 141.967 70.5272C141.683 70.7031 141.523 71.0008 141.508 71.3098Z" fill="#91B3FA"/>
</g>
<g opacity="0.3">
<path opacity="0.3" d="M117.064 54.2478C117.042 54.7194 117.364 55.15 117.841 55.2503C118.334 55.3536 118.834 55.4692 119.325 55.593C119.849 55.725 120.381 55.4078 120.513 54.8851C120.646 54.3593 120.328 53.8294 119.805 53.6974C119.287 53.5665 118.762 53.4448 118.242 53.3363C117.713 53.2258 117.195 53.5644 117.085 54.0933C117.073 54.1445 117.066 54.1966 117.064 54.2478Z" fill="#91B3FA"/>
<path opacity="0.3" d="M71.3367 87.7518C71.3889 87.2147 71.8666 86.8209 72.4047 86.873C72.9418 86.9252 73.3346 87.4019 73.2834 87.94C73.1842 88.963 73.1279 90.0064 73.1136 91.0529C73.1085 91.5899 72.6625 92.0247 72.1224 92.0165C71.5822 92.0094 71.1506 91.5654 71.1577 91.0253C71.1638 90.5721 71.1782 90.1199 71.1986 89.6709C71.2293 89.0305 71.2754 88.384 71.3367 87.7518ZM72.2973 95.2573C72.8333 95.1918 73.3213 95.5734 73.3868 96.1084C73.5126 97.1375 73.6834 98.1717 73.8952 99.1845C74.0067 99.7123 73.6671 100.231 73.1382 100.341C72.6103 100.452 72.0917 100.112 71.9812 99.5844C71.7592 98.5195 71.5792 97.4301 71.4462 96.3467C71.439 96.2905 71.437 96.2352 71.4401 96.18C71.4615 95.7135 71.8175 95.3156 72.2973 95.2573ZM72.2124 82.4957C72.464 81.437 72.7648 80.3751 73.1054 79.3389C73.2742 78.8264 73.8266 78.5471 74.3402 78.7159C74.8527 78.8847 75.1309 79.4371 74.9632 79.9506C74.6389 80.9347 74.3535 81.9433 74.1151 82.9479C73.9903 83.4737 73.4635 83.798 72.9377 83.6732C72.4732 83.5627 72.1653 83.1371 72.1878 82.6768C72.1899 82.6165 72.1981 82.5561 72.2124 82.4957ZM74.0169 103.465C74.5253 103.282 75.0849 103.547 75.267 104.056C75.6158 105.031 76.0097 106.002 76.4393 106.943C76.6633 107.435 76.4465 108.014 75.9554 108.238C75.4644 108.462 74.8844 108.245 74.6604 107.754C74.2082 106.763 73.7929 105.74 73.4267 104.714C73.3827 104.59 73.3643 104.463 73.3704 104.338C73.3868 103.956 73.6323 103.602 74.0169 103.465ZM75.1146 74.4082C75.5923 73.4322 76.1191 72.4625 76.6797 71.5264C76.9569 71.063 77.5574 70.9127 78.0208 71.1899C78.4842 71.4671 78.6346 72.0676 78.3574 72.531C77.8254 73.42 77.3252 74.3406 76.871 75.2685C76.6337 75.7534 76.0475 75.9539 75.5626 75.7165C75.2015 75.5396 74.9979 75.1692 75.0153 74.7918C75.0215 74.6618 75.0542 74.5319 75.1146 74.4082ZM79.72 67.1533C80.4013 66.3032 81.1265 65.4715 81.8764 64.6818C82.2487 64.29 82.8666 64.2736 83.2584 64.646C83.6502 65.0183 83.6666 65.6372 83.2942 66.028C82.5822 66.7778 81.8927 67.5686 81.2452 68.3767C80.9076 68.7982 80.2918 68.8657 79.8703 68.5281C79.6166 68.3246 79.4908 68.0197 79.5051 67.7179C79.5164 67.5185 79.586 67.321 79.72 67.1533ZM85.7974 61.0748C86.6485 60.3925 87.5375 59.7388 88.4408 59.1322C88.8888 58.8304 89.4965 58.9501 89.7982 59.3981C90.1 59.8472 89.9803 60.4538 89.5323 60.7556C88.674 61.3326 87.8301 61.9535 87.0209 62.6021C86.5994 62.9396 85.9836 62.8721 85.647 62.4507C85.4916 62.2573 85.422 62.0231 85.4332 61.7929C85.4455 61.5208 85.5703 61.2569 85.7974 61.0748ZM93.0564 56.4663C94.0354 55.9865 95.0471 55.5436 96.0619 55.1497C96.5652 54.9544 97.1319 55.204 97.3273 55.7073C97.5227 56.2095 97.2731 56.7773 96.7698 56.9727C95.8061 57.3471 94.8456 57.7675 93.9157 58.2238C93.4308 58.4611 92.8457 58.2606 92.6083 57.7757C92.5337 57.6223 92.502 57.4596 92.5101 57.3C92.5255 56.9543 92.725 56.629 93.0564 56.4663ZM101.154 53.5641C102.213 53.3125 103.296 53.1038 104.375 52.9422C104.909 52.8624 105.407 53.2306 105.487 53.7646C105.566 54.2966 105.198 54.7968 104.664 54.8766C103.64 55.0301 102.611 55.2285 101.605 55.4669C101.081 55.5917 100.553 55.2664 100.429 54.7416C100.407 54.6505 100.399 54.5585 100.403 54.4695C100.423 54.0449 100.72 53.6675 101.154 53.5641ZM109.684 52.5125C110.486 52.5013 111.297 52.5156 112.097 52.5534C112.386 52.5667 112.675 52.5841 112.962 52.6036C113.5 52.6414 113.918 53.1018 113.87 53.647C113.833 54.1861 113.365 54.5922 112.826 54.5554C112.553 54.537 112.279 54.5206 112.004 54.5073C111.244 54.4715 110.472 54.4582 109.71 54.4684C109.17 54.4756 108.727 54.0439 108.719 53.5038C108.719 53.4833 108.719 53.4629 108.72 53.4434C108.745 52.9299 109.164 52.5187 109.684 52.5125Z" fill="#91B3FA"/>
<path opacity="0.3" d="M77.0613 111.893C77.052 112.087 77.1001 112.286 77.2116 112.462C77.495 112.909 77.7937 113.358 78.0985 113.798C78.4065 114.242 79.0151 114.352 79.4591 114.044C79.9031 113.736 80.0135 113.128 79.7056 112.684C79.4161 112.266 79.1328 111.839 78.8637 111.415C78.5753 110.959 77.9707 110.824 77.5144 111.113C77.2341 111.29 77.0756 111.586 77.0613 111.893Z" fill="#91B3FA"/>
</g>
<path d="M92.2257 115.843C92.3802 115.982 92.6063 116.007 92.7884 115.906L97.9799 113.023C100.411 114.357 103.072 115.313 105.881 115.814L108.113 121.312C108.192 121.506 108.384 121.627 108.591 121.616L115.703 121.235C115.911 121.223 116.089 121.082 116.146 120.882L117.777 115.177C120.517 114.378 123.061 113.144 125.335 111.557L130.805 113.868C130.996 113.949 131.218 113.9 131.357 113.745L136.117 108.447C136.256 108.292 136.282 108.066 136.181 107.884L133.298 102.693C134.632 100.263 135.587 97.601 136.089 94.792L141.587 92.5599C141.78 92.4811 141.902 92.2898 141.891 92.0821L141.51 84.9704C141.499 84.7628 141.357 84.5848 141.157 84.5275L135.452 82.8959C134.653 80.1564 133.42 77.6122 131.833 75.3382L134.144 69.8684C134.225 69.6771 134.176 69.4551 134.02 69.316L128.722 64.5561C128.568 64.417 128.342 64.3914 128.16 64.4927L122.968 67.3754C120.537 66.0414 117.876 65.086 115.067 64.5847L112.834 59.0863C112.757 58.8929 112.564 58.7712 112.357 58.7825L105.245 59.164C105.037 59.1753 104.859 59.3165 104.802 59.517L103.17 65.222C100.431 66.021 97.8868 67.2547 95.6128 68.8413L90.144 66.5304C89.9527 66.4496 89.7307 66.4987 89.5916 66.6542L84.8317 71.9522C84.6926 72.1066 84.667 72.3327 84.7683 72.5148L87.651 77.7064C86.3171 80.1369 85.3616 82.7987 84.8604 85.6078L79.3619 87.8399C79.1696 87.9186 79.0468 88.1099 79.0581 88.3176L79.4397 95.4293C79.4509 95.6369 79.5921 95.8149 79.7926 95.8722L85.4977 97.5039C86.2966 100.243 87.5313 102.787 89.1169 105.062L86.806 110.531C86.7252 110.723 86.7743 110.945 86.9298 111.084L92.2257 115.843Z" fill="#91B3FA"/>
<path d="M103.449 88.8206C104.209 84.9466 107.978 82.4137 111.852 83.1738C113.729 83.5421 115.35 84.6193 116.416 86.2059C117.482 87.7925 117.867 89.7003 117.498 91.5765C116.738 95.4505 112.968 97.9833 109.094 97.2233C105.57 96.5317 103.156 93.3493 103.321 89.864C103.339 89.5183 103.381 89.1694 103.449 88.8206ZM115.03 87.1378C114.212 85.9205 112.97 85.0949 111.53 84.8126C108.561 84.2295 105.67 86.1721 105.088 89.1418C104.503 92.1125 106.447 95.0024 109.417 95.5855C112.386 96.1676 115.277 94.226 115.859 91.2563C115.913 90.9872 115.944 90.7172 115.958 90.4481C116.014 89.2789 115.695 88.127 115.03 87.1378Z" fill="#BDD0FB"/>
<path d="M93.0012 89.2275C92.9725 89.826 92.9746 90.4295 93.0063 91.0362C93.0165 91.2275 93.0298 91.4177 93.0462 91.609C93.127 92.5491 93.2825 93.48 93.5096 94.3894C93.5127 94.4017 93.5157 94.414 93.5188 94.4263C93.528 94.4611 93.5362 94.4969 93.5464 94.5316C93.5638 94.6002 93.5822 94.6687 93.6006 94.7362C93.6497 94.9153 93.8073 95.0349 93.9832 95.0441C94.0262 95.0462 94.0702 95.0411 94.1131 95.0298C94.3351 94.9695 94.4661 94.7393 94.4057 94.5173C94.0937 93.3726 93.9034 92.186 93.84 90.9922C93.5208 85.0589 96.3432 79.671 100.851 76.4466C103.359 74.6523 106.387 73.528 109.687 73.3511C110.266 73.3204 110.842 73.3183 111.413 73.346C115.256 73.5291 118.888 75.0154 121.79 77.6209C125.121 80.6142 127.089 84.7255 127.328 89.1979C127.822 98.4343 120.713 106.345 111.481 106.839C110.912 106.87 110.344 106.871 109.778 106.844C107.327 106.727 104.928 106.076 102.756 104.927C102.7 104.897 102.641 104.882 102.581 104.879C102.425 104.872 102.27 104.953 102.193 105.101C102.085 105.306 102.162 105.557 102.366 105.666C104.646 106.872 107.164 107.556 109.738 107.679C110.331 107.707 110.929 107.705 111.526 107.674C121.219 107.154 128.681 98.8435 128.163 89.1539C127.911 84.4585 125.846 80.1426 122.348 77C119.303 74.2646 115.489 72.7035 111.454 72.5122C110.855 72.4836 110.25 72.4856 109.643 72.5184C104.947 72.77 100.631 74.8354 97.4889 78.3329C94.7525 81.3773 93.1925 85.1919 93.0012 89.2275Z" fill="#BDD0FB"/>
<g opacity="0.3">
<path opacity="0.3" d="M76.1069 161.26C76.0946 161.521 76.2532 161.77 76.513 161.86C76.9979 162.027 77.494 162.183 77.9881 162.321C78.3094 162.411 78.6418 162.224 78.7329 161.903C78.8239 161.581 78.6357 161.248 78.3145 161.158C77.8439 161.026 77.3703 160.879 76.9079 160.718C76.5928 160.609 76.2491 160.776 76.1396 161.091C76.1202 161.147 76.11 161.204 76.1069 161.26Z" fill="#91B3FA"/>
<path opacity="0.3" d="M80.6244 162.307C80.6745 161.978 80.9814 161.75 81.3118 161.8C82.1445 161.924 82.9925 162.008 83.8334 162.048C84.0104 162.056 84.1884 162.062 84.3674 162.068C84.7009 162.077 84.9638 162.354 84.9546 162.688C84.9341 163.003 84.6682 163.284 84.3347 163.276C84.1475 163.271 83.9613 163.263 83.7761 163.255C82.8953 163.213 82.0054 163.125 81.1318 162.994C80.8228 162.948 80.6039 162.675 80.6182 162.369C80.6192 162.349 80.6213 162.328 80.6244 162.307ZM87.4322 161.962C88.448 161.865 89.4669 161.704 90.4612 161.483C90.7865 161.411 91.1088 161.616 91.1814 161.942C91.253 162.266 91.0484 162.59 90.7231 162.662C89.6817 162.893 88.6137 163.062 87.5478 163.164C87.2153 163.196 86.9207 162.952 86.889 162.62C86.886 162.591 86.886 162.562 86.887 162.533C86.9003 162.238 87.1294 161.991 87.4322 161.962ZM93.4074 160.633C94.3669 160.291 95.3152 159.884 96.2257 159.424C96.5233 159.274 96.8865 159.394 97.0369 159.691C97.1873 159.99 97.0676 160.352 96.7699 160.502C95.8144 160.984 94.8201 161.411 93.8135 161.77C93.4994 161.882 93.1537 161.719 93.0412 161.405C93.0146 161.328 93.0033 161.249 93.0064 161.174C93.0187 160.936 93.1701 160.718 93.4074 160.633ZM98.8741 157.877C99.7222 157.308 100.542 156.682 101.311 156.015C101.564 155.796 101.945 155.823 102.163 156.075C102.381 156.327 102.354 156.708 102.103 156.927C101.296 157.626 100.436 158.283 99.5472 158.879C99.27 159.065 98.8946 158.991 98.7094 158.713C98.6348 158.602 98.602 158.474 98.6082 158.349C98.6153 158.165 98.7084 157.987 98.8741 157.877ZM103.501 153.869C104.184 153.112 104.828 152.305 105.413 151.472C105.604 151.199 105.981 151.133 106.254 151.324C106.527 151.516 106.593 151.892 106.401 152.165C105.788 153.039 105.114 153.884 104.398 154.678C104.174 154.925 103.793 154.945 103.545 154.722C103.405 154.596 103.338 154.419 103.347 154.244C103.353 154.11 103.404 153.976 103.501 153.869ZM107.016 148.859C107.495 147.959 107.921 147.021 108.283 146.07C108.402 145.759 108.751 145.603 109.063 145.722C109.374 145.84 109.53 146.188 109.412 146.501C109.031 147.497 108.584 148.483 108.082 149.426C107.925 149.72 107.559 149.832 107.266 149.675C107.053 149.562 106.935 149.339 106.945 149.113C106.95 149.027 106.972 148.941 107.016 148.859ZM109.198 143.145C109.44 142.159 109.623 141.143 109.742 140.128C109.781 139.797 110.082 139.56 110.412 139.599C110.744 139.638 110.976 139.937 110.942 140.269C110.816 141.334 110.624 142.398 110.37 143.432C110.29 143.756 109.963 143.954 109.64 143.875C109.355 143.806 109.167 143.544 109.181 143.26C109.183 143.221 109.188 143.183 109.198 143.145ZM110.228 133.328C110.558 133.285 110.861 133.519 110.904 133.85C111.023 134.766 111.092 135.704 111.113 136.636C111.117 136.777 111.118 136.918 111.119 137.059C111.13 137.391 110.852 137.665 110.518 137.666C110.184 137.668 109.913 137.398 109.911 137.064C109.911 136.932 109.909 136.799 109.905 136.664C109.885 135.772 109.819 134.878 109.706 134.005C109.701 133.969 109.7 133.933 109.702 133.898C109.716 133.611 109.933 133.366 110.228 133.328Z" fill="#91B3FA"/>
</g>
<g opacity="0.3">
<path opacity="0.3" d="M59.0028 135.602C59.0662 134.552 59.1951 133.496 59.3834 132.464C59.4437 132.136 59.7578 131.918 60.0861 131.979C60.4145 132.039 60.6283 132.355 60.571 132.682C60.39 133.666 60.2682 134.672 60.2079 135.675C60.1884 136.007 59.901 136.261 59.5685 136.242C59.2381 136.221 58.9864 135.94 59.0018 135.61C59.0018 135.608 59.0018 135.605 59.0028 135.602ZM59.5685 138.127C59.901 138.107 60.1874 138.361 60.2068 138.694C60.2672 139.695 60.3879 140.703 60.5669 141.69C60.6252 142.016 60.4094 142.332 60.08 142.392C59.7516 142.451 59.4376 142.234 59.3782 141.906C59.191 140.871 59.0632 139.816 59.0008 138.766C58.9997 138.744 58.9997 138.722 59.0008 138.701C59.0151 138.397 59.2575 138.146 59.5685 138.127ZM60.1434 129.394C60.4595 128.389 60.839 127.395 61.2718 126.439C61.4099 126.136 61.7679 126.001 62.0717 126.139C62.3755 126.276 62.5095 126.633 62.3725 126.938C61.9592 127.849 61.5971 128.797 61.2953 129.755C61.195 130.073 60.8564 130.25 60.5383 130.15C60.2703 130.066 60.1035 129.812 60.1158 129.545C60.1189 129.496 60.1281 129.444 60.1434 129.394ZM60.5311 144.223C60.8493 144.123 61.1879 144.301 61.2871 144.62C61.5858 145.577 61.9469 146.525 62.3592 147.439C62.4962 147.743 62.3612 148.101 62.0584 148.238C61.7546 148.375 61.3966 148.24 61.2595 147.936C60.8257 146.979 60.4472 145.983 60.1342 144.979C60.1127 144.909 60.1045 144.839 60.1076 144.77C60.1189 144.523 60.2825 144.299 60.5311 144.223ZM62.751 123.646C63.2983 122.749 63.9049 121.876 64.5565 121.05C64.7631 120.789 65.1427 120.745 65.4045 120.951C65.6664 121.158 65.7114 121.537 65.5038 121.799C64.8818 122.586 64.3028 123.419 63.7811 124.275C63.6072 124.559 63.2359 124.65 62.9504 124.476C62.7551 124.358 62.6517 124.145 62.662 123.931C62.6681 123.834 62.6967 123.736 62.751 123.646ZM66.6618 118.691C67.4085 117.95 68.2085 117.247 69.0361 116.603C69.299 116.398 69.6785 116.445 69.8831 116.708C70.0877 116.971 70.0406 117.35 69.7777 117.556C68.988 118.171 68.2259 118.841 67.5129 119.549C67.2766 119.784 66.894 119.782 66.6587 119.546C66.5349 119.421 66.4766 119.255 66.4838 119.091C66.4899 118.946 66.5503 118.802 66.6618 118.691ZM71.6457 114.815C72.549 114.274 73.4942 113.783 74.4527 113.357C74.7575 113.222 75.1146 113.359 75.2496 113.664C75.3856 113.968 75.2475 114.325 74.9427 114.46C74.0282 114.867 73.1269 115.335 72.2656 115.852C71.9792 116.024 71.6078 115.93 71.437 115.644C71.3725 115.538 71.3459 115.42 71.3511 115.305C71.3623 115.11 71.4656 114.923 71.6457 114.815Z" fill="#91B3FA"/>
<path opacity="0.3" d="M62.662 150.417C62.6569 150.533 62.6845 150.652 62.75 150.759C63.019 151.2 63.3024 151.636 63.5919 152.053C63.7822 152.328 64.1586 152.395 64.4328 152.206C64.7059 152.016 64.7744 151.639 64.5852 151.365C64.309 150.967 64.0389 150.552 63.7822 150.13C63.6083 149.846 63.2369 149.756 62.9526 149.929C62.7735 150.037 62.6712 150.222 62.662 150.417Z" fill="#91B3FA"/>
</g>
<path d="M73.8 153.268C73.8972 153.355 74.0384 153.371 74.1529 153.308L77.407 151.501C78.9312 152.337 80.5987 152.937 82.3602 153.251L83.7596 156.697C83.8087 156.818 83.9294 156.895 84.0594 156.887L88.5175 156.648C88.6474 156.641 88.7589 156.552 88.7947 156.427L89.8176 152.851C91.5352 152.35 93.129 151.576 94.555 150.582L97.983 152.03C98.1027 152.081 98.2428 152.05 98.3298 151.953L101.313 148.631C101.4 148.534 101.416 148.393 101.353 148.278L99.5461 145.024C100.382 143.5 100.981 141.832 101.295 140.071L104.742 138.672C104.862 138.623 104.939 138.503 104.932 138.373L104.694 133.915C104.686 133.785 104.597 133.673 104.473 133.637L100.896 132.614C100.396 130.897 99.6218 129.303 98.6274 127.877L100.076 124.449C100.127 124.329 100.095 124.189 99.9982 124.102L96.6766 121.119C96.5795 121.032 96.4383 121.016 96.3237 121.079L93.0697 122.886C91.5454 122.05 89.878 121.451 88.1164 121.137L86.717 117.69C86.6679 117.57 86.5472 117.493 86.4173 117.5L81.9592 117.738C81.8293 117.745 81.7178 117.834 81.682 117.959L80.659 121.536C78.9414 122.036 77.3477 122.81 75.9216 123.805L72.4937 122.356C72.374 122.305 72.2349 122.337 72.1469 122.434L69.1639 125.755C69.077 125.853 69.0606 125.994 69.124 126.108L70.9306 129.362C70.0948 130.887 69.4954 132.554 69.1813 134.316L65.7349 135.714C65.6142 135.763 65.5375 135.884 65.5447 136.014L65.784 140.472C65.7912 140.602 65.8802 140.713 66.005 140.749L69.5813 141.772C70.0815 143.49 70.8559 145.083 71.8502 146.509L70.4017 149.937C70.3506 150.057 70.3823 150.197 70.4794 150.284L73.8 153.268Z" fill="#91B3FA"/>
<path d="M80.7552 136.315C80.9894 135.118 81.6769 134.083 82.6896 133.403C83.7023 132.723 84.9197 132.477 86.1165 132.713C88.588 133.197 90.2013 135.599 89.7194 138.075C89.2335 140.546 86.8285 142.163 84.3581 141.678C83.1602 141.442 82.1259 140.756 81.4457 139.743C80.8922 138.92 80.6273 137.961 80.6733 136.989C80.6846 136.764 80.7122 136.539 80.7552 136.315ZM85.8854 133.897C85.0046 133.724 84.1095 133.904 83.3637 134.406C82.619 134.906 82.1137 135.667 81.9408 136.548C81.7689 137.428 81.949 138.323 82.4492 139.069C82.9494 139.814 83.7105 140.319 84.5913 140.492C86.4091 140.849 88.1789 139.66 88.5359 137.843C88.5676 137.679 88.587 137.515 88.5952 137.353C88.6729 135.716 87.5395 134.221 85.8854 133.897Z" fill="#BDD0FB"/>
<path d="M73.9443 136.581C73.9259 136.963 73.9269 137.349 73.9473 137.738C73.9883 138.512 74.109 139.282 74.3044 140.029C74.3136 140.062 74.3228 140.096 74.332 140.129C74.4026 140.388 74.6307 140.562 74.8854 140.574C74.9468 140.577 75.0112 140.57 75.0736 140.554C75.3959 140.466 75.5841 140.134 75.4971 139.812C75.3079 139.116 75.1923 138.397 75.1544 137.674C75.1524 137.634 75.1503 137.594 75.1493 137.555C75.0736 135.844 75.4286 134.178 76.161 132.679C76.559 131.864 77.0684 131.099 77.6832 130.403C77.6883 130.396 77.6934 130.391 77.6986 130.385C77.7139 130.368 77.7293 130.35 77.7446 130.334C79.5593 128.314 82.0533 127.121 84.7652 126.976C85.1161 126.956 85.4649 126.956 85.8117 126.973C88.142 127.083 90.3455 127.985 92.105 129.565C94.1254 131.38 95.3182 133.874 95.4634 136.585C95.6077 139.295 94.689 141.904 92.8743 143.925C91.0595 145.946 88.5656 147.138 85.8537 147.284C85.5089 147.302 85.1642 147.303 84.8205 147.287C83.3341 147.216 81.8794 146.82 80.5629 146.124C80.4821 146.081 80.3951 146.058 80.3092 146.054C80.0831 146.043 79.8591 146.161 79.7465 146.375C79.591 146.671 79.7026 147.035 79.9982 147.192C81.4713 147.971 83.0988 148.413 84.7622 148.493C85.1458 148.511 85.5314 148.51 85.9181 148.49C88.9533 148.327 91.7419 146.992 93.7725 144.731C95.8031 142.471 96.8342 139.556 96.6685 136.521C96.5058 133.487 95.1719 130.697 92.9111 128.667C90.9429 126.899 88.4786 125.89 85.8711 125.766C85.4844 125.748 85.0936 125.749 84.7008 125.77C78.8238 126.085 74.2174 130.827 73.9443 136.581Z" fill="#BDD0FB"/>
<path d="M337.296 65.1508C337.294 64.1678 335.973 63.8414 335.516 64.711C331.1 73.1228 318.829 94.819 304.941 104.76C282.327 120.947 263.176 150.975 271.319 170.375C271.318 170.375 337.551 172.227 337.296 65.1508Z" fill="#BDD0FB"/>
<path opacity="0.43" d="M332.81 77.541C332.726 77.8285 332.632 78.0597 332.543 78.3113L332.264 79.0499L331.69 80.5189C331.302 81.4948 330.898 82.4646 330.493 83.4354C329.679 85.3719 328.84 87.2991 327.984 89.2172C326.265 93.0513 324.442 96.8393 322.561 100.599C320.686 104.361 318.707 108.07 316.65 111.737C314.589 115.401 312.476 119.038 310.244 122.603C305.795 129.74 300.953 136.643 295.644 143.176C292.956 146.413 290.18 149.583 287.228 152.584C284.255 155.563 281.154 158.417 277.858 161.033C277.786 161.09 277.682 161.078 277.625 161.006C277.57 160.936 277.58 160.835 277.647 160.778L277.649 160.777C280.828 158.046 283.856 155.149 286.735 152.109C289.623 149.077 292.332 145.88 294.952 142.618C297.573 139.353 300.061 135.983 302.472 132.559C304.882 129.133 307.149 125.61 309.396 122.075C313.86 114.983 317.943 107.655 321.822 100.223C323.753 96.5028 325.61 92.7423 327.399 88.9502C328.297 87.0557 329.177 85.1529 330.034 83.239L331.296 80.3583L331.912 78.9128L332.212 78.1875C332.306 77.9482 332.412 77.6924 332.486 77.4797L332.498 77.4449C332.528 77.3589 332.622 77.3139 332.707 77.3436C332.79 77.3681 332.835 77.4571 332.81 77.541Z" fill="white"/>
<path d="M305.242 51.7046C305.035 50.787 303.733 50.7573 303.487 51.6647C301.116 60.4397 294.176 83.256 283.278 95.4334C265.534 115.26 253.906 147.29 265.551 163.709C265.552 163.709 327.787 151.64 305.242 51.7046Z" fill="#91B3FA"/>
<path opacity="0.43" d="M303.636 64.2094C303.617 64.4959 303.578 64.7312 303.547 64.9848L303.441 65.7326L303.212 67.2241C303.052 68.2164 302.877 69.2066 302.702 70.1969C302.345 72.1753 301.965 74.1496 301.565 76.1199C300.759 80.0593 299.845 83.9763 298.874 87.8779C297.908 91.7815 296.832 95.6586 295.674 99.5111C294.513 103.363 293.297 107.199 291.956 110.993C289.288 118.585 286.205 126.04 282.607 133.246C280.77 136.829 278.839 140.366 276.707 143.784C274.55 147.186 272.248 150.496 269.714 153.624C269.658 153.694 269.556 153.704 269.487 153.648C269.419 153.593 269.407 153.495 269.459 153.426L269.46 153.424C271.859 150.209 274.082 146.874 276.136 143.435C278.2 140.002 280.063 136.453 281.831 132.86C283.598 129.265 285.219 125.6 286.756 121.901C288.293 118.2 289.675 114.437 291.037 110.668C293.728 103.115 296.014 95.4223 298.089 87.6743C299.118 83.7972 300.068 79.8997 300.95 75.9859C301.394 74.0299 301.821 72.0689 302.222 70.1038L302.801 67.1515L303.075 65.6733L303.204 64.9337C303.242 64.6913 303.288 64.4294 303.312 64.2166L303.316 64.1808C303.326 64.0928 303.406 64.0304 303.493 64.0406C303.581 64.0499 303.643 64.1256 303.636 64.2094Z" fill="white"/>
<path d="M331.781 332.822H200.875V175.298C200.875 166.122 208.314 158.683 217.49 158.683H321.207C330.383 158.683 337.822 166.122 337.822 175.298V326.783C337.822 330.118 335.117 332.822 331.781 332.822Z" fill="#7D97F4"/>
<path d="M266.177 152.003H260.333L251.147 124.981L276.682 123.431L266.177 152.003Z" fill="url(#paint1_linear_4_1342)"/>
<path d="M235.604 74.776C235.575 77.0572 235.575 121.712 258.244 128.964C280.913 136.215 291.152 98.4321 290.34 71.5229L235.604 74.776Z" fill="url(#paint2_linear_4_1342)"/>
<path d="M281.376 156.103H245.134V160.503H281.376V156.103Z" fill="url(#paint3_linear_4_1342)"/>
<path d="M281.376 156.103H245.134L254.307 151.182H272.204L281.376 156.103Z" fill="url(#paint4_linear_4_1342)"/>
<path d="M232.976 68.4406C230.986 68.5613 229.359 70.0344 229.359 71.7141V75.1493C229.359 76.829 230.987 78.1148 232.978 78.0085L295.105 74.6654C297.096 74.558 298.725 73.0962 298.725 71.4175V67.4944C298.725 65.8147 297.098 64.54 295.107 64.6607L232.976 68.4406Z" fill="url(#paint5_linear_4_1342)"/>
<path d="M274.297 132.513C272.849 132.513 271.6 131.599 271.432 130.358C271.25 129.025 272.388 127.82 273.971 127.666C274.272 127.636 295.12 125.434 297.097 114.024C297.43 112.1 297.393 109.586 295.324 108.538C293.617 107.671 290.821 107.948 288.822 109.178C287.685 109.878 286.442 111.103 286.97 112.969C287.341 114.276 286.383 115.586 284.832 115.898C283.282 116.209 281.724 115.404 281.353 114.098C280.395 110.716 281.912 107.409 285.412 105.254C289.302 102.859 294.603 102.497 298.304 104.373C300.467 105.47 303.929 108.273 302.812 114.726C301.707 121.106 296.38 126.217 287.405 129.506C280.961 131.868 274.883 132.472 274.628 132.497C274.517 132.508 274.406 132.513 274.297 132.513Z" fill="url(#paint6_linear_4_1342)"/>
<path d="M252.673 132.513C254.121 132.513 255.37 131.599 255.539 130.358C255.72 129.025 254.582 127.82 253 127.666C252.698 127.636 231.85 125.434 229.873 114.024C229.54 112.1 229.577 109.586 231.646 108.538C233.354 107.671 236.149 107.948 238.148 109.178C239.285 109.878 240.529 111.103 240 112.969C239.629 114.276 240.587 115.586 242.138 115.898C243.689 116.209 245.247 115.404 245.617 114.098C246.575 110.716 245.058 107.409 241.558 105.254C237.668 102.859 232.367 102.497 228.666 104.373C226.503 105.47 223.041 108.273 224.158 114.726C225.263 121.106 230.59 126.217 239.565 129.506C246.009 131.868 252.087 132.472 252.342 132.497C252.453 132.508 252.564 132.513 252.673 132.513Z" fill="url(#paint7_linear_4_1342)"/>
<path opacity="0.7" d="M278.042 71.2682C277.793 71.2682 277.585 71.0728 277.571 70.8212C277.557 70.5613 277.758 70.3383 278.017 70.324L283.566 70.0253C283.827 70.0151 284.049 70.2104 284.063 70.4713C284.077 70.7311 283.877 70.9541 283.617 70.9685L278.068 71.2672C278.059 71.2682 278.051 71.2682 278.042 71.2682Z" fill="white"/>
<path opacity="0.7" d="M235.601 73.5523C235.352 73.5523 235.144 73.3569 235.13 73.1052C235.116 72.8454 235.317 72.6224 235.576 72.6081L268.723 70.825C268.981 70.8097 269.205 71.0112 269.22 71.2711C269.234 71.5309 269.034 71.7539 268.774 71.7682L235.628 73.5512C235.618 73.5512 235.609 73.5523 235.601 73.5523Z" fill="white"/>
<path opacity="0.7" d="M261.267 123.902C261.249 123.902 261.23 123.901 261.213 123.899C255.211 123.209 250.413 118.321 246.952 109.372C244.094 101.982 242.745 93.3339 242.116 87.3803C242.089 87.1204 242.277 86.8882 242.537 86.8606C242.797 86.836 243.029 87.0212 243.056 87.281C244.135 97.5015 248.073 121.437 261.321 122.96C261.58 122.99 261.766 123.224 261.737 123.483C261.707 123.725 261.504 123.902 261.267 123.902Z" fill="white"/>
<path opacity="0.7" d="M242.185 83.1336C241.938 83.1336 241.731 82.9413 241.714 82.6917C241.625 81.3291 241.602 80.5455 241.601 80.5128C241.593 80.2519 241.798 80.035 242.059 80.0269C242.338 80.0095 242.538 80.2243 242.545 80.4852C242.545 80.4933 242.569 81.2872 242.656 82.6313C242.673 82.8912 242.476 83.1162 242.215 83.1336C242.205 83.1336 242.195 83.1336 242.185 83.1336Z" fill="white"/>
<path d="M253.381 332.823H134.026V216.89C134.026 214.141 136.255 211.912 139.004 211.912H248.403C251.152 211.912 253.381 214.141 253.381 216.89V332.823Z" fill="url(#paint8_linear_4_1342)"/>
<path d="M169.481 332.823H72.6758C69.3399 332.823 66.6362 330.119 66.6362 326.783V262.397C66.6362 253.221 74.0753 245.782 83.2513 245.782H152.867C162.043 245.782 169.482 253.221 169.482 262.397V332.823H169.481Z" fill="#7D97F4"/>
<path d="M129.419 194.126C129.57 194.432 127.409 207.94 126.901 208.419C126.589 208.714 126.123 208.749 125.696 208.785C120.17 209.258 115.215 212.425 111.127 216.173C107.04 219.92 103.583 224.313 99.4724 228.034C98.2807 229.114 96.9723 230.187 95.4829 230.827C93.6702 231.605 92.5122 230.807 90.9849 231.048C90.9685 231.051 90.9562 231.051 90.9398 231.053C92.0395 233.415 93.2108 235.747 94.4271 238.056C95.221 236.782 96.1416 235.605 97.2925 234.641C99.2924 232.965 101.812 232.076 104.227 231.091C113.849 227.168 122.438 221.051 131.904 216.712C135.527 215.051 135.956 210.632 137.595 207.224C139.85 202.54 144.296 196.403 143.685 192.468C139.833 193.205 132.857 192.242 129.419 194.126Z" fill="url(#paint9_linear_4_1342)"/>
<path d="M90.6023 230.675L88.8509 231.04C88.3814 231.139 87.9998 231.484 87.8607 231.944C86.5585 236.255 85.8997 239.763 86.2853 243.811C86.4572 245.612 87.4802 248.287 88.5645 249.734C89.6734 251.213 90.7168 252.211 91.1608 251.752L91.9608 251.267C92.5091 250.934 92.8139 250.313 92.7423 249.676L90.6023 230.675Z" fill="url(#paint10_linear_4_1342)"/>
<path d="M93.5935 231.155L90.6023 230.675C90.0478 230.586 89.7645 231.004 89.4586 231.475C88.049 233.65 87.2746 238.441 87.4935 244.08C87.5528 245.607 87.5518 246.923 88.4459 248.162C90.9235 251.595 91.8616 251.687 92.7505 250.783L96.3299 235.553C94.7289 234.533 93.6252 232.909 93.5935 231.155Z" fill="url(#paint11_linear_4_1342)"/>
<path d="M146.274 174.366C143.607 173.309 140.481 172.808 137.706 173.744C134.615 174.786 133.903 178.018 132.995 180.869C131.605 185.231 130.414 189.656 129.422 194.124C129.421 194.125 129.42 194.125 129.419 194.125C129.42 194.127 129.419 194.132 129.42 194.133C129.369 194.364 127.737 203.487 127.733 204.255C127.779 204.257 127.824 204.259 127.87 204.261C127.458 206.491 127.078 208.251 126.901 208.417C126.589 208.712 124.906 207.921 124.48 207.958C118.954 208.431 115.216 212.424 111.128 216.172C109.406 217.751 107.797 219.444 106.204 221.153C106.457 224.097 107.661 226.535 111.262 227.809C118.188 224.228 124.799 219.969 131.905 216.713C135.528 215.051 135.957 210.632 137.596 207.225C137.733 206.938 137.88 206.647 138.032 206.351C138.062 206.364 139.531 203.709 140.218 202.36C141.23 200.542 143.552 195.592 143.873 194.906C145.477 191.486 146.995 188.028 148.451 184.542C150.381 179.926 152.247 176.734 146.274 174.366Z" fill="url(#paint12_linear_4_1342)"/>
<path d="M141.48 95.4387C141.48 95.4387 131.112 87.4339 124.415 99.3464C117.719 111.258 114.881 114.826 112.9 111.636C112.799 112.369 112.747 113.568 113.328 114.695C114.431 116.84 117.025 117.181 118.384 117.359C122.321 117.875 125.948 116.59 126.746 115.559C138.184 100.798 141.416 100.284 141.48 95.4387Z" fill="url(#paint13_linear_4_1342)"/>
<path d="M188.48 130.994C194.346 129.47 199.777 124.849 203.179 119.817C203.57 119.239 204.014 118.598 204.69 118.47C205.383 118.338 206.045 118.798 206.601 119.25C207.679 120.128 210.609 121.907 209.698 123.745C209.105 124.943 206.027 126.184 204.919 126.962C205.537 126.528 205.477 124.879 205.274 124.292C204.96 124.807 204.651 125.43 204.209 125.877C203.755 126.335 203.176 126.636 202.607 126.93C201.326 127.591 200.485 128.37 199.343 129.185C196.774 131.701 194.285 134.401 191.114 136.133C188.443 137.591 185.438 138.275 182.452 138.804C181.185 139.028 179.897 139.228 178.615 139.101C177.437 138.984 176.3 138.596 175.176 138.21C171.787 137.047 168.368 135.744 165.391 133.664C163.972 132.673 162.666 131.505 161.568 130.147C160.37 128.666 159.036 126.61 158.901 124.64C158.783 122.917 159.389 120.6 161.405 121.845C165.836 124.58 169.647 128.183 174.532 129.992C178.992 131.648 183.868 132.192 188.48 130.994Z" fill="url(#paint14_linear_4_1342)"/>
<path d="M137.801 132.645C136.961 132.712 136.125 132.783 135.3 132.85C131.994 133.116 129.582 135.117 127.282 137.392C126.102 138.559 125.006 139.812 124.012 141.142C120.662 145.629 118.704 151.324 119.456 156.873C119.839 159.702 120.894 162.39 121.98 165.029C122.668 166.703 123.39 168.401 124.578 169.766C125.998 171.4 128.001 172.46 129.357 174.148C129.6 174.45 129.831 174.811 129.78 175.194C129.728 175.592 129.391 175.884 129.079 176.137C127.87 177.112 126.662 178.087 125.453 179.063C125.288 179.196 125.109 179.334 124.898 179.347C124.569 179.366 124.312 179.08 124.116 178.815C123.13 177.489 121.763 175.672 121.531 174.012C122.062 173.869 123.316 175.04 123.658 174.429C121.731 170.195 117.898 167.077 115.879 162.887C114.574 160.18 114.093 157.16 113.719 154.179C113.349 151.222 113.076 148.176 113.85 145.298C114.228 143.896 114.845 142.57 115.504 141.276C119.107 134.201 124.205 127.681 130.707 123.055C135.492 119.65 140.594 117.692 146.418 117.52C148.758 117.452 151.132 117.385 153.406 117.942C155.604 118.479 157.216 119.399 159.201 120.467C161.799 121.864 164.896 124.058 166.283 126.701C163.011 127.262 163.149 128.84 161.113 130.307C160.189 130.972 159.031 131.213 157.909 131.416C154.302 132.07 150.277 132.925 146.634 132.542C143.751 132.238 140.746 132.412 137.801 132.645Z" fill="url(#paint15_linear_4_1342)"/>
<path d="M140.415 156.224C139.264 158.588 132.841 168.846 132.56 170.534C132.28 172.223 133.311 174.653 134.767 175.889C135.876 176.83 145.642 179.105 149.496 178.099C152.401 177.34 157.086 165.53 156.479 160.975C156.368 160.141 156.354 159.301 156.408 158.464C150.803 158.22 146.064 157.188 140.415 156.224Z" fill="url(#paint16_linear_4_1342)"/>
<path d="M202.058 205.083C201.965 205.004 201.872 204.925 201.778 204.845C198.635 202.378 198.346 199.362 197.485 195.753C196.52 191.712 195.513 187.681 194.462 183.661C194.402 183.431 194.339 183.2 194.279 182.969C191.91 183.773 189.184 184.038 186.539 184.12C187.654 186.475 191.626 196.694 192.883 199.195C193.768 200.954 195.566 205.41 195.13 206.464C195.038 206.688 199.433 206.107 202.058 205.083Z" fill="url(#paint17_linear_4_1342)"/>
<path d="M135.816 120.053C138.34 118.447 138.643 123.98 137.802 132.644L140.491 156.716C143.813 159.47 152.743 160.899 156.409 158.817C158.155 148.412 163.868 134.652 162.804 131.515C160.975 128.097 160.439 124.566 160.565 121.254C159.567 119.925 156.442 118.985 153.406 117.944L146.419 117.523C143.176 117.479 140.174 117.521 135.816 120.053Z" fill="url(#paint18_linear_4_1342)"/>
<path d="M156.026 109.393C155.956 109.709 153.032 119.737 152.862 119.91C152.692 120.084 147.789 120.712 145.356 119.3L150.271 107.634L156.026 109.393Z" fill="url(#paint19_linear_4_1342)"/>
<path d="M153.887 93.3239C153.887 93.3239 158.255 95.0813 161.312 101.298C164.369 107.515 162.215 110.446 159.455 110.89C156.695 111.335 152.557 111.345 148.113 107.371C143.668 103.398 148.212 91.2493 153.887 93.3239Z" fill="url(#paint20_linear_4_1342)"/>
<path d="M150.997 103.975C150.997 103.975 147.568 94.8618 155.696 94.6142L157.631 95.9185C157.631 95.9185 158.688 92.0691 153.75 89.7254C148.813 87.3818 143.384 88.3823 141.413 95.0142C139.443 101.646 140.735 105.884 144.255 108.981C147.775 112.077 149.59 108.648 149.59 108.648C149.59 108.648 147.204 105.556 147.946 103.963C148.687 102.37 150.355 104.775 150.355 104.775L150.997 103.975Z" fill="url(#paint21_linear_4_1342)"/>
<path d="M194.462 183.661C193.165 178.697 191.802 173.751 190.374 168.825C189.501 165.808 189.294 162.508 187.72 159.726C185.321 155.488 178.683 155.842 172.879 156.948C166.135 157.675 160.425 157.958 153.661 158.694C147.061 159.412 140.16 160.269 135.312 165.326C133.217 167.512 131.916 170.716 132.79 173.615C133.646 176.446 136.392 178.379 139.262 179.095C143.693 180.202 148.992 179.425 153.303 178.112C162.123 175.426 171.86 170.047 179.901 165.805C179.811 169.41 179.126 172.384 180.81 175.724C183.027 180.123 186.416 184.749 188.422 189.25C190.652 188.676 193.031 187.274 195.129 186.276C194.907 185.404 194.689 184.531 194.462 183.661ZM179.849 165.42C179.87 165.421 179.891 165.421 179.911 165.422C179.908 165.488 179.908 165.551 179.906 165.617C179.888 165.55 179.869 165.486 179.849 165.42Z" fill="url(#paint22_linear_4_1342)"/>
<path d="M195.18 208.559L196.147 210.096C196.407 210.509 196.869 210.753 197.356 210.728C201.836 210.504 206.129 209.949 209.769 208.258C210.805 207.777 211.695 207.033 212.399 206.133C214.188 203.843 215.746 201.263 214.895 200.88L213.318 199.619L195.18 208.559Z" fill="url(#paint23_linear_4_1342)"/>
<path d="M194.601 205.587L195.18 208.56C195.288 209.11 195.707 209.547 196.254 209.672C198.781 210.247 203.645 209.893 208.864 207.746C210.277 207.164 211.485 206.166 212.342 204.9C214.712 201.392 214.474 200.144 213.32 199.62L199.134 201.559C198.728 203.412 196.237 204.953 194.601 205.587Z" fill="url(#paint24_linear_4_1342)"/>
<path d="M160.565 121.253C159.822 124.845 160.711 128.655 162.804 132.626L167.811 136.139C169.252 132.077 170.123 128.303 168.864 125.599L160.565 121.253Z" fill="url(#paint25_linear_4_1342)"/>
<path d="M128.617 123.843C127.625 127.231 129.414 131.048 131.858 134.968L138.153 132.645C139.895 126.574 140.128 121.732 137.134 119.521L128.617 123.843Z" fill="url(#paint26_linear_4_1342)"/>
<defs>
<linearGradient id="paint0_linear_4_1342" x1="378.598" y1="418.255" x2="126.418" y2="105.063" gradientUnits="userSpaceOnUse">
<stop stop-color="#DAE3FE"/>
<stop offset="1" stop-color="#E9EFFD"/>
</linearGradient>
<linearGradient id="paint1_linear_4_1342" x1="261.011" y1="178.884" x2="263.72" y2="127.867" gradientUnits="userSpaceOnUse">
<stop stop-color="#FF928E"/>
<stop offset="1" stop-color="#FE7062"/>
</linearGradient>
<linearGradient id="paint2_linear_4_1342" x1="263.953" y1="127.938" x2="262.928" y2="71.0889" gradientUnits="userSpaceOnUse">
<stop stop-color="#FF928E"/>
<stop offset="1" stop-color="#FE7062"/>
</linearGradient>
<linearGradient id="paint3_linear_4_1342" x1="263.601" y1="152.641" x2="261.451" y2="187.838" gradientUnits="userSpaceOnUse">
<stop stop-color="#FF928E"/>
<stop offset="1" stop-color="#FE7062"/>
</linearGradient>
<linearGradient id="paint4_linear_4_1342" x1="263.255" y1="90.34" x2="263.255" y2="138.995" gradientUnits="userSpaceOnUse">
<stop stop-color="#FF928E"/>
<stop offset="1" stop-color="#FE7062"/>
</linearGradient>
<linearGradient id="paint5_linear_4_1342" x1="263.239" y1="85.8571" x2="265.497" y2="45.6756" gradientUnits="userSpaceOnUse">
<stop stop-color="#FF928E"/>
<stop offset="1" stop-color="#FE7062"/>
</linearGradient>
<linearGradient id="paint6_linear_4_1342" x1="268.999" y1="128.011" x2="342.589" y2="84.6694" gradientUnits="userSpaceOnUse">
<stop stop-color="#FF928E"/>
<stop offset="1" stop-color="#FE7062"/>
</linearGradient>
<linearGradient id="paint7_linear_4_1342" x1="234.271" y1="127.337" x2="259.102" y2="93.9282" gradientUnits="userSpaceOnUse">
<stop stop-color="#FF928E"/>
<stop offset="1" stop-color="#FE7062"/>
</linearGradient>
<linearGradient id="paint8_linear_4_1342" x1="261.763" y1="170.175" x2="43.5652" y2="503.4" gradientUnits="userSpaceOnUse">
<stop stop-color="#4F52FF"/>
<stop offset="1" stop-color="#4042E2"/>
</linearGradient>
<linearGradient id="paint9_linear_4_1342" x1="102.823" y1="238.054" x2="136.488" y2="186.034" gradientUnits="userSpaceOnUse">
<stop stop-color="#FEBBBA"/>
<stop offset="1" stop-color="#FF928E"/>
</linearGradient>
<linearGradient id="paint10_linear_4_1342" x1="105.552" y1="234.873" x2="74.2729" y2="248.131" gradientUnits="userSpaceOnUse">
<stop stop-color="#09005D"/>
<stop offset="1" stop-color="#1A0F91"/>
</linearGradient>
<linearGradient id="paint11_linear_4_1342" x1="105.091" y1="239.888" x2="68.1816" y2="242.737" gradientUnits="userSpaceOnUse">
<stop stop-color="#FF928E"/>
<stop offset="1" stop-color="#FE7062"/>
</linearGradient>
<linearGradient id="paint12_linear_4_1342" x1="146.182" y1="168.915" x2="102.136" y2="252.396" gradientUnits="userSpaceOnUse">
<stop stop-color="#09005D"/>
<stop offset="1" stop-color="#1A0F91"/>
</linearGradient>
<linearGradient id="paint13_linear_4_1342" x1="133.065" y1="49.1022" x2="123.158" y2="141.202" gradientUnits="userSpaceOnUse">
<stop stop-color="#09005D"/>
<stop offset="1" stop-color="#1A0F91"/>
</linearGradient>
<linearGradient id="paint14_linear_4_1342" x1="225.834" y1="122.13" x2="146.533" y2="133.82" gradientUnits="userSpaceOnUse">
<stop stop-color="#FEBBBA"/>
<stop offset="1" stop-color="#FF928E"/>
</linearGradient>
<linearGradient id="paint15_linear_4_1342" x1="120.394" y1="169.036" x2="164.5" y2="93.4243" gradientUnits="userSpaceOnUse">
<stop stop-color="#FEBBBA"/>
<stop offset="1" stop-color="#FF928E"/>
</linearGradient>
<linearGradient id="paint16_linear_4_1342" x1="192.441" y1="126.018" x2="137.64" y2="173.648" gradientUnits="userSpaceOnUse">
<stop stop-color="#09005D"/>
<stop offset="1" stop-color="#1A0F91"/>
</linearGradient>
<linearGradient id="paint17_linear_4_1342" x1="187.701" y1="185.848" x2="220.68" y2="227.645" gradientUnits="userSpaceOnUse">
<stop stop-color="#FEBBBA"/>
<stop offset="1" stop-color="#FF928E"/>
</linearGradient>
<linearGradient id="paint18_linear_4_1342" x1="195.076" y1="77.9174" x2="168.442" y2="111.38" gradientUnits="userSpaceOnUse">
<stop stop-color="#FF928E"/>
<stop offset="1" stop-color="#FE7062"/>
</linearGradient>
<linearGradient id="paint19_linear_4_1342" x1="149.277" y1="131.806" x2="150.916" y2="111.573" gradientUnits="userSpaceOnUse">
<stop stop-color="#FEBBBA"/>
<stop offset="1" stop-color="#FF928E"/>
</linearGradient>
<linearGradient id="paint20_linear_4_1342" x1="160.929" y1="98.3636" x2="140.111" y2="113.03" gradientUnits="userSpaceOnUse">
<stop stop-color="#FEBBBA"/>
<stop offset="1" stop-color="#FF928E"/>
</linearGradient>
<linearGradient id="paint21_linear_4_1342" x1="159.531" y1="83.7614" x2="108.548" y2="147.013" gradientUnits="userSpaceOnUse">
<stop stop-color="#09005D"/>
<stop offset="1" stop-color="#1A0F91"/>
</linearGradient>
<linearGradient id="paint22_linear_4_1342" x1="205.354" y1="140.874" x2="150.553" y2="188.504" gradientUnits="userSpaceOnUse">
<stop stop-color="#09005D"/>
<stop offset="1" stop-color="#1A0F91"/>
</linearGradient>
<linearGradient id="paint23_linear_4_1342" x1="193.556" y1="192.656" x2="217.898" y2="218.753" gradientUnits="userSpaceOnUse">
<stop stop-color="#09005D"/>
<stop offset="1" stop-color="#1A0F91"/>
</linearGradient>
<linearGradient id="paint24_linear_4_1342" x1="200.168" y1="194.74" x2="215.825" y2="229.016" gradientUnits="userSpaceOnUse">
<stop stop-color="#FF928E"/>
<stop offset="1" stop-color="#FE7062"/>
</linearGradient>
<linearGradient id="paint25_linear_4_1342" x1="200.909" y1="82.5596" x2="174.275" y2="116.022" gradientUnits="userSpaceOnUse">
<stop stop-color="#FF928E"/>
<stop offset="1" stop-color="#FE7062"/>
</linearGradient>
<linearGradient id="paint26_linear_4_1342" x1="181.831" y1="67.3752" x2="155.198" y2="100.838" gradientUnits="userSpaceOnUse">
<stop stop-color="#FF928E"/>
<stop offset="1" stop-color="#FE7062"/>
</linearGradient>
</defs>
</svg>
