<svg width="447" height="701" viewBox="0 0 447 701" fill="none" xmlns="http://www.w3.org/2000/svg">
<rect width="447" height="701" fill="#5D25B7"/>
<path d="M138.239 502.201H137.106V621.236H138.239V502.201Z" fill="#E0E0E0"/>
<path d="M218.913 502.201H217.777V621.236H218.913V502.201Z" fill="#E0E0E0"/>
<path d="M299.583 502.201H298.449V621.236H299.583V502.201Z" fill="#E0E0E0"/>
<path d="M76.3233 487.533H57V490.637H76.3233V487.533Z" fill="#D9D9D9"/>
<path d="M84.4085 493.269H57V496.373H84.4085V493.269Z" fill="#D9D9D9"/>
<path d="M159.488 487.533H136.802V490.637H159.488V487.533Z" fill="#D9D9D9"/>
<path d="M151.308 493.269H136.802V496.373H151.308V493.269Z" fill="#D9D9D9"/>
<path d="M232.97 487.533H218.913V490.637H232.97V487.533Z" fill="#D9D9D9"/>
<path d="M235.297 493.269H218.913V496.373H235.297V493.269Z" fill="#D9D9D9"/>
<path d="M320.062 487.533H299.585V490.637H320.062V487.533Z" fill="#D9D9D9"/>
<path d="M315.97 493.269H299.585V496.373H315.97V493.269Z" fill="#D9D9D9"/>
<path d="M150.509 628.291H137.674V632.427H150.509V628.291Z" fill="#B8B8B8"/>
<path d="M231.748 628.291H218.913V632.427H231.748V628.291Z" fill="#B8B8B8"/>
<path d="M312.42 628.291H299.585V632.427H312.42V628.291Z" fill="#B8B8B8"/>
<path d="M393.091 628.291H380.256V632.427H393.091V628.291Z" fill="#B8B8B8"/>
<g opacity="0.43">
<path opacity="0.43" d="M351.733 585.87C326.571 585.872 304.697 574.993 281.895 563.652C253.745 549.653 224.635 535.178 185.851 539.142C161.085 541.674 145.54 551.76 131.825 560.657C119.406 568.713 107.666 575.8 91.766 576.405C66.0672 577.383 57.1538 566.422 57.0041 565.753V558.72C57.0369 558.841 62.6478 571.143 91.7393 570.997C106.067 570.925 116.641 564.064 128.883 556.12C143.112 546.889 159.238 536.426 185.303 533.761C225.643 529.638 255.467 544.468 284.306 558.81C314.484 573.816 343.28 587.889 379.693 575.679V581.462C369.309 584.945 361.009 585.87 351.733 585.87Z" fill="url(#paint0_linear_72_2)"/>
</g>
<g opacity="0.22">
<path opacity="0.22" d="M200.697 584.523C182.124 584.525 167.393 572.032 152.971 559.806C142.036 550.536 130.691 541.057 117.596 536.381C77.6291 522.111 57.1824 548.168 57 548.396V540.471C57.2152 540.2 60.8642 535.464 71.4156 530.942C81.0219 526.826 97.141 523.542 119.373 531.274C133.459 536.174 145.156 546.092 156.47 555.682C179.418 575.138 199.237 591.94 233.657 565.622C259.725 545.688 284.3 526.69 308.48 519.751C332.128 512.964 356.784 517.933 379.863 541.012L379.693 548.209C330.669 498.97 288.927 530.165 236.943 569.917C223.169 580.446 211.306 584.521 200.697 584.523Z" fill="url(#paint1_linear_72_2)"/>
</g>
<path d="M240.18 473.766L239.36 472.804L252.949 461.228H261.203L279.929 445.275L291.641 455.252H300.278L304.642 458.971L318.205 447.417H325.089L353.629 423.102L354.449 424.064L325.554 448.68H318.67L304.642 460.629L299.812 456.515H291.176L279.929 446.933L261.668 462.491H253.415L240.18 473.766Z" fill="url(#paint2_linear_72_2)"/>
<path d="M242.144 457.774H237.447V456.511H241.619L248.673 449.459L253.8 454.588L266.049 442.337L269.817 446.105L282.236 433.686L289.679 441.128H298.164L311.261 428.032H322.555L330.907 419.68H341.126L351.269 409.539L352.161 410.433L341.651 420.945H331.429L323.08 429.295H311.784L298.687 442.39H289.156L282.236 435.472L269.817 447.89L266.049 444.123L253.8 456.373L248.673 451.244L242.144 457.774Z" fill="url(#paint3_linear_72_2)"/>
<path d="M367.301 460.647C367.292 460.62 367.286 460.593 367.278 460.567C355.216 418.501 325.113 382.544 283.521 364.043H283.517C276.393 360.843 268.915 358.192 261.154 356.102C241.735 350.875 222.168 349.692 203.361 352.02C203.346 352.024 203.326 352.024 203.312 352.028L203.285 352.02C190.629 353.604 178.312 356.765 166.6 361.396C166.578 361.404 166.555 361.414 166.53 361.422C123.516 378.341 88.8206 414.752 75.8908 462.807C54.1869 543.459 101.957 626.41 182.58 648.108C223.982 659.249 265.987 652.075 300.005 631.55L306.355 640.369L336.282 618.818L329.058 608.785C347.085 590.706 360.77 567.812 367.882 541.385C375.278 513.899 374.609 486.139 367.301 460.647ZM256.601 598.782C203.148 617.938 144.282 590.137 125.127 536.682C106.326 484.222 132.752 426.546 184.271 406.314C185.248 405.931 186.23 405.56 187.225 405.204C194.519 402.59 201.911 400.85 209.289 399.93C228.209 397.572 247.031 400.604 263.838 408.111C288.526 419.139 308.859 439.835 318.699 467.302C319.473 469.464 320.173 471.634 320.795 473.812C335.562 525.455 307.892 580.398 256.601 598.782Z" fill="url(#paint4_linear_72_2)"/>
<path d="M397.386 452.06L367.542 460.564L320.997 473.829C320.372 471.648 319.671 469.477 318.898 467.31C309.041 439.805 288.683 419.082 263.96 408.039L283.667 363.906H283.671L285.743 359.261L296.336 335.54C346.532 357.873 382.856 401.284 397.386 452.06Z" fill="#FF8557"/>
<path d="M285.743 359.263L283.671 363.908L263.96 408.041C247.129 400.523 228.282 397.487 209.335 399.849L203.399 351.869L202.778 346.838C222.248 344.421 242.502 345.647 262.609 351.057C270.635 353.213 278.375 355.956 285.743 359.263Z" fill="#0064B5"/>
<path d="M209.335 399.847C201.947 400.767 194.545 402.51 187.241 405.128C186.244 405.484 185.26 405.855 184.282 406.239L166.587 361.256L161.23 347.641C174.108 342.541 187.655 339.062 201.572 337.322L201.603 337.33L202.78 346.836L203.401 351.867L209.335 399.847Z" fill="#004E8C"/>
<path d="M402.445 701H342.963L301.625 643.23L321.013 629.181L340.799 614.845L350.652 628.62L402.445 701Z" fill="url(#paint5_linear_72_2)"/>
<path d="M189.68 326.889C189.68 326.889 187.53 322.941 186.306 321.52C185.082 320.1 181.019 319.034 181.57 317.219C182.124 315.405 187.569 316.194 189.067 317.97C190.566 319.745 195.143 320.376 195.301 321.127C195.459 321.877 193.712 325.979 192.731 326.652C191.751 327.322 189.68 326.889 189.68 326.889Z" fill="#6A75BA"/>
<path d="M180.539 330.233C180.539 330.233 177.036 327.455 175.351 326.637C173.663 325.819 169.51 326.455 169.297 324.571C169.084 322.685 174.393 321.248 176.476 322.281C178.557 323.314 183.009 322.076 183.452 322.703C183.895 323.329 183.922 327.789 183.286 328.794C182.651 329.798 180.539 330.233 180.539 330.233Z" fill="#545D94"/>
<path d="M188.319 337.463C188.319 337.463 189.848 327.006 189.779 325.192C189.758 324.673 192.925 324.866 192.778 325.862C192.456 328.031 193.918 336.438 193.663 337.976C193.409 339.515 188.188 338.433 188.319 337.463Z" fill="#EEA886"/>
<path d="M183.526 340.469C183.526 340.469 180.66 330.315 179.992 328.626C179.695 327.874 182.614 326.711 183.012 328.05C183.633 330.153 188.255 337.304 188.635 338.816C189.014 340.331 183.793 341.41 183.526 340.469Z" fill="#EEA886"/>
<path d="M185.517 347.525C185.517 347.525 182.44 337.148 181.966 336.043L186.818 333.043C186.818 333.043 189.067 339.673 189.383 341.33C189.699 342.988 185.517 347.525 185.517 347.525Z" fill="#D9D3C8"/>
<path d="M271.428 320.106C271.428 320.106 266.742 321.291 264.511 324.835C262.281 328.38 260.354 332.461 256.164 334.315C251.973 336.166 251.947 340.938 252.273 341.674C252.599 342.41 265.471 356.879 268.279 357.439C271.088 357.998 276.346 357.609 275.784 353.89C275.223 350.171 269.71 342.174 272.804 338.14C275.897 334.105 276.676 330.389 276.676 330.389L271.428 320.106Z" fill="#222538"/>
<path d="M270.61 337.412C270.61 337.412 270.473 337.367 270.243 337.346C269.977 337.322 269.589 337.33 269.146 337.477C269.036 337.514 268.89 337.59 268.718 337.691C267.605 338.347 264.968 340.128 264.612 340.171C264.2 340.22 264.548 334.072 264.548 334.072C264.548 334.072 265.95 331.59 266.129 329.956C266.305 328.32 270.61 337.412 270.61 337.412Z" fill="#EEA886"/>
<path d="M237.642 343.837C237.642 343.837 232.492 340.227 226.455 341.35C220.418 342.475 219.768 345.296 217.695 345.425C215.623 345.553 208.698 344.962 203.017 346.619C197.335 348.275 192.542 348.453 191.89 347.98C191.238 347.506 195.441 338.037 195.441 336.733L188.397 334.899C188.397 334.899 186.384 343.304 185.595 345.198C184.75 347.223 183.128 351.038 185.437 354.353C187.745 357.668 194.196 356.174 198.104 356.842C202.009 357.51 219.495 357.082 222.548 356.918C225.863 356.739 235.865 356.266 235.865 356.266L237.642 343.837Z" fill="#D9D3C8"/>
<path d="M279.933 325.122C279.933 325.122 280.261 330.21 279.132 331.736C278.681 332.346 278.373 332.679 278.168 332.857C277.879 333.109 277.654 333.427 277.525 333.79C277.176 334.767 276.961 336.145 276.682 336.438C276.379 336.758 275.501 335.944 275.182 335.942C274.864 335.94 271.764 338.615 271.024 338.068C270.284 337.521 265.762 332.933 266.143 329.788C266.522 326.643 267.91 321.947 273 321.975C278.091 322.004 279.544 323.857 279.933 325.122Z" fill="#EEA886"/>
<path d="M264.552 349.4C264.454 349.61 262.582 352.598 260.532 354.333C259.682 355.052 258.8 355.557 258.001 355.557C257.757 355.557 257.519 355.561 257.287 355.567C254.934 355.63 253.128 355.991 249.95 356.149C246.65 356.313 238.644 355.854 238.409 355.854C238.171 355.854 235.863 356.268 235.863 356.268C235.034 355.261 237.224 343.898 237.638 343.839C238.052 343.779 240.715 344.786 243.261 344.372C245.807 343.958 246.812 343.72 250.6 339.282C254.388 334.843 258.177 333.718 259.774 334.073C261.373 334.427 264.548 334.073 264.548 334.073C264.548 334.073 264.69 349.103 264.552 349.4Z" fill="#FFC955"/>
<path d="M277.795 328.765C277.795 328.765 278.744 331.223 279.247 331.561C279.247 331.561 281.077 329.626 279.903 324.848C278.726 320.071 274.292 319.62 271.43 320.106C267.867 320.711 264.278 332.769 264.464 333.941C264.649 335.116 268.642 327.709 272.141 328.306C275.637 328.904 275.663 329.099 277.795 328.765Z" fill="#222538"/>
<path d="M270.253 337.352C269.987 337.328 269.597 337.346 269.157 337.496C269.046 337.533 268.892 337.588 268.72 337.689C267.902 336.412 267.143 333.386 267.119 333.283C267.664 334.45 270.253 337.352 270.253 337.352Z" fill="#A77860"/>
<path d="M260.532 354.331C259.681 355.05 258.8 355.555 258 355.555C257.757 355.555 257.519 355.559 257.287 355.565L258.449 346.145L260.532 354.331Z" fill="#C29941"/>
<path d="M278.949 370.554L276.678 372.621C274.718 371.571 269.806 368.035 268.861 367.231C267.871 366.387 261.262 360.86 260.354 359.599C259.438 358.338 258.279 345.319 258.396 344.722C258.513 344.134 264.142 343.833 264.78 345.21C264.78 345.21 265.073 352.635 265.225 353.88C265.368 355.122 265.844 356.245 266.697 357.291C267.875 358.738 270.389 362.098 272.822 364.816C273.402 365.462 278.199 369.907 278.949 370.554Z" fill="#EEA886"/>
<path d="M265.243 345.374C265.243 345.374 265.598 335.485 262.381 335.608C258.316 335.764 257.705 340.737 258.257 346.143C258.259 346.145 264.335 346.205 265.243 345.374Z" fill="#FFC955"/>
<path d="M277.855 369.585C277.855 369.585 278.158 370.06 278.595 370.21C279.351 370.466 280.471 369.974 281.024 370.964C281.575 371.956 278.91 374.433 278.195 374.583C277.48 374.732 276.332 373.617 275.434 371.419C274.538 369.222 277.855 369.585 277.855 369.585Z" fill="#EEA886"/>
<path d="M280.79 370.655C280.79 370.655 282.15 371.69 283.525 373.018C284.73 374.185 285.958 375.714 285.649 376.003C285.227 376.399 284.402 375.083 283.129 374.004C281.957 373.01 282.024 373.394 282.024 373.394C282.024 373.394 282.012 373.283 283.08 374.605C284.23 376.026 285.417 377.711 285.063 377.955C284.841 378.109 284.831 378.148 284.329 377.697C284.562 378.014 284.507 378.121 284.384 378.223C283.742 378.76 281.729 376.922 280.93 376.192C281.541 376.756 281.928 377.233 281.309 377.307C280.6 377.391 277.869 374.669 276.797 373.783C275.626 372.82 280.79 370.655 280.79 370.655Z" fill="#EEA886"/>
<path d="M239.954 344.29C239.954 344.29 238.868 352.072 239.403 355.899C239.403 355.899 239.969 356.319 241.094 355.979C241.094 355.979 241.375 347.484 242.006 344.468C242.008 344.468 241.662 344.206 239.954 344.29Z" fill="#E0E0E0"/>
<path d="M241 0H240V350H241V0Z" fill="#E0E0E0"/>
<path d="M371.584 598.639H387.873V597.497H371.584V598.639Z" fill="white"/>
<path d="M371.584 604.45H387.873V599.649H371.584V604.45Z" fill="white"/>
<path d="M363.931 606.782H373.541V606.064H363.931V606.782Z" fill="white"/>
<path d="M363.931 609.039H373.541V607.096H363.931V609.039Z" fill="white"/>
<path d="M390.548 604.795H391.265V591.343H390.548V604.795Z" fill="white"/>
<mask id="mask0_72_2" style="mask-type:alpha" maskUnits="userSpaceOnUse" x="362" y="324" width="18" height="8">
<path d="M362.075 331.512H379.443V324.815H362.075V331.512Z" fill="url(#paint6_linear_72_2)"/>
</mask>
<g mask="url(#mask0_72_2)">
<path d="M362.117 331.328H379.226V324.606H362.117V331.328Z" fill="url(#paint7_linear_72_2)"/>
</g>
<mask id="mask1_72_2" style="mask-type:alpha" maskUnits="userSpaceOnUse" x="362" y="321" width="18" height="2">
<path d="M362.075 322.949H379.443V321.688H362.075V322.949Z" fill="url(#paint8_linear_72_2)"/>
</mask>
<g mask="url(#mask1_72_2)">
<path d="M362.117 322.774H379.226V321.552H362.117V322.774Z" fill="url(#paint9_linear_72_2)"/>
</g>
<defs>
<linearGradient id="paint0_linear_72_2" x1="57.0008" y1="559.467" x2="379.689" y2="559.467" gradientUnits="userSpaceOnUse">
<stop stop-color="#FFC05C"/>
<stop offset="1" stop-color="#FF3857"/>
</linearGradient>
<linearGradient id="paint1_linear_72_2" x1="57.0008" y1="550.735" x2="379.859" y2="550.735" gradientUnits="userSpaceOnUse">
<stop stop-color="#40D5E6"/>
<stop offset="1" stop-color="#5577FF"/>
</linearGradient>
<linearGradient id="paint2_linear_72_2" x1="239.361" y1="448.434" x2="354.448" y2="448.434" gradientUnits="userSpaceOnUse">
<stop stop-color="#8FD6FF"/>
<stop offset="1" stop-color="#BFEBFE"/>
</linearGradient>
<linearGradient id="paint3_linear_72_2" x1="237.446" y1="433.657" x2="352.161" y2="433.657" gradientUnits="userSpaceOnUse">
<stop stop-color="#8FD6FF"/>
<stop offset="1" stop-color="#BFEBFE"/>
</linearGradient>
<linearGradient id="paint4_linear_72_2" x1="258.661" y1="397.315" x2="193.882" y2="581.867" gradientUnits="userSpaceOnUse">
<stop stop-color="#C6CBCF"/>
<stop offset="1" stop-color="#F8F1FE"/>
</linearGradient>
<linearGradient id="paint5_linear_72_2" x1="291.83" y1="586.341" x2="410.08" y2="752.703" gradientUnits="userSpaceOnUse">
<stop stop-color="#C6CBCF"/>
<stop offset="1" stop-color="#F8F1FE"/>
</linearGradient>
<linearGradient id="paint6_linear_72_2" x1="380.32" y1="292.396" x2="360.34" y2="367.135" gradientUnits="userSpaceOnUse">
<stop stop-color="white"/>
<stop offset="1"/>
</linearGradient>
<linearGradient id="paint7_linear_72_2" x1="380.09" y1="292.072" x2="359.714" y2="366.889" gradientUnits="userSpaceOnUse">
<stop stop-color="#40D5E6"/>
<stop offset="1" stop-color="#5577FF"/>
</linearGradient>
<linearGradient id="paint8_linear_72_2" x1="377.391" y1="297.506" x2="361.917" y2="355.39" gradientUnits="userSpaceOnUse">
<stop stop-color="white"/>
<stop offset="1"/>
</linearGradient>
<linearGradient id="paint9_linear_72_2" x1="377.205" y1="298.112" x2="362.415" y2="354.338" gradientUnits="userSpaceOnUse">
<stop stop-color="#40D5E6"/>
<stop offset="1" stop-color="#5577FF"/>
</linearGradient>
</defs>
</svg>
